%TF.GenerationSoftware,KiCad,Pcbnew,(5.99.0-7424-ge38b34a4eb)*%
%TF.CreationDate,2020-12-20T18:04:03+03:00*%
%TF.ProjectId,uSMU_v05,75534d55-5f76-4303-952e-6b696361645f,rev?*%
%TF.SameCoordinates,Original*%
%TF.FileFunction,Legend,Top*%
%TF.FilePolarity,Positive*%
%FSLAX46Y46*%
G04 Gerber Fmt 4.6, Leading zero omitted, Abs format (unit mm)*
G04 Created by KiCad (PCBNEW (5.99.0-7424-ge38b34a4eb)) date 2020-12-20 18:04:03*
%MOMM*%
%LPD*%
G01*
G04 APERTURE LIST*
%ADD10C,0.150000*%
%ADD11C,0.175000*%
%ADD12C,0.250000*%
%ADD13C,0.120000*%
%ADD14C,0.050000*%
G04 APERTURE END LIST*
D10*
X150000000Y-118500000D02*
X142000000Y-118500000D01*
X142000000Y-111000000D02*
X148000000Y-111000000D01*
X150000000Y-112500000D02*
X150000000Y-118500000D01*
X148000000Y-111000000D02*
X148000000Y-111500000D01*
X148000000Y-112500000D02*
X150000000Y-112500000D01*
X162000000Y-137000000D02*
X162000000Y-141000000D01*
X148000000Y-111500000D02*
X148000000Y-112500000D01*
X142000000Y-118500000D02*
X142000000Y-111000000D01*
D11*
X142052916Y-125353166D02*
X142052916Y-124653166D01*
X142219583Y-124653166D01*
X142319583Y-124686500D01*
X142386250Y-124753166D01*
X142419583Y-124819833D01*
X142452916Y-124953166D01*
X142452916Y-125053166D01*
X142419583Y-125186500D01*
X142386250Y-125253166D01*
X142319583Y-125319833D01*
X142219583Y-125353166D01*
X142052916Y-125353166D01*
X142719583Y-125153166D02*
X143052916Y-125153166D01*
X142652916Y-125353166D02*
X142886250Y-124653166D01*
X143119583Y-125353166D01*
X143752916Y-125286500D02*
X143719583Y-125319833D01*
X143619583Y-125353166D01*
X143552916Y-125353166D01*
X143452916Y-125319833D01*
X143386250Y-125253166D01*
X143352916Y-125186500D01*
X143319583Y-125053166D01*
X143319583Y-124953166D01*
X143352916Y-124819833D01*
X143386250Y-124753166D01*
X143452916Y-124686500D01*
X143552916Y-124653166D01*
X143619583Y-124653166D01*
X143719583Y-124686500D01*
X143752916Y-124719833D01*
X142486250Y-126480166D02*
X142419583Y-126446833D01*
X142386250Y-126413500D01*
X142352916Y-126346833D01*
X142352916Y-126146833D01*
X142386250Y-126080166D01*
X142419583Y-126046833D01*
X142486250Y-126013500D01*
X142586250Y-126013500D01*
X142652916Y-126046833D01*
X142686250Y-126080166D01*
X142719583Y-126146833D01*
X142719583Y-126346833D01*
X142686250Y-126413500D01*
X142652916Y-126446833D01*
X142586250Y-126480166D01*
X142486250Y-126480166D01*
X143319583Y-126013500D02*
X143319583Y-126480166D01*
X143019583Y-126013500D02*
X143019583Y-126380166D01*
X143052916Y-126446833D01*
X143119583Y-126480166D01*
X143219583Y-126480166D01*
X143286250Y-126446833D01*
X143319583Y-126413500D01*
X143552916Y-126013500D02*
X143819583Y-126013500D01*
X143652916Y-125780166D02*
X143652916Y-126380166D01*
X143686250Y-126446833D01*
X143752916Y-126480166D01*
X143819583Y-126480166D01*
D10*
X143476190Y-117404761D02*
X143619047Y-117452380D01*
X143857142Y-117452380D01*
X143952380Y-117404761D01*
X144000000Y-117357142D01*
X144047619Y-117261904D01*
X144047619Y-117166666D01*
X144000000Y-117071428D01*
X143952380Y-117023809D01*
X143857142Y-116976190D01*
X143666666Y-116928571D01*
X143571428Y-116880952D01*
X143523809Y-116833333D01*
X143476190Y-116738095D01*
X143476190Y-116642857D01*
X143523809Y-116547619D01*
X143571428Y-116500000D01*
X143666666Y-116452380D01*
X143904761Y-116452380D01*
X144047619Y-116500000D01*
X144476190Y-117452380D02*
X144476190Y-116785714D01*
X144476190Y-116976190D02*
X144523809Y-116880952D01*
X144571428Y-116833333D01*
X144666666Y-116785714D01*
X144761904Y-116785714D01*
X145523809Y-117404761D02*
X145428571Y-117452380D01*
X145238095Y-117452380D01*
X145142857Y-117404761D01*
X145095238Y-117357142D01*
X145047619Y-117261904D01*
X145047619Y-116976190D01*
X145095238Y-116880952D01*
X145142857Y-116833333D01*
X145238095Y-116785714D01*
X145428571Y-116785714D01*
X145523809Y-116833333D01*
D12*
X142928571Y-112452380D02*
X142928571Y-111452380D01*
X144309523Y-112452380D02*
X144214285Y-112404761D01*
X144166666Y-112309523D01*
X144166666Y-111452380D01*
X144690476Y-112452380D02*
X144690476Y-111785714D01*
X144690476Y-111452380D02*
X144642857Y-111500000D01*
X144690476Y-111547619D01*
X144738095Y-111500000D01*
X144690476Y-111452380D01*
X144690476Y-111547619D01*
X145166666Y-112452380D02*
X145166666Y-111785714D01*
X145166666Y-111880952D02*
X145214285Y-111833333D01*
X145309523Y-111785714D01*
X145452380Y-111785714D01*
X145547619Y-111833333D01*
X145595238Y-111928571D01*
X145595238Y-112452380D01*
X145595238Y-111928571D02*
X145642857Y-111833333D01*
X145738095Y-111785714D01*
X145880952Y-111785714D01*
X145976190Y-111833333D01*
X146023809Y-111928571D01*
X146023809Y-112452380D01*
X146500000Y-112452380D02*
X146500000Y-111785714D01*
X146500000Y-111452380D02*
X146452380Y-111500000D01*
X146500000Y-111547619D01*
X146547619Y-111500000D01*
X146500000Y-111452380D01*
X146500000Y-111547619D01*
X146833333Y-111785714D02*
X147214285Y-111785714D01*
X146976190Y-111452380D02*
X146976190Y-112309523D01*
X147023809Y-112404761D01*
X147119047Y-112452380D01*
X147214285Y-112452380D01*
X143019047Y-120199761D02*
X143161904Y-120247380D01*
X143400000Y-120247380D01*
X143495238Y-120199761D01*
X143542857Y-120152142D01*
X143590476Y-120056904D01*
X143590476Y-119961666D01*
X143542857Y-119866428D01*
X143495238Y-119818809D01*
X143400000Y-119771190D01*
X143209523Y-119723571D01*
X143114285Y-119675952D01*
X143066666Y-119628333D01*
X143019047Y-119533095D01*
X143019047Y-119437857D01*
X143066666Y-119342619D01*
X143114285Y-119295000D01*
X143209523Y-119247380D01*
X143447619Y-119247380D01*
X143590476Y-119295000D01*
X144019047Y-120247380D02*
X144019047Y-119247380D01*
X144352380Y-119961666D01*
X144685714Y-119247380D01*
X144685714Y-120247380D01*
X145161904Y-119247380D02*
X145161904Y-120056904D01*
X145209523Y-120152142D01*
X145257142Y-120199761D01*
X145352380Y-120247380D01*
X145542857Y-120247380D01*
X145638095Y-120199761D01*
X145685714Y-120152142D01*
X145733333Y-120056904D01*
X145733333Y-119247380D01*
X143780952Y-120857380D02*
X143971428Y-120857380D01*
X144066666Y-120905000D01*
X144161904Y-121000238D01*
X144209523Y-121190714D01*
X144209523Y-121524047D01*
X144161904Y-121714523D01*
X144066666Y-121809761D01*
X143971428Y-121857380D01*
X143780952Y-121857380D01*
X143685714Y-121809761D01*
X143590476Y-121714523D01*
X143542857Y-121524047D01*
X143542857Y-121190714D01*
X143590476Y-121000238D01*
X143685714Y-120905000D01*
X143780952Y-120857380D01*
X144638095Y-121857380D02*
X144638095Y-120857380D01*
X145209523Y-121857380D01*
X145209523Y-120857380D01*
D11*
X121166666Y-101850000D02*
X121700000Y-101850000D01*
X121433333Y-102116666D02*
X121433333Y-101583333D01*
X121966666Y-101416666D02*
X122400000Y-101416666D01*
X122166666Y-101683333D01*
X122266666Y-101683333D01*
X122333333Y-101716666D01*
X122366666Y-101750000D01*
X122400000Y-101816666D01*
X122400000Y-101983333D01*
X122366666Y-102050000D01*
X122333333Y-102083333D01*
X122266666Y-102116666D01*
X122066666Y-102116666D01*
X122000000Y-102083333D01*
X121966666Y-102050000D01*
X122600000Y-101416666D02*
X122833333Y-102116666D01*
X123066666Y-101416666D01*
X123233333Y-101416666D02*
X123666666Y-101416666D01*
X123433333Y-101683333D01*
X123533333Y-101683333D01*
X123600000Y-101716666D01*
X123633333Y-101750000D01*
X123666666Y-101816666D01*
X123666666Y-101983333D01*
X123633333Y-102050000D01*
X123600000Y-102083333D01*
X123533333Y-102116666D01*
X123333333Y-102116666D01*
X123266666Y-102083333D01*
X123233333Y-102050000D01*
D10*
X161909523Y-134073904D02*
X161909523Y-133273904D01*
X162214285Y-133273904D01*
X162290476Y-133312000D01*
X162328571Y-133350095D01*
X162366666Y-133426285D01*
X162366666Y-133540571D01*
X162328571Y-133616761D01*
X162290476Y-133654857D01*
X162214285Y-133692952D01*
X161909523Y-133692952D01*
X162747619Y-134073904D02*
X162900000Y-134073904D01*
X162976190Y-134035809D01*
X163014285Y-133997714D01*
X163090476Y-133883428D01*
X163128571Y-133731047D01*
X163128571Y-133426285D01*
X163090476Y-133350095D01*
X163052380Y-133312000D01*
X162976190Y-133273904D01*
X162823809Y-133273904D01*
X162747619Y-133312000D01*
X162709523Y-133350095D01*
X162671428Y-133426285D01*
X162671428Y-133616761D01*
X162709523Y-133692952D01*
X162747619Y-133731047D01*
X162823809Y-133769142D01*
X162976190Y-133769142D01*
X163052380Y-133731047D01*
X163090476Y-133692952D01*
X163128571Y-133616761D01*
X161909523Y-135361904D02*
X161909523Y-134561904D01*
X162214285Y-134561904D01*
X162290476Y-134600000D01*
X162328571Y-134638095D01*
X162366666Y-134714285D01*
X162366666Y-134828571D01*
X162328571Y-134904761D01*
X162290476Y-134942857D01*
X162214285Y-134980952D01*
X161909523Y-134980952D01*
X162633333Y-134561904D02*
X163128571Y-134561904D01*
X162861904Y-134866666D01*
X162976190Y-134866666D01*
X163052380Y-134904761D01*
X163090476Y-134942857D01*
X163128571Y-135019047D01*
X163128571Y-135209523D01*
X163090476Y-135285714D01*
X163052380Y-135323809D01*
X162976190Y-135361904D01*
X162747619Y-135361904D01*
X162671428Y-135323809D01*
X162633333Y-135285714D01*
X161909523Y-136649904D02*
X161909523Y-135849904D01*
X162214285Y-135849904D01*
X162290476Y-135888000D01*
X162328571Y-135926095D01*
X162366666Y-136002285D01*
X162366666Y-136116571D01*
X162328571Y-136192761D01*
X162290476Y-136230857D01*
X162214285Y-136268952D01*
X161909523Y-136268952D01*
X163128571Y-136649904D02*
X162671428Y-136649904D01*
X162900000Y-136649904D02*
X162900000Y-135849904D01*
X162823809Y-135964190D01*
X162747619Y-136040380D01*
X162671428Y-136078476D01*
X143357142Y-114404761D02*
X143500000Y-114452380D01*
X143738095Y-114452380D01*
X143833333Y-114404761D01*
X143880952Y-114357142D01*
X143928571Y-114261904D01*
X143928571Y-114166666D01*
X143880952Y-114071428D01*
X143833333Y-114023809D01*
X143738095Y-113976190D01*
X143547619Y-113928571D01*
X143452380Y-113880952D01*
X143404761Y-113833333D01*
X143357142Y-113738095D01*
X143357142Y-113642857D01*
X143404761Y-113547619D01*
X143452380Y-113500000D01*
X143547619Y-113452380D01*
X143785714Y-113452380D01*
X143928571Y-113500000D01*
X144357142Y-113785714D02*
X144357142Y-114452380D01*
X144357142Y-113880952D02*
X144404761Y-113833333D01*
X144500000Y-113785714D01*
X144642857Y-113785714D01*
X144738095Y-113833333D01*
X144785714Y-113928571D01*
X144785714Y-114452380D01*
X145261904Y-114452380D02*
X145261904Y-113452380D01*
X145357142Y-114071428D02*
X145642857Y-114452380D01*
X145642857Y-113785714D02*
X145261904Y-114166666D01*
X145852380Y-135785904D02*
X145852380Y-134985904D01*
X146119047Y-135557333D01*
X146385714Y-134985904D01*
X146385714Y-135785904D01*
X146804761Y-135785904D02*
X146957142Y-135785904D01*
X147033333Y-135747809D01*
X147071428Y-135709714D01*
X147147619Y-135595428D01*
X147185714Y-135443047D01*
X147185714Y-135138285D01*
X147147619Y-135062095D01*
X147109523Y-135024000D01*
X147033333Y-134985904D01*
X146880952Y-134985904D01*
X146804761Y-135024000D01*
X146766666Y-135062095D01*
X146728571Y-135138285D01*
X146728571Y-135328761D01*
X146766666Y-135404952D01*
X146804761Y-135443047D01*
X146880952Y-135481142D01*
X147033333Y-135481142D01*
X147109523Y-135443047D01*
X147147619Y-135404952D01*
X147185714Y-135328761D01*
X145852380Y-138361904D02*
X145852380Y-137561904D01*
X146119047Y-138133333D01*
X146385714Y-137561904D01*
X146385714Y-138361904D01*
X146690476Y-137561904D02*
X147185714Y-137561904D01*
X146919047Y-137866666D01*
X147033333Y-137866666D01*
X147109523Y-137904761D01*
X147147619Y-137942857D01*
X147185714Y-138019047D01*
X147185714Y-138209523D01*
X147147619Y-138285714D01*
X147109523Y-138323809D01*
X147033333Y-138361904D01*
X146804761Y-138361904D01*
X146728571Y-138323809D01*
X146690476Y-138285714D01*
X145852380Y-140937904D02*
X145852380Y-140137904D01*
X146119047Y-140709333D01*
X146385714Y-140137904D01*
X146385714Y-140937904D01*
X147185714Y-140937904D02*
X146728571Y-140937904D01*
X146957142Y-140937904D02*
X146957142Y-140137904D01*
X146880952Y-140252190D01*
X146804761Y-140328380D01*
X146728571Y-140366476D01*
D12*
X131795238Y-102942857D02*
X131747619Y-103085714D01*
X131747619Y-103323809D01*
X131795238Y-103419047D01*
X131842857Y-103466666D01*
X131938095Y-103514285D01*
X132033333Y-103514285D01*
X132128571Y-103466666D01*
X132176190Y-103419047D01*
X132223809Y-103323809D01*
X132271428Y-103133333D01*
X132319047Y-103038095D01*
X132366666Y-102990476D01*
X132461904Y-102942857D01*
X132557142Y-102942857D01*
X132652380Y-102990476D01*
X132700000Y-103038095D01*
X132747619Y-103133333D01*
X132747619Y-103371428D01*
X132700000Y-103514285D01*
X132747619Y-103847619D02*
X131747619Y-104085714D01*
X132461904Y-104276190D01*
X131747619Y-104466666D01*
X132747619Y-104704761D01*
X131747619Y-105085714D02*
X132747619Y-105085714D01*
X132747619Y-105323809D01*
X132700000Y-105466666D01*
X132604761Y-105561904D01*
X132509523Y-105609523D01*
X132319047Y-105657142D01*
X132176190Y-105657142D01*
X131985714Y-105609523D01*
X131890476Y-105561904D01*
X131795238Y-105466666D01*
X131747619Y-105323809D01*
X131747619Y-105085714D01*
X159400595Y-111952380D02*
X159400595Y-110952380D01*
X159638690Y-110952380D01*
X159781547Y-111000000D01*
X159876785Y-111095238D01*
X159924404Y-111190476D01*
X159972023Y-111380952D01*
X159972023Y-111523809D01*
X159924404Y-111714285D01*
X159876785Y-111809523D01*
X159781547Y-111904761D01*
X159638690Y-111952380D01*
X159400595Y-111952380D01*
X160400595Y-110952380D02*
X160400595Y-111761904D01*
X160448214Y-111857142D01*
X160495833Y-111904761D01*
X160591071Y-111952380D01*
X160781547Y-111952380D01*
X160876785Y-111904761D01*
X160924404Y-111857142D01*
X160972023Y-111761904D01*
X160972023Y-110952380D01*
X161305357Y-110952380D02*
X161876785Y-110952380D01*
X161591071Y-111952380D02*
X161591071Y-110952380D01*
X162210119Y-111571428D02*
X162972023Y-111571428D01*
X162591071Y-111952380D02*
X162591071Y-111190476D01*
D10*
%TO.C,R26*%
X138517857Y-103909285D02*
X138267857Y-103552142D01*
X138089285Y-103909285D02*
X138089285Y-103159285D01*
X138375000Y-103159285D01*
X138446428Y-103195000D01*
X138482142Y-103230714D01*
X138517857Y-103302142D01*
X138517857Y-103409285D01*
X138482142Y-103480714D01*
X138446428Y-103516428D01*
X138375000Y-103552142D01*
X138089285Y-103552142D01*
X138803571Y-103230714D02*
X138839285Y-103195000D01*
X138910714Y-103159285D01*
X139089285Y-103159285D01*
X139160714Y-103195000D01*
X139196428Y-103230714D01*
X139232142Y-103302142D01*
X139232142Y-103373571D01*
X139196428Y-103480714D01*
X138767857Y-103909285D01*
X139232142Y-103909285D01*
X139875000Y-103159285D02*
X139732142Y-103159285D01*
X139660714Y-103195000D01*
X139625000Y-103230714D01*
X139553571Y-103337857D01*
X139517857Y-103480714D01*
X139517857Y-103766428D01*
X139553571Y-103837857D01*
X139589285Y-103873571D01*
X139660714Y-103909285D01*
X139803571Y-103909285D01*
X139875000Y-103873571D01*
X139910714Y-103837857D01*
X139946428Y-103766428D01*
X139946428Y-103587857D01*
X139910714Y-103516428D01*
X139875000Y-103480714D01*
X139803571Y-103445000D01*
X139660714Y-103445000D01*
X139589285Y-103480714D01*
X139553571Y-103516428D01*
X139517857Y-103587857D01*
%TO.C,C8*%
X135875000Y-115837857D02*
X135839285Y-115873571D01*
X135732142Y-115909285D01*
X135660714Y-115909285D01*
X135553571Y-115873571D01*
X135482142Y-115802142D01*
X135446428Y-115730714D01*
X135410714Y-115587857D01*
X135410714Y-115480714D01*
X135446428Y-115337857D01*
X135482142Y-115266428D01*
X135553571Y-115195000D01*
X135660714Y-115159285D01*
X135732142Y-115159285D01*
X135839285Y-115195000D01*
X135875000Y-115230714D01*
X136303571Y-115480714D02*
X136232142Y-115445000D01*
X136196428Y-115409285D01*
X136160714Y-115337857D01*
X136160714Y-115302142D01*
X136196428Y-115230714D01*
X136232142Y-115195000D01*
X136303571Y-115159285D01*
X136446428Y-115159285D01*
X136517857Y-115195000D01*
X136553571Y-115230714D01*
X136589285Y-115302142D01*
X136589285Y-115337857D01*
X136553571Y-115409285D01*
X136517857Y-115445000D01*
X136446428Y-115480714D01*
X136303571Y-115480714D01*
X136232142Y-115516428D01*
X136196428Y-115552142D01*
X136160714Y-115623571D01*
X136160714Y-115766428D01*
X136196428Y-115837857D01*
X136232142Y-115873571D01*
X136303571Y-115909285D01*
X136446428Y-115909285D01*
X136517857Y-115873571D01*
X136553571Y-115837857D01*
X136589285Y-115766428D01*
X136589285Y-115623571D01*
X136553571Y-115552142D01*
X136517857Y-115516428D01*
X136446428Y-115480714D01*
%TO.C,R4*%
X131769285Y-111725000D02*
X131412142Y-111975000D01*
X131769285Y-112153571D02*
X131019285Y-112153571D01*
X131019285Y-111867857D01*
X131055000Y-111796428D01*
X131090714Y-111760714D01*
X131162142Y-111725000D01*
X131269285Y-111725000D01*
X131340714Y-111760714D01*
X131376428Y-111796428D01*
X131412142Y-111867857D01*
X131412142Y-112153571D01*
X131269285Y-111082142D02*
X131769285Y-111082142D01*
X130983571Y-111260714D02*
X131519285Y-111439285D01*
X131519285Y-110975000D01*
%TO.C,R16*%
X127289285Y-112082142D02*
X126932142Y-112332142D01*
X127289285Y-112510714D02*
X126539285Y-112510714D01*
X126539285Y-112225000D01*
X126575000Y-112153571D01*
X126610714Y-112117857D01*
X126682142Y-112082142D01*
X126789285Y-112082142D01*
X126860714Y-112117857D01*
X126896428Y-112153571D01*
X126932142Y-112225000D01*
X126932142Y-112510714D01*
X127289285Y-111367857D02*
X127289285Y-111796428D01*
X127289285Y-111582142D02*
X126539285Y-111582142D01*
X126646428Y-111653571D01*
X126717857Y-111725000D01*
X126753571Y-111796428D01*
X126539285Y-110725000D02*
X126539285Y-110867857D01*
X126575000Y-110939285D01*
X126610714Y-110975000D01*
X126717857Y-111046428D01*
X126860714Y-111082142D01*
X127146428Y-111082142D01*
X127217857Y-111046428D01*
X127253571Y-111010714D01*
X127289285Y-110939285D01*
X127289285Y-110796428D01*
X127253571Y-110725000D01*
X127217857Y-110689285D01*
X127146428Y-110653571D01*
X126967857Y-110653571D01*
X126896428Y-110689285D01*
X126860714Y-110725000D01*
X126825000Y-110796428D01*
X126825000Y-110939285D01*
X126860714Y-111010714D01*
X126896428Y-111046428D01*
X126967857Y-111082142D01*
%TO.C,C30*%
X118917857Y-132067857D02*
X118882142Y-132103571D01*
X118775000Y-132139285D01*
X118703571Y-132139285D01*
X118596428Y-132103571D01*
X118525000Y-132032142D01*
X118489285Y-131960714D01*
X118453571Y-131817857D01*
X118453571Y-131710714D01*
X118489285Y-131567857D01*
X118525000Y-131496428D01*
X118596428Y-131425000D01*
X118703571Y-131389285D01*
X118775000Y-131389285D01*
X118882142Y-131425000D01*
X118917857Y-131460714D01*
X119167857Y-131389285D02*
X119632142Y-131389285D01*
X119382142Y-131675000D01*
X119489285Y-131675000D01*
X119560714Y-131710714D01*
X119596428Y-131746428D01*
X119632142Y-131817857D01*
X119632142Y-131996428D01*
X119596428Y-132067857D01*
X119560714Y-132103571D01*
X119489285Y-132139285D01*
X119275000Y-132139285D01*
X119203571Y-132103571D01*
X119167857Y-132067857D01*
X120096428Y-131389285D02*
X120167857Y-131389285D01*
X120239285Y-131425000D01*
X120275000Y-131460714D01*
X120310714Y-131532142D01*
X120346428Y-131675000D01*
X120346428Y-131853571D01*
X120310714Y-131996428D01*
X120275000Y-132067857D01*
X120239285Y-132103571D01*
X120167857Y-132139285D01*
X120096428Y-132139285D01*
X120025000Y-132103571D01*
X119989285Y-132067857D01*
X119953571Y-131996428D01*
X119917857Y-131853571D01*
X119917857Y-131675000D01*
X119953571Y-131532142D01*
X119989285Y-131460714D01*
X120025000Y-131425000D01*
X120096428Y-131389285D01*
%TO.C,R21*%
X150767857Y-106269285D02*
X150517857Y-105912142D01*
X150339285Y-106269285D02*
X150339285Y-105519285D01*
X150625000Y-105519285D01*
X150696428Y-105555000D01*
X150732142Y-105590714D01*
X150767857Y-105662142D01*
X150767857Y-105769285D01*
X150732142Y-105840714D01*
X150696428Y-105876428D01*
X150625000Y-105912142D01*
X150339285Y-105912142D01*
X151053571Y-105590714D02*
X151089285Y-105555000D01*
X151160714Y-105519285D01*
X151339285Y-105519285D01*
X151410714Y-105555000D01*
X151446428Y-105590714D01*
X151482142Y-105662142D01*
X151482142Y-105733571D01*
X151446428Y-105840714D01*
X151017857Y-106269285D01*
X151482142Y-106269285D01*
X152196428Y-106269285D02*
X151767857Y-106269285D01*
X151982142Y-106269285D02*
X151982142Y-105519285D01*
X151910714Y-105626428D01*
X151839285Y-105697857D01*
X151767857Y-105733571D01*
%TO.C,U10*%
X119789285Y-127128571D02*
X120396428Y-127128571D01*
X120467857Y-127092857D01*
X120503571Y-127057142D01*
X120539285Y-126985714D01*
X120539285Y-126842857D01*
X120503571Y-126771428D01*
X120467857Y-126735714D01*
X120396428Y-126700000D01*
X119789285Y-126700000D01*
X120539285Y-125950000D02*
X120539285Y-126378571D01*
X120539285Y-126164285D02*
X119789285Y-126164285D01*
X119896428Y-126235714D01*
X119967857Y-126307142D01*
X120003571Y-126378571D01*
X119789285Y-125485714D02*
X119789285Y-125414285D01*
X119825000Y-125342857D01*
X119860714Y-125307142D01*
X119932142Y-125271428D01*
X120075000Y-125235714D01*
X120253571Y-125235714D01*
X120396428Y-125271428D01*
X120467857Y-125307142D01*
X120503571Y-125342857D01*
X120539285Y-125414285D01*
X120539285Y-125485714D01*
X120503571Y-125557142D01*
X120467857Y-125592857D01*
X120396428Y-125628571D01*
X120253571Y-125664285D01*
X120075000Y-125664285D01*
X119932142Y-125628571D01*
X119860714Y-125592857D01*
X119825000Y-125557142D01*
X119789285Y-125485714D01*
%TO.C,R8*%
X146409285Y-124125000D02*
X146052142Y-124375000D01*
X146409285Y-124553571D02*
X145659285Y-124553571D01*
X145659285Y-124267857D01*
X145695000Y-124196428D01*
X145730714Y-124160714D01*
X145802142Y-124125000D01*
X145909285Y-124125000D01*
X145980714Y-124160714D01*
X146016428Y-124196428D01*
X146052142Y-124267857D01*
X146052142Y-124553571D01*
X145980714Y-123696428D02*
X145945000Y-123767857D01*
X145909285Y-123803571D01*
X145837857Y-123839285D01*
X145802142Y-123839285D01*
X145730714Y-123803571D01*
X145695000Y-123767857D01*
X145659285Y-123696428D01*
X145659285Y-123553571D01*
X145695000Y-123482142D01*
X145730714Y-123446428D01*
X145802142Y-123410714D01*
X145837857Y-123410714D01*
X145909285Y-123446428D01*
X145945000Y-123482142D01*
X145980714Y-123553571D01*
X145980714Y-123696428D01*
X146016428Y-123767857D01*
X146052142Y-123803571D01*
X146123571Y-123839285D01*
X146266428Y-123839285D01*
X146337857Y-123803571D01*
X146373571Y-123767857D01*
X146409285Y-123696428D01*
X146409285Y-123553571D01*
X146373571Y-123482142D01*
X146337857Y-123446428D01*
X146266428Y-123410714D01*
X146123571Y-123410714D01*
X146052142Y-123446428D01*
X146016428Y-123482142D01*
X145980714Y-123553571D01*
%TO.C,C13*%
X144867857Y-106682142D02*
X144903571Y-106717857D01*
X144939285Y-106825000D01*
X144939285Y-106896428D01*
X144903571Y-107003571D01*
X144832142Y-107075000D01*
X144760714Y-107110714D01*
X144617857Y-107146428D01*
X144510714Y-107146428D01*
X144367857Y-107110714D01*
X144296428Y-107075000D01*
X144225000Y-107003571D01*
X144189285Y-106896428D01*
X144189285Y-106825000D01*
X144225000Y-106717857D01*
X144260714Y-106682142D01*
X144939285Y-105967857D02*
X144939285Y-106396428D01*
X144939285Y-106182142D02*
X144189285Y-106182142D01*
X144296428Y-106253571D01*
X144367857Y-106325000D01*
X144403571Y-106396428D01*
X144189285Y-105717857D02*
X144189285Y-105253571D01*
X144475000Y-105503571D01*
X144475000Y-105396428D01*
X144510714Y-105325000D01*
X144546428Y-105289285D01*
X144617857Y-105253571D01*
X144796428Y-105253571D01*
X144867857Y-105289285D01*
X144903571Y-105325000D01*
X144939285Y-105396428D01*
X144939285Y-105610714D01*
X144903571Y-105682142D01*
X144867857Y-105717857D01*
%TO.C,R19*%
X163317857Y-132569285D02*
X163067857Y-132212142D01*
X162889285Y-132569285D02*
X162889285Y-131819285D01*
X163175000Y-131819285D01*
X163246428Y-131855000D01*
X163282142Y-131890714D01*
X163317857Y-131962142D01*
X163317857Y-132069285D01*
X163282142Y-132140714D01*
X163246428Y-132176428D01*
X163175000Y-132212142D01*
X162889285Y-132212142D01*
X164032142Y-132569285D02*
X163603571Y-132569285D01*
X163817857Y-132569285D02*
X163817857Y-131819285D01*
X163746428Y-131926428D01*
X163675000Y-131997857D01*
X163603571Y-132033571D01*
X164389285Y-132569285D02*
X164532142Y-132569285D01*
X164603571Y-132533571D01*
X164639285Y-132497857D01*
X164710714Y-132390714D01*
X164746428Y-132247857D01*
X164746428Y-131962142D01*
X164710714Y-131890714D01*
X164675000Y-131855000D01*
X164603571Y-131819285D01*
X164460714Y-131819285D01*
X164389285Y-131855000D01*
X164353571Y-131890714D01*
X164317857Y-131962142D01*
X164317857Y-132140714D01*
X164353571Y-132212142D01*
X164389285Y-132247857D01*
X164460714Y-132283571D01*
X164603571Y-132283571D01*
X164675000Y-132247857D01*
X164710714Y-132212142D01*
X164746428Y-132140714D01*
%TO.C,Isense1*%
X152053571Y-132539285D02*
X152053571Y-131789285D01*
X152375000Y-132503571D02*
X152446428Y-132539285D01*
X152589285Y-132539285D01*
X152660714Y-132503571D01*
X152696428Y-132432142D01*
X152696428Y-132396428D01*
X152660714Y-132325000D01*
X152589285Y-132289285D01*
X152482142Y-132289285D01*
X152410714Y-132253571D01*
X152375000Y-132182142D01*
X152375000Y-132146428D01*
X152410714Y-132075000D01*
X152482142Y-132039285D01*
X152589285Y-132039285D01*
X152660714Y-132075000D01*
X153303571Y-132503571D02*
X153232142Y-132539285D01*
X153089285Y-132539285D01*
X153017857Y-132503571D01*
X152982142Y-132432142D01*
X152982142Y-132146428D01*
X153017857Y-132075000D01*
X153089285Y-132039285D01*
X153232142Y-132039285D01*
X153303571Y-132075000D01*
X153339285Y-132146428D01*
X153339285Y-132217857D01*
X152982142Y-132289285D01*
X153660714Y-132039285D02*
X153660714Y-132539285D01*
X153660714Y-132110714D02*
X153696428Y-132075000D01*
X153767857Y-132039285D01*
X153875000Y-132039285D01*
X153946428Y-132075000D01*
X153982142Y-132146428D01*
X153982142Y-132539285D01*
X154303571Y-132503571D02*
X154375000Y-132539285D01*
X154517857Y-132539285D01*
X154589285Y-132503571D01*
X154625000Y-132432142D01*
X154625000Y-132396428D01*
X154589285Y-132325000D01*
X154517857Y-132289285D01*
X154410714Y-132289285D01*
X154339285Y-132253571D01*
X154303571Y-132182142D01*
X154303571Y-132146428D01*
X154339285Y-132075000D01*
X154410714Y-132039285D01*
X154517857Y-132039285D01*
X154589285Y-132075000D01*
X155232142Y-132503571D02*
X155160714Y-132539285D01*
X155017857Y-132539285D01*
X154946428Y-132503571D01*
X154910714Y-132432142D01*
X154910714Y-132146428D01*
X154946428Y-132075000D01*
X155017857Y-132039285D01*
X155160714Y-132039285D01*
X155232142Y-132075000D01*
X155267857Y-132146428D01*
X155267857Y-132217857D01*
X154910714Y-132289285D01*
X155982142Y-132539285D02*
X155553571Y-132539285D01*
X155767857Y-132539285D02*
X155767857Y-131789285D01*
X155696428Y-131896428D01*
X155625000Y-131967857D01*
X155553571Y-132003571D01*
%TO.C,R46*%
X104339285Y-114882142D02*
X103982142Y-115132142D01*
X104339285Y-115310714D02*
X103589285Y-115310714D01*
X103589285Y-115025000D01*
X103625000Y-114953571D01*
X103660714Y-114917857D01*
X103732142Y-114882142D01*
X103839285Y-114882142D01*
X103910714Y-114917857D01*
X103946428Y-114953571D01*
X103982142Y-115025000D01*
X103982142Y-115310714D01*
X103839285Y-114239285D02*
X104339285Y-114239285D01*
X103553571Y-114417857D02*
X104089285Y-114596428D01*
X104089285Y-114132142D01*
X103589285Y-113525000D02*
X103589285Y-113667857D01*
X103625000Y-113739285D01*
X103660714Y-113775000D01*
X103767857Y-113846428D01*
X103910714Y-113882142D01*
X104196428Y-113882142D01*
X104267857Y-113846428D01*
X104303571Y-113810714D01*
X104339285Y-113739285D01*
X104339285Y-113596428D01*
X104303571Y-113525000D01*
X104267857Y-113489285D01*
X104196428Y-113453571D01*
X104017857Y-113453571D01*
X103946428Y-113489285D01*
X103910714Y-113525000D01*
X103875000Y-113596428D01*
X103875000Y-113739285D01*
X103910714Y-113810714D01*
X103946428Y-113846428D01*
X104017857Y-113882142D01*
%TO.C,R32*%
X136889285Y-131482142D02*
X136532142Y-131732142D01*
X136889285Y-131910714D02*
X136139285Y-131910714D01*
X136139285Y-131625000D01*
X136175000Y-131553571D01*
X136210714Y-131517857D01*
X136282142Y-131482142D01*
X136389285Y-131482142D01*
X136460714Y-131517857D01*
X136496428Y-131553571D01*
X136532142Y-131625000D01*
X136532142Y-131910714D01*
X136139285Y-131232142D02*
X136139285Y-130767857D01*
X136425000Y-131017857D01*
X136425000Y-130910714D01*
X136460714Y-130839285D01*
X136496428Y-130803571D01*
X136567857Y-130767857D01*
X136746428Y-130767857D01*
X136817857Y-130803571D01*
X136853571Y-130839285D01*
X136889285Y-130910714D01*
X136889285Y-131125000D01*
X136853571Y-131196428D01*
X136817857Y-131232142D01*
X136210714Y-130482142D02*
X136175000Y-130446428D01*
X136139285Y-130375000D01*
X136139285Y-130196428D01*
X136175000Y-130125000D01*
X136210714Y-130089285D01*
X136282142Y-130053571D01*
X136353571Y-130053571D01*
X136460714Y-130089285D01*
X136889285Y-130517857D01*
X136889285Y-130053571D01*
%TO.C,R44*%
X105939285Y-114882142D02*
X105582142Y-115132142D01*
X105939285Y-115310714D02*
X105189285Y-115310714D01*
X105189285Y-115025000D01*
X105225000Y-114953571D01*
X105260714Y-114917857D01*
X105332142Y-114882142D01*
X105439285Y-114882142D01*
X105510714Y-114917857D01*
X105546428Y-114953571D01*
X105582142Y-115025000D01*
X105582142Y-115310714D01*
X105439285Y-114239285D02*
X105939285Y-114239285D01*
X105153571Y-114417857D02*
X105689285Y-114596428D01*
X105689285Y-114132142D01*
X105439285Y-113525000D02*
X105939285Y-113525000D01*
X105153571Y-113703571D02*
X105689285Y-113882142D01*
X105689285Y-113417857D01*
%TO.C,U2*%
X129789285Y-129971428D02*
X130396428Y-129971428D01*
X130467857Y-129935714D01*
X130503571Y-129900000D01*
X130539285Y-129828571D01*
X130539285Y-129685714D01*
X130503571Y-129614285D01*
X130467857Y-129578571D01*
X130396428Y-129542857D01*
X129789285Y-129542857D01*
X129860714Y-129221428D02*
X129825000Y-129185714D01*
X129789285Y-129114285D01*
X129789285Y-128935714D01*
X129825000Y-128864285D01*
X129860714Y-128828571D01*
X129932142Y-128792857D01*
X130003571Y-128792857D01*
X130110714Y-128828571D01*
X130539285Y-129257142D01*
X130539285Y-128792857D01*
%TO.C,TP3*%
X132253571Y-114189285D02*
X132682142Y-114189285D01*
X132467857Y-114939285D02*
X132467857Y-114189285D01*
X132932142Y-114939285D02*
X132932142Y-114189285D01*
X133217857Y-114189285D01*
X133289285Y-114225000D01*
X133325000Y-114260714D01*
X133360714Y-114332142D01*
X133360714Y-114439285D01*
X133325000Y-114510714D01*
X133289285Y-114546428D01*
X133217857Y-114582142D01*
X132932142Y-114582142D01*
X133610714Y-114189285D02*
X134075000Y-114189285D01*
X133825000Y-114475000D01*
X133932142Y-114475000D01*
X134003571Y-114510714D01*
X134039285Y-114546428D01*
X134075000Y-114617857D01*
X134075000Y-114796428D01*
X134039285Y-114867857D01*
X134003571Y-114903571D01*
X133932142Y-114939285D01*
X133717857Y-114939285D01*
X133646428Y-114903571D01*
X133610714Y-114867857D01*
%TO.C,R31*%
X137139285Y-141282142D02*
X136782142Y-141532142D01*
X137139285Y-141710714D02*
X136389285Y-141710714D01*
X136389285Y-141425000D01*
X136425000Y-141353571D01*
X136460714Y-141317857D01*
X136532142Y-141282142D01*
X136639285Y-141282142D01*
X136710714Y-141317857D01*
X136746428Y-141353571D01*
X136782142Y-141425000D01*
X136782142Y-141710714D01*
X136389285Y-141032142D02*
X136389285Y-140567857D01*
X136675000Y-140817857D01*
X136675000Y-140710714D01*
X136710714Y-140639285D01*
X136746428Y-140603571D01*
X136817857Y-140567857D01*
X136996428Y-140567857D01*
X137067857Y-140603571D01*
X137103571Y-140639285D01*
X137139285Y-140710714D01*
X137139285Y-140925000D01*
X137103571Y-140996428D01*
X137067857Y-141032142D01*
X137139285Y-139853571D02*
X137139285Y-140282142D01*
X137139285Y-140067857D02*
X136389285Y-140067857D01*
X136496428Y-140139285D01*
X136567857Y-140210714D01*
X136603571Y-140282142D01*
%TO.C,R7*%
X152269285Y-124125000D02*
X151912142Y-124375000D01*
X152269285Y-124553571D02*
X151519285Y-124553571D01*
X151519285Y-124267857D01*
X151555000Y-124196428D01*
X151590714Y-124160714D01*
X151662142Y-124125000D01*
X151769285Y-124125000D01*
X151840714Y-124160714D01*
X151876428Y-124196428D01*
X151912142Y-124267857D01*
X151912142Y-124553571D01*
X151519285Y-123875000D02*
X151519285Y-123375000D01*
X152269285Y-123696428D01*
%TO.C,U5*%
X139928571Y-116589285D02*
X139928571Y-117196428D01*
X139964285Y-117267857D01*
X140000000Y-117303571D01*
X140071428Y-117339285D01*
X140214285Y-117339285D01*
X140285714Y-117303571D01*
X140321428Y-117267857D01*
X140357142Y-117196428D01*
X140357142Y-116589285D01*
X141071428Y-116589285D02*
X140714285Y-116589285D01*
X140678571Y-116946428D01*
X140714285Y-116910714D01*
X140785714Y-116875000D01*
X140964285Y-116875000D01*
X141035714Y-116910714D01*
X141071428Y-116946428D01*
X141107142Y-117017857D01*
X141107142Y-117196428D01*
X141071428Y-117267857D01*
X141035714Y-117303571D01*
X140964285Y-117339285D01*
X140785714Y-117339285D01*
X140714285Y-117303571D01*
X140678571Y-117267857D01*
%TO.C,D5*%
X106702380Y-134988095D02*
X105702380Y-134988095D01*
X105702380Y-134750000D01*
X105750000Y-134607142D01*
X105845238Y-134511904D01*
X105940476Y-134464285D01*
X106130952Y-134416666D01*
X106273809Y-134416666D01*
X106464285Y-134464285D01*
X106559523Y-134511904D01*
X106654761Y-134607142D01*
X106702380Y-134750000D01*
X106702380Y-134988095D01*
X105702380Y-133511904D02*
X105702380Y-133988095D01*
X106178571Y-134035714D01*
X106130952Y-133988095D01*
X106083333Y-133892857D01*
X106083333Y-133654761D01*
X106130952Y-133559523D01*
X106178571Y-133511904D01*
X106273809Y-133464285D01*
X106511904Y-133464285D01*
X106607142Y-133511904D01*
X106654761Y-133559523D01*
X106702380Y-133654761D01*
X106702380Y-133892857D01*
X106654761Y-133988095D01*
X106607142Y-134035714D01*
%TO.C,U7*%
X153928571Y-140589285D02*
X153928571Y-141196428D01*
X153964285Y-141267857D01*
X154000000Y-141303571D01*
X154071428Y-141339285D01*
X154214285Y-141339285D01*
X154285714Y-141303571D01*
X154321428Y-141267857D01*
X154357142Y-141196428D01*
X154357142Y-140589285D01*
X154642857Y-140589285D02*
X155142857Y-140589285D01*
X154821428Y-141339285D01*
%TO.C,C16*%
X129867857Y-126882142D02*
X129903571Y-126917857D01*
X129939285Y-127025000D01*
X129939285Y-127096428D01*
X129903571Y-127203571D01*
X129832142Y-127275000D01*
X129760714Y-127310714D01*
X129617857Y-127346428D01*
X129510714Y-127346428D01*
X129367857Y-127310714D01*
X129296428Y-127275000D01*
X129225000Y-127203571D01*
X129189285Y-127096428D01*
X129189285Y-127025000D01*
X129225000Y-126917857D01*
X129260714Y-126882142D01*
X129939285Y-126167857D02*
X129939285Y-126596428D01*
X129939285Y-126382142D02*
X129189285Y-126382142D01*
X129296428Y-126453571D01*
X129367857Y-126525000D01*
X129403571Y-126596428D01*
X129189285Y-125525000D02*
X129189285Y-125667857D01*
X129225000Y-125739285D01*
X129260714Y-125775000D01*
X129367857Y-125846428D01*
X129510714Y-125882142D01*
X129796428Y-125882142D01*
X129867857Y-125846428D01*
X129903571Y-125810714D01*
X129939285Y-125739285D01*
X129939285Y-125596428D01*
X129903571Y-125525000D01*
X129867857Y-125489285D01*
X129796428Y-125453571D01*
X129617857Y-125453571D01*
X129546428Y-125489285D01*
X129510714Y-125525000D01*
X129475000Y-125596428D01*
X129475000Y-125739285D01*
X129510714Y-125810714D01*
X129546428Y-125846428D01*
X129617857Y-125882142D01*
%TO.C,C22*%
X114917857Y-118897857D02*
X114882142Y-118933571D01*
X114775000Y-118969285D01*
X114703571Y-118969285D01*
X114596428Y-118933571D01*
X114525000Y-118862142D01*
X114489285Y-118790714D01*
X114453571Y-118647857D01*
X114453571Y-118540714D01*
X114489285Y-118397857D01*
X114525000Y-118326428D01*
X114596428Y-118255000D01*
X114703571Y-118219285D01*
X114775000Y-118219285D01*
X114882142Y-118255000D01*
X114917857Y-118290714D01*
X115203571Y-118290714D02*
X115239285Y-118255000D01*
X115310714Y-118219285D01*
X115489285Y-118219285D01*
X115560714Y-118255000D01*
X115596428Y-118290714D01*
X115632142Y-118362142D01*
X115632142Y-118433571D01*
X115596428Y-118540714D01*
X115167857Y-118969285D01*
X115632142Y-118969285D01*
X115917857Y-118290714D02*
X115953571Y-118255000D01*
X116025000Y-118219285D01*
X116203571Y-118219285D01*
X116275000Y-118255000D01*
X116310714Y-118290714D01*
X116346428Y-118362142D01*
X116346428Y-118433571D01*
X116310714Y-118540714D01*
X115882142Y-118969285D01*
X116346428Y-118969285D01*
%TO.C,R1*%
X135819285Y-109325000D02*
X135462142Y-109575000D01*
X135819285Y-109753571D02*
X135069285Y-109753571D01*
X135069285Y-109467857D01*
X135105000Y-109396428D01*
X135140714Y-109360714D01*
X135212142Y-109325000D01*
X135319285Y-109325000D01*
X135390714Y-109360714D01*
X135426428Y-109396428D01*
X135462142Y-109467857D01*
X135462142Y-109753571D01*
X135819285Y-108610714D02*
X135819285Y-109039285D01*
X135819285Y-108825000D02*
X135069285Y-108825000D01*
X135176428Y-108896428D01*
X135247857Y-108967857D01*
X135283571Y-109039285D01*
%TO.C,D3*%
X110446428Y-109739285D02*
X110446428Y-108989285D01*
X110625000Y-108989285D01*
X110732142Y-109025000D01*
X110803571Y-109096428D01*
X110839285Y-109167857D01*
X110875000Y-109310714D01*
X110875000Y-109417857D01*
X110839285Y-109560714D01*
X110803571Y-109632142D01*
X110732142Y-109703571D01*
X110625000Y-109739285D01*
X110446428Y-109739285D01*
X111125000Y-108989285D02*
X111589285Y-108989285D01*
X111339285Y-109275000D01*
X111446428Y-109275000D01*
X111517857Y-109310714D01*
X111553571Y-109346428D01*
X111589285Y-109417857D01*
X111589285Y-109596428D01*
X111553571Y-109667857D01*
X111517857Y-109703571D01*
X111446428Y-109739285D01*
X111232142Y-109739285D01*
X111160714Y-109703571D01*
X111125000Y-109667857D01*
%TO.C,R45*%
X102739285Y-114882142D02*
X102382142Y-115132142D01*
X102739285Y-115310714D02*
X101989285Y-115310714D01*
X101989285Y-115025000D01*
X102025000Y-114953571D01*
X102060714Y-114917857D01*
X102132142Y-114882142D01*
X102239285Y-114882142D01*
X102310714Y-114917857D01*
X102346428Y-114953571D01*
X102382142Y-115025000D01*
X102382142Y-115310714D01*
X102239285Y-114239285D02*
X102739285Y-114239285D01*
X101953571Y-114417857D02*
X102489285Y-114596428D01*
X102489285Y-114132142D01*
X101989285Y-113489285D02*
X101989285Y-113846428D01*
X102346428Y-113882142D01*
X102310714Y-113846428D01*
X102275000Y-113775000D01*
X102275000Y-113596428D01*
X102310714Y-113525000D01*
X102346428Y-113489285D01*
X102417857Y-113453571D01*
X102596428Y-113453571D01*
X102667857Y-113489285D01*
X102703571Y-113525000D01*
X102739285Y-113596428D01*
X102739285Y-113775000D01*
X102703571Y-113846428D01*
X102667857Y-113882142D01*
%TO.C,U3*%
X114638095Y-122672380D02*
X114638095Y-123481904D01*
X114685714Y-123577142D01*
X114733333Y-123624761D01*
X114828571Y-123672380D01*
X115019047Y-123672380D01*
X115114285Y-123624761D01*
X115161904Y-123577142D01*
X115209523Y-123481904D01*
X115209523Y-122672380D01*
X115590476Y-122672380D02*
X116209523Y-122672380D01*
X115876190Y-123053333D01*
X116019047Y-123053333D01*
X116114285Y-123100952D01*
X116161904Y-123148571D01*
X116209523Y-123243809D01*
X116209523Y-123481904D01*
X116161904Y-123577142D01*
X116114285Y-123624761D01*
X116019047Y-123672380D01*
X115733333Y-123672380D01*
X115638095Y-123624761D01*
X115590476Y-123577142D01*
%TO.C,R48*%
X103117857Y-129739285D02*
X102867857Y-129382142D01*
X102689285Y-129739285D02*
X102689285Y-128989285D01*
X102975000Y-128989285D01*
X103046428Y-129025000D01*
X103082142Y-129060714D01*
X103117857Y-129132142D01*
X103117857Y-129239285D01*
X103082142Y-129310714D01*
X103046428Y-129346428D01*
X102975000Y-129382142D01*
X102689285Y-129382142D01*
X103760714Y-129239285D02*
X103760714Y-129739285D01*
X103582142Y-128953571D02*
X103403571Y-129489285D01*
X103867857Y-129489285D01*
X104260714Y-129310714D02*
X104189285Y-129275000D01*
X104153571Y-129239285D01*
X104117857Y-129167857D01*
X104117857Y-129132142D01*
X104153571Y-129060714D01*
X104189285Y-129025000D01*
X104260714Y-128989285D01*
X104403571Y-128989285D01*
X104475000Y-129025000D01*
X104510714Y-129060714D01*
X104546428Y-129132142D01*
X104546428Y-129167857D01*
X104510714Y-129239285D01*
X104475000Y-129275000D01*
X104403571Y-129310714D01*
X104260714Y-129310714D01*
X104189285Y-129346428D01*
X104153571Y-129382142D01*
X104117857Y-129453571D01*
X104117857Y-129596428D01*
X104153571Y-129667857D01*
X104189285Y-129703571D01*
X104260714Y-129739285D01*
X104403571Y-129739285D01*
X104475000Y-129703571D01*
X104510714Y-129667857D01*
X104546428Y-129596428D01*
X104546428Y-129453571D01*
X104510714Y-129382142D01*
X104475000Y-129346428D01*
X104403571Y-129310714D01*
%TO.C,U1*%
X129428571Y-116789285D02*
X129428571Y-117396428D01*
X129464285Y-117467857D01*
X129500000Y-117503571D01*
X129571428Y-117539285D01*
X129714285Y-117539285D01*
X129785714Y-117503571D01*
X129821428Y-117467857D01*
X129857142Y-117396428D01*
X129857142Y-116789285D01*
X130607142Y-117539285D02*
X130178571Y-117539285D01*
X130392857Y-117539285D02*
X130392857Y-116789285D01*
X130321428Y-116896428D01*
X130250000Y-116967857D01*
X130178571Y-117003571D01*
%TO.C,FB1*%
X146146428Y-106625000D02*
X146146428Y-106875000D01*
X146539285Y-106875000D02*
X145789285Y-106875000D01*
X145789285Y-106517857D01*
X146146428Y-105982142D02*
X146182142Y-105875000D01*
X146217857Y-105839285D01*
X146289285Y-105803571D01*
X146396428Y-105803571D01*
X146467857Y-105839285D01*
X146503571Y-105875000D01*
X146539285Y-105946428D01*
X146539285Y-106232142D01*
X145789285Y-106232142D01*
X145789285Y-105982142D01*
X145825000Y-105910714D01*
X145860714Y-105875000D01*
X145932142Y-105839285D01*
X146003571Y-105839285D01*
X146075000Y-105875000D01*
X146110714Y-105910714D01*
X146146428Y-105982142D01*
X146146428Y-106232142D01*
X146539285Y-105089285D02*
X146539285Y-105517857D01*
X146539285Y-105303571D02*
X145789285Y-105303571D01*
X145896428Y-105375000D01*
X145967857Y-105446428D01*
X146003571Y-105517857D01*
%TO.C,R47*%
X106739285Y-131882142D02*
X106382142Y-132132142D01*
X106739285Y-132310714D02*
X105989285Y-132310714D01*
X105989285Y-132025000D01*
X106025000Y-131953571D01*
X106060714Y-131917857D01*
X106132142Y-131882142D01*
X106239285Y-131882142D01*
X106310714Y-131917857D01*
X106346428Y-131953571D01*
X106382142Y-132025000D01*
X106382142Y-132310714D01*
X106239285Y-131239285D02*
X106739285Y-131239285D01*
X105953571Y-131417857D02*
X106489285Y-131596428D01*
X106489285Y-131132142D01*
X105989285Y-130917857D02*
X105989285Y-130417857D01*
X106739285Y-130739285D01*
%TO.C,C12*%
X125867857Y-116082142D02*
X125903571Y-116117857D01*
X125939285Y-116225000D01*
X125939285Y-116296428D01*
X125903571Y-116403571D01*
X125832142Y-116475000D01*
X125760714Y-116510714D01*
X125617857Y-116546428D01*
X125510714Y-116546428D01*
X125367857Y-116510714D01*
X125296428Y-116475000D01*
X125225000Y-116403571D01*
X125189285Y-116296428D01*
X125189285Y-116225000D01*
X125225000Y-116117857D01*
X125260714Y-116082142D01*
X125939285Y-115367857D02*
X125939285Y-115796428D01*
X125939285Y-115582142D02*
X125189285Y-115582142D01*
X125296428Y-115653571D01*
X125367857Y-115725000D01*
X125403571Y-115796428D01*
X125260714Y-115082142D02*
X125225000Y-115046428D01*
X125189285Y-114975000D01*
X125189285Y-114796428D01*
X125225000Y-114725000D01*
X125260714Y-114689285D01*
X125332142Y-114653571D01*
X125403571Y-114653571D01*
X125510714Y-114689285D01*
X125939285Y-115117857D01*
X125939285Y-114653571D01*
%TO.C,U4*%
X148181071Y-130589285D02*
X148181071Y-131196428D01*
X148216785Y-131267857D01*
X148252500Y-131303571D01*
X148323928Y-131339285D01*
X148466785Y-131339285D01*
X148538214Y-131303571D01*
X148573928Y-131267857D01*
X148609642Y-131196428D01*
X148609642Y-130589285D01*
X149288214Y-130839285D02*
X149288214Y-131339285D01*
X149109642Y-130553571D02*
X148931071Y-131089285D01*
X149395357Y-131089285D01*
%TO.C,R42*%
X120019285Y-110422142D02*
X119662142Y-110672142D01*
X120019285Y-110850714D02*
X119269285Y-110850714D01*
X119269285Y-110565000D01*
X119305000Y-110493571D01*
X119340714Y-110457857D01*
X119412142Y-110422142D01*
X119519285Y-110422142D01*
X119590714Y-110457857D01*
X119626428Y-110493571D01*
X119662142Y-110565000D01*
X119662142Y-110850714D01*
X119519285Y-109779285D02*
X120019285Y-109779285D01*
X119233571Y-109957857D02*
X119769285Y-110136428D01*
X119769285Y-109672142D01*
X119340714Y-109422142D02*
X119305000Y-109386428D01*
X119269285Y-109315000D01*
X119269285Y-109136428D01*
X119305000Y-109065000D01*
X119340714Y-109029285D01*
X119412142Y-108993571D01*
X119483571Y-108993571D01*
X119590714Y-109029285D01*
X120019285Y-109457857D01*
X120019285Y-108993571D01*
%TO.C,C23*%
X117717857Y-111067857D02*
X117682142Y-111103571D01*
X117575000Y-111139285D01*
X117503571Y-111139285D01*
X117396428Y-111103571D01*
X117325000Y-111032142D01*
X117289285Y-110960714D01*
X117253571Y-110817857D01*
X117253571Y-110710714D01*
X117289285Y-110567857D01*
X117325000Y-110496428D01*
X117396428Y-110425000D01*
X117503571Y-110389285D01*
X117575000Y-110389285D01*
X117682142Y-110425000D01*
X117717857Y-110460714D01*
X118003571Y-110460714D02*
X118039285Y-110425000D01*
X118110714Y-110389285D01*
X118289285Y-110389285D01*
X118360714Y-110425000D01*
X118396428Y-110460714D01*
X118432142Y-110532142D01*
X118432142Y-110603571D01*
X118396428Y-110710714D01*
X117967857Y-111139285D01*
X118432142Y-111139285D01*
X118682142Y-110389285D02*
X119146428Y-110389285D01*
X118896428Y-110675000D01*
X119003571Y-110675000D01*
X119075000Y-110710714D01*
X119110714Y-110746428D01*
X119146428Y-110817857D01*
X119146428Y-110996428D01*
X119110714Y-111067857D01*
X119075000Y-111103571D01*
X119003571Y-111139285D01*
X118789285Y-111139285D01*
X118717857Y-111103571D01*
X118682142Y-111067857D01*
%TO.C,R14*%
X124289285Y-112082142D02*
X123932142Y-112332142D01*
X124289285Y-112510714D02*
X123539285Y-112510714D01*
X123539285Y-112225000D01*
X123575000Y-112153571D01*
X123610714Y-112117857D01*
X123682142Y-112082142D01*
X123789285Y-112082142D01*
X123860714Y-112117857D01*
X123896428Y-112153571D01*
X123932142Y-112225000D01*
X123932142Y-112510714D01*
X124289285Y-111367857D02*
X124289285Y-111796428D01*
X124289285Y-111582142D02*
X123539285Y-111582142D01*
X123646428Y-111653571D01*
X123717857Y-111725000D01*
X123753571Y-111796428D01*
X123789285Y-110725000D02*
X124289285Y-110725000D01*
X123503571Y-110903571D02*
X124039285Y-111082142D01*
X124039285Y-110617857D01*
%TO.C,R24*%
X142517857Y-137409285D02*
X142267857Y-137052142D01*
X142089285Y-137409285D02*
X142089285Y-136659285D01*
X142375000Y-136659285D01*
X142446428Y-136695000D01*
X142482142Y-136730714D01*
X142517857Y-136802142D01*
X142517857Y-136909285D01*
X142482142Y-136980714D01*
X142446428Y-137016428D01*
X142375000Y-137052142D01*
X142089285Y-137052142D01*
X142803571Y-136730714D02*
X142839285Y-136695000D01*
X142910714Y-136659285D01*
X143089285Y-136659285D01*
X143160714Y-136695000D01*
X143196428Y-136730714D01*
X143232142Y-136802142D01*
X143232142Y-136873571D01*
X143196428Y-136980714D01*
X142767857Y-137409285D01*
X143232142Y-137409285D01*
X143875000Y-136909285D02*
X143875000Y-137409285D01*
X143696428Y-136623571D02*
X143517857Y-137159285D01*
X143982142Y-137159285D01*
%TO.C,R2*%
X134139285Y-109325000D02*
X133782142Y-109575000D01*
X134139285Y-109753571D02*
X133389285Y-109753571D01*
X133389285Y-109467857D01*
X133425000Y-109396428D01*
X133460714Y-109360714D01*
X133532142Y-109325000D01*
X133639285Y-109325000D01*
X133710714Y-109360714D01*
X133746428Y-109396428D01*
X133782142Y-109467857D01*
X133782142Y-109753571D01*
X133460714Y-109039285D02*
X133425000Y-109003571D01*
X133389285Y-108932142D01*
X133389285Y-108753571D01*
X133425000Y-108682142D01*
X133460714Y-108646428D01*
X133532142Y-108610714D01*
X133603571Y-108610714D01*
X133710714Y-108646428D01*
X134139285Y-109075000D01*
X134139285Y-108610714D01*
%TO.C,C15*%
X135267857Y-141682142D02*
X135303571Y-141717857D01*
X135339285Y-141825000D01*
X135339285Y-141896428D01*
X135303571Y-142003571D01*
X135232142Y-142075000D01*
X135160714Y-142110714D01*
X135017857Y-142146428D01*
X134910714Y-142146428D01*
X134767857Y-142110714D01*
X134696428Y-142075000D01*
X134625000Y-142003571D01*
X134589285Y-141896428D01*
X134589285Y-141825000D01*
X134625000Y-141717857D01*
X134660714Y-141682142D01*
X135339285Y-140967857D02*
X135339285Y-141396428D01*
X135339285Y-141182142D02*
X134589285Y-141182142D01*
X134696428Y-141253571D01*
X134767857Y-141325000D01*
X134803571Y-141396428D01*
X134589285Y-140289285D02*
X134589285Y-140646428D01*
X134946428Y-140682142D01*
X134910714Y-140646428D01*
X134875000Y-140575000D01*
X134875000Y-140396428D01*
X134910714Y-140325000D01*
X134946428Y-140289285D01*
X135017857Y-140253571D01*
X135196428Y-140253571D01*
X135267857Y-140289285D01*
X135303571Y-140325000D01*
X135339285Y-140396428D01*
X135339285Y-140575000D01*
X135303571Y-140646428D01*
X135267857Y-140682142D01*
%TO.C,R13*%
X107939285Y-132082142D02*
X107582142Y-132332142D01*
X107939285Y-132510714D02*
X107189285Y-132510714D01*
X107189285Y-132225000D01*
X107225000Y-132153571D01*
X107260714Y-132117857D01*
X107332142Y-132082142D01*
X107439285Y-132082142D01*
X107510714Y-132117857D01*
X107546428Y-132153571D01*
X107582142Y-132225000D01*
X107582142Y-132510714D01*
X107939285Y-131367857D02*
X107939285Y-131796428D01*
X107939285Y-131582142D02*
X107189285Y-131582142D01*
X107296428Y-131653571D01*
X107367857Y-131725000D01*
X107403571Y-131796428D01*
X107189285Y-131117857D02*
X107189285Y-130653571D01*
X107475000Y-130903571D01*
X107475000Y-130796428D01*
X107510714Y-130725000D01*
X107546428Y-130689285D01*
X107617857Y-130653571D01*
X107796428Y-130653571D01*
X107867857Y-130689285D01*
X107903571Y-130725000D01*
X107939285Y-130796428D01*
X107939285Y-131010714D01*
X107903571Y-131082142D01*
X107867857Y-131117857D01*
%TO.C,R49*%
X102339285Y-134482142D02*
X101982142Y-134732142D01*
X102339285Y-134910714D02*
X101589285Y-134910714D01*
X101589285Y-134625000D01*
X101625000Y-134553571D01*
X101660714Y-134517857D01*
X101732142Y-134482142D01*
X101839285Y-134482142D01*
X101910714Y-134517857D01*
X101946428Y-134553571D01*
X101982142Y-134625000D01*
X101982142Y-134910714D01*
X101839285Y-133839285D02*
X102339285Y-133839285D01*
X101553571Y-134017857D02*
X102089285Y-134196428D01*
X102089285Y-133732142D01*
X102339285Y-133410714D02*
X102339285Y-133267857D01*
X102303571Y-133196428D01*
X102267857Y-133160714D01*
X102160714Y-133089285D01*
X102017857Y-133053571D01*
X101732142Y-133053571D01*
X101660714Y-133089285D01*
X101625000Y-133125000D01*
X101589285Y-133196428D01*
X101589285Y-133339285D01*
X101625000Y-133410714D01*
X101660714Y-133446428D01*
X101732142Y-133482142D01*
X101910714Y-133482142D01*
X101982142Y-133446428D01*
X102017857Y-133410714D01*
X102053571Y-133339285D01*
X102053571Y-133196428D01*
X102017857Y-133125000D01*
X101982142Y-133089285D01*
X101910714Y-133053571D01*
%TO.C,C25*%
X120267857Y-119682142D02*
X120303571Y-119717857D01*
X120339285Y-119825000D01*
X120339285Y-119896428D01*
X120303571Y-120003571D01*
X120232142Y-120075000D01*
X120160714Y-120110714D01*
X120017857Y-120146428D01*
X119910714Y-120146428D01*
X119767857Y-120110714D01*
X119696428Y-120075000D01*
X119625000Y-120003571D01*
X119589285Y-119896428D01*
X119589285Y-119825000D01*
X119625000Y-119717857D01*
X119660714Y-119682142D01*
X119660714Y-119396428D02*
X119625000Y-119360714D01*
X119589285Y-119289285D01*
X119589285Y-119110714D01*
X119625000Y-119039285D01*
X119660714Y-119003571D01*
X119732142Y-118967857D01*
X119803571Y-118967857D01*
X119910714Y-119003571D01*
X120339285Y-119432142D01*
X120339285Y-118967857D01*
X119589285Y-118289285D02*
X119589285Y-118646428D01*
X119946428Y-118682142D01*
X119910714Y-118646428D01*
X119875000Y-118575000D01*
X119875000Y-118396428D01*
X119910714Y-118325000D01*
X119946428Y-118289285D01*
X120017857Y-118253571D01*
X120196428Y-118253571D01*
X120267857Y-118289285D01*
X120303571Y-118325000D01*
X120339285Y-118396428D01*
X120339285Y-118575000D01*
X120303571Y-118646428D01*
X120267857Y-118682142D01*
%TO.C,C18*%
X114267857Y-104482142D02*
X114303571Y-104517857D01*
X114339285Y-104625000D01*
X114339285Y-104696428D01*
X114303571Y-104803571D01*
X114232142Y-104875000D01*
X114160714Y-104910714D01*
X114017857Y-104946428D01*
X113910714Y-104946428D01*
X113767857Y-104910714D01*
X113696428Y-104875000D01*
X113625000Y-104803571D01*
X113589285Y-104696428D01*
X113589285Y-104625000D01*
X113625000Y-104517857D01*
X113660714Y-104482142D01*
X114339285Y-103767857D02*
X114339285Y-104196428D01*
X114339285Y-103982142D02*
X113589285Y-103982142D01*
X113696428Y-104053571D01*
X113767857Y-104125000D01*
X113803571Y-104196428D01*
X113910714Y-103339285D02*
X113875000Y-103410714D01*
X113839285Y-103446428D01*
X113767857Y-103482142D01*
X113732142Y-103482142D01*
X113660714Y-103446428D01*
X113625000Y-103410714D01*
X113589285Y-103339285D01*
X113589285Y-103196428D01*
X113625000Y-103125000D01*
X113660714Y-103089285D01*
X113732142Y-103053571D01*
X113767857Y-103053571D01*
X113839285Y-103089285D01*
X113875000Y-103125000D01*
X113910714Y-103196428D01*
X113910714Y-103339285D01*
X113946428Y-103410714D01*
X113982142Y-103446428D01*
X114053571Y-103482142D01*
X114196428Y-103482142D01*
X114267857Y-103446428D01*
X114303571Y-103410714D01*
X114339285Y-103339285D01*
X114339285Y-103196428D01*
X114303571Y-103125000D01*
X114267857Y-103089285D01*
X114196428Y-103053571D01*
X114053571Y-103053571D01*
X113982142Y-103089285D01*
X113946428Y-103125000D01*
X113910714Y-103196428D01*
%TO.C,R22*%
X151517857Y-112909285D02*
X151267857Y-112552142D01*
X151089285Y-112909285D02*
X151089285Y-112159285D01*
X151375000Y-112159285D01*
X151446428Y-112195000D01*
X151482142Y-112230714D01*
X151517857Y-112302142D01*
X151517857Y-112409285D01*
X151482142Y-112480714D01*
X151446428Y-112516428D01*
X151375000Y-112552142D01*
X151089285Y-112552142D01*
X151803571Y-112230714D02*
X151839285Y-112195000D01*
X151910714Y-112159285D01*
X152089285Y-112159285D01*
X152160714Y-112195000D01*
X152196428Y-112230714D01*
X152232142Y-112302142D01*
X152232142Y-112373571D01*
X152196428Y-112480714D01*
X151767857Y-112909285D01*
X152232142Y-112909285D01*
X152517857Y-112230714D02*
X152553571Y-112195000D01*
X152625000Y-112159285D01*
X152803571Y-112159285D01*
X152875000Y-112195000D01*
X152910714Y-112230714D01*
X152946428Y-112302142D01*
X152946428Y-112373571D01*
X152910714Y-112480714D01*
X152482142Y-112909285D01*
X152946428Y-112909285D01*
%TO.C,U9*%
X137928571Y-110089285D02*
X137928571Y-110696428D01*
X137964285Y-110767857D01*
X138000000Y-110803571D01*
X138071428Y-110839285D01*
X138214285Y-110839285D01*
X138285714Y-110803571D01*
X138321428Y-110767857D01*
X138357142Y-110696428D01*
X138357142Y-110089285D01*
X138750000Y-110839285D02*
X138892857Y-110839285D01*
X138964285Y-110803571D01*
X139000000Y-110767857D01*
X139071428Y-110660714D01*
X139107142Y-110517857D01*
X139107142Y-110232142D01*
X139071428Y-110160714D01*
X139035714Y-110125000D01*
X138964285Y-110089285D01*
X138821428Y-110089285D01*
X138750000Y-110125000D01*
X138714285Y-110160714D01*
X138678571Y-110232142D01*
X138678571Y-110410714D01*
X138714285Y-110482142D01*
X138750000Y-110517857D01*
X138821428Y-110553571D01*
X138964285Y-110553571D01*
X139035714Y-110517857D01*
X139071428Y-110482142D01*
X139107142Y-110410714D01*
%TO.C,R34*%
X139139285Y-113482142D02*
X138782142Y-113732142D01*
X139139285Y-113910714D02*
X138389285Y-113910714D01*
X138389285Y-113625000D01*
X138425000Y-113553571D01*
X138460714Y-113517857D01*
X138532142Y-113482142D01*
X138639285Y-113482142D01*
X138710714Y-113517857D01*
X138746428Y-113553571D01*
X138782142Y-113625000D01*
X138782142Y-113910714D01*
X138389285Y-113232142D02*
X138389285Y-112767857D01*
X138675000Y-113017857D01*
X138675000Y-112910714D01*
X138710714Y-112839285D01*
X138746428Y-112803571D01*
X138817857Y-112767857D01*
X138996428Y-112767857D01*
X139067857Y-112803571D01*
X139103571Y-112839285D01*
X139139285Y-112910714D01*
X139139285Y-113125000D01*
X139103571Y-113196428D01*
X139067857Y-113232142D01*
X138639285Y-112125000D02*
X139139285Y-112125000D01*
X138353571Y-112303571D02*
X138889285Y-112482142D01*
X138889285Y-112017857D01*
%TO.C,R39*%
X121939285Y-119882142D02*
X121582142Y-120132142D01*
X121939285Y-120310714D02*
X121189285Y-120310714D01*
X121189285Y-120025000D01*
X121225000Y-119953571D01*
X121260714Y-119917857D01*
X121332142Y-119882142D01*
X121439285Y-119882142D01*
X121510714Y-119917857D01*
X121546428Y-119953571D01*
X121582142Y-120025000D01*
X121582142Y-120310714D01*
X121189285Y-119632142D02*
X121189285Y-119167857D01*
X121475000Y-119417857D01*
X121475000Y-119310714D01*
X121510714Y-119239285D01*
X121546428Y-119203571D01*
X121617857Y-119167857D01*
X121796428Y-119167857D01*
X121867857Y-119203571D01*
X121903571Y-119239285D01*
X121939285Y-119310714D01*
X121939285Y-119525000D01*
X121903571Y-119596428D01*
X121867857Y-119632142D01*
X121939285Y-118810714D02*
X121939285Y-118667857D01*
X121903571Y-118596428D01*
X121867857Y-118560714D01*
X121760714Y-118489285D01*
X121617857Y-118453571D01*
X121332142Y-118453571D01*
X121260714Y-118489285D01*
X121225000Y-118525000D01*
X121189285Y-118596428D01*
X121189285Y-118739285D01*
X121225000Y-118810714D01*
X121260714Y-118846428D01*
X121332142Y-118882142D01*
X121510714Y-118882142D01*
X121582142Y-118846428D01*
X121617857Y-118810714D01*
X121653571Y-118739285D01*
X121653571Y-118596428D01*
X121617857Y-118525000D01*
X121582142Y-118489285D01*
X121510714Y-118453571D01*
%TO.C,R37*%
X151317857Y-119309285D02*
X151067857Y-118952142D01*
X150889285Y-119309285D02*
X150889285Y-118559285D01*
X151175000Y-118559285D01*
X151246428Y-118595000D01*
X151282142Y-118630714D01*
X151317857Y-118702142D01*
X151317857Y-118809285D01*
X151282142Y-118880714D01*
X151246428Y-118916428D01*
X151175000Y-118952142D01*
X150889285Y-118952142D01*
X151567857Y-118559285D02*
X152032142Y-118559285D01*
X151782142Y-118845000D01*
X151889285Y-118845000D01*
X151960714Y-118880714D01*
X151996428Y-118916428D01*
X152032142Y-118987857D01*
X152032142Y-119166428D01*
X151996428Y-119237857D01*
X151960714Y-119273571D01*
X151889285Y-119309285D01*
X151675000Y-119309285D01*
X151603571Y-119273571D01*
X151567857Y-119237857D01*
X152282142Y-118559285D02*
X152782142Y-118559285D01*
X152460714Y-119309285D01*
%TO.C,L1*%
X107375000Y-136589285D02*
X107017857Y-136589285D01*
X107017857Y-135839285D01*
X108017857Y-136589285D02*
X107589285Y-136589285D01*
X107803571Y-136589285D02*
X107803571Y-135839285D01*
X107732142Y-135946428D01*
X107660714Y-136017857D01*
X107589285Y-136053571D01*
%TO.C,R20*%
X150767857Y-107769285D02*
X150517857Y-107412142D01*
X150339285Y-107769285D02*
X150339285Y-107019285D01*
X150625000Y-107019285D01*
X150696428Y-107055000D01*
X150732142Y-107090714D01*
X150767857Y-107162142D01*
X150767857Y-107269285D01*
X150732142Y-107340714D01*
X150696428Y-107376428D01*
X150625000Y-107412142D01*
X150339285Y-107412142D01*
X151053571Y-107090714D02*
X151089285Y-107055000D01*
X151160714Y-107019285D01*
X151339285Y-107019285D01*
X151410714Y-107055000D01*
X151446428Y-107090714D01*
X151482142Y-107162142D01*
X151482142Y-107233571D01*
X151446428Y-107340714D01*
X151017857Y-107769285D01*
X151482142Y-107769285D01*
X151946428Y-107019285D02*
X152017857Y-107019285D01*
X152089285Y-107055000D01*
X152125000Y-107090714D01*
X152160714Y-107162142D01*
X152196428Y-107305000D01*
X152196428Y-107483571D01*
X152160714Y-107626428D01*
X152125000Y-107697857D01*
X152089285Y-107733571D01*
X152017857Y-107769285D01*
X151946428Y-107769285D01*
X151875000Y-107733571D01*
X151839285Y-107697857D01*
X151803571Y-107626428D01*
X151767857Y-107483571D01*
X151767857Y-107305000D01*
X151803571Y-107162142D01*
X151839285Y-107090714D01*
X151875000Y-107055000D01*
X151946428Y-107019285D01*
%TO.C,C9*%
X152267857Y-134925000D02*
X152303571Y-134960714D01*
X152339285Y-135067857D01*
X152339285Y-135139285D01*
X152303571Y-135246428D01*
X152232142Y-135317857D01*
X152160714Y-135353571D01*
X152017857Y-135389285D01*
X151910714Y-135389285D01*
X151767857Y-135353571D01*
X151696428Y-135317857D01*
X151625000Y-135246428D01*
X151589285Y-135139285D01*
X151589285Y-135067857D01*
X151625000Y-134960714D01*
X151660714Y-134925000D01*
X152339285Y-134567857D02*
X152339285Y-134425000D01*
X152303571Y-134353571D01*
X152267857Y-134317857D01*
X152160714Y-134246428D01*
X152017857Y-134210714D01*
X151732142Y-134210714D01*
X151660714Y-134246428D01*
X151625000Y-134282142D01*
X151589285Y-134353571D01*
X151589285Y-134496428D01*
X151625000Y-134567857D01*
X151660714Y-134603571D01*
X151732142Y-134639285D01*
X151910714Y-134639285D01*
X151982142Y-134603571D01*
X152017857Y-134567857D01*
X152053571Y-134496428D01*
X152053571Y-134353571D01*
X152017857Y-134282142D01*
X151982142Y-134246428D01*
X151910714Y-134210714D01*
%TO.C,C14*%
X133467857Y-134882142D02*
X133503571Y-134917857D01*
X133539285Y-135025000D01*
X133539285Y-135096428D01*
X133503571Y-135203571D01*
X133432142Y-135275000D01*
X133360714Y-135310714D01*
X133217857Y-135346428D01*
X133110714Y-135346428D01*
X132967857Y-135310714D01*
X132896428Y-135275000D01*
X132825000Y-135203571D01*
X132789285Y-135096428D01*
X132789285Y-135025000D01*
X132825000Y-134917857D01*
X132860714Y-134882142D01*
X133539285Y-134167857D02*
X133539285Y-134596428D01*
X133539285Y-134382142D02*
X132789285Y-134382142D01*
X132896428Y-134453571D01*
X132967857Y-134525000D01*
X133003571Y-134596428D01*
X133039285Y-133525000D02*
X133539285Y-133525000D01*
X132753571Y-133703571D02*
X133289285Y-133882142D01*
X133289285Y-133417857D01*
%TO.C,R41*%
X137369285Y-106857142D02*
X137012142Y-107107142D01*
X137369285Y-107285714D02*
X136619285Y-107285714D01*
X136619285Y-107000000D01*
X136655000Y-106928571D01*
X136690714Y-106892857D01*
X136762142Y-106857142D01*
X136869285Y-106857142D01*
X136940714Y-106892857D01*
X136976428Y-106928571D01*
X137012142Y-107000000D01*
X137012142Y-107285714D01*
X136869285Y-106214285D02*
X137369285Y-106214285D01*
X136583571Y-106392857D02*
X137119285Y-106571428D01*
X137119285Y-106107142D01*
X137369285Y-105428571D02*
X137369285Y-105857142D01*
X137369285Y-105642857D02*
X136619285Y-105642857D01*
X136726428Y-105714285D01*
X136797857Y-105785714D01*
X136833571Y-105857142D01*
%TO.C,C10*%
X156867857Y-135282142D02*
X156903571Y-135317857D01*
X156939285Y-135425000D01*
X156939285Y-135496428D01*
X156903571Y-135603571D01*
X156832142Y-135675000D01*
X156760714Y-135710714D01*
X156617857Y-135746428D01*
X156510714Y-135746428D01*
X156367857Y-135710714D01*
X156296428Y-135675000D01*
X156225000Y-135603571D01*
X156189285Y-135496428D01*
X156189285Y-135425000D01*
X156225000Y-135317857D01*
X156260714Y-135282142D01*
X156939285Y-134567857D02*
X156939285Y-134996428D01*
X156939285Y-134782142D02*
X156189285Y-134782142D01*
X156296428Y-134853571D01*
X156367857Y-134925000D01*
X156403571Y-134996428D01*
X156189285Y-134103571D02*
X156189285Y-134032142D01*
X156225000Y-133960714D01*
X156260714Y-133925000D01*
X156332142Y-133889285D01*
X156475000Y-133853571D01*
X156653571Y-133853571D01*
X156796428Y-133889285D01*
X156867857Y-133925000D01*
X156903571Y-133960714D01*
X156939285Y-134032142D01*
X156939285Y-134103571D01*
X156903571Y-134175000D01*
X156867857Y-134210714D01*
X156796428Y-134246428D01*
X156653571Y-134282142D01*
X156475000Y-134282142D01*
X156332142Y-134246428D01*
X156260714Y-134210714D01*
X156225000Y-134175000D01*
X156189285Y-134103571D01*
%TO.C,J1*%
X156750000Y-123089285D02*
X156750000Y-123625000D01*
X156714285Y-123732142D01*
X156642857Y-123803571D01*
X156535714Y-123839285D01*
X156464285Y-123839285D01*
X157500000Y-123839285D02*
X157071428Y-123839285D01*
X157285714Y-123839285D02*
X157285714Y-123089285D01*
X157214285Y-123196428D01*
X157142857Y-123267857D01*
X157071428Y-123303571D01*
%TO.C,U6*%
X116428571Y-104189285D02*
X116428571Y-104796428D01*
X116464285Y-104867857D01*
X116500000Y-104903571D01*
X116571428Y-104939285D01*
X116714285Y-104939285D01*
X116785714Y-104903571D01*
X116821428Y-104867857D01*
X116857142Y-104796428D01*
X116857142Y-104189285D01*
X117535714Y-104189285D02*
X117392857Y-104189285D01*
X117321428Y-104225000D01*
X117285714Y-104260714D01*
X117214285Y-104367857D01*
X117178571Y-104510714D01*
X117178571Y-104796428D01*
X117214285Y-104867857D01*
X117250000Y-104903571D01*
X117321428Y-104939285D01*
X117464285Y-104939285D01*
X117535714Y-104903571D01*
X117571428Y-104867857D01*
X117607142Y-104796428D01*
X117607142Y-104617857D01*
X117571428Y-104546428D01*
X117535714Y-104510714D01*
X117464285Y-104475000D01*
X117321428Y-104475000D01*
X117250000Y-104510714D01*
X117214285Y-104546428D01*
X117178571Y-104617857D01*
%TO.C,U8*%
X147428571Y-108989285D02*
X147428571Y-109596428D01*
X147464285Y-109667857D01*
X147500000Y-109703571D01*
X147571428Y-109739285D01*
X147714285Y-109739285D01*
X147785714Y-109703571D01*
X147821428Y-109667857D01*
X147857142Y-109596428D01*
X147857142Y-108989285D01*
X148321428Y-109310714D02*
X148250000Y-109275000D01*
X148214285Y-109239285D01*
X148178571Y-109167857D01*
X148178571Y-109132142D01*
X148214285Y-109060714D01*
X148250000Y-109025000D01*
X148321428Y-108989285D01*
X148464285Y-108989285D01*
X148535714Y-109025000D01*
X148571428Y-109060714D01*
X148607142Y-109132142D01*
X148607142Y-109167857D01*
X148571428Y-109239285D01*
X148535714Y-109275000D01*
X148464285Y-109310714D01*
X148321428Y-109310714D01*
X148250000Y-109346428D01*
X148214285Y-109382142D01*
X148178571Y-109453571D01*
X148178571Y-109596428D01*
X148214285Y-109667857D01*
X148250000Y-109703571D01*
X148321428Y-109739285D01*
X148464285Y-109739285D01*
X148535714Y-109703571D01*
X148571428Y-109667857D01*
X148607142Y-109596428D01*
X148607142Y-109453571D01*
X148571428Y-109382142D01*
X148535714Y-109346428D01*
X148464285Y-109310714D01*
%TO.C,R27*%
X105117857Y-127939285D02*
X104867857Y-127582142D01*
X104689285Y-127939285D02*
X104689285Y-127189285D01*
X104975000Y-127189285D01*
X105046428Y-127225000D01*
X105082142Y-127260714D01*
X105117857Y-127332142D01*
X105117857Y-127439285D01*
X105082142Y-127510714D01*
X105046428Y-127546428D01*
X104975000Y-127582142D01*
X104689285Y-127582142D01*
X105403571Y-127260714D02*
X105439285Y-127225000D01*
X105510714Y-127189285D01*
X105689285Y-127189285D01*
X105760714Y-127225000D01*
X105796428Y-127260714D01*
X105832142Y-127332142D01*
X105832142Y-127403571D01*
X105796428Y-127510714D01*
X105367857Y-127939285D01*
X105832142Y-127939285D01*
X106082142Y-127189285D02*
X106582142Y-127189285D01*
X106260714Y-127939285D01*
%TO.C,C4*%
X144437857Y-128625000D02*
X144473571Y-128660714D01*
X144509285Y-128767857D01*
X144509285Y-128839285D01*
X144473571Y-128946428D01*
X144402142Y-129017857D01*
X144330714Y-129053571D01*
X144187857Y-129089285D01*
X144080714Y-129089285D01*
X143937857Y-129053571D01*
X143866428Y-129017857D01*
X143795000Y-128946428D01*
X143759285Y-128839285D01*
X143759285Y-128767857D01*
X143795000Y-128660714D01*
X143830714Y-128625000D01*
X144009285Y-127982142D02*
X144509285Y-127982142D01*
X143723571Y-128160714D02*
X144259285Y-128339285D01*
X144259285Y-127875000D01*
%TO.C,J3*%
X127189285Y-104650000D02*
X127725000Y-104650000D01*
X127832142Y-104685714D01*
X127903571Y-104757142D01*
X127939285Y-104864285D01*
X127939285Y-104935714D01*
X127189285Y-104364285D02*
X127189285Y-103900000D01*
X127475000Y-104150000D01*
X127475000Y-104042857D01*
X127510714Y-103971428D01*
X127546428Y-103935714D01*
X127617857Y-103900000D01*
X127796428Y-103900000D01*
X127867857Y-103935714D01*
X127903571Y-103971428D01*
X127939285Y-104042857D01*
X127939285Y-104257142D01*
X127903571Y-104328571D01*
X127867857Y-104364285D01*
%TO.C,AmpOut1*%
X157278571Y-132325000D02*
X157635714Y-132325000D01*
X157207142Y-132539285D02*
X157457142Y-131789285D01*
X157707142Y-132539285D01*
X157957142Y-132539285D02*
X157957142Y-132039285D01*
X157957142Y-132110714D02*
X157992857Y-132075000D01*
X158064285Y-132039285D01*
X158171428Y-132039285D01*
X158242857Y-132075000D01*
X158278571Y-132146428D01*
X158278571Y-132539285D01*
X158278571Y-132146428D02*
X158314285Y-132075000D01*
X158385714Y-132039285D01*
X158492857Y-132039285D01*
X158564285Y-132075000D01*
X158600000Y-132146428D01*
X158600000Y-132539285D01*
X158957142Y-132039285D02*
X158957142Y-132789285D01*
X158957142Y-132075000D02*
X159028571Y-132039285D01*
X159171428Y-132039285D01*
X159242857Y-132075000D01*
X159278571Y-132110714D01*
X159314285Y-132182142D01*
X159314285Y-132396428D01*
X159278571Y-132467857D01*
X159242857Y-132503571D01*
X159171428Y-132539285D01*
X159028571Y-132539285D01*
X158957142Y-132503571D01*
X159778571Y-131789285D02*
X159921428Y-131789285D01*
X159992857Y-131825000D01*
X160064285Y-131896428D01*
X160100000Y-132039285D01*
X160100000Y-132289285D01*
X160064285Y-132432142D01*
X159992857Y-132503571D01*
X159921428Y-132539285D01*
X159778571Y-132539285D01*
X159707142Y-132503571D01*
X159635714Y-132432142D01*
X159600000Y-132289285D01*
X159600000Y-132039285D01*
X159635714Y-131896428D01*
X159707142Y-131825000D01*
X159778571Y-131789285D01*
X160742857Y-132039285D02*
X160742857Y-132539285D01*
X160421428Y-132039285D02*
X160421428Y-132432142D01*
X160457142Y-132503571D01*
X160528571Y-132539285D01*
X160635714Y-132539285D01*
X160707142Y-132503571D01*
X160742857Y-132467857D01*
X160992857Y-132039285D02*
X161278571Y-132039285D01*
X161100000Y-131789285D02*
X161100000Y-132432142D01*
X161135714Y-132503571D01*
X161207142Y-132539285D01*
X161278571Y-132539285D01*
X161921428Y-132539285D02*
X161492857Y-132539285D01*
X161707142Y-132539285D02*
X161707142Y-131789285D01*
X161635714Y-131896428D01*
X161564285Y-131967857D01*
X161492857Y-132003571D01*
%TO.C,R10*%
X109909285Y-104082142D02*
X109552142Y-104332142D01*
X109909285Y-104510714D02*
X109159285Y-104510714D01*
X109159285Y-104225000D01*
X109195000Y-104153571D01*
X109230714Y-104117857D01*
X109302142Y-104082142D01*
X109409285Y-104082142D01*
X109480714Y-104117857D01*
X109516428Y-104153571D01*
X109552142Y-104225000D01*
X109552142Y-104510714D01*
X109909285Y-103367857D02*
X109909285Y-103796428D01*
X109909285Y-103582142D02*
X109159285Y-103582142D01*
X109266428Y-103653571D01*
X109337857Y-103725000D01*
X109373571Y-103796428D01*
X109159285Y-102903571D02*
X109159285Y-102832142D01*
X109195000Y-102760714D01*
X109230714Y-102725000D01*
X109302142Y-102689285D01*
X109445000Y-102653571D01*
X109623571Y-102653571D01*
X109766428Y-102689285D01*
X109837857Y-102725000D01*
X109873571Y-102760714D01*
X109909285Y-102832142D01*
X109909285Y-102903571D01*
X109873571Y-102975000D01*
X109837857Y-103010714D01*
X109766428Y-103046428D01*
X109623571Y-103082142D01*
X109445000Y-103082142D01*
X109302142Y-103046428D01*
X109230714Y-103010714D01*
X109195000Y-102975000D01*
X109159285Y-102903571D01*
%TO.C,Y1*%
X117982142Y-112957142D02*
X118339285Y-112957142D01*
X117589285Y-113207142D02*
X117982142Y-112957142D01*
X117589285Y-112707142D01*
X118339285Y-112064285D02*
X118339285Y-112492857D01*
X118339285Y-112278571D02*
X117589285Y-112278571D01*
X117696428Y-112350000D01*
X117767857Y-112421428D01*
X117803571Y-112492857D01*
%TO.C,C2*%
X131767857Y-130725000D02*
X131803571Y-130760714D01*
X131839285Y-130867857D01*
X131839285Y-130939285D01*
X131803571Y-131046428D01*
X131732142Y-131117857D01*
X131660714Y-131153571D01*
X131517857Y-131189285D01*
X131410714Y-131189285D01*
X131267857Y-131153571D01*
X131196428Y-131117857D01*
X131125000Y-131046428D01*
X131089285Y-130939285D01*
X131089285Y-130867857D01*
X131125000Y-130760714D01*
X131160714Y-130725000D01*
X131160714Y-130439285D02*
X131125000Y-130403571D01*
X131089285Y-130332142D01*
X131089285Y-130153571D01*
X131125000Y-130082142D01*
X131160714Y-130046428D01*
X131232142Y-130010714D01*
X131303571Y-130010714D01*
X131410714Y-130046428D01*
X131839285Y-130475000D01*
X131839285Y-130010714D01*
%TO.C,R28*%
X123139285Y-113282142D02*
X122782142Y-113532142D01*
X123139285Y-113710714D02*
X122389285Y-113710714D01*
X122389285Y-113425000D01*
X122425000Y-113353571D01*
X122460714Y-113317857D01*
X122532142Y-113282142D01*
X122639285Y-113282142D01*
X122710714Y-113317857D01*
X122746428Y-113353571D01*
X122782142Y-113425000D01*
X122782142Y-113710714D01*
X122460714Y-112996428D02*
X122425000Y-112960714D01*
X122389285Y-112889285D01*
X122389285Y-112710714D01*
X122425000Y-112639285D01*
X122460714Y-112603571D01*
X122532142Y-112567857D01*
X122603571Y-112567857D01*
X122710714Y-112603571D01*
X123139285Y-113032142D01*
X123139285Y-112567857D01*
X122710714Y-112139285D02*
X122675000Y-112210714D01*
X122639285Y-112246428D01*
X122567857Y-112282142D01*
X122532142Y-112282142D01*
X122460714Y-112246428D01*
X122425000Y-112210714D01*
X122389285Y-112139285D01*
X122389285Y-111996428D01*
X122425000Y-111925000D01*
X122460714Y-111889285D01*
X122532142Y-111853571D01*
X122567857Y-111853571D01*
X122639285Y-111889285D01*
X122675000Y-111925000D01*
X122710714Y-111996428D01*
X122710714Y-112139285D01*
X122746428Y-112210714D01*
X122782142Y-112246428D01*
X122853571Y-112282142D01*
X122996428Y-112282142D01*
X123067857Y-112246428D01*
X123103571Y-112210714D01*
X123139285Y-112139285D01*
X123139285Y-111996428D01*
X123103571Y-111925000D01*
X123067857Y-111889285D01*
X122996428Y-111853571D01*
X122853571Y-111853571D01*
X122782142Y-111889285D01*
X122746428Y-111925000D01*
X122710714Y-111996428D01*
%TO.C,R35*%
X152517857Y-111139285D02*
X152267857Y-110782142D01*
X152089285Y-111139285D02*
X152089285Y-110389285D01*
X152375000Y-110389285D01*
X152446428Y-110425000D01*
X152482142Y-110460714D01*
X152517857Y-110532142D01*
X152517857Y-110639285D01*
X152482142Y-110710714D01*
X152446428Y-110746428D01*
X152375000Y-110782142D01*
X152089285Y-110782142D01*
X152767857Y-110389285D02*
X153232142Y-110389285D01*
X152982142Y-110675000D01*
X153089285Y-110675000D01*
X153160714Y-110710714D01*
X153196428Y-110746428D01*
X153232142Y-110817857D01*
X153232142Y-110996428D01*
X153196428Y-111067857D01*
X153160714Y-111103571D01*
X153089285Y-111139285D01*
X152875000Y-111139285D01*
X152803571Y-111103571D01*
X152767857Y-111067857D01*
X153910714Y-110389285D02*
X153553571Y-110389285D01*
X153517857Y-110746428D01*
X153553571Y-110710714D01*
X153625000Y-110675000D01*
X153803571Y-110675000D01*
X153875000Y-110710714D01*
X153910714Y-110746428D01*
X153946428Y-110817857D01*
X153946428Y-110996428D01*
X153910714Y-111067857D01*
X153875000Y-111103571D01*
X153803571Y-111139285D01*
X153625000Y-111139285D01*
X153553571Y-111103571D01*
X153517857Y-111067857D01*
%TO.C,R17*%
X130509285Y-112082142D02*
X130152142Y-112332142D01*
X130509285Y-112510714D02*
X129759285Y-112510714D01*
X129759285Y-112225000D01*
X129795000Y-112153571D01*
X129830714Y-112117857D01*
X129902142Y-112082142D01*
X130009285Y-112082142D01*
X130080714Y-112117857D01*
X130116428Y-112153571D01*
X130152142Y-112225000D01*
X130152142Y-112510714D01*
X130509285Y-111367857D02*
X130509285Y-111796428D01*
X130509285Y-111582142D02*
X129759285Y-111582142D01*
X129866428Y-111653571D01*
X129937857Y-111725000D01*
X129973571Y-111796428D01*
X129759285Y-111117857D02*
X129759285Y-110617857D01*
X130509285Y-110939285D01*
%TO.C,TP1*%
X153339285Y-126196428D02*
X153339285Y-125767857D01*
X154089285Y-125982142D02*
X153339285Y-125982142D01*
X154089285Y-125517857D02*
X153339285Y-125517857D01*
X153339285Y-125232142D01*
X153375000Y-125160714D01*
X153410714Y-125125000D01*
X153482142Y-125089285D01*
X153589285Y-125089285D01*
X153660714Y-125125000D01*
X153696428Y-125160714D01*
X153732142Y-125232142D01*
X153732142Y-125517857D01*
X154089285Y-124375000D02*
X154089285Y-124803571D01*
X154089285Y-124589285D02*
X153339285Y-124589285D01*
X153446428Y-124660714D01*
X153517857Y-124732142D01*
X153553571Y-124803571D01*
%TO.C,R5*%
X153769285Y-128125000D02*
X153412142Y-128375000D01*
X153769285Y-128553571D02*
X153019285Y-128553571D01*
X153019285Y-128267857D01*
X153055000Y-128196428D01*
X153090714Y-128160714D01*
X153162142Y-128125000D01*
X153269285Y-128125000D01*
X153340714Y-128160714D01*
X153376428Y-128196428D01*
X153412142Y-128267857D01*
X153412142Y-128553571D01*
X153019285Y-127446428D02*
X153019285Y-127803571D01*
X153376428Y-127839285D01*
X153340714Y-127803571D01*
X153305000Y-127732142D01*
X153305000Y-127553571D01*
X153340714Y-127482142D01*
X153376428Y-127446428D01*
X153447857Y-127410714D01*
X153626428Y-127410714D01*
X153697857Y-127446428D01*
X153733571Y-127482142D01*
X153769285Y-127553571D01*
X153769285Y-127732142D01*
X153733571Y-127803571D01*
X153697857Y-127839285D01*
%TO.C,C7*%
X133467857Y-130625000D02*
X133503571Y-130660714D01*
X133539285Y-130767857D01*
X133539285Y-130839285D01*
X133503571Y-130946428D01*
X133432142Y-131017857D01*
X133360714Y-131053571D01*
X133217857Y-131089285D01*
X133110714Y-131089285D01*
X132967857Y-131053571D01*
X132896428Y-131017857D01*
X132825000Y-130946428D01*
X132789285Y-130839285D01*
X132789285Y-130767857D01*
X132825000Y-130660714D01*
X132860714Y-130625000D01*
X132789285Y-130375000D02*
X132789285Y-129875000D01*
X133539285Y-130196428D01*
%TO.C,R33*%
X124739285Y-113282142D02*
X124382142Y-113532142D01*
X124739285Y-113710714D02*
X123989285Y-113710714D01*
X123989285Y-113425000D01*
X124025000Y-113353571D01*
X124060714Y-113317857D01*
X124132142Y-113282142D01*
X124239285Y-113282142D01*
X124310714Y-113317857D01*
X124346428Y-113353571D01*
X124382142Y-113425000D01*
X124382142Y-113710714D01*
X123989285Y-113032142D02*
X123989285Y-112567857D01*
X124275000Y-112817857D01*
X124275000Y-112710714D01*
X124310714Y-112639285D01*
X124346428Y-112603571D01*
X124417857Y-112567857D01*
X124596428Y-112567857D01*
X124667857Y-112603571D01*
X124703571Y-112639285D01*
X124739285Y-112710714D01*
X124739285Y-112925000D01*
X124703571Y-112996428D01*
X124667857Y-113032142D01*
X123989285Y-112317857D02*
X123989285Y-111853571D01*
X124275000Y-112103571D01*
X124275000Y-111996428D01*
X124310714Y-111925000D01*
X124346428Y-111889285D01*
X124417857Y-111853571D01*
X124596428Y-111853571D01*
X124667857Y-111889285D01*
X124703571Y-111925000D01*
X124739285Y-111996428D01*
X124739285Y-112210714D01*
X124703571Y-112282142D01*
X124667857Y-112317857D01*
%TO.C,C11*%
X140017857Y-126837857D02*
X139982142Y-126873571D01*
X139875000Y-126909285D01*
X139803571Y-126909285D01*
X139696428Y-126873571D01*
X139625000Y-126802142D01*
X139589285Y-126730714D01*
X139553571Y-126587857D01*
X139553571Y-126480714D01*
X139589285Y-126337857D01*
X139625000Y-126266428D01*
X139696428Y-126195000D01*
X139803571Y-126159285D01*
X139875000Y-126159285D01*
X139982142Y-126195000D01*
X140017857Y-126230714D01*
X140732142Y-126909285D02*
X140303571Y-126909285D01*
X140517857Y-126909285D02*
X140517857Y-126159285D01*
X140446428Y-126266428D01*
X140375000Y-126337857D01*
X140303571Y-126373571D01*
X141446428Y-126909285D02*
X141017857Y-126909285D01*
X141232142Y-126909285D02*
X141232142Y-126159285D01*
X141160714Y-126266428D01*
X141089285Y-126337857D01*
X141017857Y-126373571D01*
%TO.C,R11*%
X111709285Y-113332142D02*
X111352142Y-113582142D01*
X111709285Y-113760714D02*
X110959285Y-113760714D01*
X110959285Y-113475000D01*
X110995000Y-113403571D01*
X111030714Y-113367857D01*
X111102142Y-113332142D01*
X111209285Y-113332142D01*
X111280714Y-113367857D01*
X111316428Y-113403571D01*
X111352142Y-113475000D01*
X111352142Y-113760714D01*
X111709285Y-112617857D02*
X111709285Y-113046428D01*
X111709285Y-112832142D02*
X110959285Y-112832142D01*
X111066428Y-112903571D01*
X111137857Y-112975000D01*
X111173571Y-113046428D01*
X111709285Y-111903571D02*
X111709285Y-112332142D01*
X111709285Y-112117857D02*
X110959285Y-112117857D01*
X111066428Y-112189285D01*
X111137857Y-112260714D01*
X111173571Y-112332142D01*
%TO.C,C24*%
X110867857Y-132682142D02*
X110903571Y-132717857D01*
X110939285Y-132825000D01*
X110939285Y-132896428D01*
X110903571Y-133003571D01*
X110832142Y-133075000D01*
X110760714Y-133110714D01*
X110617857Y-133146428D01*
X110510714Y-133146428D01*
X110367857Y-133110714D01*
X110296428Y-133075000D01*
X110225000Y-133003571D01*
X110189285Y-132896428D01*
X110189285Y-132825000D01*
X110225000Y-132717857D01*
X110260714Y-132682142D01*
X110260714Y-132396428D02*
X110225000Y-132360714D01*
X110189285Y-132289285D01*
X110189285Y-132110714D01*
X110225000Y-132039285D01*
X110260714Y-132003571D01*
X110332142Y-131967857D01*
X110403571Y-131967857D01*
X110510714Y-132003571D01*
X110939285Y-132432142D01*
X110939285Y-131967857D01*
X110439285Y-131325000D02*
X110939285Y-131325000D01*
X110153571Y-131503571D02*
X110689285Y-131682142D01*
X110689285Y-131217857D01*
%TO.C,C3*%
X108262500Y-140142857D02*
X108226785Y-140178571D01*
X108119642Y-140214285D01*
X108048214Y-140214285D01*
X107941071Y-140178571D01*
X107869642Y-140107142D01*
X107833928Y-140035714D01*
X107798214Y-139892857D01*
X107798214Y-139785714D01*
X107833928Y-139642857D01*
X107869642Y-139571428D01*
X107941071Y-139500000D01*
X108048214Y-139464285D01*
X108119642Y-139464285D01*
X108226785Y-139500000D01*
X108262500Y-139535714D01*
X108512500Y-139464285D02*
X108976785Y-139464285D01*
X108726785Y-139750000D01*
X108833928Y-139750000D01*
X108905357Y-139785714D01*
X108941071Y-139821428D01*
X108976785Y-139892857D01*
X108976785Y-140071428D01*
X108941071Y-140142857D01*
X108905357Y-140178571D01*
X108833928Y-140214285D01*
X108619642Y-140214285D01*
X108548214Y-140178571D01*
X108512500Y-140142857D01*
%TO.C,R29*%
X135289285Y-131482142D02*
X134932142Y-131732142D01*
X135289285Y-131910714D02*
X134539285Y-131910714D01*
X134539285Y-131625000D01*
X134575000Y-131553571D01*
X134610714Y-131517857D01*
X134682142Y-131482142D01*
X134789285Y-131482142D01*
X134860714Y-131517857D01*
X134896428Y-131553571D01*
X134932142Y-131625000D01*
X134932142Y-131910714D01*
X134610714Y-131196428D02*
X134575000Y-131160714D01*
X134539285Y-131089285D01*
X134539285Y-130910714D01*
X134575000Y-130839285D01*
X134610714Y-130803571D01*
X134682142Y-130767857D01*
X134753571Y-130767857D01*
X134860714Y-130803571D01*
X135289285Y-131232142D01*
X135289285Y-130767857D01*
X135289285Y-130410714D02*
X135289285Y-130267857D01*
X135253571Y-130196428D01*
X135217857Y-130160714D01*
X135110714Y-130089285D01*
X134967857Y-130053571D01*
X134682142Y-130053571D01*
X134610714Y-130089285D01*
X134575000Y-130125000D01*
X134539285Y-130196428D01*
X134539285Y-130339285D01*
X134575000Y-130410714D01*
X134610714Y-130446428D01*
X134682142Y-130482142D01*
X134860714Y-130482142D01*
X134932142Y-130446428D01*
X134967857Y-130410714D01*
X135003571Y-130339285D01*
X135003571Y-130196428D01*
X134967857Y-130125000D01*
X134932142Y-130089285D01*
X134860714Y-130053571D01*
%TO.C,C1*%
X108262500Y-138542857D02*
X108226785Y-138578571D01*
X108119642Y-138614285D01*
X108048214Y-138614285D01*
X107941071Y-138578571D01*
X107869642Y-138507142D01*
X107833928Y-138435714D01*
X107798214Y-138292857D01*
X107798214Y-138185714D01*
X107833928Y-138042857D01*
X107869642Y-137971428D01*
X107941071Y-137900000D01*
X108048214Y-137864285D01*
X108119642Y-137864285D01*
X108226785Y-137900000D01*
X108262500Y-137935714D01*
X108976785Y-138614285D02*
X108548214Y-138614285D01*
X108762500Y-138614285D02*
X108762500Y-137864285D01*
X108691071Y-137971428D01*
X108619642Y-138042857D01*
X108548214Y-138078571D01*
%TO.C,R12*%
X109139285Y-132082142D02*
X108782142Y-132332142D01*
X109139285Y-132510714D02*
X108389285Y-132510714D01*
X108389285Y-132225000D01*
X108425000Y-132153571D01*
X108460714Y-132117857D01*
X108532142Y-132082142D01*
X108639285Y-132082142D01*
X108710714Y-132117857D01*
X108746428Y-132153571D01*
X108782142Y-132225000D01*
X108782142Y-132510714D01*
X109139285Y-131367857D02*
X109139285Y-131796428D01*
X109139285Y-131582142D02*
X108389285Y-131582142D01*
X108496428Y-131653571D01*
X108567857Y-131725000D01*
X108603571Y-131796428D01*
X108460714Y-131082142D02*
X108425000Y-131046428D01*
X108389285Y-130975000D01*
X108389285Y-130796428D01*
X108425000Y-130725000D01*
X108460714Y-130689285D01*
X108532142Y-130653571D01*
X108603571Y-130653571D01*
X108710714Y-130689285D01*
X109139285Y-131117857D01*
X109139285Y-130653571D01*
%TO.C,C6*%
X108262500Y-141742857D02*
X108226785Y-141778571D01*
X108119642Y-141814285D01*
X108048214Y-141814285D01*
X107941071Y-141778571D01*
X107869642Y-141707142D01*
X107833928Y-141635714D01*
X107798214Y-141492857D01*
X107798214Y-141385714D01*
X107833928Y-141242857D01*
X107869642Y-141171428D01*
X107941071Y-141100000D01*
X108048214Y-141064285D01*
X108119642Y-141064285D01*
X108226785Y-141100000D01*
X108262500Y-141135714D01*
X108905357Y-141064285D02*
X108762500Y-141064285D01*
X108691071Y-141100000D01*
X108655357Y-141135714D01*
X108583928Y-141242857D01*
X108548214Y-141385714D01*
X108548214Y-141671428D01*
X108583928Y-141742857D01*
X108619642Y-141778571D01*
X108691071Y-141814285D01*
X108833928Y-141814285D01*
X108905357Y-141778571D01*
X108941071Y-141742857D01*
X108976785Y-141671428D01*
X108976785Y-141492857D01*
X108941071Y-141421428D01*
X108905357Y-141385714D01*
X108833928Y-141350000D01*
X108691071Y-141350000D01*
X108619642Y-141385714D01*
X108583928Y-141421428D01*
X108548214Y-141492857D01*
%TO.C,R6*%
X134369285Y-119325000D02*
X134012142Y-119575000D01*
X134369285Y-119753571D02*
X133619285Y-119753571D01*
X133619285Y-119467857D01*
X133655000Y-119396428D01*
X133690714Y-119360714D01*
X133762142Y-119325000D01*
X133869285Y-119325000D01*
X133940714Y-119360714D01*
X133976428Y-119396428D01*
X134012142Y-119467857D01*
X134012142Y-119753571D01*
X133619285Y-118682142D02*
X133619285Y-118825000D01*
X133655000Y-118896428D01*
X133690714Y-118932142D01*
X133797857Y-119003571D01*
X133940714Y-119039285D01*
X134226428Y-119039285D01*
X134297857Y-119003571D01*
X134333571Y-118967857D01*
X134369285Y-118896428D01*
X134369285Y-118753571D01*
X134333571Y-118682142D01*
X134297857Y-118646428D01*
X134226428Y-118610714D01*
X134047857Y-118610714D01*
X133976428Y-118646428D01*
X133940714Y-118682142D01*
X133905000Y-118753571D01*
X133905000Y-118896428D01*
X133940714Y-118967857D01*
X133976428Y-119003571D01*
X134047857Y-119039285D01*
%TO.C,R43*%
X118619285Y-110422142D02*
X118262142Y-110672142D01*
X118619285Y-110850714D02*
X117869285Y-110850714D01*
X117869285Y-110565000D01*
X117905000Y-110493571D01*
X117940714Y-110457857D01*
X118012142Y-110422142D01*
X118119285Y-110422142D01*
X118190714Y-110457857D01*
X118226428Y-110493571D01*
X118262142Y-110565000D01*
X118262142Y-110850714D01*
X118119285Y-109779285D02*
X118619285Y-109779285D01*
X117833571Y-109957857D02*
X118369285Y-110136428D01*
X118369285Y-109672142D01*
X117869285Y-109457857D02*
X117869285Y-108993571D01*
X118155000Y-109243571D01*
X118155000Y-109136428D01*
X118190714Y-109065000D01*
X118226428Y-109029285D01*
X118297857Y-108993571D01*
X118476428Y-108993571D01*
X118547857Y-109029285D01*
X118583571Y-109065000D01*
X118619285Y-109136428D01*
X118619285Y-109350714D01*
X118583571Y-109422142D01*
X118547857Y-109457857D01*
%TO.C,C28*%
X111217857Y-114867857D02*
X111182142Y-114903571D01*
X111075000Y-114939285D01*
X111003571Y-114939285D01*
X110896428Y-114903571D01*
X110825000Y-114832142D01*
X110789285Y-114760714D01*
X110753571Y-114617857D01*
X110753571Y-114510714D01*
X110789285Y-114367857D01*
X110825000Y-114296428D01*
X110896428Y-114225000D01*
X111003571Y-114189285D01*
X111075000Y-114189285D01*
X111182142Y-114225000D01*
X111217857Y-114260714D01*
X111503571Y-114260714D02*
X111539285Y-114225000D01*
X111610714Y-114189285D01*
X111789285Y-114189285D01*
X111860714Y-114225000D01*
X111896428Y-114260714D01*
X111932142Y-114332142D01*
X111932142Y-114403571D01*
X111896428Y-114510714D01*
X111467857Y-114939285D01*
X111932142Y-114939285D01*
X112360714Y-114510714D02*
X112289285Y-114475000D01*
X112253571Y-114439285D01*
X112217857Y-114367857D01*
X112217857Y-114332142D01*
X112253571Y-114260714D01*
X112289285Y-114225000D01*
X112360714Y-114189285D01*
X112503571Y-114189285D01*
X112575000Y-114225000D01*
X112610714Y-114260714D01*
X112646428Y-114332142D01*
X112646428Y-114367857D01*
X112610714Y-114439285D01*
X112575000Y-114475000D01*
X112503571Y-114510714D01*
X112360714Y-114510714D01*
X112289285Y-114546428D01*
X112253571Y-114582142D01*
X112217857Y-114653571D01*
X112217857Y-114796428D01*
X112253571Y-114867857D01*
X112289285Y-114903571D01*
X112360714Y-114939285D01*
X112503571Y-114939285D01*
X112575000Y-114903571D01*
X112610714Y-114867857D01*
X112646428Y-114796428D01*
X112646428Y-114653571D01*
X112610714Y-114582142D01*
X112575000Y-114546428D01*
X112503571Y-114510714D01*
%TO.C,U11*%
X140471428Y-136089285D02*
X140471428Y-136696428D01*
X140507142Y-136767857D01*
X140542857Y-136803571D01*
X140614285Y-136839285D01*
X140757142Y-136839285D01*
X140828571Y-136803571D01*
X140864285Y-136767857D01*
X140900000Y-136696428D01*
X140900000Y-136089285D01*
X141650000Y-136839285D02*
X141221428Y-136839285D01*
X141435714Y-136839285D02*
X141435714Y-136089285D01*
X141364285Y-136196428D01*
X141292857Y-136267857D01*
X141221428Y-136303571D01*
X142364285Y-136839285D02*
X141935714Y-136839285D01*
X142150000Y-136839285D02*
X142150000Y-136089285D01*
X142078571Y-136196428D01*
X142007142Y-136267857D01*
X141935714Y-136303571D01*
%TO.C,R36*%
X155517857Y-108539285D02*
X155267857Y-108182142D01*
X155089285Y-108539285D02*
X155089285Y-107789285D01*
X155375000Y-107789285D01*
X155446428Y-107825000D01*
X155482142Y-107860714D01*
X155517857Y-107932142D01*
X155517857Y-108039285D01*
X155482142Y-108110714D01*
X155446428Y-108146428D01*
X155375000Y-108182142D01*
X155089285Y-108182142D01*
X155767857Y-107789285D02*
X156232142Y-107789285D01*
X155982142Y-108075000D01*
X156089285Y-108075000D01*
X156160714Y-108110714D01*
X156196428Y-108146428D01*
X156232142Y-108217857D01*
X156232142Y-108396428D01*
X156196428Y-108467857D01*
X156160714Y-108503571D01*
X156089285Y-108539285D01*
X155875000Y-108539285D01*
X155803571Y-108503571D01*
X155767857Y-108467857D01*
X156875000Y-107789285D02*
X156732142Y-107789285D01*
X156660714Y-107825000D01*
X156625000Y-107860714D01*
X156553571Y-107967857D01*
X156517857Y-108110714D01*
X156517857Y-108396428D01*
X156553571Y-108467857D01*
X156589285Y-108503571D01*
X156660714Y-108539285D01*
X156803571Y-108539285D01*
X156875000Y-108503571D01*
X156910714Y-108467857D01*
X156946428Y-108396428D01*
X156946428Y-108217857D01*
X156910714Y-108146428D01*
X156875000Y-108110714D01*
X156803571Y-108075000D01*
X156660714Y-108075000D01*
X156589285Y-108110714D01*
X156553571Y-108146428D01*
X156517857Y-108217857D01*
%TO.C,J2*%
X113397619Y-120591666D02*
X112683333Y-120591666D01*
X112540476Y-120544047D01*
X112445238Y-120448809D01*
X112397619Y-120305952D01*
X112397619Y-120210714D01*
X113302380Y-121020238D02*
X113350000Y-121067857D01*
X113397619Y-121163095D01*
X113397619Y-121401190D01*
X113350000Y-121496428D01*
X113302380Y-121544047D01*
X113207142Y-121591666D01*
X113111904Y-121591666D01*
X112969047Y-121544047D01*
X112397619Y-120972619D01*
X112397619Y-121591666D01*
%TO.C,C5*%
X122467857Y-130725000D02*
X122503571Y-130760714D01*
X122539285Y-130867857D01*
X122539285Y-130939285D01*
X122503571Y-131046428D01*
X122432142Y-131117857D01*
X122360714Y-131153571D01*
X122217857Y-131189285D01*
X122110714Y-131189285D01*
X121967857Y-131153571D01*
X121896428Y-131117857D01*
X121825000Y-131046428D01*
X121789285Y-130939285D01*
X121789285Y-130867857D01*
X121825000Y-130760714D01*
X121860714Y-130725000D01*
X121789285Y-130046428D02*
X121789285Y-130403571D01*
X122146428Y-130439285D01*
X122110714Y-130403571D01*
X122075000Y-130332142D01*
X122075000Y-130153571D01*
X122110714Y-130082142D01*
X122146428Y-130046428D01*
X122217857Y-130010714D01*
X122396428Y-130010714D01*
X122467857Y-130046428D01*
X122503571Y-130082142D01*
X122539285Y-130153571D01*
X122539285Y-130332142D01*
X122503571Y-130403571D01*
X122467857Y-130439285D01*
%TO.C,-7V0*%
X141678571Y-141853571D02*
X142250000Y-141853571D01*
X142535714Y-141389285D02*
X143035714Y-141389285D01*
X142714285Y-142139285D01*
X143214285Y-141389285D02*
X143464285Y-142139285D01*
X143714285Y-141389285D01*
X144107142Y-141389285D02*
X144178571Y-141389285D01*
X144250000Y-141425000D01*
X144285714Y-141460714D01*
X144321428Y-141532142D01*
X144357142Y-141675000D01*
X144357142Y-141853571D01*
X144321428Y-141996428D01*
X144285714Y-142067857D01*
X144250000Y-142103571D01*
X144178571Y-142139285D01*
X144107142Y-142139285D01*
X144035714Y-142103571D01*
X144000000Y-142067857D01*
X143964285Y-141996428D01*
X143928571Y-141853571D01*
X143928571Y-141675000D01*
X143964285Y-141532142D01*
X144000000Y-141460714D01*
X144035714Y-141425000D01*
X144107142Y-141389285D01*
%TO.C,R23*%
X151517857Y-115909285D02*
X151267857Y-115552142D01*
X151089285Y-115909285D02*
X151089285Y-115159285D01*
X151375000Y-115159285D01*
X151446428Y-115195000D01*
X151482142Y-115230714D01*
X151517857Y-115302142D01*
X151517857Y-115409285D01*
X151482142Y-115480714D01*
X151446428Y-115516428D01*
X151375000Y-115552142D01*
X151089285Y-115552142D01*
X151803571Y-115230714D02*
X151839285Y-115195000D01*
X151910714Y-115159285D01*
X152089285Y-115159285D01*
X152160714Y-115195000D01*
X152196428Y-115230714D01*
X152232142Y-115302142D01*
X152232142Y-115373571D01*
X152196428Y-115480714D01*
X151767857Y-115909285D01*
X152232142Y-115909285D01*
X152482142Y-115159285D02*
X152946428Y-115159285D01*
X152696428Y-115445000D01*
X152803571Y-115445000D01*
X152875000Y-115480714D01*
X152910714Y-115516428D01*
X152946428Y-115587857D01*
X152946428Y-115766428D01*
X152910714Y-115837857D01*
X152875000Y-115873571D01*
X152803571Y-115909285D01*
X152589285Y-115909285D01*
X152517857Y-115873571D01*
X152482142Y-115837857D01*
%TO.C,R9*%
X150769285Y-124125000D02*
X150412142Y-124375000D01*
X150769285Y-124553571D02*
X150019285Y-124553571D01*
X150019285Y-124267857D01*
X150055000Y-124196428D01*
X150090714Y-124160714D01*
X150162142Y-124125000D01*
X150269285Y-124125000D01*
X150340714Y-124160714D01*
X150376428Y-124196428D01*
X150412142Y-124267857D01*
X150412142Y-124553571D01*
X150769285Y-123767857D02*
X150769285Y-123625000D01*
X150733571Y-123553571D01*
X150697857Y-123517857D01*
X150590714Y-123446428D01*
X150447857Y-123410714D01*
X150162142Y-123410714D01*
X150090714Y-123446428D01*
X150055000Y-123482142D01*
X150019285Y-123553571D01*
X150019285Y-123696428D01*
X150055000Y-123767857D01*
X150090714Y-123803571D01*
X150162142Y-123839285D01*
X150340714Y-123839285D01*
X150412142Y-123803571D01*
X150447857Y-123767857D01*
X150483571Y-123696428D01*
X150483571Y-123553571D01*
X150447857Y-123482142D01*
X150412142Y-123446428D01*
X150340714Y-123410714D01*
%TO.C,R15*%
X128649285Y-112082142D02*
X128292142Y-112332142D01*
X128649285Y-112510714D02*
X127899285Y-112510714D01*
X127899285Y-112225000D01*
X127935000Y-112153571D01*
X127970714Y-112117857D01*
X128042142Y-112082142D01*
X128149285Y-112082142D01*
X128220714Y-112117857D01*
X128256428Y-112153571D01*
X128292142Y-112225000D01*
X128292142Y-112510714D01*
X128649285Y-111367857D02*
X128649285Y-111796428D01*
X128649285Y-111582142D02*
X127899285Y-111582142D01*
X128006428Y-111653571D01*
X128077857Y-111725000D01*
X128113571Y-111796428D01*
X127899285Y-110689285D02*
X127899285Y-111046428D01*
X128256428Y-111082142D01*
X128220714Y-111046428D01*
X128185000Y-110975000D01*
X128185000Y-110796428D01*
X128220714Y-110725000D01*
X128256428Y-110689285D01*
X128327857Y-110653571D01*
X128506428Y-110653571D01*
X128577857Y-110689285D01*
X128613571Y-110725000D01*
X128649285Y-110796428D01*
X128649285Y-110975000D01*
X128613571Y-111046428D01*
X128577857Y-111082142D01*
%TO.C,C17*%
X120267857Y-104482142D02*
X120303571Y-104517857D01*
X120339285Y-104625000D01*
X120339285Y-104696428D01*
X120303571Y-104803571D01*
X120232142Y-104875000D01*
X120160714Y-104910714D01*
X120017857Y-104946428D01*
X119910714Y-104946428D01*
X119767857Y-104910714D01*
X119696428Y-104875000D01*
X119625000Y-104803571D01*
X119589285Y-104696428D01*
X119589285Y-104625000D01*
X119625000Y-104517857D01*
X119660714Y-104482142D01*
X120339285Y-103767857D02*
X120339285Y-104196428D01*
X120339285Y-103982142D02*
X119589285Y-103982142D01*
X119696428Y-104053571D01*
X119767857Y-104125000D01*
X119803571Y-104196428D01*
X119589285Y-103517857D02*
X119589285Y-103017857D01*
X120339285Y-103339285D01*
%TO.C,C27*%
X109667857Y-115232142D02*
X109703571Y-115267857D01*
X109739285Y-115375000D01*
X109739285Y-115446428D01*
X109703571Y-115553571D01*
X109632142Y-115625000D01*
X109560714Y-115660714D01*
X109417857Y-115696428D01*
X109310714Y-115696428D01*
X109167857Y-115660714D01*
X109096428Y-115625000D01*
X109025000Y-115553571D01*
X108989285Y-115446428D01*
X108989285Y-115375000D01*
X109025000Y-115267857D01*
X109060714Y-115232142D01*
X109060714Y-114946428D02*
X109025000Y-114910714D01*
X108989285Y-114839285D01*
X108989285Y-114660714D01*
X109025000Y-114589285D01*
X109060714Y-114553571D01*
X109132142Y-114517857D01*
X109203571Y-114517857D01*
X109310714Y-114553571D01*
X109739285Y-114982142D01*
X109739285Y-114517857D01*
X108989285Y-114267857D02*
X108989285Y-113767857D01*
X109739285Y-114089285D01*
%TO.C,C26*%
X118117857Y-114867857D02*
X118082142Y-114903571D01*
X117975000Y-114939285D01*
X117903571Y-114939285D01*
X117796428Y-114903571D01*
X117725000Y-114832142D01*
X117689285Y-114760714D01*
X117653571Y-114617857D01*
X117653571Y-114510714D01*
X117689285Y-114367857D01*
X117725000Y-114296428D01*
X117796428Y-114225000D01*
X117903571Y-114189285D01*
X117975000Y-114189285D01*
X118082142Y-114225000D01*
X118117857Y-114260714D01*
X118403571Y-114260714D02*
X118439285Y-114225000D01*
X118510714Y-114189285D01*
X118689285Y-114189285D01*
X118760714Y-114225000D01*
X118796428Y-114260714D01*
X118832142Y-114332142D01*
X118832142Y-114403571D01*
X118796428Y-114510714D01*
X118367857Y-114939285D01*
X118832142Y-114939285D01*
X119475000Y-114189285D02*
X119332142Y-114189285D01*
X119260714Y-114225000D01*
X119225000Y-114260714D01*
X119153571Y-114367857D01*
X119117857Y-114510714D01*
X119117857Y-114796428D01*
X119153571Y-114867857D01*
X119189285Y-114903571D01*
X119260714Y-114939285D01*
X119403571Y-114939285D01*
X119475000Y-114903571D01*
X119510714Y-114867857D01*
X119546428Y-114796428D01*
X119546428Y-114617857D01*
X119510714Y-114546428D01*
X119475000Y-114510714D01*
X119403571Y-114475000D01*
X119260714Y-114475000D01*
X119189285Y-114510714D01*
X119153571Y-114546428D01*
X119117857Y-114617857D01*
%TO.C,R30*%
X138569285Y-135282142D02*
X138212142Y-135532142D01*
X138569285Y-135710714D02*
X137819285Y-135710714D01*
X137819285Y-135425000D01*
X137855000Y-135353571D01*
X137890714Y-135317857D01*
X137962142Y-135282142D01*
X138069285Y-135282142D01*
X138140714Y-135317857D01*
X138176428Y-135353571D01*
X138212142Y-135425000D01*
X138212142Y-135710714D01*
X137819285Y-135032142D02*
X137819285Y-134567857D01*
X138105000Y-134817857D01*
X138105000Y-134710714D01*
X138140714Y-134639285D01*
X138176428Y-134603571D01*
X138247857Y-134567857D01*
X138426428Y-134567857D01*
X138497857Y-134603571D01*
X138533571Y-134639285D01*
X138569285Y-134710714D01*
X138569285Y-134925000D01*
X138533571Y-134996428D01*
X138497857Y-135032142D01*
X137819285Y-134103571D02*
X137819285Y-134032142D01*
X137855000Y-133960714D01*
X137890714Y-133925000D01*
X137962142Y-133889285D01*
X138105000Y-133853571D01*
X138283571Y-133853571D01*
X138426428Y-133889285D01*
X138497857Y-133925000D01*
X138533571Y-133960714D01*
X138569285Y-134032142D01*
X138569285Y-134103571D01*
X138533571Y-134175000D01*
X138497857Y-134210714D01*
X138426428Y-134246428D01*
X138283571Y-134282142D01*
X138105000Y-134282142D01*
X137962142Y-134246428D01*
X137890714Y-134210714D01*
X137855000Y-134175000D01*
X137819285Y-134103571D01*
%TO.C,R40*%
X122917857Y-126339285D02*
X122667857Y-125982142D01*
X122489285Y-126339285D02*
X122489285Y-125589285D01*
X122775000Y-125589285D01*
X122846428Y-125625000D01*
X122882142Y-125660714D01*
X122917857Y-125732142D01*
X122917857Y-125839285D01*
X122882142Y-125910714D01*
X122846428Y-125946428D01*
X122775000Y-125982142D01*
X122489285Y-125982142D01*
X123560714Y-125839285D02*
X123560714Y-126339285D01*
X123382142Y-125553571D02*
X123203571Y-126089285D01*
X123667857Y-126089285D01*
X124096428Y-125589285D02*
X124167857Y-125589285D01*
X124239285Y-125625000D01*
X124275000Y-125660714D01*
X124310714Y-125732142D01*
X124346428Y-125875000D01*
X124346428Y-126053571D01*
X124310714Y-126196428D01*
X124275000Y-126267857D01*
X124239285Y-126303571D01*
X124167857Y-126339285D01*
X124096428Y-126339285D01*
X124025000Y-126303571D01*
X123989285Y-126267857D01*
X123953571Y-126196428D01*
X123917857Y-126053571D01*
X123917857Y-125875000D01*
X123953571Y-125732142D01*
X123989285Y-125660714D01*
X124025000Y-125625000D01*
X124096428Y-125589285D01*
%TO.C,R25*%
X142517857Y-138909285D02*
X142267857Y-138552142D01*
X142089285Y-138909285D02*
X142089285Y-138159285D01*
X142375000Y-138159285D01*
X142446428Y-138195000D01*
X142482142Y-138230714D01*
X142517857Y-138302142D01*
X142517857Y-138409285D01*
X142482142Y-138480714D01*
X142446428Y-138516428D01*
X142375000Y-138552142D01*
X142089285Y-138552142D01*
X142803571Y-138230714D02*
X142839285Y-138195000D01*
X142910714Y-138159285D01*
X143089285Y-138159285D01*
X143160714Y-138195000D01*
X143196428Y-138230714D01*
X143232142Y-138302142D01*
X143232142Y-138373571D01*
X143196428Y-138480714D01*
X142767857Y-138909285D01*
X143232142Y-138909285D01*
X143910714Y-138159285D02*
X143553571Y-138159285D01*
X143517857Y-138516428D01*
X143553571Y-138480714D01*
X143625000Y-138445000D01*
X143803571Y-138445000D01*
X143875000Y-138480714D01*
X143910714Y-138516428D01*
X143946428Y-138587857D01*
X143946428Y-138766428D01*
X143910714Y-138837857D01*
X143875000Y-138873571D01*
X143803571Y-138909285D01*
X143625000Y-138909285D01*
X143553571Y-138873571D01*
X143517857Y-138837857D01*
%TO.C,R38*%
X122139285Y-126082142D02*
X121782142Y-126332142D01*
X122139285Y-126510714D02*
X121389285Y-126510714D01*
X121389285Y-126225000D01*
X121425000Y-126153571D01*
X121460714Y-126117857D01*
X121532142Y-126082142D01*
X121639285Y-126082142D01*
X121710714Y-126117857D01*
X121746428Y-126153571D01*
X121782142Y-126225000D01*
X121782142Y-126510714D01*
X121389285Y-125832142D02*
X121389285Y-125367857D01*
X121675000Y-125617857D01*
X121675000Y-125510714D01*
X121710714Y-125439285D01*
X121746428Y-125403571D01*
X121817857Y-125367857D01*
X121996428Y-125367857D01*
X122067857Y-125403571D01*
X122103571Y-125439285D01*
X122139285Y-125510714D01*
X122139285Y-125725000D01*
X122103571Y-125796428D01*
X122067857Y-125832142D01*
X121710714Y-124939285D02*
X121675000Y-125010714D01*
X121639285Y-125046428D01*
X121567857Y-125082142D01*
X121532142Y-125082142D01*
X121460714Y-125046428D01*
X121425000Y-125010714D01*
X121389285Y-124939285D01*
X121389285Y-124796428D01*
X121425000Y-124725000D01*
X121460714Y-124689285D01*
X121532142Y-124653571D01*
X121567857Y-124653571D01*
X121639285Y-124689285D01*
X121675000Y-124725000D01*
X121710714Y-124796428D01*
X121710714Y-124939285D01*
X121746428Y-125010714D01*
X121782142Y-125046428D01*
X121853571Y-125082142D01*
X121996428Y-125082142D01*
X122067857Y-125046428D01*
X122103571Y-125010714D01*
X122139285Y-124939285D01*
X122139285Y-124796428D01*
X122103571Y-124725000D01*
X122067857Y-124689285D01*
X121996428Y-124653571D01*
X121853571Y-124653571D01*
X121782142Y-124689285D01*
X121746428Y-124725000D01*
X121710714Y-124796428D01*
%TO.C,R18*%
X137059285Y-128482142D02*
X136702142Y-128732142D01*
X137059285Y-128910714D02*
X136309285Y-128910714D01*
X136309285Y-128625000D01*
X136345000Y-128553571D01*
X136380714Y-128517857D01*
X136452142Y-128482142D01*
X136559285Y-128482142D01*
X136630714Y-128517857D01*
X136666428Y-128553571D01*
X136702142Y-128625000D01*
X136702142Y-128910714D01*
X137059285Y-127767857D02*
X137059285Y-128196428D01*
X137059285Y-127982142D02*
X136309285Y-127982142D01*
X136416428Y-128053571D01*
X136487857Y-128125000D01*
X136523571Y-128196428D01*
X136630714Y-127339285D02*
X136595000Y-127410714D01*
X136559285Y-127446428D01*
X136487857Y-127482142D01*
X136452142Y-127482142D01*
X136380714Y-127446428D01*
X136345000Y-127410714D01*
X136309285Y-127339285D01*
X136309285Y-127196428D01*
X136345000Y-127125000D01*
X136380714Y-127089285D01*
X136452142Y-127053571D01*
X136487857Y-127053571D01*
X136559285Y-127089285D01*
X136595000Y-127125000D01*
X136630714Y-127196428D01*
X136630714Y-127339285D01*
X136666428Y-127410714D01*
X136702142Y-127446428D01*
X136773571Y-127482142D01*
X136916428Y-127482142D01*
X136987857Y-127446428D01*
X137023571Y-127410714D01*
X137059285Y-127339285D01*
X137059285Y-127196428D01*
X137023571Y-127125000D01*
X136987857Y-127089285D01*
X136916428Y-127053571D01*
X136773571Y-127053571D01*
X136702142Y-127089285D01*
X136666428Y-127125000D01*
X136630714Y-127196428D01*
%TO.C,C29*%
X116467857Y-129682142D02*
X116503571Y-129717857D01*
X116539285Y-129825000D01*
X116539285Y-129896428D01*
X116503571Y-130003571D01*
X116432142Y-130075000D01*
X116360714Y-130110714D01*
X116217857Y-130146428D01*
X116110714Y-130146428D01*
X115967857Y-130110714D01*
X115896428Y-130075000D01*
X115825000Y-130003571D01*
X115789285Y-129896428D01*
X115789285Y-129825000D01*
X115825000Y-129717857D01*
X115860714Y-129682142D01*
X115860714Y-129396428D02*
X115825000Y-129360714D01*
X115789285Y-129289285D01*
X115789285Y-129110714D01*
X115825000Y-129039285D01*
X115860714Y-129003571D01*
X115932142Y-128967857D01*
X116003571Y-128967857D01*
X116110714Y-129003571D01*
X116539285Y-129432142D01*
X116539285Y-128967857D01*
X116539285Y-128610714D02*
X116539285Y-128467857D01*
X116503571Y-128396428D01*
X116467857Y-128360714D01*
X116360714Y-128289285D01*
X116217857Y-128253571D01*
X115932142Y-128253571D01*
X115860714Y-128289285D01*
X115825000Y-128325000D01*
X115789285Y-128396428D01*
X115789285Y-128539285D01*
X115825000Y-128610714D01*
X115860714Y-128646428D01*
X115932142Y-128682142D01*
X116110714Y-128682142D01*
X116182142Y-128646428D01*
X116217857Y-128610714D01*
X116253571Y-128539285D01*
X116253571Y-128396428D01*
X116217857Y-128325000D01*
X116182142Y-128289285D01*
X116110714Y-128253571D01*
%TO.C,D4*%
X102452380Y-109488095D02*
X101452380Y-109488095D01*
X101452380Y-109250000D01*
X101500000Y-109107142D01*
X101595238Y-109011904D01*
X101690476Y-108964285D01*
X101880952Y-108916666D01*
X102023809Y-108916666D01*
X102214285Y-108964285D01*
X102309523Y-109011904D01*
X102404761Y-109107142D01*
X102452380Y-109250000D01*
X102452380Y-109488095D01*
X101785714Y-108059523D02*
X102452380Y-108059523D01*
X101404761Y-108297619D02*
X102119047Y-108535714D01*
X102119047Y-107916666D01*
%TO.C,+7V0*%
X158178571Y-142053571D02*
X158750000Y-142053571D01*
X158464285Y-142339285D02*
X158464285Y-141767857D01*
X159035714Y-141589285D02*
X159535714Y-141589285D01*
X159214285Y-142339285D01*
X159714285Y-141589285D02*
X159964285Y-142339285D01*
X160214285Y-141589285D01*
X160607142Y-141589285D02*
X160678571Y-141589285D01*
X160750000Y-141625000D01*
X160785714Y-141660714D01*
X160821428Y-141732142D01*
X160857142Y-141875000D01*
X160857142Y-142053571D01*
X160821428Y-142196428D01*
X160785714Y-142267857D01*
X160750000Y-142303571D01*
X160678571Y-142339285D01*
X160607142Y-142339285D01*
X160535714Y-142303571D01*
X160500000Y-142267857D01*
X160464285Y-142196428D01*
X160428571Y-142053571D01*
X160428571Y-141875000D01*
X160464285Y-141732142D01*
X160500000Y-141660714D01*
X160535714Y-141625000D01*
X160607142Y-141589285D01*
%TO.C,R3*%
X126769285Y-128125000D02*
X126412142Y-128375000D01*
X126769285Y-128553571D02*
X126019285Y-128553571D01*
X126019285Y-128267857D01*
X126055000Y-128196428D01*
X126090714Y-128160714D01*
X126162142Y-128125000D01*
X126269285Y-128125000D01*
X126340714Y-128160714D01*
X126376428Y-128196428D01*
X126412142Y-128267857D01*
X126412142Y-128553571D01*
X126019285Y-127875000D02*
X126019285Y-127410714D01*
X126305000Y-127660714D01*
X126305000Y-127553571D01*
X126340714Y-127482142D01*
X126376428Y-127446428D01*
X126447857Y-127410714D01*
X126626428Y-127410714D01*
X126697857Y-127446428D01*
X126733571Y-127482142D01*
X126769285Y-127553571D01*
X126769285Y-127767857D01*
X126733571Y-127839285D01*
X126697857Y-127875000D01*
D13*
%TO.C,R26*%
X138762742Y-105522500D02*
X139237258Y-105522500D01*
X138762742Y-104477500D02*
X139237258Y-104477500D01*
%TO.C,C8*%
X135837221Y-116490000D02*
X136162779Y-116490000D01*
X135837221Y-117510000D02*
X136162779Y-117510000D01*
%TO.C,R4*%
X129477500Y-111362742D02*
X129477500Y-111837258D01*
X130522500Y-111362742D02*
X130522500Y-111837258D01*
%TO.C,R16*%
X128902500Y-111837258D02*
X128902500Y-111362742D01*
X127857500Y-111837258D02*
X127857500Y-111362742D01*
%TO.C,C30*%
X118665000Y-129138748D02*
X118665000Y-129661252D01*
X120135000Y-129138748D02*
X120135000Y-129661252D01*
%TO.C,R21*%
X151487258Y-103977500D02*
X151012742Y-103977500D01*
X151487258Y-105022500D02*
X151012742Y-105022500D01*
%TO.C,JP3*%
X150350000Y-140100000D02*
X150350000Y-140700000D01*
X147550000Y-140700000D02*
X147550000Y-140100000D01*
X148250000Y-139400000D02*
X149650000Y-139400000D01*
X149650000Y-141400000D02*
X148250000Y-141400000D01*
X148250000Y-141400000D02*
G75*
G02*
X147550000Y-140700000I0J700000D01*
G01*
X150350000Y-140700000D02*
G75*
G02*
X149650000Y-141400000I-700000J0D01*
G01*
X147550000Y-140100000D02*
G75*
G02*
X148250000Y-139400000I700000J0D01*
G01*
X149650000Y-139400000D02*
G75*
G02*
X150350000Y-140100000I0J-700000D01*
G01*
%TO.C,U10*%
X111690000Y-120315000D02*
X111690000Y-119840000D01*
X111690000Y-127060000D02*
X112165000Y-127060000D01*
X111690000Y-119840000D02*
X112165000Y-119840000D01*
X111690000Y-126585000D02*
X111690000Y-127060000D01*
X118910000Y-120315000D02*
X118910000Y-119840000D01*
X118910000Y-126585000D02*
X118910000Y-127060000D01*
X118910000Y-127060000D02*
X118435000Y-127060000D01*
%TO.C,R8*%
X148022500Y-124237258D02*
X148022500Y-123762742D01*
X146977500Y-124237258D02*
X146977500Y-123762742D01*
%TO.C,C13*%
X144090000Y-109162779D02*
X144090000Y-108837221D01*
X145110000Y-109162779D02*
X145110000Y-108837221D01*
%TO.C,R19*%
X164037258Y-130277500D02*
X163562742Y-130277500D01*
X164037258Y-131322500D02*
X163562742Y-131322500D01*
%TO.C,Isense1*%
X154700000Y-130600000D02*
G75*
G03*
X154700000Y-130600000I-700000J0D01*
G01*
%TO.C,JP1*%
X150350000Y-134900000D02*
X150350000Y-135500000D01*
X147550000Y-135500000D02*
X147550000Y-134900000D01*
X148250000Y-134200000D02*
X149650000Y-134200000D01*
X149650000Y-136200000D02*
X148250000Y-136200000D01*
X148250000Y-136200000D02*
G75*
G02*
X147550000Y-135500000I0J700000D01*
G01*
X150350000Y-135500000D02*
G75*
G02*
X149650000Y-136200000I-700000J0D01*
G01*
X147550000Y-134900000D02*
G75*
G02*
X148250000Y-134200000I700000J0D01*
G01*
X149650000Y-134200000D02*
G75*
G02*
X150350000Y-134900000I0J-700000D01*
G01*
%TO.C,R46*%
X104522500Y-112037258D02*
X104522500Y-111562742D01*
X103477500Y-112037258D02*
X103477500Y-111562742D01*
%TO.C,R32*%
X136040000Y-127837221D02*
X136040000Y-128162779D01*
X137060000Y-127837221D02*
X137060000Y-128162779D01*
%TO.C,R44*%
X106122500Y-112037258D02*
X106122500Y-111562742D01*
X105077500Y-112037258D02*
X105077500Y-111562742D01*
%TO.C,U2*%
X125990000Y-128500000D02*
X125990000Y-130950000D01*
X129210000Y-130300000D02*
X129210000Y-128500000D01*
%TO.C,TP3*%
X132200000Y-116000000D02*
G75*
G03*
X132200000Y-116000000I-700000J0D01*
G01*
%TO.C,R31*%
X136290000Y-137637221D02*
X136290000Y-137962779D01*
X137310000Y-137637221D02*
X137310000Y-137962779D01*
%TO.C,R7*%
X149977500Y-123762742D02*
X149977500Y-124237258D01*
X151022500Y-123762742D02*
X151022500Y-124237258D01*
%TO.C,U5*%
X134798891Y-118150000D02*
X134798891Y-125350000D01*
%TO.C,TP6*%
X157700000Y-111500000D02*
G75*
G03*
X157700000Y-111500000I-700000J0D01*
G01*
%TO.C,D5*%
X105140974Y-134000000D02*
X105140974Y-134400000D01*
X105340974Y-134100000D02*
X105140974Y-134000000D01*
X105140974Y-134400000D02*
X105340974Y-134300000D01*
X105340974Y-134300000D02*
X105340974Y-134100000D01*
%TO.C,TP4*%
X145700000Y-125600000D02*
G75*
G03*
X145700000Y-125600000I-700000J0D01*
G01*
D10*
%TO.C,U7*%
X156175000Y-136825000D02*
X156175000Y-137125000D01*
X156175000Y-139950000D02*
X157400000Y-139950000D01*
X156175000Y-136825000D02*
X152825000Y-136825000D01*
X152825000Y-140175000D02*
X152825000Y-139875000D01*
X156175000Y-140175000D02*
X152825000Y-140175000D01*
X152825000Y-136825000D02*
X152825000Y-137125000D01*
X156175000Y-140175000D02*
X156175000Y-139950000D01*
D13*
%TO.C,C16*%
X127540580Y-127110000D02*
X127259420Y-127110000D01*
X127540580Y-126090000D02*
X127259420Y-126090000D01*
%TO.C,C22*%
X115540580Y-117710000D02*
X115259420Y-117710000D01*
X115540580Y-116690000D02*
X115259420Y-116690000D01*
%TO.C,R1*%
X135910000Y-111437221D02*
X135910000Y-111762779D01*
X134890000Y-111437221D02*
X134890000Y-111762779D01*
%TO.C,D3*%
X110040000Y-105377500D02*
X110040000Y-108062500D01*
X111960000Y-105377500D02*
X110040000Y-105377500D01*
X111960000Y-108062500D02*
X111960000Y-105377500D01*
%TO.C,R45*%
X102922500Y-112037258D02*
X102922500Y-111562742D01*
X101877500Y-112037258D02*
X101877500Y-111562742D01*
%TO.C,U3*%
X112860000Y-132110000D02*
X133180000Y-132110000D01*
X133180000Y-132110000D02*
X133180000Y-142270000D01*
X133180000Y-142270000D02*
X112860000Y-142270000D01*
X112860000Y-142270000D02*
X112860000Y-132110000D01*
%TO.C,R48*%
X103077500Y-131162742D02*
X103077500Y-131637258D01*
X104122500Y-131162742D02*
X104122500Y-131637258D01*
%TO.C,U1*%
X122565000Y-121500000D02*
X122565000Y-123450000D01*
X131435000Y-121500000D02*
X131435000Y-118050000D01*
X131435000Y-121500000D02*
X131435000Y-123450000D01*
X122565000Y-121500000D02*
X122565000Y-119550000D01*
%TO.C,FB1*%
X145690000Y-109162779D02*
X145690000Y-108837221D01*
X146710000Y-109162779D02*
X146710000Y-108837221D01*
%TO.C,R47*%
X104677500Y-131162742D02*
X104677500Y-131637258D01*
X105722500Y-131162742D02*
X105722500Y-131637258D01*
%TO.C,C12*%
X127510000Y-115437221D02*
X127510000Y-115762779D01*
X126490000Y-115437221D02*
X126490000Y-115762779D01*
%TO.C,U4*%
X149652500Y-126650000D02*
X147202500Y-126650000D01*
X147852500Y-129870000D02*
X149652500Y-129870000D01*
%TO.C,R42*%
X119277500Y-112362742D02*
X119277500Y-112837258D01*
X120322500Y-112362742D02*
X120322500Y-112837258D01*
%TO.C,C23*%
X115259420Y-110290000D02*
X115540580Y-110290000D01*
X115259420Y-111310000D02*
X115540580Y-111310000D01*
%TO.C,R14*%
X125902500Y-111837258D02*
X125902500Y-111362742D01*
X124857500Y-111837258D02*
X124857500Y-111362742D01*
%TO.C,R24*%
X142762742Y-139022500D02*
X143237258Y-139022500D01*
X142762742Y-137977500D02*
X143237258Y-137977500D01*
%TO.C,R2*%
X133290000Y-111762779D02*
X133290000Y-111437221D01*
X134310000Y-111762779D02*
X134310000Y-111437221D01*
%TO.C,C15*%
X135735000Y-137738748D02*
X135735000Y-138261252D01*
X134265000Y-137738748D02*
X134265000Y-138261252D01*
%TO.C,R13*%
X106677500Y-128762742D02*
X106677500Y-129237258D01*
X107722500Y-128762742D02*
X107722500Y-129237258D01*
%TO.C,R49*%
X101477500Y-131162742D02*
X101477500Y-131637258D01*
X102522500Y-131162742D02*
X102522500Y-131637258D01*
%TO.C,C25*%
X119490000Y-116740580D02*
X119490000Y-116459420D01*
X120510000Y-116740580D02*
X120510000Y-116459420D01*
%TO.C,C18*%
X113490000Y-106940580D02*
X113490000Y-106659420D01*
X114510000Y-106940580D02*
X114510000Y-106659420D01*
%TO.C,JP6*%
X158600000Y-135500000D02*
X158600000Y-134900000D01*
X161400000Y-134900000D02*
X161400000Y-135500000D01*
X160700000Y-136200000D02*
X159300000Y-136200000D01*
X159300000Y-134200000D02*
X160700000Y-134200000D01*
X160700000Y-134200000D02*
G75*
G02*
X161400000Y-134900000I0J-700000D01*
G01*
X158600000Y-134900000D02*
G75*
G02*
X159300000Y-134200000I700000J0D01*
G01*
X161400000Y-135500000D02*
G75*
G02*
X160700000Y-136200000I-700000J0D01*
G01*
X159300000Y-136200000D02*
G75*
G02*
X158600000Y-135500000I0J700000D01*
G01*
%TO.C,R22*%
X151762742Y-114522500D02*
X152237258Y-114522500D01*
X151762742Y-113477500D02*
X152237258Y-113477500D01*
D10*
%TO.C,U9*%
X142125000Y-109625000D02*
X142125000Y-109350000D01*
X138875000Y-106375000D02*
X138875000Y-106550000D01*
X138875000Y-106375000D02*
X142125000Y-106375000D01*
X138875000Y-109625000D02*
X138875000Y-109350000D01*
X142125000Y-106375000D02*
X142125000Y-106650000D01*
X138875000Y-106550000D02*
X137800000Y-106550000D01*
X138875000Y-109625000D02*
X142125000Y-109625000D01*
D13*
%TO.C,R34*%
X139677500Y-112762742D02*
X139677500Y-113237258D01*
X140722500Y-112762742D02*
X140722500Y-113237258D01*
%TO.C,SMU ON1*%
X149685000Y-119440000D02*
X147000000Y-119440000D01*
X149685000Y-121360000D02*
X149685000Y-119440000D01*
X147000000Y-121360000D02*
X149685000Y-121360000D01*
%TO.C,R39*%
X121090000Y-122362779D02*
X121090000Y-122037221D01*
X122110000Y-122362779D02*
X122110000Y-122037221D01*
%TO.C,R37*%
X151562742Y-120922500D02*
X152037258Y-120922500D01*
X151562742Y-119877500D02*
X152037258Y-119877500D01*
%TO.C,L1*%
X110528922Y-136985000D02*
X111046078Y-136985000D01*
X110528922Y-135565000D02*
X111046078Y-135565000D01*
%TO.C,R20*%
X151487258Y-105477500D02*
X151012742Y-105477500D01*
X151487258Y-106522500D02*
X151012742Y-106522500D01*
%TO.C,C9*%
X153910000Y-134637221D02*
X153910000Y-134962779D01*
X152890000Y-134637221D02*
X152890000Y-134962779D01*
%TO.C,JP2*%
X150350000Y-137500000D02*
X150350000Y-138100000D01*
X148250000Y-136800000D02*
X149650000Y-136800000D01*
X149650000Y-138800000D02*
X148250000Y-138800000D01*
X147550000Y-138100000D02*
X147550000Y-137500000D01*
X148250000Y-138800000D02*
G75*
G02*
X147550000Y-138100000I0J700000D01*
G01*
X147550000Y-137500000D02*
G75*
G02*
X148250000Y-136800000I700000J0D01*
G01*
X150350000Y-138100000D02*
G75*
G02*
X149650000Y-138800000I-700000J0D01*
G01*
X149650000Y-136800000D02*
G75*
G02*
X150350000Y-137500000I0J-700000D01*
G01*
%TO.C,C14*%
X135735000Y-134138748D02*
X135735000Y-134661252D01*
X134265000Y-134138748D02*
X134265000Y-134661252D01*
%TO.C,R41*%
X135077500Y-106137742D02*
X135077500Y-106612258D01*
X136122500Y-106137742D02*
X136122500Y-106612258D01*
%TO.C,C10*%
X155710000Y-134637221D02*
X155710000Y-134962779D01*
X154690000Y-134637221D02*
X154690000Y-134962779D01*
%TO.C,J1*%
X169700000Y-114000000D02*
X169700000Y-129000000D01*
X169500000Y-121500000D02*
X168500000Y-122500000D01*
X154700000Y-129000000D02*
X154700000Y-114000000D01*
X169700000Y-129000000D02*
X154700000Y-129000000D01*
X154700000Y-114000000D02*
X169700000Y-114000000D01*
X169500000Y-121500000D02*
X168500000Y-120500000D01*
%TO.C,U6*%
X117000000Y-108560000D02*
X116200000Y-108560000D01*
X117000000Y-108560000D02*
X118800000Y-108560000D01*
X117000000Y-105440000D02*
X117800000Y-105440000D01*
X117000000Y-105440000D02*
X116200000Y-105440000D01*
%TO.C,U8*%
X152100000Y-107400000D02*
X149100000Y-107400000D01*
X152100000Y-109600000D02*
X149900000Y-109600000D01*
%TO.C,R27*%
X102762742Y-128122500D02*
X103237258Y-128122500D01*
X102762742Y-127077500D02*
X103237258Y-127077500D01*
%TO.C,C4*%
X145090000Y-128662779D02*
X145090000Y-128337221D01*
X146110000Y-128662779D02*
X146110000Y-128337221D01*
%TO.C,J3*%
X125835000Y-101165000D02*
X129365000Y-101165000D01*
X129365000Y-101165000D02*
X129365000Y-101230000D01*
X129365000Y-107570000D02*
X129365000Y-107635000D01*
X125835000Y-101165000D02*
X125835000Y-101230000D01*
X125835000Y-107635000D02*
X129365000Y-107635000D01*
X124510000Y-101230000D02*
X125835000Y-101230000D01*
X125835000Y-107570000D02*
X125835000Y-107635000D01*
%TO.C,AmpOut1*%
X160300000Y-130800000D02*
G75*
G03*
X160300000Y-130800000I-700000J0D01*
G01*
%TO.C,R10*%
X111522500Y-103837258D02*
X111522500Y-103362742D01*
X110477500Y-103837258D02*
X110477500Y-103362742D01*
%TO.C,Y1*%
X113850000Y-116000000D02*
X117150000Y-116000000D01*
X117150000Y-116000000D02*
X117150000Y-112000000D01*
%TO.C,C2*%
X132010000Y-127837221D02*
X132010000Y-128162779D01*
X130990000Y-127837221D02*
X130990000Y-128162779D01*
%TO.C,R28*%
X122290000Y-115637221D02*
X122290000Y-115962779D01*
X123310000Y-115637221D02*
X123310000Y-115962779D01*
%TO.C,R35*%
X149962742Y-111322500D02*
X150437258Y-111322500D01*
X149962742Y-110277500D02*
X150437258Y-110277500D01*
%TO.C,R17*%
X132122500Y-111837258D02*
X132122500Y-111362742D01*
X131077500Y-111837258D02*
X131077500Y-111362742D01*
%TO.C,TP1*%
X153500000Y-123000000D02*
G75*
G03*
X153500000Y-123000000I-700000J0D01*
G01*
%TO.C,R5*%
X151477500Y-127762742D02*
X151477500Y-128237258D01*
X152522500Y-127762742D02*
X152522500Y-128237258D01*
%TO.C,C7*%
X133710000Y-127837221D02*
X133710000Y-128162779D01*
X132690000Y-127837221D02*
X132690000Y-128162779D01*
%TO.C,R33*%
X124910000Y-115962779D02*
X124910000Y-115637221D01*
X123890000Y-115962779D02*
X123890000Y-115637221D01*
%TO.C,C11*%
X140337221Y-127490000D02*
X140662779Y-127490000D01*
X140337221Y-128510000D02*
X140662779Y-128510000D01*
%TO.C,R11*%
X113322500Y-113087258D02*
X113322500Y-112612742D01*
X112277500Y-113087258D02*
X112277500Y-112612742D01*
%TO.C,C24*%
X111110000Y-129059420D02*
X111110000Y-129340580D01*
X110090000Y-129059420D02*
X110090000Y-129340580D01*
%TO.C,C3*%
X110624721Y-139365000D02*
X110950279Y-139365000D01*
X110624721Y-140385000D02*
X110950279Y-140385000D01*
%TO.C,R29*%
X135460000Y-128162779D02*
X135460000Y-127837221D01*
X134440000Y-128162779D02*
X134440000Y-127837221D01*
%TO.C,D1*%
X146315000Y-114920000D02*
X149000000Y-114920000D01*
X146315000Y-113000000D02*
X146315000Y-114920000D01*
X149000000Y-113000000D02*
X146315000Y-113000000D01*
%TO.C,C1*%
X110624721Y-137765000D02*
X110950279Y-137765000D01*
X110624721Y-138785000D02*
X110950279Y-138785000D01*
%TO.C,R12*%
X108277500Y-128762742D02*
X108277500Y-129237258D01*
X109322500Y-128762742D02*
X109322500Y-129237258D01*
%TO.C,D2*%
X146315000Y-117960000D02*
X149000000Y-117960000D01*
X146315000Y-116040000D02*
X146315000Y-117960000D01*
X149000000Y-116040000D02*
X146315000Y-116040000D01*
%TO.C,C6*%
X110624721Y-140965000D02*
X110950279Y-140965000D01*
X110624721Y-141985000D02*
X110950279Y-141985000D01*
%TO.C,R6*%
X132077500Y-118962742D02*
X132077500Y-119437258D01*
X133122500Y-118962742D02*
X133122500Y-119437258D01*
%TO.C,R43*%
X118802500Y-112837258D02*
X118802500Y-112362742D01*
X117757500Y-112837258D02*
X117757500Y-112362742D01*
%TO.C,C28*%
X111890000Y-116940580D02*
X111890000Y-116659420D01*
X112910000Y-116940580D02*
X112910000Y-116659420D01*
%TO.C,U11*%
X142500000Y-133400000D02*
X139500000Y-133400000D01*
X142500000Y-135600000D02*
X140300000Y-135600000D01*
%TO.C,R36*%
X156237258Y-109077500D02*
X155762742Y-109077500D01*
X156237258Y-110122500D02*
X155762742Y-110122500D01*
D14*
%TO.C,J2*%
X103650000Y-125975000D02*
X106075000Y-125973580D01*
D13*
%TO.C,C5*%
X124362779Y-131110000D02*
X124037221Y-131110000D01*
X124362779Y-130090000D02*
X124037221Y-130090000D01*
%TO.C,-7V0*%
X146300000Y-141800000D02*
G75*
G03*
X146300000Y-141800000I-700000J0D01*
G01*
%TO.C,R23*%
X151762742Y-117522500D02*
X152237258Y-117522500D01*
X151762742Y-116477500D02*
X152237258Y-116477500D01*
%TO.C,R9*%
X148477500Y-123762742D02*
X148477500Y-124237258D01*
X149522500Y-123762742D02*
X149522500Y-124237258D01*
%TO.C,R15*%
X126357500Y-111362742D02*
X126357500Y-111837258D01*
X127402500Y-111362742D02*
X127402500Y-111837258D01*
%TO.C,C17*%
X120510000Y-106659420D02*
X120510000Y-106940580D01*
X119490000Y-106659420D02*
X119490000Y-106940580D01*
%TO.C,C27*%
X110390000Y-116140580D02*
X110390000Y-115859420D01*
X111410000Y-116140580D02*
X111410000Y-115859420D01*
%TO.C,C26*%
X118935000Y-117311252D02*
X118935000Y-116788748D01*
X117465000Y-117311252D02*
X117465000Y-116788748D01*
%TO.C,R30*%
X136290000Y-134437221D02*
X136290000Y-134762779D01*
X137310000Y-134437221D02*
X137310000Y-134762779D01*
%TO.C,JP5*%
X158600000Y-138100000D02*
X158600000Y-137500000D01*
X160700000Y-138800000D02*
X159300000Y-138800000D01*
X159300000Y-136800000D02*
X160700000Y-136800000D01*
X161400000Y-137500000D02*
X161400000Y-138100000D01*
X160700000Y-136800000D02*
G75*
G02*
X161400000Y-137500000I0J-700000D01*
G01*
X161400000Y-138100000D02*
G75*
G02*
X160700000Y-138800000I-700000J0D01*
G01*
X158600000Y-137500000D02*
G75*
G02*
X159300000Y-136800000I700000J0D01*
G01*
X159300000Y-138800000D02*
G75*
G02*
X158600000Y-138100000I0J700000D01*
G01*
%TO.C,R40*%
X123910000Y-128037221D02*
X123910000Y-128362779D01*
X122890000Y-128037221D02*
X122890000Y-128362779D01*
%TO.C,JP4*%
X158600000Y-140700000D02*
X158600000Y-140100000D01*
X161400000Y-140100000D02*
X161400000Y-140700000D01*
X160700000Y-141400000D02*
X159300000Y-141400000D01*
X159300000Y-139400000D02*
X160700000Y-139400000D01*
X160700000Y-139400000D02*
G75*
G02*
X161400000Y-140100000I0J-700000D01*
G01*
X158600000Y-140100000D02*
G75*
G02*
X159300000Y-139400000I700000J0D01*
G01*
X161400000Y-140700000D02*
G75*
G02*
X160700000Y-141400000I-700000J0D01*
G01*
X159300000Y-141400000D02*
G75*
G02*
X158600000Y-140700000I0J700000D01*
G01*
%TO.C,R25*%
X142762742Y-140522500D02*
X143237258Y-140522500D01*
X142762742Y-139477500D02*
X143237258Y-139477500D01*
%TO.C,R38*%
X122310000Y-128027221D02*
X122310000Y-128352779D01*
X121290000Y-128027221D02*
X121290000Y-128352779D01*
%TO.C,R18*%
X138672500Y-128237258D02*
X138672500Y-127762742D01*
X137627500Y-128237258D02*
X137627500Y-127762742D01*
%TO.C,C29*%
X118110000Y-129059420D02*
X118110000Y-129340580D01*
X117090000Y-129059420D02*
X117090000Y-129340580D01*
%TO.C,D4*%
X105140974Y-108600000D02*
X105140974Y-109000000D01*
X105340974Y-108700000D02*
X105140974Y-108600000D01*
X105140974Y-109000000D02*
X105340974Y-108900000D01*
X105340974Y-108900000D02*
X105340974Y-108700000D01*
%TO.C,+7V0*%
X157500000Y-141600000D02*
G75*
G03*
X157500000Y-141600000I-700000J0D01*
G01*
%TO.C,R3*%
X124477500Y-127762742D02*
X124477500Y-128237258D01*
X125522500Y-127762742D02*
X125522500Y-128237258D01*
%TD*%
M02*
