%TF.GenerationSoftware,KiCad,Pcbnew,(5.99.0-7424-ge38b34a4eb)*%
%TF.CreationDate,2020-12-20T18:04:03+03:00*%
%TF.ProjectId,uSMU_v05,75534d55-5f76-4303-952e-6b696361645f,rev?*%
%TF.SameCoordinates,Original*%
%TF.FileFunction,Soldermask,Top*%
%TF.FilePolarity,Negative*%
%FSLAX46Y46*%
G04 Gerber Fmt 4.6, Leading zero omitted, Abs format (unit mm)*
G04 Created by KiCad (PCBNEW (5.99.0-7424-ge38b34a4eb)) date 2020-12-20 18:04:03*
%MOMM*%
%LPD*%
G01*
G04 APERTURE LIST*
G04 Aperture macros list*
%AMRoundRect*
0 Rectangle with rounded corners*
0 $1 Rounding radius*
0 $2 $3 $4 $5 $6 $7 $8 $9 X,Y pos of 4 corners*
0 Add a 4 corners polygon primitive as box body*
4,1,4,$2,$3,$4,$5,$6,$7,$8,$9,$2,$3,0*
0 Add four circle primitives for the rounded corners*
1,1,$1+$1,$2,$3,0*
1,1,$1+$1,$4,$5,0*
1,1,$1+$1,$6,$7,0*
1,1,$1+$1,$8,$9,0*
0 Add four rect primitives between the rounded corners*
20,1,$1+$1,$2,$3,$4,$5,0*
20,1,$1+$1,$4,$5,$6,$7,0*
20,1,$1+$1,$6,$7,$8,$9,0*
20,1,$1+$1,$8,$9,$2,$3,0*%
G04 Aperture macros list end*
%ADD10RoundRect,0.200000X-0.200000X-0.275000X0.200000X-0.275000X0.200000X0.275000X-0.200000X0.275000X0*%
%ADD11RoundRect,0.218750X-0.218750X-0.256250X0.218750X-0.256250X0.218750X0.256250X-0.218750X0.256250X0*%
%ADD12RoundRect,0.200000X-0.275000X0.200000X-0.275000X-0.200000X0.275000X-0.200000X0.275000X0.200000X0*%
%ADD13RoundRect,0.200000X0.275000X-0.200000X0.275000X0.200000X-0.275000X0.200000X-0.275000X-0.200000X0*%
%ADD14RoundRect,0.250000X-0.475000X0.250000X-0.475000X-0.250000X0.475000X-0.250000X0.475000X0.250000X0*%
%ADD15RoundRect,0.200000X0.200000X0.275000X-0.200000X0.275000X-0.200000X-0.275000X0.200000X-0.275000X0*%
%ADD16RoundRect,0.062500X-0.062500X0.375000X-0.062500X-0.375000X0.062500X-0.375000X0.062500X0.375000X0*%
%ADD17RoundRect,0.062500X-0.375000X0.062500X-0.375000X-0.062500X0.375000X-0.062500X0.375000X0.062500X0*%
%ADD18R,5.600000X5.600000*%
%ADD19RoundRect,0.218750X0.256250X-0.218750X0.256250X0.218750X-0.256250X0.218750X-0.256250X-0.218750X0*%
%ADD20C,1.000000*%
%ADD21RoundRect,0.218750X-0.256250X0.218750X-0.256250X-0.218750X0.256250X-0.218750X0.256250X0.218750X0*%
%ADD22R,0.650000X1.060000*%
%ADD23R,0.450000X1.050000*%
%ADD24R,6.000000X2.700000*%
%ADD25R,0.600000X0.700000*%
%ADD26R,1.400000X0.300000*%
%ADD27RoundRect,0.225000X0.225000X0.250000X-0.225000X0.250000X-0.225000X-0.250000X0.225000X-0.250000X0*%
%ADD28RoundRect,0.243750X-0.456250X0.243750X-0.456250X-0.243750X0.456250X-0.243750X0.456250X0.243750X0*%
%ADD29C,1.524000*%
%ADD30RoundRect,0.150000X-0.150000X0.825000X-0.150000X-0.825000X0.150000X-0.825000X0.150000X0.825000X0*%
%ADD31R,1.060000X0.650000*%
%ADD32RoundRect,0.225000X-0.225000X-0.250000X0.225000X-0.250000X0.225000X0.250000X-0.225000X0.250000X0*%
%ADD33RoundRect,0.225000X0.250000X-0.225000X0.250000X0.225000X-0.250000X0.225000X-0.250000X-0.225000X0*%
%ADD34R,1.100000X0.250000*%
%ADD35RoundRect,0.243750X0.243750X0.456250X-0.243750X0.456250X-0.243750X-0.456250X0.243750X-0.456250X0*%
%ADD36RoundRect,0.243750X-0.243750X-0.456250X0.243750X-0.456250X0.243750X0.456250X-0.243750X0.456250X0*%
%ADD37O,2.500000X1.600000*%
%ADD38O,7.000000X3.500000*%
%ADD39RoundRect,0.150000X0.512500X0.150000X-0.512500X0.150000X-0.512500X-0.150000X0.512500X-0.150000X0*%
%ADD40R,0.800000X0.300000*%
%ADD41R,2.400000X0.740000*%
%ADD42C,0.800000*%
%ADD43C,6.400000*%
%ADD44R,1.200000X1.400000*%
%ADD45RoundRect,0.225000X-0.250000X0.225000X-0.250000X-0.225000X0.250000X-0.225000X0.250000X0.225000X0*%
%ADD46R,0.700000X0.300000*%
%ADD47R,0.700000X1.000000*%
%ADD48O,2.100000X1.100000*%
%ADD49O,2.600000X1.100000*%
%ADD50RoundRect,0.218750X0.218750X0.256250X-0.218750X0.256250X-0.218750X-0.256250X0.218750X-0.256250X0*%
%ADD51RoundRect,0.250000X0.475000X-0.250000X0.475000X0.250000X-0.475000X0.250000X-0.475000X-0.250000X0*%
G04 APERTURE END LIST*
D10*
%TO.C,R26*%
X138175000Y-105000000D03*
X139825000Y-105000000D03*
%TD*%
D11*
%TO.C,C8*%
X135212500Y-117000000D03*
X136787500Y-117000000D03*
%TD*%
D12*
%TO.C,R4*%
X130000000Y-110775000D03*
X130000000Y-112425000D03*
%TD*%
D13*
%TO.C,R16*%
X128380000Y-112425000D03*
X128380000Y-110775000D03*
%TD*%
D14*
%TO.C,C30*%
X119400000Y-128450000D03*
X119400000Y-130350000D03*
%TD*%
D15*
%TO.C,R21*%
X152075000Y-104500000D03*
X150425000Y-104500000D03*
%TD*%
%TO.C,JP3*%
G36*
X148800000Y-141150000D02*
G01*
X148300000Y-141150000D01*
X148300000Y-141145033D01*
X148220059Y-141143568D01*
X148084744Y-141101293D01*
X147966734Y-141022738D01*
X147875514Y-140914219D01*
X147818419Y-140784460D01*
X147800836Y-140650000D01*
X147800000Y-140650000D01*
X147800000Y-140150000D01*
X147800836Y-140150000D01*
X147800037Y-140143891D01*
X147821848Y-140003814D01*
X147882096Y-139875489D01*
X147975940Y-139769231D01*
X148095835Y-139693583D01*
X148232142Y-139654626D01*
X148300000Y-139655041D01*
X148300000Y-139650000D01*
X148800000Y-139650000D01*
X148800000Y-141150000D01*
G37*
G36*
X149600000Y-139655041D02*
G01*
X149673905Y-139655492D01*
X149809726Y-139696111D01*
X149928688Y-139773218D01*
X150021226Y-139880615D01*
X150079903Y-140009667D01*
X150100000Y-140150000D01*
X150100000Y-140650000D01*
X150099851Y-140662216D01*
X150076331Y-140802017D01*
X150014519Y-140929596D01*
X149919384Y-141034700D01*
X149798574Y-141108877D01*
X149661801Y-141146166D01*
X149600000Y-141145033D01*
X149600000Y-141150000D01*
X149100000Y-141150000D01*
X149100000Y-139650000D01*
X149600000Y-139650000D01*
X149600000Y-139655041D01*
G37*
%TD*%
D16*
%TO.C,U10*%
X118050000Y-120012500D03*
X117550000Y-120012500D03*
X117050000Y-120012500D03*
X116550000Y-120012500D03*
X116050000Y-120012500D03*
X115550000Y-120012500D03*
X115050000Y-120012500D03*
X114550000Y-120012500D03*
X114050000Y-120012500D03*
X113550000Y-120012500D03*
X113050000Y-120012500D03*
X112550000Y-120012500D03*
D17*
X111862500Y-120700000D03*
X111862500Y-121200000D03*
X111862500Y-121700000D03*
X111862500Y-122200000D03*
X111862500Y-122700000D03*
X111862500Y-123200000D03*
X111862500Y-123700000D03*
X111862500Y-124200000D03*
X111862500Y-124700000D03*
X111862500Y-125200000D03*
X111862500Y-125700000D03*
X111862500Y-126200000D03*
D16*
X112550000Y-126887500D03*
X113050000Y-126887500D03*
X113550000Y-126887500D03*
X114050000Y-126887500D03*
X114550000Y-126887500D03*
X115050000Y-126887500D03*
X115550000Y-126887500D03*
X116050000Y-126887500D03*
X116550000Y-126887500D03*
X117050000Y-126887500D03*
X117550000Y-126887500D03*
X118050000Y-126887500D03*
D17*
X118737500Y-126200000D03*
X118737500Y-125700000D03*
X118737500Y-125200000D03*
X118737500Y-124700000D03*
X118737500Y-124200000D03*
X118737500Y-123700000D03*
X118737500Y-123200000D03*
X118737500Y-122700000D03*
X118737500Y-122200000D03*
X118737500Y-121700000D03*
X118737500Y-121200000D03*
X118737500Y-120700000D03*
D18*
X115300000Y-123450000D03*
%TD*%
D13*
%TO.C,R8*%
X147500000Y-124825000D03*
X147500000Y-123175000D03*
%TD*%
D19*
%TO.C,C13*%
X144600000Y-109787500D03*
X144600000Y-108212500D03*
%TD*%
D15*
%TO.C,R19*%
X164625000Y-130800000D03*
X162975000Y-130800000D03*
%TD*%
D20*
%TO.C,Isense1*%
X154000000Y-130600000D03*
%TD*%
%TO.C,JP1*%
G36*
X148800000Y-135950000D02*
G01*
X148300000Y-135950000D01*
X148300000Y-135945033D01*
X148220059Y-135943568D01*
X148084744Y-135901293D01*
X147966734Y-135822738D01*
X147875514Y-135714219D01*
X147818419Y-135584460D01*
X147800836Y-135450000D01*
X147800000Y-135450000D01*
X147800000Y-134950000D01*
X147800836Y-134950000D01*
X147800037Y-134943891D01*
X147821848Y-134803814D01*
X147882096Y-134675489D01*
X147975940Y-134569231D01*
X148095835Y-134493583D01*
X148232142Y-134454626D01*
X148300000Y-134455041D01*
X148300000Y-134450000D01*
X148800000Y-134450000D01*
X148800000Y-135950000D01*
G37*
G36*
X149600000Y-134455041D02*
G01*
X149673905Y-134455492D01*
X149809726Y-134496111D01*
X149928688Y-134573218D01*
X150021226Y-134680615D01*
X150079903Y-134809667D01*
X150100000Y-134950000D01*
X150100000Y-135450000D01*
X150099851Y-135462216D01*
X150076331Y-135602017D01*
X150014519Y-135729596D01*
X149919384Y-135834700D01*
X149798574Y-135908877D01*
X149661801Y-135946166D01*
X149600000Y-135945033D01*
X149600000Y-135950000D01*
X149100000Y-135950000D01*
X149100000Y-134450000D01*
X149600000Y-134450000D01*
X149600000Y-134455041D01*
G37*
%TD*%
D13*
%TO.C,R46*%
X104000000Y-112625000D03*
X104000000Y-110975000D03*
%TD*%
D21*
%TO.C,R32*%
X136550000Y-127212500D03*
X136550000Y-128787500D03*
%TD*%
D13*
%TO.C,R44*%
X105600000Y-112625000D03*
X105600000Y-110975000D03*
%TD*%
D22*
%TO.C,U2*%
X126650000Y-130500000D03*
X127600000Y-130500000D03*
X128550000Y-130500000D03*
X128550000Y-128300000D03*
X127600000Y-128300000D03*
X126650000Y-128300000D03*
%TD*%
D20*
%TO.C,TP3*%
X131500000Y-116000000D03*
%TD*%
D21*
%TO.C,R31*%
X136800000Y-137012500D03*
X136800000Y-138587500D03*
%TD*%
D12*
%TO.C,R7*%
X150500000Y-123175000D03*
X150500000Y-124825000D03*
%TD*%
D23*
%TO.C,U5*%
X135300000Y-124500000D03*
X135950000Y-124500000D03*
X136600000Y-124500000D03*
X137250000Y-124500000D03*
X137900000Y-124500000D03*
X138550000Y-124500000D03*
X139200000Y-124500000D03*
X139850000Y-124500000D03*
X140500000Y-124500000D03*
X141150000Y-124500000D03*
X141150000Y-119000000D03*
X140500000Y-119000000D03*
X139850000Y-119000000D03*
X139200000Y-119000000D03*
X138550000Y-119000000D03*
X137900000Y-119000000D03*
X137250000Y-119000000D03*
X136600000Y-119000000D03*
X135950000Y-119000000D03*
X135300000Y-119000000D03*
D24*
X138225000Y-121750000D03*
%TD*%
D20*
%TO.C,TP6*%
X157000000Y-111500000D03*
%TD*%
D25*
%TO.C,D5*%
X103300000Y-133700000D03*
X104700000Y-133700000D03*
X103300000Y-134700000D03*
X104700000Y-134700000D03*
%TD*%
D20*
%TO.C,TP4*%
X145000000Y-125600000D03*
%TD*%
D26*
%TO.C,U7*%
X156700000Y-139500000D03*
X156700000Y-139000000D03*
X156700000Y-138500000D03*
X156700000Y-138000000D03*
X156700000Y-137500000D03*
X152300000Y-137500000D03*
X152300000Y-138000000D03*
X152300000Y-138500000D03*
X152300000Y-139000000D03*
X152300000Y-139500000D03*
%TD*%
D27*
%TO.C,C16*%
X128175000Y-126600000D03*
X126625000Y-126600000D03*
%TD*%
%TO.C,C22*%
X116175000Y-117200000D03*
X114625000Y-117200000D03*
%TD*%
D21*
%TO.C,R1*%
X135400000Y-110812500D03*
X135400000Y-112387500D03*
%TD*%
D28*
%TO.C,D3*%
X111000000Y-106125000D03*
X111000000Y-108000000D03*
%TD*%
D13*
%TO.C,R45*%
X102400000Y-112625000D03*
X102400000Y-110975000D03*
%TD*%
D29*
%TO.C,U3*%
X115400000Y-141000000D03*
X130640000Y-141000000D03*
X130640000Y-133380000D03*
X128100000Y-133380000D03*
X123020000Y-133380000D03*
X115400000Y-133380000D03*
%TD*%
D12*
%TO.C,R48*%
X103600000Y-130575000D03*
X103600000Y-132225000D03*
%TD*%
D30*
%TO.C,U1*%
X130810000Y-119025000D03*
X129540000Y-119025000D03*
X128270000Y-119025000D03*
X127000000Y-119025000D03*
X125730000Y-119025000D03*
X124460000Y-119025000D03*
X123190000Y-119025000D03*
X123190000Y-123975000D03*
X124460000Y-123975000D03*
X125730000Y-123975000D03*
X127000000Y-123975000D03*
X128270000Y-123975000D03*
X129540000Y-123975000D03*
X130810000Y-123975000D03*
%TD*%
D19*
%TO.C,FB1*%
X146200000Y-109787500D03*
X146200000Y-108212500D03*
%TD*%
D12*
%TO.C,R47*%
X105200000Y-130575000D03*
X105200000Y-132225000D03*
%TD*%
D21*
%TO.C,C12*%
X127000000Y-114812500D03*
X127000000Y-116387500D03*
%TD*%
D31*
%TO.C,U4*%
X147652500Y-127310000D03*
X147652500Y-128260000D03*
X147652500Y-129210000D03*
X149852500Y-129210000D03*
X149852500Y-128260000D03*
X149852500Y-127310000D03*
%TD*%
D12*
%TO.C,R42*%
X119800000Y-111775000D03*
X119800000Y-113425000D03*
%TD*%
D32*
%TO.C,C23*%
X114625000Y-110800000D03*
X116175000Y-110800000D03*
%TD*%
D13*
%TO.C,R14*%
X125380000Y-112425000D03*
X125380000Y-110775000D03*
%TD*%
D10*
%TO.C,R24*%
X142175000Y-138500000D03*
X143825000Y-138500000D03*
%TD*%
D19*
%TO.C,R2*%
X133800000Y-112387500D03*
X133800000Y-110812500D03*
%TD*%
D14*
%TO.C,C15*%
X135000000Y-137050000D03*
X135000000Y-138950000D03*
%TD*%
D12*
%TO.C,R13*%
X107200000Y-128175000D03*
X107200000Y-129825000D03*
%TD*%
%TO.C,R49*%
X102000000Y-130575000D03*
X102000000Y-132225000D03*
%TD*%
D33*
%TO.C,C25*%
X120000000Y-117375000D03*
X120000000Y-115825000D03*
%TD*%
%TO.C,C18*%
X114000000Y-107575000D03*
X114000000Y-106025000D03*
%TD*%
%TO.C,JP6*%
G36*
X160150001Y-134450000D02*
G01*
X160650000Y-134450000D01*
X160650000Y-134454967D01*
X160729941Y-134456432D01*
X160865256Y-134498707D01*
X160983266Y-134577262D01*
X161074486Y-134685782D01*
X161131581Y-134815541D01*
X161149164Y-134950001D01*
X161150000Y-134950001D01*
X161149999Y-135450000D01*
X161149163Y-135450000D01*
X161149962Y-135456109D01*
X161128151Y-135596186D01*
X161067903Y-135724511D01*
X160974059Y-135830769D01*
X160854164Y-135906417D01*
X160717857Y-135945374D01*
X160650000Y-135944959D01*
X160650000Y-135950000D01*
X160150000Y-135949999D01*
X160150001Y-134450000D01*
G37*
G36*
X159350000Y-135944959D02*
G01*
X159276095Y-135944508D01*
X159140274Y-135903889D01*
X159021312Y-135826782D01*
X158928774Y-135719384D01*
X158870097Y-135590332D01*
X158850000Y-135449999D01*
X158850001Y-134950000D01*
X158850150Y-134937784D01*
X158873670Y-134797983D01*
X158935482Y-134670404D01*
X159030617Y-134565300D01*
X159151427Y-134491123D01*
X159288200Y-134453834D01*
X159350000Y-134454967D01*
X159350000Y-134450000D01*
X159850000Y-134450001D01*
X159849999Y-135950000D01*
X159350000Y-135950000D01*
X159350000Y-135944959D01*
G37*
%TD*%
D10*
%TO.C,R22*%
X151175000Y-114000000D03*
X152825000Y-114000000D03*
%TD*%
D34*
%TO.C,U9*%
X138350000Y-107000000D03*
X138350000Y-107500000D03*
X138350000Y-108000000D03*
X138350000Y-108500000D03*
X138350000Y-109000000D03*
X142650000Y-109000000D03*
X142650000Y-108500000D03*
X142650000Y-108000000D03*
X142650000Y-107500000D03*
X142650000Y-107000000D03*
%TD*%
D12*
%TO.C,R34*%
X140200000Y-112175000D03*
X140200000Y-113825000D03*
%TD*%
D35*
%TO.C,SMU ON1*%
X148937500Y-120400000D03*
X147062500Y-120400000D03*
%TD*%
D19*
%TO.C,R39*%
X121600000Y-122987500D03*
X121600000Y-121412500D03*
%TD*%
D10*
%TO.C,R37*%
X150975000Y-120400000D03*
X152625000Y-120400000D03*
%TD*%
D36*
%TO.C,L1*%
X109850000Y-136275000D03*
X111725000Y-136275000D03*
%TD*%
D15*
%TO.C,R20*%
X152075000Y-106000000D03*
X150425000Y-106000000D03*
%TD*%
D21*
%TO.C,C9*%
X153400000Y-134012500D03*
X153400000Y-135587500D03*
%TD*%
%TO.C,JP2*%
G36*
X148800000Y-138550000D02*
G01*
X148300000Y-138550000D01*
X148300000Y-138545033D01*
X148220059Y-138543568D01*
X148084744Y-138501293D01*
X147966734Y-138422738D01*
X147875514Y-138314219D01*
X147818419Y-138184460D01*
X147800836Y-138050000D01*
X147800000Y-138050000D01*
X147800000Y-137550000D01*
X147800836Y-137550000D01*
X147800037Y-137543891D01*
X147821848Y-137403814D01*
X147882096Y-137275489D01*
X147975940Y-137169231D01*
X148095835Y-137093583D01*
X148232142Y-137054626D01*
X148300000Y-137055041D01*
X148300000Y-137050000D01*
X148800000Y-137050000D01*
X148800000Y-138550000D01*
G37*
G36*
X149600000Y-137055041D02*
G01*
X149673905Y-137055492D01*
X149809726Y-137096111D01*
X149928688Y-137173218D01*
X150021226Y-137280615D01*
X150079903Y-137409667D01*
X150100000Y-137550000D01*
X150100000Y-138050000D01*
X150099851Y-138062216D01*
X150076331Y-138202017D01*
X150014519Y-138329596D01*
X149919384Y-138434700D01*
X149798574Y-138508877D01*
X149661801Y-138546166D01*
X149600000Y-138545033D01*
X149600000Y-138550000D01*
X149100000Y-138550000D01*
X149100000Y-137050000D01*
X149600000Y-137050000D01*
X149600000Y-137055041D01*
G37*
%TD*%
D14*
%TO.C,C14*%
X135000000Y-133450000D03*
X135000000Y-135350000D03*
%TD*%
D12*
%TO.C,R41*%
X135600000Y-105550000D03*
X135600000Y-107200000D03*
%TD*%
D21*
%TO.C,C10*%
X155200000Y-134012500D03*
X155200000Y-135587500D03*
%TD*%
D37*
%TO.C,J1*%
X157000000Y-121500000D03*
D38*
X162080000Y-116420000D03*
D37*
X157000000Y-118960000D03*
D38*
X162080000Y-126580000D03*
%TD*%
D39*
%TO.C,U6*%
X118137500Y-107950000D03*
X118137500Y-107000000D03*
X118137500Y-106050000D03*
X115862500Y-106050000D03*
X115862500Y-107950000D03*
%TD*%
D40*
%TO.C,U8*%
X149450000Y-107750000D03*
X149450000Y-108250000D03*
X149450000Y-108750000D03*
X149450000Y-109250000D03*
X152550000Y-109250000D03*
X152550000Y-108750000D03*
X152550000Y-108250000D03*
X152550000Y-107750000D03*
%TD*%
D10*
%TO.C,R27*%
X102175000Y-127600000D03*
X103825000Y-127600000D03*
%TD*%
D19*
%TO.C,C4*%
X145600000Y-129287500D03*
X145600000Y-127712500D03*
%TD*%
D41*
%TO.C,J3*%
X125650000Y-101860000D03*
X129550000Y-101860000D03*
X125650000Y-103130000D03*
X129550000Y-103130000D03*
X125650000Y-104400000D03*
X129550000Y-104400000D03*
X125650000Y-105670000D03*
X129550000Y-105670000D03*
X125650000Y-106940000D03*
X129550000Y-106940000D03*
%TD*%
D20*
%TO.C,AmpOut1*%
X159600000Y-130800000D03*
%TD*%
D13*
%TO.C,R10*%
X111000000Y-104425000D03*
X111000000Y-102775000D03*
%TD*%
D42*
%TO.C,H1*%
X166000000Y-136600000D03*
X167697056Y-140697056D03*
X168400000Y-139000000D03*
X164302944Y-140697056D03*
D43*
X166000000Y-139000000D03*
D42*
X164302944Y-137302944D03*
X163600000Y-139000000D03*
X166000000Y-141400000D03*
X167697056Y-137302944D03*
%TD*%
D44*
%TO.C,Y1*%
X116350000Y-115100000D03*
X116350000Y-112900000D03*
X114650000Y-112900000D03*
X114650000Y-115100000D03*
%TD*%
D21*
%TO.C,C2*%
X131500000Y-127212500D03*
X131500000Y-128787500D03*
%TD*%
%TO.C,R28*%
X122800000Y-115012500D03*
X122800000Y-116587500D03*
%TD*%
D10*
%TO.C,R35*%
X149375000Y-110800000D03*
X151025000Y-110800000D03*
%TD*%
D13*
%TO.C,R17*%
X131600000Y-112425000D03*
X131600000Y-110775000D03*
%TD*%
D20*
%TO.C,TP1*%
X152800000Y-123000000D03*
%TD*%
D12*
%TO.C,R5*%
X152000000Y-127175000D03*
X152000000Y-128825000D03*
%TD*%
D21*
%TO.C,C7*%
X133200000Y-127212500D03*
X133200000Y-128787500D03*
%TD*%
D19*
%TO.C,R33*%
X124400000Y-116587500D03*
X124400000Y-115012500D03*
%TD*%
D11*
%TO.C,C11*%
X139712500Y-128000000D03*
X141287500Y-128000000D03*
%TD*%
D13*
%TO.C,R11*%
X112800000Y-113675000D03*
X112800000Y-112025000D03*
%TD*%
D45*
%TO.C,C24*%
X110600000Y-128425000D03*
X110600000Y-129975000D03*
%TD*%
D11*
%TO.C,C3*%
X110000000Y-139875000D03*
X111575000Y-139875000D03*
%TD*%
D19*
%TO.C,R29*%
X134950000Y-128787500D03*
X134950000Y-127212500D03*
%TD*%
D36*
%TO.C,D1*%
X147062500Y-113960000D03*
X148937500Y-113960000D03*
%TD*%
D11*
%TO.C,C1*%
X110000000Y-138275000D03*
X111575000Y-138275000D03*
%TD*%
D42*
%TO.C,H4*%
X104000000Y-106400000D03*
X101600000Y-104000000D03*
X105697056Y-105697056D03*
X106400000Y-104000000D03*
X102302944Y-105697056D03*
X104000000Y-101600000D03*
X105697056Y-102302944D03*
D43*
X104000000Y-104000000D03*
D42*
X102302944Y-102302944D03*
%TD*%
D12*
%TO.C,R12*%
X108800000Y-128175000D03*
X108800000Y-129825000D03*
%TD*%
D36*
%TO.C,D2*%
X147062500Y-117000000D03*
X148937500Y-117000000D03*
%TD*%
D11*
%TO.C,C6*%
X110000000Y-141475000D03*
X111575000Y-141475000D03*
%TD*%
D12*
%TO.C,R6*%
X132600000Y-118375000D03*
X132600000Y-120025000D03*
%TD*%
D13*
%TO.C,R43*%
X118280000Y-113425000D03*
X118280000Y-111775000D03*
%TD*%
D33*
%TO.C,C28*%
X112400000Y-117575000D03*
X112400000Y-116025000D03*
%TD*%
D40*
%TO.C,U11*%
X139850000Y-133750000D03*
X139850000Y-134250000D03*
X139850000Y-134750000D03*
X139850000Y-135250000D03*
X142950000Y-135250000D03*
X142950000Y-134750000D03*
X142950000Y-134250000D03*
X142950000Y-133750000D03*
%TD*%
D15*
%TO.C,R36*%
X156825000Y-109600000D03*
X155175000Y-109600000D03*
%TD*%
D46*
%TO.C,J2*%
X107740000Y-118500000D03*
X107740000Y-119000000D03*
X107740000Y-119500000D03*
X107740000Y-120000000D03*
X107740000Y-120500000D03*
X107740000Y-121000000D03*
X107740000Y-122000000D03*
X107740000Y-122500000D03*
X107740000Y-123000000D03*
X107740000Y-123500000D03*
X107740000Y-124000000D03*
X107740000Y-124500000D03*
D47*
X106500000Y-124600000D03*
D46*
X106500000Y-123750000D03*
X106500000Y-123250000D03*
X106500000Y-122750000D03*
X106500000Y-122250000D03*
X106500000Y-121750000D03*
X106500000Y-121250000D03*
X106500000Y-120750000D03*
X106500000Y-120250000D03*
X106500000Y-119750000D03*
X106500000Y-119250000D03*
D47*
X106500000Y-118400000D03*
D48*
X107390000Y-125820000D03*
D49*
X102030000Y-125820000D03*
X102030000Y-117180000D03*
D48*
X107390000Y-117180000D03*
%TD*%
D50*
%TO.C,C5*%
X124987500Y-130600000D03*
X123412500Y-130600000D03*
%TD*%
D20*
%TO.C,-7V0*%
X145600000Y-141800000D03*
%TD*%
D10*
%TO.C,R23*%
X151175000Y-117000000D03*
X152825000Y-117000000D03*
%TD*%
D12*
%TO.C,R9*%
X149000000Y-123175000D03*
X149000000Y-124825000D03*
%TD*%
%TO.C,R15*%
X126880000Y-110775000D03*
X126880000Y-112425000D03*
%TD*%
D45*
%TO.C,C17*%
X120000000Y-106025000D03*
X120000000Y-107575000D03*
%TD*%
D33*
%TO.C,C27*%
X110900000Y-116775000D03*
X110900000Y-115225000D03*
%TD*%
D51*
%TO.C,C26*%
X118200000Y-118000000D03*
X118200000Y-116100000D03*
%TD*%
D21*
%TO.C,R30*%
X136800000Y-133812500D03*
X136800000Y-135387500D03*
%TD*%
%TO.C,JP5*%
G36*
X160150001Y-137050000D02*
G01*
X160650000Y-137050000D01*
X160650000Y-137054967D01*
X160729941Y-137056432D01*
X160865256Y-137098707D01*
X160983266Y-137177262D01*
X161074486Y-137285782D01*
X161131581Y-137415541D01*
X161149164Y-137550001D01*
X161150000Y-137550001D01*
X161149999Y-138050000D01*
X161149163Y-138050000D01*
X161149962Y-138056109D01*
X161128151Y-138196186D01*
X161067903Y-138324511D01*
X160974059Y-138430769D01*
X160854164Y-138506417D01*
X160717857Y-138545374D01*
X160650000Y-138544959D01*
X160650000Y-138550000D01*
X160150000Y-138549999D01*
X160150001Y-137050000D01*
G37*
G36*
X159350000Y-138544959D02*
G01*
X159276095Y-138544508D01*
X159140274Y-138503889D01*
X159021312Y-138426782D01*
X158928774Y-138319384D01*
X158870097Y-138190332D01*
X158850000Y-138049999D01*
X158850001Y-137550000D01*
X158850150Y-137537784D01*
X158873670Y-137397983D01*
X158935482Y-137270404D01*
X159030617Y-137165300D01*
X159151427Y-137091123D01*
X159288200Y-137053834D01*
X159350000Y-137054967D01*
X159350000Y-137050000D01*
X159850000Y-137050001D01*
X159849999Y-138550000D01*
X159350000Y-138550000D01*
X159350000Y-138544959D01*
G37*
%TD*%
%TO.C,R40*%
X123400000Y-127412500D03*
X123400000Y-128987500D03*
%TD*%
%TO.C,JP4*%
G36*
X160150001Y-139650000D02*
G01*
X160650000Y-139650000D01*
X160650000Y-139654967D01*
X160729941Y-139656432D01*
X160865256Y-139698707D01*
X160983266Y-139777262D01*
X161074486Y-139885782D01*
X161131581Y-140015541D01*
X161149164Y-140150001D01*
X161150000Y-140150001D01*
X161149999Y-140650000D01*
X161149163Y-140650000D01*
X161149962Y-140656109D01*
X161128151Y-140796186D01*
X161067903Y-140924511D01*
X160974059Y-141030769D01*
X160854164Y-141106417D01*
X160717857Y-141145374D01*
X160650000Y-141144959D01*
X160650000Y-141150000D01*
X160150000Y-141149999D01*
X160150001Y-139650000D01*
G37*
G36*
X159350000Y-141144959D02*
G01*
X159276095Y-141144508D01*
X159140274Y-141103889D01*
X159021312Y-141026782D01*
X158928774Y-140919384D01*
X158870097Y-140790332D01*
X158850000Y-140649999D01*
X158850001Y-140150000D01*
X158850150Y-140137784D01*
X158873670Y-139997983D01*
X158935482Y-139870404D01*
X159030617Y-139765300D01*
X159151427Y-139691123D01*
X159288200Y-139653834D01*
X159350000Y-139654967D01*
X159350000Y-139650000D01*
X159850000Y-139650001D01*
X159849999Y-141150000D01*
X159350000Y-141150000D01*
X159350000Y-141144959D01*
G37*
%TD*%
D10*
%TO.C,R25*%
X142175000Y-140000000D03*
X143825000Y-140000000D03*
%TD*%
D21*
%TO.C,R38*%
X121800000Y-127402500D03*
X121800000Y-128977500D03*
%TD*%
D13*
%TO.C,R18*%
X138150000Y-128825000D03*
X138150000Y-127175000D03*
%TD*%
D45*
%TO.C,C29*%
X117600000Y-128425000D03*
X117600000Y-129975000D03*
%TD*%
D25*
%TO.C,D4*%
X103300000Y-108300000D03*
X104700000Y-108300000D03*
X103300000Y-109300000D03*
X104700000Y-109300000D03*
%TD*%
D20*
%TO.C,+7V0*%
X156800000Y-141600000D03*
%TD*%
D12*
%TO.C,R3*%
X125000000Y-127175000D03*
X125000000Y-128825000D03*
%TD*%
D42*
%TO.C,H3*%
X164302944Y-105697056D03*
X164302944Y-102302944D03*
X168400000Y-104000000D03*
X167697056Y-102302944D03*
X166000000Y-106400000D03*
D43*
X166000000Y-104000000D03*
D42*
X166000000Y-101600000D03*
X163600000Y-104000000D03*
X167697056Y-105697056D03*
%TD*%
%TO.C,H2*%
X106400000Y-139000000D03*
X104000000Y-141400000D03*
X105697056Y-140697056D03*
X102302944Y-140697056D03*
X104000000Y-136600000D03*
X105697056Y-137302944D03*
X101600000Y-139000000D03*
X102302944Y-137302944D03*
D43*
X104000000Y-139000000D03*
%TD*%
M02*
