%TF.GenerationSoftware,KiCad,Pcbnew,(5.99.0-7424-ge38b34a4eb)*%
%TF.CreationDate,2020-12-20T18:04:03+03:00*%
%TF.ProjectId,uSMU_v05,75534d55-5f76-4303-952e-6b696361645f,rev?*%
%TF.SameCoordinates,Original*%
%TF.FileFunction,Soldermask,Bot*%
%TF.FilePolarity,Negative*%
%FSLAX46Y46*%
G04 Gerber Fmt 4.6, Leading zero omitted, Abs format (unit mm)*
G04 Created by KiCad (PCBNEW (5.99.0-7424-ge38b34a4eb)) date 2020-12-20 18:04:03*
%MOMM*%
%LPD*%
G01*
G04 APERTURE LIST*
%ADD10C,0.100000*%
%ADD11C,1.524000*%
%ADD12O,2.500000X1.600000*%
%ADD13O,7.000000X3.500000*%
%ADD14C,0.800000*%
%ADD15C,6.400000*%
%ADD16O,2.100000X1.100000*%
%ADD17O,2.600000X1.100000*%
G04 APERTURE END LIST*
D10*
X145000000Y-123500000D02*
X133000000Y-123500000D01*
X133000000Y-123500000D02*
X133000000Y-120000000D01*
X133000000Y-120000000D02*
X145000000Y-120000000D01*
X145000000Y-120000000D02*
X145000000Y-123500000D01*
G36*
X145000000Y-123500000D02*
G01*
X133000000Y-123500000D01*
X133000000Y-120000000D01*
X145000000Y-120000000D01*
X145000000Y-123500000D01*
G37*
X145000000Y-123500000D02*
X133000000Y-123500000D01*
X133000000Y-120000000D01*
X145000000Y-120000000D01*
X145000000Y-123500000D01*
D11*
%TO.C,U3*%
X115400000Y-141000000D03*
X130640000Y-141000000D03*
X130640000Y-133380000D03*
X128100000Y-133380000D03*
X123020000Y-133380000D03*
X115400000Y-133380000D03*
%TD*%
D12*
%TO.C,J1*%
X157000000Y-121500000D03*
D13*
X162080000Y-116420000D03*
D12*
X157000000Y-118960000D03*
D13*
X162080000Y-126580000D03*
%TD*%
D14*
%TO.C,H1*%
X166000000Y-136600000D03*
X167697056Y-140697056D03*
X168400000Y-139000000D03*
X164302944Y-140697056D03*
D15*
X166000000Y-139000000D03*
D14*
X164302944Y-137302944D03*
X163600000Y-139000000D03*
X166000000Y-141400000D03*
X167697056Y-137302944D03*
%TD*%
%TO.C,H4*%
X104000000Y-106400000D03*
X101600000Y-104000000D03*
X105697056Y-105697056D03*
X106400000Y-104000000D03*
X102302944Y-105697056D03*
X104000000Y-101600000D03*
X105697056Y-102302944D03*
D15*
X104000000Y-104000000D03*
D14*
X102302944Y-102302944D03*
%TD*%
D16*
%TO.C,J2*%
X107390000Y-125820000D03*
D17*
X102030000Y-125820000D03*
X102030000Y-117180000D03*
D16*
X107390000Y-117180000D03*
%TD*%
D14*
%TO.C,H3*%
X164302944Y-105697056D03*
X164302944Y-102302944D03*
X168400000Y-104000000D03*
X167697056Y-102302944D03*
X166000000Y-106400000D03*
D15*
X166000000Y-104000000D03*
D14*
X166000000Y-101600000D03*
X163600000Y-104000000D03*
X167697056Y-105697056D03*
%TD*%
%TO.C,H2*%
X106400000Y-139000000D03*
X104000000Y-141400000D03*
X105697056Y-140697056D03*
X102302944Y-140697056D03*
X104000000Y-136600000D03*
X105697056Y-137302944D03*
X101600000Y-139000000D03*
X102302944Y-137302944D03*
D15*
X104000000Y-139000000D03*
%TD*%
M02*
