M48
; DRILL file {KiCad (5.99.0-7424-ge38b34a4eb)} date 12/20/20 18:04:00
; FORMAT={-:-/ absolute / inch / decimal}
; #@! TF.CreationDate,2020-12-20T18:04:00+03:00
; #@! TF.GenerationSoftware,Kicad,Pcbnew,(5.99.0-7424-ge38b34a4eb)
; #@! TF.FileFunction,Plated,1,4,PTH
FMAT,2
INCH
T1C0.0118
T2C0.0157
T3C0.0197
T4C0.0236
T5C0.0300
T6C0.0350
T7C0.0791
T8C0.1260
%
G90
G05
T1
X4.0315Y-4.5669
X4.0709Y-5.0945
X4.0945Y-4.4724
X4.1181Y-5.0709
X4.1417Y-4.7874
X4.1496Y-5.0315
X4.252Y-4.5354
X4.2756Y-4.7795
X4.2756Y-4.8189
X4.2913Y-4.5669
X4.2913Y-4.622
X4.3081Y-5.0
X4.3091Y-4.7008
X4.3159Y-4.4419
X4.3327Y-4.9764
X4.3386Y-4.4803
X4.3573Y-4.9528
X4.3583Y-4.6831
X4.3701Y-4.6457
X4.378Y-4.4882
X4.4016Y-4.6063
X4.4016Y-4.7116
X4.4016Y-5.0
X4.5039Y-5.0472
X4.5354Y-5.0709
X4.6594Y-5.0571
X4.6929Y-4.6929
X4.7185Y-4.8583
X5.315Y-4.5591
X5.409Y-4.2753
X5.5669Y-4.4173
T2
X4.0079Y-5.0787
X4.1024Y-4.6693
X4.1024Y-4.7165
X4.1024Y-4.8425
X4.1024Y-4.8898
X4.1496Y-4.6693
X4.1496Y-4.7165
X4.1496Y-4.8425
X4.1496Y-4.8898
X4.1575Y-4.9449
X4.1575Y-5.2598
X4.1969Y-4.5276
X4.2205Y-5.1575
X4.2751Y-5.3652
X4.2751Y-5.4439
X4.2751Y-5.5069
X4.2751Y-5.5699
X4.2874Y-4.6614
X4.2913Y-5.2598
X4.3228Y-4.0472
X4.3622Y-4.7362
X4.3701Y-4.2992
X4.4213Y-4.2953
X4.4331Y-4.0
X4.4331Y-5.1339
X4.4803Y-4.8031
X4.4803Y-4.9134
X4.4882Y-4.122
X4.4882Y-4.2992
X4.5591Y-4.2992
X4.5669Y-5.1024
X4.5984Y-4.8031
X4.5984Y-4.9134
X4.6299Y-5.1575
X4.6496Y-4.1339
X4.6535Y-4.685
X4.685Y-5.0079
X4.6969Y-4.5709
X4.7087Y-5.189
X4.7165Y-4.3543
X4.7244Y-4.1299
X4.7352Y-4.9606
X4.7638Y-5.4488
X4.7717Y-4.9055
X4.7717Y-4.7362
X4.7874Y-4.315
X4.7953Y-4.685
X4.8189Y-4.2756
X4.8317Y-4.6142
X4.8425Y-5.189
X4.8661Y-4.0079
X4.8898Y-4.3622
X4.8937Y-4.7638
X4.9331Y-4.9567
X4.9528Y-5.0394
X4.9921Y-5.4252
X5.0Y-4.4724
X5.0Y-4.622
X5.0Y-5.189
X5.0236Y-4.748
X5.0463Y-4.9498
X5.0551Y-4.4882
X5.0984Y-5.189
X5.1285Y-5.0354
X5.1339Y-5.126
X5.1811Y-4.2087
X5.1811Y-4.4961
X5.1969Y-4.9449
X5.2244Y-4.878
X5.2283Y-5.3858
X5.2441Y-5.1339
X5.2677Y-4.4646
X5.2992Y-4.9567
X5.3022Y-4.7953
X5.315Y-5.5827
X5.3307Y-4.3071
X5.3386Y-4.0079
X5.378Y-4.9449
X5.3858Y-4.4882
X5.3858Y-4.5591
X5.4331Y-4.9606
X5.4488Y-4.4409
X5.4488Y-4.4882
X5.4537Y-4.6063
X5.4646Y-5.3071
X5.4646Y-5.4488
X5.4709Y-4.5246
X5.4882Y-5.0787
X5.5039Y-4.1811
X5.5039Y-5.2283
X5.5039Y-5.3622
X5.5039Y-5.5118
X5.5354Y-4.5433
X5.5354Y-4.9606
X5.5512Y-5.1102
X5.5591Y-4.6348
X5.5669Y-4.1181
X5.5669Y-5.1811
X5.6102Y-4.7244
X5.6102Y-4.8031
X5.6102Y-4.8819
X5.6102Y-4.9606
X5.6142Y-4.1732
X5.6142Y-5.0945
X5.622Y-4.4016
X5.628Y-5.2185
X5.6318Y-5.0593
X5.6693Y-4.6457
X5.6693Y-4.7244
X5.6693Y-4.8031
X5.6693Y-4.8819
X5.6772Y-5.1102
X5.6772Y-5.5827
X5.7126Y-4.5315
X5.7244Y-5.4488
X5.7244Y-5.5118
X5.7323Y-5.1811
X5.7402Y-4.4882
X5.7402Y-4.6063
X5.748Y-4.8583
X5.8189Y-4.3228
X5.8268Y-4.2598
X5.8346Y-4.2205
X5.8425Y-5.1496
X5.874Y-4.1732
X5.8819Y-4.1181
X5.9685Y-5.3307
X5.9764Y-4.7795
X5.9764Y-5.2913
X5.9843Y-4.685
X5.9843Y-4.9134
X6.0315Y-4.1102
X6.0394Y-5.0866
X6.0472Y-5.3858
X6.063Y-4.2913
X6.0709Y-4.0079
X6.0738Y-5.0551
X6.0787Y-4.4016
X6.1102Y-5.4331
X6.1201Y-4.4488
X6.126Y-5.5276
X6.1732Y-5.2756
X6.1811Y-4.9921
X6.252Y-4.3937
X6.3701Y-5.1496
X6.5827Y-5.2303
X6.5906Y-4.3012
T3
X4.0Y-4.0945
X4.0Y-5.4724
X4.0277Y-4.0277
X4.0277Y-4.1613
X4.0277Y-5.4056
X4.0277Y-5.5393
X4.0945Y-4.0
X4.0945Y-4.189
X4.0945Y-5.378
X4.0945Y-5.5669
X4.1613Y-4.0277
X4.1613Y-4.1613
X4.1613Y-5.4056
X4.1613Y-5.5393
X4.189Y-4.0945
X4.189Y-5.4724
X6.4409Y-4.0945
X6.4409Y-5.4724
X6.4686Y-4.0277
X6.4686Y-4.1613
X6.4686Y-5.4056
X6.4686Y-5.5393
X6.5354Y-4.0
X6.5354Y-4.189
X6.5354Y-5.378
X6.5354Y-5.5669
X6.6022Y-4.0277
X6.6022Y-4.1613
X6.6022Y-5.4056
X6.6022Y-5.5393
X6.6299Y-4.0945
X6.6299Y-5.4724
T5
X4.5433Y-5.2512
X4.5433Y-5.5512
X4.8433Y-5.2512
X5.0433Y-5.2512
X5.1433Y-5.2512
X5.1433Y-5.5512
T6
X6.1811Y-4.6835
X6.1811Y-4.7835
T7
X6.3811Y-4.5835
X6.3811Y-4.9835
T8
X4.0945Y-4.0945
X4.0945Y-5.4724
X6.5354Y-4.0945
X6.5354Y-5.4724
T4
G00X4.0465Y-4.6134
M15
G01X3.9874Y-4.6134
M16
G05
G00X4.0465Y-4.9535
M15
G01X3.9874Y-4.9535
M16
G05
G00X4.2476Y-4.6134
M15
G01X4.2083Y-4.6134
M16
G05
G00X4.2476Y-4.9535
M15
G01X4.2083Y-4.9535
M16
G05
T0
M30
