%TF.GenerationSoftware,KiCad,Pcbnew,(6.0.0)*%
%TF.CreationDate,2022-03-21T15:30:00+00:00*%
%TF.ProjectId,uSMU_v10,75534d55-5f76-4313-902e-6b696361645f,rev?*%
%TF.SameCoordinates,Original*%
%TF.FileFunction,Legend,Top*%
%TF.FilePolarity,Positive*%
%FSLAX46Y46*%
G04 Gerber Fmt 4.6, Leading zero omitted, Abs format (unit mm)*
G04 Created by KiCad (PCBNEW (6.0.0)) date 2022-03-21 15:30:00*
%MOMM*%
%LPD*%
G01*
G04 APERTURE LIST*
%ADD10C,0.150000*%
%ADD11C,0.225000*%
%ADD12C,0.250000*%
%ADD13C,0.300000*%
%ADD14C,0.120000*%
G04 APERTURE END LIST*
D10*
X121400000Y-115800000D02*
X124700000Y-115800000D01*
X124600000Y-117200000D02*
X123000000Y-115800000D01*
X127200000Y-117200000D02*
X123000000Y-117200000D01*
X157000000Y-94600000D02*
X157000000Y-99292893D01*
X149807107Y-99292893D02*
G75*
G03*
X150807107Y-100292893I1000000J0D01*
G01*
X154100000Y-106300000D02*
X161400000Y-106300000D01*
X156000000Y-100292893D02*
X150807107Y-100292893D01*
X156000000Y-100292893D02*
G75*
G03*
X157000000Y-99292893I0J1000000D01*
G01*
X149807107Y-94600000D02*
X149807107Y-99292893D01*
D11*
X144084771Y-118218223D02*
X144933299Y-118642487D01*
X144509035Y-117793959D01*
X144721167Y-117581827D02*
X145236345Y-118097005D01*
X145327258Y-118127309D01*
X145387867Y-118127309D01*
X145478781Y-118097005D01*
X145600000Y-117975786D01*
X145630304Y-117884873D01*
X145630304Y-117824264D01*
X145600000Y-117733350D01*
X145084822Y-117218172D01*
X145963654Y-117551522D02*
X146084873Y-117490913D01*
X146236396Y-117339390D01*
X146266700Y-117248477D01*
X146266700Y-117187867D01*
X146236396Y-117096954D01*
X146175786Y-117036345D01*
X146084873Y-117006040D01*
X146024264Y-117006040D01*
X145933350Y-117036345D01*
X145781827Y-117127258D01*
X145690913Y-117157563D01*
X145630304Y-117157563D01*
X145539390Y-117127258D01*
X145478781Y-117066649D01*
X145448477Y-116975735D01*
X145448477Y-116915126D01*
X145478781Y-116824213D01*
X145630304Y-116672690D01*
X145751522Y-116612081D01*
X146509137Y-116399948D02*
X146630355Y-116339339D01*
X146690964Y-116339339D01*
X146781878Y-116369644D01*
X146872792Y-116460558D01*
X146903096Y-116551471D01*
X146903096Y-116612081D01*
X146872792Y-116702994D01*
X146630355Y-116945431D01*
X145993959Y-116309035D01*
X146206091Y-116096903D01*
X146297005Y-116066598D01*
X146357614Y-116066598D01*
X146448528Y-116096903D01*
X146509137Y-116157512D01*
X146539441Y-116248426D01*
X146539441Y-116309035D01*
X146509137Y-116399948D01*
X146297005Y-116612081D01*
X144724187Y-120566726D02*
X145209060Y-120081852D01*
X145209060Y-120566726D02*
X144724187Y-120081852D01*
X145603020Y-119324238D02*
X146027284Y-119748502D01*
X145209060Y-119233324D02*
X145512106Y-119839416D01*
X145906066Y-119445456D01*
X145633324Y-118869669D02*
X146481852Y-119293933D01*
X146057588Y-118445405D01*
X146572766Y-117930228D02*
X146269720Y-118233273D01*
X146542462Y-118566624D01*
X146542462Y-118506014D01*
X146572766Y-118415101D01*
X146724289Y-118263578D01*
X146815203Y-118233273D01*
X146875812Y-118233273D01*
X146966726Y-118263578D01*
X147118249Y-118415101D01*
X147148553Y-118506014D01*
X147148553Y-118566624D01*
X147118249Y-118657537D01*
X146966726Y-118809060D01*
X146875812Y-118839365D01*
X146815203Y-118839365D01*
D12*
X164971428Y-92252380D02*
X164400000Y-92252380D01*
X164685714Y-92252380D02*
X164685714Y-91252380D01*
X164590476Y-91395238D01*
X164495238Y-91490476D01*
X164400000Y-91538095D01*
X165400000Y-92157142D02*
X165447619Y-92204761D01*
X165400000Y-92252380D01*
X165352380Y-92204761D01*
X165400000Y-92157142D01*
X165400000Y-92252380D01*
X166066666Y-91252380D02*
X166161904Y-91252380D01*
X166257142Y-91300000D01*
X166304761Y-91347619D01*
X166352380Y-91442857D01*
X166400000Y-91633333D01*
X166400000Y-91871428D01*
X166352380Y-92061904D01*
X166304761Y-92157142D01*
X166257142Y-92204761D01*
X166161904Y-92252380D01*
X166066666Y-92252380D01*
X165971428Y-92204761D01*
X165923809Y-92157142D01*
X165876190Y-92061904D01*
X165828571Y-91871428D01*
X165828571Y-91633333D01*
X165876190Y-91442857D01*
X165923809Y-91347619D01*
X165971428Y-91300000D01*
X166066666Y-91252380D01*
X150314285Y-96204761D02*
X150457142Y-96252380D01*
X150695238Y-96252380D01*
X150790476Y-96204761D01*
X150838095Y-96157142D01*
X150885714Y-96061904D01*
X150885714Y-95966666D01*
X150838095Y-95871428D01*
X150790476Y-95823809D01*
X150695238Y-95776190D01*
X150504761Y-95728571D01*
X150409523Y-95680952D01*
X150361904Y-95633333D01*
X150314285Y-95538095D01*
X150314285Y-95442857D01*
X150361904Y-95347619D01*
X150409523Y-95300000D01*
X150504761Y-95252380D01*
X150742857Y-95252380D01*
X150885714Y-95300000D01*
X151885714Y-96252380D02*
X151552380Y-95776190D01*
X151314285Y-96252380D02*
X151314285Y-95252380D01*
X151695238Y-95252380D01*
X151790476Y-95300000D01*
X151838095Y-95347619D01*
X151885714Y-95442857D01*
X151885714Y-95585714D01*
X151838095Y-95680952D01*
X151790476Y-95728571D01*
X151695238Y-95776190D01*
X151314285Y-95776190D01*
X152885714Y-96157142D02*
X152838095Y-96204761D01*
X152695238Y-96252380D01*
X152600000Y-96252380D01*
X152457142Y-96204761D01*
X152361904Y-96109523D01*
X152314285Y-96014285D01*
X152266666Y-95823809D01*
X152266666Y-95680952D01*
X152314285Y-95490476D01*
X152361904Y-95395238D01*
X152457142Y-95300000D01*
X152600000Y-95252380D01*
X152695238Y-95252380D01*
X152838095Y-95300000D01*
X152885714Y-95347619D01*
D11*
X147930279Y-117960634D02*
X148415152Y-117475761D01*
X148415152Y-117960634D02*
X147930279Y-117475761D01*
X148748502Y-117263629D02*
X149051548Y-116960583D01*
X148869720Y-117506066D02*
X148445456Y-116657537D01*
X149293985Y-117081801D01*
D12*
X128342857Y-86204761D02*
X128485714Y-86252380D01*
X128723809Y-86252380D01*
X128819047Y-86204761D01*
X128866666Y-86157142D01*
X128914285Y-86061904D01*
X128914285Y-85966666D01*
X128866666Y-85871428D01*
X128819047Y-85823809D01*
X128723809Y-85776190D01*
X128533333Y-85728571D01*
X128438095Y-85680952D01*
X128390476Y-85633333D01*
X128342857Y-85538095D01*
X128342857Y-85442857D01*
X128390476Y-85347619D01*
X128438095Y-85300000D01*
X128533333Y-85252380D01*
X128771428Y-85252380D01*
X128914285Y-85300000D01*
X129247619Y-85252380D02*
X129485714Y-86252380D01*
X129676190Y-85538095D01*
X129866666Y-86252380D01*
X130104761Y-85252380D01*
X130485714Y-86252380D02*
X130485714Y-85252380D01*
X130723809Y-85252380D01*
X130866666Y-85300000D01*
X130961904Y-85395238D01*
X131009523Y-85490476D01*
X131057142Y-85680952D01*
X131057142Y-85823809D01*
X131009523Y-86014285D01*
X130961904Y-86109523D01*
X130866666Y-86204761D01*
X130723809Y-86252380D01*
X130485714Y-86252380D01*
X150290476Y-99204761D02*
X150433333Y-99252380D01*
X150671428Y-99252380D01*
X150766666Y-99204761D01*
X150814285Y-99157142D01*
X150861904Y-99061904D01*
X150861904Y-98966666D01*
X150814285Y-98871428D01*
X150766666Y-98823809D01*
X150671428Y-98776190D01*
X150480952Y-98728571D01*
X150385714Y-98680952D01*
X150338095Y-98633333D01*
X150290476Y-98538095D01*
X150290476Y-98442857D01*
X150338095Y-98347619D01*
X150385714Y-98300000D01*
X150480952Y-98252380D01*
X150719047Y-98252380D01*
X150861904Y-98300000D01*
X151290476Y-99252380D02*
X151290476Y-98252380D01*
X151861904Y-99252380D01*
X151861904Y-98252380D01*
X152338095Y-99252380D02*
X152338095Y-98252380D01*
X152909523Y-99252380D02*
X152480952Y-98680952D01*
X152909523Y-98252380D02*
X152338095Y-98823809D01*
D13*
X167171428Y-104510857D02*
X167171428Y-103310857D01*
X167171428Y-103882285D02*
X167857142Y-103882285D01*
X167857142Y-104510857D02*
X167857142Y-103310857D01*
X168885714Y-104453714D02*
X168771428Y-104510857D01*
X168542857Y-104510857D01*
X168428571Y-104453714D01*
X168371428Y-104339428D01*
X168371428Y-103882285D01*
X168428571Y-103768000D01*
X168542857Y-103710857D01*
X168771428Y-103710857D01*
X168885714Y-103768000D01*
X168942857Y-103882285D01*
X168942857Y-103996571D01*
X168371428Y-104110857D01*
X169628571Y-104510857D02*
X169514285Y-104453714D01*
X169457142Y-104339428D01*
X169457142Y-103310857D01*
X170257142Y-104510857D02*
X170142857Y-104453714D01*
X170085714Y-104339428D01*
X170085714Y-103310857D01*
X170885714Y-104510857D02*
X170771428Y-104453714D01*
X170714285Y-104396571D01*
X170657142Y-104282285D01*
X170657142Y-103939428D01*
X170714285Y-103825142D01*
X170771428Y-103768000D01*
X170885714Y-103710857D01*
X171057142Y-103710857D01*
X171171428Y-103768000D01*
X171228571Y-103825142D01*
X171285714Y-103939428D01*
X171285714Y-104282285D01*
X171228571Y-104396571D01*
X171171428Y-104453714D01*
X171057142Y-104510857D01*
X170885714Y-104510857D01*
X167257142Y-105642857D02*
X167714285Y-105642857D01*
X167428571Y-106442857D02*
X167428571Y-105414285D01*
X167485714Y-105300000D01*
X167600000Y-105242857D01*
X167714285Y-105242857D01*
X168114285Y-106442857D02*
X168114285Y-105642857D01*
X168114285Y-105871428D02*
X168171428Y-105757142D01*
X168228571Y-105700000D01*
X168342857Y-105642857D01*
X168457142Y-105642857D01*
X169028571Y-106442857D02*
X168914285Y-106385714D01*
X168857142Y-106328571D01*
X168800000Y-106214285D01*
X168800000Y-105871428D01*
X168857142Y-105757142D01*
X168914285Y-105700000D01*
X169028571Y-105642857D01*
X169200000Y-105642857D01*
X169314285Y-105700000D01*
X169371428Y-105757142D01*
X169428571Y-105871428D01*
X169428571Y-106214285D01*
X169371428Y-106328571D01*
X169314285Y-106385714D01*
X169200000Y-106442857D01*
X169028571Y-106442857D01*
X169942857Y-106442857D02*
X169942857Y-105642857D01*
X169942857Y-105757142D02*
X170000000Y-105700000D01*
X170114285Y-105642857D01*
X170285714Y-105642857D01*
X170400000Y-105700000D01*
X170457142Y-105814285D01*
X170457142Y-106442857D01*
X170457142Y-105814285D02*
X170514285Y-105700000D01*
X170628571Y-105642857D01*
X170800000Y-105642857D01*
X170914285Y-105700000D01*
X170971428Y-105814285D01*
X170971428Y-106442857D01*
X166428571Y-108374857D02*
X166428571Y-107174857D01*
X167114285Y-108374857D02*
X166600000Y-107689142D01*
X167114285Y-107174857D02*
X166428571Y-107860571D01*
X167571428Y-108032000D02*
X168142857Y-108032000D01*
X167457142Y-108374857D02*
X167857142Y-107174857D01*
X168257142Y-108374857D01*
X168657142Y-107174857D02*
X168657142Y-108146285D01*
X168714285Y-108260571D01*
X168771428Y-108317714D01*
X168885714Y-108374857D01*
X169114285Y-108374857D01*
X169228571Y-108317714D01*
X169285714Y-108260571D01*
X169342857Y-108146285D01*
X169342857Y-107174857D01*
X169857142Y-108317714D02*
X170028571Y-108374857D01*
X170314285Y-108374857D01*
X170428571Y-108317714D01*
X170485714Y-108260571D01*
X170542857Y-108146285D01*
X170542857Y-108032000D01*
X170485714Y-107917714D01*
X170428571Y-107860571D01*
X170314285Y-107803428D01*
X170085714Y-107746285D01*
X169971428Y-107689142D01*
X169914285Y-107632000D01*
X169857142Y-107517714D01*
X169857142Y-107403428D01*
X169914285Y-107289142D01*
X169971428Y-107232000D01*
X170085714Y-107174857D01*
X170371428Y-107174857D01*
X170542857Y-107232000D01*
X170885714Y-107174857D02*
X171571428Y-107174857D01*
X171228571Y-108374857D02*
X171228571Y-107174857D01*
X171971428Y-108260571D02*
X172028571Y-108317714D01*
X171971428Y-108374857D01*
X171914285Y-108317714D01*
X171971428Y-108260571D01*
X171971428Y-108374857D01*
X171971428Y-107917714D02*
X171914285Y-107232000D01*
X171971428Y-107174857D01*
X172028571Y-107232000D01*
X171971428Y-107917714D01*
X171971428Y-107174857D01*
D11*
X147930279Y-119960634D02*
X148415152Y-119475761D01*
X148748502Y-119263629D02*
X149051548Y-118960583D01*
X148869720Y-119506066D02*
X148445456Y-118657537D01*
X149293985Y-119081801D01*
D10*
%TO.C,C14*%
X126385714Y-113285714D02*
X126347619Y-113323809D01*
X126233333Y-113361904D01*
X126157142Y-113361904D01*
X126042857Y-113323809D01*
X125966666Y-113247619D01*
X125928571Y-113171428D01*
X125890476Y-113019047D01*
X125890476Y-112904761D01*
X125928571Y-112752380D01*
X125966666Y-112676190D01*
X126042857Y-112600000D01*
X126157142Y-112561904D01*
X126233333Y-112561904D01*
X126347619Y-112600000D01*
X126385714Y-112638095D01*
X127147619Y-113361904D02*
X126690476Y-113361904D01*
X126919047Y-113361904D02*
X126919047Y-112561904D01*
X126842857Y-112676190D01*
X126766666Y-112752380D01*
X126690476Y-112790476D01*
X127833333Y-112828571D02*
X127833333Y-113361904D01*
X127642857Y-112523809D02*
X127452380Y-113095238D01*
X127947619Y-113095238D01*
%TO.C,R2*%
X145066666Y-85111904D02*
X144800000Y-84730952D01*
X144609523Y-85111904D02*
X144609523Y-84311904D01*
X144914285Y-84311904D01*
X144990476Y-84350000D01*
X145028571Y-84388095D01*
X145066666Y-84464285D01*
X145066666Y-84578571D01*
X145028571Y-84654761D01*
X144990476Y-84692857D01*
X144914285Y-84730952D01*
X144609523Y-84730952D01*
X145371428Y-84388095D02*
X145409523Y-84350000D01*
X145485714Y-84311904D01*
X145676190Y-84311904D01*
X145752380Y-84350000D01*
X145790476Y-84388095D01*
X145828571Y-84464285D01*
X145828571Y-84540476D01*
X145790476Y-84654761D01*
X145333333Y-85111904D01*
X145828571Y-85111904D01*
%TO.C,C18*%
X145085714Y-99485714D02*
X145047619Y-99523809D01*
X144933333Y-99561904D01*
X144857142Y-99561904D01*
X144742857Y-99523809D01*
X144666666Y-99447619D01*
X144628571Y-99371428D01*
X144590476Y-99219047D01*
X144590476Y-99104761D01*
X144628571Y-98952380D01*
X144666666Y-98876190D01*
X144742857Y-98800000D01*
X144857142Y-98761904D01*
X144933333Y-98761904D01*
X145047619Y-98800000D01*
X145085714Y-98838095D01*
X145847619Y-99561904D02*
X145390476Y-99561904D01*
X145619047Y-99561904D02*
X145619047Y-98761904D01*
X145542857Y-98876190D01*
X145466666Y-98952380D01*
X145390476Y-98990476D01*
X146304761Y-99104761D02*
X146228571Y-99066666D01*
X146190476Y-99028571D01*
X146152380Y-98952380D01*
X146152380Y-98914285D01*
X146190476Y-98838095D01*
X146228571Y-98800000D01*
X146304761Y-98761904D01*
X146457142Y-98761904D01*
X146533333Y-98800000D01*
X146571428Y-98838095D01*
X146609523Y-98914285D01*
X146609523Y-98952380D01*
X146571428Y-99028571D01*
X146533333Y-99066666D01*
X146457142Y-99104761D01*
X146304761Y-99104761D01*
X146228571Y-99142857D01*
X146190476Y-99180952D01*
X146152380Y-99257142D01*
X146152380Y-99409523D01*
X146190476Y-99485714D01*
X146228571Y-99523809D01*
X146304761Y-99561904D01*
X146457142Y-99561904D01*
X146533333Y-99523809D01*
X146571428Y-99485714D01*
X146609523Y-99409523D01*
X146609523Y-99257142D01*
X146571428Y-99180952D01*
X146533333Y-99142857D01*
X146457142Y-99104761D01*
%TO.C,R8*%
X135266666Y-96961904D02*
X135000000Y-96580952D01*
X134809523Y-96961904D02*
X134809523Y-96161904D01*
X135114285Y-96161904D01*
X135190476Y-96200000D01*
X135228571Y-96238095D01*
X135266666Y-96314285D01*
X135266666Y-96428571D01*
X135228571Y-96504761D01*
X135190476Y-96542857D01*
X135114285Y-96580952D01*
X134809523Y-96580952D01*
X135723809Y-96504761D02*
X135647619Y-96466666D01*
X135609523Y-96428571D01*
X135571428Y-96352380D01*
X135571428Y-96314285D01*
X135609523Y-96238095D01*
X135647619Y-96200000D01*
X135723809Y-96161904D01*
X135876190Y-96161904D01*
X135952380Y-96200000D01*
X135990476Y-96238095D01*
X136028571Y-96314285D01*
X136028571Y-96352380D01*
X135990476Y-96428571D01*
X135952380Y-96466666D01*
X135876190Y-96504761D01*
X135723809Y-96504761D01*
X135647619Y-96542857D01*
X135609523Y-96580952D01*
X135571428Y-96657142D01*
X135571428Y-96809523D01*
X135609523Y-96885714D01*
X135647619Y-96923809D01*
X135723809Y-96961904D01*
X135876190Y-96961904D01*
X135952380Y-96923809D01*
X135990476Y-96885714D01*
X136028571Y-96809523D01*
X136028571Y-96657142D01*
X135990476Y-96580952D01*
X135952380Y-96542857D01*
X135876190Y-96504761D01*
%TO.C,C6*%
X128785714Y-99733333D02*
X128823809Y-99771428D01*
X128861904Y-99885714D01*
X128861904Y-99961904D01*
X128823809Y-100076190D01*
X128747619Y-100152380D01*
X128671428Y-100190476D01*
X128519047Y-100228571D01*
X128404761Y-100228571D01*
X128252380Y-100190476D01*
X128176190Y-100152380D01*
X128100000Y-100076190D01*
X128061904Y-99961904D01*
X128061904Y-99885714D01*
X128100000Y-99771428D01*
X128138095Y-99733333D01*
X128061904Y-99047619D02*
X128061904Y-99200000D01*
X128100000Y-99276190D01*
X128138095Y-99314285D01*
X128252380Y-99390476D01*
X128404761Y-99428571D01*
X128709523Y-99428571D01*
X128785714Y-99390476D01*
X128823809Y-99352380D01*
X128861904Y-99276190D01*
X128861904Y-99123809D01*
X128823809Y-99047619D01*
X128785714Y-99009523D01*
X128709523Y-98971428D01*
X128519047Y-98971428D01*
X128442857Y-99009523D01*
X128404761Y-99047619D01*
X128366666Y-99123809D01*
X128366666Y-99276190D01*
X128404761Y-99352380D01*
X128442857Y-99390476D01*
X128519047Y-99428571D01*
%TO.C,U2*%
X137961904Y-99609523D02*
X138609523Y-99609523D01*
X138685714Y-99571428D01*
X138723809Y-99533333D01*
X138761904Y-99457142D01*
X138761904Y-99304761D01*
X138723809Y-99228571D01*
X138685714Y-99190476D01*
X138609523Y-99152380D01*
X137961904Y-99152380D01*
X138038095Y-98809523D02*
X138000000Y-98771428D01*
X137961904Y-98695238D01*
X137961904Y-98504761D01*
X138000000Y-98428571D01*
X138038095Y-98390476D01*
X138114285Y-98352380D01*
X138190476Y-98352380D01*
X138304761Y-98390476D01*
X138761904Y-98847619D01*
X138761904Y-98352380D01*
%TO.C,U9*%
X144790476Y-94961904D02*
X144790476Y-95609523D01*
X144828571Y-95685714D01*
X144866666Y-95723809D01*
X144942857Y-95761904D01*
X145095238Y-95761904D01*
X145171428Y-95723809D01*
X145209523Y-95685714D01*
X145247619Y-95609523D01*
X145247619Y-94961904D01*
X145666666Y-95761904D02*
X145819047Y-95761904D01*
X145895238Y-95723809D01*
X145933333Y-95685714D01*
X146009523Y-95571428D01*
X146047619Y-95419047D01*
X146047619Y-95114285D01*
X146009523Y-95038095D01*
X145971428Y-95000000D01*
X145895238Y-94961904D01*
X145742857Y-94961904D01*
X145666666Y-95000000D01*
X145628571Y-95038095D01*
X145590476Y-95114285D01*
X145590476Y-95304761D01*
X145628571Y-95380952D01*
X145666666Y-95419047D01*
X145742857Y-95457142D01*
X145895238Y-95457142D01*
X145971428Y-95419047D01*
X146009523Y-95380952D01*
X146047619Y-95304761D01*
%TO.C,C33*%
X120685714Y-115139285D02*
X120723809Y-115177380D01*
X120761904Y-115291666D01*
X120761904Y-115367857D01*
X120723809Y-115482142D01*
X120647619Y-115558333D01*
X120571428Y-115596428D01*
X120419047Y-115634523D01*
X120304761Y-115634523D01*
X120152380Y-115596428D01*
X120076190Y-115558333D01*
X120000000Y-115482142D01*
X119961904Y-115367857D01*
X119961904Y-115291666D01*
X120000000Y-115177380D01*
X120038095Y-115139285D01*
X119961904Y-114872619D02*
X119961904Y-114377380D01*
X120266666Y-114644047D01*
X120266666Y-114529761D01*
X120304761Y-114453571D01*
X120342857Y-114415476D01*
X120419047Y-114377380D01*
X120609523Y-114377380D01*
X120685714Y-114415476D01*
X120723809Y-114453571D01*
X120761904Y-114529761D01*
X120761904Y-114758333D01*
X120723809Y-114834523D01*
X120685714Y-114872619D01*
X119961904Y-114110714D02*
X119961904Y-113615476D01*
X120266666Y-113882142D01*
X120266666Y-113767857D01*
X120304761Y-113691666D01*
X120342857Y-113653571D01*
X120419047Y-113615476D01*
X120609523Y-113615476D01*
X120685714Y-113653571D01*
X120723809Y-113691666D01*
X120761904Y-113767857D01*
X120761904Y-113996428D01*
X120723809Y-114072619D01*
X120685714Y-114110714D01*
%TO.C,R42*%
X154485714Y-117761904D02*
X154219047Y-117380952D01*
X154028571Y-117761904D02*
X154028571Y-116961904D01*
X154333333Y-116961904D01*
X154409523Y-117000000D01*
X154447619Y-117038095D01*
X154485714Y-117114285D01*
X154485714Y-117228571D01*
X154447619Y-117304761D01*
X154409523Y-117342857D01*
X154333333Y-117380952D01*
X154028571Y-117380952D01*
X155171428Y-117228571D02*
X155171428Y-117761904D01*
X154980952Y-116923809D02*
X154790476Y-117495238D01*
X155285714Y-117495238D01*
X155552380Y-117038095D02*
X155590476Y-117000000D01*
X155666666Y-116961904D01*
X155857142Y-116961904D01*
X155933333Y-117000000D01*
X155971428Y-117038095D01*
X156009523Y-117114285D01*
X156009523Y-117190476D01*
X155971428Y-117304761D01*
X155514285Y-117761904D01*
X156009523Y-117761904D01*
%TO.C,C32*%
X120585714Y-119114285D02*
X120623809Y-119152380D01*
X120661904Y-119266666D01*
X120661904Y-119342857D01*
X120623809Y-119457142D01*
X120547619Y-119533333D01*
X120471428Y-119571428D01*
X120319047Y-119609523D01*
X120204761Y-119609523D01*
X120052380Y-119571428D01*
X119976190Y-119533333D01*
X119900000Y-119457142D01*
X119861904Y-119342857D01*
X119861904Y-119266666D01*
X119900000Y-119152380D01*
X119938095Y-119114285D01*
X119861904Y-118847619D02*
X119861904Y-118352380D01*
X120166666Y-118619047D01*
X120166666Y-118504761D01*
X120204761Y-118428571D01*
X120242857Y-118390476D01*
X120319047Y-118352380D01*
X120509523Y-118352380D01*
X120585714Y-118390476D01*
X120623809Y-118428571D01*
X120661904Y-118504761D01*
X120661904Y-118733333D01*
X120623809Y-118809523D01*
X120585714Y-118847619D01*
X119938095Y-118047619D02*
X119900000Y-118009523D01*
X119861904Y-117933333D01*
X119861904Y-117742857D01*
X119900000Y-117666666D01*
X119938095Y-117628571D01*
X120014285Y-117590476D01*
X120090476Y-117590476D01*
X120204761Y-117628571D01*
X120661904Y-118085714D01*
X120661904Y-117590476D01*
%TO.C,U3*%
X126461904Y-96859523D02*
X127109523Y-96859523D01*
X127185714Y-96821428D01*
X127223809Y-96783333D01*
X127261904Y-96707142D01*
X127261904Y-96554761D01*
X127223809Y-96478571D01*
X127185714Y-96440476D01*
X127109523Y-96402380D01*
X126461904Y-96402380D01*
X126461904Y-96097619D02*
X126461904Y-95602380D01*
X126766666Y-95869047D01*
X126766666Y-95754761D01*
X126804761Y-95678571D01*
X126842857Y-95640476D01*
X126919047Y-95602380D01*
X127109523Y-95602380D01*
X127185714Y-95640476D01*
X127223809Y-95678571D01*
X127261904Y-95754761D01*
X127261904Y-95983333D01*
X127223809Y-96059523D01*
X127185714Y-96097619D01*
%TO.C,R37*%
X135585714Y-122761904D02*
X135319047Y-122380952D01*
X135128571Y-122761904D02*
X135128571Y-121961904D01*
X135433333Y-121961904D01*
X135509523Y-122000000D01*
X135547619Y-122038095D01*
X135585714Y-122114285D01*
X135585714Y-122228571D01*
X135547619Y-122304761D01*
X135509523Y-122342857D01*
X135433333Y-122380952D01*
X135128571Y-122380952D01*
X135852380Y-121961904D02*
X136347619Y-121961904D01*
X136080952Y-122266666D01*
X136195238Y-122266666D01*
X136271428Y-122304761D01*
X136309523Y-122342857D01*
X136347619Y-122419047D01*
X136347619Y-122609523D01*
X136309523Y-122685714D01*
X136271428Y-122723809D01*
X136195238Y-122761904D01*
X135966666Y-122761904D01*
X135890476Y-122723809D01*
X135852380Y-122685714D01*
X136614285Y-121961904D02*
X137147619Y-121961904D01*
X136804761Y-122761904D01*
%TO.C,R18*%
X159111904Y-105314285D02*
X158730952Y-105580952D01*
X159111904Y-105771428D02*
X158311904Y-105771428D01*
X158311904Y-105466666D01*
X158350000Y-105390476D01*
X158388095Y-105352380D01*
X158464285Y-105314285D01*
X158578571Y-105314285D01*
X158654761Y-105352380D01*
X158692857Y-105390476D01*
X158730952Y-105466666D01*
X158730952Y-105771428D01*
X159111904Y-104552380D02*
X159111904Y-105009523D01*
X159111904Y-104780952D02*
X158311904Y-104780952D01*
X158426190Y-104857142D01*
X158502380Y-104933333D01*
X158540476Y-105009523D01*
X158654761Y-104095238D02*
X158616666Y-104171428D01*
X158578571Y-104209523D01*
X158502380Y-104247619D01*
X158464285Y-104247619D01*
X158388095Y-104209523D01*
X158350000Y-104171428D01*
X158311904Y-104095238D01*
X158311904Y-103942857D01*
X158350000Y-103866666D01*
X158388095Y-103828571D01*
X158464285Y-103790476D01*
X158502380Y-103790476D01*
X158578571Y-103828571D01*
X158616666Y-103866666D01*
X158654761Y-103942857D01*
X158654761Y-104095238D01*
X158692857Y-104171428D01*
X158730952Y-104209523D01*
X158807142Y-104247619D01*
X158959523Y-104247619D01*
X159035714Y-104209523D01*
X159073809Y-104171428D01*
X159111904Y-104095238D01*
X159111904Y-103942857D01*
X159073809Y-103866666D01*
X159035714Y-103828571D01*
X158959523Y-103790476D01*
X158807142Y-103790476D01*
X158730952Y-103828571D01*
X158692857Y-103866666D01*
X158654761Y-103942857D01*
%TO.C,R40*%
X159985714Y-113861904D02*
X159719047Y-113480952D01*
X159528571Y-113861904D02*
X159528571Y-113061904D01*
X159833333Y-113061904D01*
X159909523Y-113100000D01*
X159947619Y-113138095D01*
X159985714Y-113214285D01*
X159985714Y-113328571D01*
X159947619Y-113404761D01*
X159909523Y-113442857D01*
X159833333Y-113480952D01*
X159528571Y-113480952D01*
X160671428Y-113328571D02*
X160671428Y-113861904D01*
X160480952Y-113023809D02*
X160290476Y-113595238D01*
X160785714Y-113595238D01*
X161242857Y-113061904D02*
X161319047Y-113061904D01*
X161395238Y-113100000D01*
X161433333Y-113138095D01*
X161471428Y-113214285D01*
X161509523Y-113366666D01*
X161509523Y-113557142D01*
X161471428Y-113709523D01*
X161433333Y-113785714D01*
X161395238Y-113823809D01*
X161319047Y-113861904D01*
X161242857Y-113861904D01*
X161166666Y-113823809D01*
X161128571Y-113785714D01*
X161090476Y-113709523D01*
X161052380Y-113557142D01*
X161052380Y-113366666D01*
X161090476Y-113214285D01*
X161128571Y-113138095D01*
X161166666Y-113100000D01*
X161242857Y-113061904D01*
%TO.C,C19*%
X159685714Y-109514285D02*
X159723809Y-109552380D01*
X159761904Y-109666666D01*
X159761904Y-109742857D01*
X159723809Y-109857142D01*
X159647619Y-109933333D01*
X159571428Y-109971428D01*
X159419047Y-110009523D01*
X159304761Y-110009523D01*
X159152380Y-109971428D01*
X159076190Y-109933333D01*
X159000000Y-109857142D01*
X158961904Y-109742857D01*
X158961904Y-109666666D01*
X159000000Y-109552380D01*
X159038095Y-109514285D01*
X159761904Y-108752380D02*
X159761904Y-109209523D01*
X159761904Y-108980952D02*
X158961904Y-108980952D01*
X159076190Y-109057142D01*
X159152380Y-109133333D01*
X159190476Y-109209523D01*
X159761904Y-108371428D02*
X159761904Y-108219047D01*
X159723809Y-108142857D01*
X159685714Y-108104761D01*
X159571428Y-108028571D01*
X159419047Y-107990476D01*
X159114285Y-107990476D01*
X159038095Y-108028571D01*
X159000000Y-108066666D01*
X158961904Y-108142857D01*
X158961904Y-108295238D01*
X159000000Y-108371428D01*
X159038095Y-108409523D01*
X159114285Y-108447619D01*
X159304761Y-108447619D01*
X159380952Y-108409523D01*
X159419047Y-108371428D01*
X159457142Y-108295238D01*
X159457142Y-108142857D01*
X159419047Y-108066666D01*
X159380952Y-108028571D01*
X159304761Y-107990476D01*
%TO.C,R19*%
X144761904Y-113314285D02*
X144380952Y-113580952D01*
X144761904Y-113771428D02*
X143961904Y-113771428D01*
X143961904Y-113466666D01*
X144000000Y-113390476D01*
X144038095Y-113352380D01*
X144114285Y-113314285D01*
X144228571Y-113314285D01*
X144304761Y-113352380D01*
X144342857Y-113390476D01*
X144380952Y-113466666D01*
X144380952Y-113771428D01*
X144761904Y-112552380D02*
X144761904Y-113009523D01*
X144761904Y-112780952D02*
X143961904Y-112780952D01*
X144076190Y-112857142D01*
X144152380Y-112933333D01*
X144190476Y-113009523D01*
X144761904Y-112171428D02*
X144761904Y-112019047D01*
X144723809Y-111942857D01*
X144685714Y-111904761D01*
X144571428Y-111828571D01*
X144419047Y-111790476D01*
X144114285Y-111790476D01*
X144038095Y-111828571D01*
X144000000Y-111866666D01*
X143961904Y-111942857D01*
X143961904Y-112095238D01*
X144000000Y-112171428D01*
X144038095Y-112209523D01*
X144114285Y-112247619D01*
X144304761Y-112247619D01*
X144380952Y-112209523D01*
X144419047Y-112171428D01*
X144457142Y-112095238D01*
X144457142Y-111942857D01*
X144419047Y-111866666D01*
X144380952Y-111828571D01*
X144304761Y-111790476D01*
%TO.C,R5*%
X110866666Y-98761904D02*
X110600000Y-98380952D01*
X110409523Y-98761904D02*
X110409523Y-97961904D01*
X110714285Y-97961904D01*
X110790476Y-98000000D01*
X110828571Y-98038095D01*
X110866666Y-98114285D01*
X110866666Y-98228571D01*
X110828571Y-98304761D01*
X110790476Y-98342857D01*
X110714285Y-98380952D01*
X110409523Y-98380952D01*
X111590476Y-97961904D02*
X111209523Y-97961904D01*
X111171428Y-98342857D01*
X111209523Y-98304761D01*
X111285714Y-98266666D01*
X111476190Y-98266666D01*
X111552380Y-98304761D01*
X111590476Y-98342857D01*
X111628571Y-98419047D01*
X111628571Y-98609523D01*
X111590476Y-98685714D01*
X111552380Y-98723809D01*
X111476190Y-98761904D01*
X111285714Y-98761904D01*
X111209523Y-98723809D01*
X111171428Y-98685714D01*
%TO.C,R7*%
X112466666Y-98761904D02*
X112200000Y-98380952D01*
X112009523Y-98761904D02*
X112009523Y-97961904D01*
X112314285Y-97961904D01*
X112390476Y-98000000D01*
X112428571Y-98038095D01*
X112466666Y-98114285D01*
X112466666Y-98228571D01*
X112428571Y-98304761D01*
X112390476Y-98342857D01*
X112314285Y-98380952D01*
X112009523Y-98380952D01*
X112733333Y-97961904D02*
X113266666Y-97961904D01*
X112923809Y-98761904D01*
%TO.C,U8*%
X133061904Y-107809523D02*
X133709523Y-107809523D01*
X133785714Y-107771428D01*
X133823809Y-107733333D01*
X133861904Y-107657142D01*
X133861904Y-107504761D01*
X133823809Y-107428571D01*
X133785714Y-107390476D01*
X133709523Y-107352380D01*
X133061904Y-107352380D01*
X133404761Y-106857142D02*
X133366666Y-106933333D01*
X133328571Y-106971428D01*
X133252380Y-107009523D01*
X133214285Y-107009523D01*
X133138095Y-106971428D01*
X133100000Y-106933333D01*
X133061904Y-106857142D01*
X133061904Y-106704761D01*
X133100000Y-106628571D01*
X133138095Y-106590476D01*
X133214285Y-106552380D01*
X133252380Y-106552380D01*
X133328571Y-106590476D01*
X133366666Y-106628571D01*
X133404761Y-106704761D01*
X133404761Y-106857142D01*
X133442857Y-106933333D01*
X133480952Y-106971428D01*
X133557142Y-107009523D01*
X133709523Y-107009523D01*
X133785714Y-106971428D01*
X133823809Y-106933333D01*
X133861904Y-106857142D01*
X133861904Y-106704761D01*
X133823809Y-106628571D01*
X133785714Y-106590476D01*
X133709523Y-106552380D01*
X133557142Y-106552380D01*
X133480952Y-106590476D01*
X133442857Y-106628571D01*
X133404761Y-106704761D01*
%TO.C,U7*%
X135190476Y-101561904D02*
X135190476Y-102209523D01*
X135228571Y-102285714D01*
X135266666Y-102323809D01*
X135342857Y-102361904D01*
X135495238Y-102361904D01*
X135571428Y-102323809D01*
X135609523Y-102285714D01*
X135647619Y-102209523D01*
X135647619Y-101561904D01*
X135952380Y-101561904D02*
X136485714Y-101561904D01*
X136142857Y-102361904D01*
%TO.C,R20*%
X161411904Y-105314285D02*
X161030952Y-105580952D01*
X161411904Y-105771428D02*
X160611904Y-105771428D01*
X160611904Y-105466666D01*
X160650000Y-105390476D01*
X160688095Y-105352380D01*
X160764285Y-105314285D01*
X160878571Y-105314285D01*
X160954761Y-105352380D01*
X160992857Y-105390476D01*
X161030952Y-105466666D01*
X161030952Y-105771428D01*
X160688095Y-105009523D02*
X160650000Y-104971428D01*
X160611904Y-104895238D01*
X160611904Y-104704761D01*
X160650000Y-104628571D01*
X160688095Y-104590476D01*
X160764285Y-104552380D01*
X160840476Y-104552380D01*
X160954761Y-104590476D01*
X161411904Y-105047619D01*
X161411904Y-104552380D01*
X160611904Y-104057142D02*
X160611904Y-103980952D01*
X160650000Y-103904761D01*
X160688095Y-103866666D01*
X160764285Y-103828571D01*
X160916666Y-103790476D01*
X161107142Y-103790476D01*
X161259523Y-103828571D01*
X161335714Y-103866666D01*
X161373809Y-103904761D01*
X161411904Y-103980952D01*
X161411904Y-104057142D01*
X161373809Y-104133333D01*
X161335714Y-104171428D01*
X161259523Y-104209523D01*
X161107142Y-104247619D01*
X160916666Y-104247619D01*
X160764285Y-104209523D01*
X160688095Y-104171428D01*
X160650000Y-104133333D01*
X160611904Y-104057142D01*
%TO.C,U5*%
X121161904Y-106109523D02*
X121809523Y-106109523D01*
X121885714Y-106071428D01*
X121923809Y-106033333D01*
X121961904Y-105957142D01*
X121961904Y-105804761D01*
X121923809Y-105728571D01*
X121885714Y-105690476D01*
X121809523Y-105652380D01*
X121161904Y-105652380D01*
X121161904Y-104890476D02*
X121161904Y-105271428D01*
X121542857Y-105309523D01*
X121504761Y-105271428D01*
X121466666Y-105195238D01*
X121466666Y-105004761D01*
X121504761Y-104928571D01*
X121542857Y-104890476D01*
X121619047Y-104852380D01*
X121809523Y-104852380D01*
X121885714Y-104890476D01*
X121923809Y-104928571D01*
X121961904Y-105004761D01*
X121961904Y-105195238D01*
X121923809Y-105271428D01*
X121885714Y-105309523D01*
%TO.C,U10*%
X142109523Y-107661904D02*
X142109523Y-108309523D01*
X142147619Y-108385714D01*
X142185714Y-108423809D01*
X142261904Y-108461904D01*
X142414285Y-108461904D01*
X142490476Y-108423809D01*
X142528571Y-108385714D01*
X142566666Y-108309523D01*
X142566666Y-107661904D01*
X143366666Y-108461904D02*
X142909523Y-108461904D01*
X143138095Y-108461904D02*
X143138095Y-107661904D01*
X143061904Y-107776190D01*
X142985714Y-107852380D01*
X142909523Y-107890476D01*
X143861904Y-107661904D02*
X143938095Y-107661904D01*
X144014285Y-107700000D01*
X144052380Y-107738095D01*
X144090476Y-107814285D01*
X144128571Y-107966666D01*
X144128571Y-108157142D01*
X144090476Y-108309523D01*
X144052380Y-108385714D01*
X144014285Y-108423809D01*
X143938095Y-108461904D01*
X143861904Y-108461904D01*
X143785714Y-108423809D01*
X143747619Y-108385714D01*
X143709523Y-108309523D01*
X143671428Y-108157142D01*
X143671428Y-107966666D01*
X143709523Y-107814285D01*
X143747619Y-107738095D01*
X143785714Y-107700000D01*
X143861904Y-107661904D01*
%TO.C,C9*%
X132685714Y-102283333D02*
X132723809Y-102321428D01*
X132761904Y-102435714D01*
X132761904Y-102511904D01*
X132723809Y-102626190D01*
X132647619Y-102702380D01*
X132571428Y-102740476D01*
X132419047Y-102778571D01*
X132304761Y-102778571D01*
X132152380Y-102740476D01*
X132076190Y-102702380D01*
X132000000Y-102626190D01*
X131961904Y-102511904D01*
X131961904Y-102435714D01*
X132000000Y-102321428D01*
X132038095Y-102283333D01*
X132761904Y-101902380D02*
X132761904Y-101750000D01*
X132723809Y-101673809D01*
X132685714Y-101635714D01*
X132571428Y-101559523D01*
X132419047Y-101521428D01*
X132114285Y-101521428D01*
X132038095Y-101559523D01*
X132000000Y-101597619D01*
X131961904Y-101673809D01*
X131961904Y-101826190D01*
X132000000Y-101902380D01*
X132038095Y-101940476D01*
X132114285Y-101978571D01*
X132304761Y-101978571D01*
X132380952Y-101940476D01*
X132419047Y-101902380D01*
X132457142Y-101826190D01*
X132457142Y-101673809D01*
X132419047Y-101597619D01*
X132380952Y-101559523D01*
X132304761Y-101521428D01*
%TO.C,C11*%
X135885714Y-112085714D02*
X135847619Y-112123809D01*
X135733333Y-112161904D01*
X135657142Y-112161904D01*
X135542857Y-112123809D01*
X135466666Y-112047619D01*
X135428571Y-111971428D01*
X135390476Y-111819047D01*
X135390476Y-111704761D01*
X135428571Y-111552380D01*
X135466666Y-111476190D01*
X135542857Y-111400000D01*
X135657142Y-111361904D01*
X135733333Y-111361904D01*
X135847619Y-111400000D01*
X135885714Y-111438095D01*
X136647619Y-112161904D02*
X136190476Y-112161904D01*
X136419047Y-112161904D02*
X136419047Y-111361904D01*
X136342857Y-111476190D01*
X136266666Y-111552380D01*
X136190476Y-111590476D01*
X137409523Y-112161904D02*
X136952380Y-112161904D01*
X137180952Y-112161904D02*
X137180952Y-111361904D01*
X137104761Y-111476190D01*
X137028571Y-111552380D01*
X136952380Y-111590476D01*
%TO.C,C38*%
X158485714Y-121160714D02*
X158447619Y-121198809D01*
X158333333Y-121236904D01*
X158257142Y-121236904D01*
X158142857Y-121198809D01*
X158066666Y-121122619D01*
X158028571Y-121046428D01*
X157990476Y-120894047D01*
X157990476Y-120779761D01*
X158028571Y-120627380D01*
X158066666Y-120551190D01*
X158142857Y-120475000D01*
X158257142Y-120436904D01*
X158333333Y-120436904D01*
X158447619Y-120475000D01*
X158485714Y-120513095D01*
X158752380Y-120436904D02*
X159247619Y-120436904D01*
X158980952Y-120741666D01*
X159095238Y-120741666D01*
X159171428Y-120779761D01*
X159209523Y-120817857D01*
X159247619Y-120894047D01*
X159247619Y-121084523D01*
X159209523Y-121160714D01*
X159171428Y-121198809D01*
X159095238Y-121236904D01*
X158866666Y-121236904D01*
X158790476Y-121198809D01*
X158752380Y-121160714D01*
X159704761Y-120779761D02*
X159628571Y-120741666D01*
X159590476Y-120703571D01*
X159552380Y-120627380D01*
X159552380Y-120589285D01*
X159590476Y-120513095D01*
X159628571Y-120475000D01*
X159704761Y-120436904D01*
X159857142Y-120436904D01*
X159933333Y-120475000D01*
X159971428Y-120513095D01*
X160009523Y-120589285D01*
X160009523Y-120627380D01*
X159971428Y-120703571D01*
X159933333Y-120741666D01*
X159857142Y-120779761D01*
X159704761Y-120779761D01*
X159628571Y-120817857D01*
X159590476Y-120855952D01*
X159552380Y-120932142D01*
X159552380Y-121084523D01*
X159590476Y-121160714D01*
X159628571Y-121198809D01*
X159704761Y-121236904D01*
X159857142Y-121236904D01*
X159933333Y-121198809D01*
X159971428Y-121160714D01*
X160009523Y-121084523D01*
X160009523Y-120932142D01*
X159971428Y-120855952D01*
X159933333Y-120817857D01*
X159857142Y-120779761D01*
%TO.C,C42*%
X173485714Y-115964285D02*
X173523809Y-116002380D01*
X173561904Y-116116666D01*
X173561904Y-116192857D01*
X173523809Y-116307142D01*
X173447619Y-116383333D01*
X173371428Y-116421428D01*
X173219047Y-116459523D01*
X173104761Y-116459523D01*
X172952380Y-116421428D01*
X172876190Y-116383333D01*
X172800000Y-116307142D01*
X172761904Y-116192857D01*
X172761904Y-116116666D01*
X172800000Y-116002380D01*
X172838095Y-115964285D01*
X173028571Y-115278571D02*
X173561904Y-115278571D01*
X172723809Y-115469047D02*
X173295238Y-115659523D01*
X173295238Y-115164285D01*
X172838095Y-114897619D02*
X172800000Y-114859523D01*
X172761904Y-114783333D01*
X172761904Y-114592857D01*
X172800000Y-114516666D01*
X172838095Y-114478571D01*
X172914285Y-114440476D01*
X172990476Y-114440476D01*
X173104761Y-114478571D01*
X173561904Y-114935714D01*
X173561904Y-114440476D01*
%TO.C,C44*%
X168685714Y-125314285D02*
X168723809Y-125352380D01*
X168761904Y-125466666D01*
X168761904Y-125542857D01*
X168723809Y-125657142D01*
X168647619Y-125733333D01*
X168571428Y-125771428D01*
X168419047Y-125809523D01*
X168304761Y-125809523D01*
X168152380Y-125771428D01*
X168076190Y-125733333D01*
X168000000Y-125657142D01*
X167961904Y-125542857D01*
X167961904Y-125466666D01*
X168000000Y-125352380D01*
X168038095Y-125314285D01*
X168228571Y-124628571D02*
X168761904Y-124628571D01*
X167923809Y-124819047D02*
X168495238Y-125009523D01*
X168495238Y-124514285D01*
X168228571Y-123866666D02*
X168761904Y-123866666D01*
X167923809Y-124057142D02*
X168495238Y-124247619D01*
X168495238Y-123752380D01*
%TO.C,R21*%
X142841904Y-92614285D02*
X142460952Y-92880952D01*
X142841904Y-93071428D02*
X142041904Y-93071428D01*
X142041904Y-92766666D01*
X142080000Y-92690476D01*
X142118095Y-92652380D01*
X142194285Y-92614285D01*
X142308571Y-92614285D01*
X142384761Y-92652380D01*
X142422857Y-92690476D01*
X142460952Y-92766666D01*
X142460952Y-93071428D01*
X142118095Y-92309523D02*
X142080000Y-92271428D01*
X142041904Y-92195238D01*
X142041904Y-92004761D01*
X142080000Y-91928571D01*
X142118095Y-91890476D01*
X142194285Y-91852380D01*
X142270476Y-91852380D01*
X142384761Y-91890476D01*
X142841904Y-92347619D01*
X142841904Y-91852380D01*
X142841904Y-91090476D02*
X142841904Y-91547619D01*
X142841904Y-91319047D02*
X142041904Y-91319047D01*
X142156190Y-91395238D01*
X142232380Y-91471428D01*
X142270476Y-91547619D01*
%TO.C,R4*%
X109266666Y-98761904D02*
X109000000Y-98380952D01*
X108809523Y-98761904D02*
X108809523Y-97961904D01*
X109114285Y-97961904D01*
X109190476Y-98000000D01*
X109228571Y-98038095D01*
X109266666Y-98114285D01*
X109266666Y-98228571D01*
X109228571Y-98304761D01*
X109190476Y-98342857D01*
X109114285Y-98380952D01*
X108809523Y-98380952D01*
X109952380Y-98228571D02*
X109952380Y-98761904D01*
X109761904Y-97923809D02*
X109571428Y-98495238D01*
X110066666Y-98495238D01*
%TO.C,C27*%
X128685714Y-126585714D02*
X128647619Y-126623809D01*
X128533333Y-126661904D01*
X128457142Y-126661904D01*
X128342857Y-126623809D01*
X128266666Y-126547619D01*
X128228571Y-126471428D01*
X128190476Y-126319047D01*
X128190476Y-126204761D01*
X128228571Y-126052380D01*
X128266666Y-125976190D01*
X128342857Y-125900000D01*
X128457142Y-125861904D01*
X128533333Y-125861904D01*
X128647619Y-125900000D01*
X128685714Y-125938095D01*
X128990476Y-125938095D02*
X129028571Y-125900000D01*
X129104761Y-125861904D01*
X129295238Y-125861904D01*
X129371428Y-125900000D01*
X129409523Y-125938095D01*
X129447619Y-126014285D01*
X129447619Y-126090476D01*
X129409523Y-126204761D01*
X128952380Y-126661904D01*
X129447619Y-126661904D01*
X129714285Y-125861904D02*
X130247619Y-125861904D01*
X129904761Y-126661904D01*
%TO.C,C35*%
X158285714Y-117585714D02*
X158247619Y-117623809D01*
X158133333Y-117661904D01*
X158057142Y-117661904D01*
X157942857Y-117623809D01*
X157866666Y-117547619D01*
X157828571Y-117471428D01*
X157790476Y-117319047D01*
X157790476Y-117204761D01*
X157828571Y-117052380D01*
X157866666Y-116976190D01*
X157942857Y-116900000D01*
X158057142Y-116861904D01*
X158133333Y-116861904D01*
X158247619Y-116900000D01*
X158285714Y-116938095D01*
X158552380Y-116861904D02*
X159047619Y-116861904D01*
X158780952Y-117166666D01*
X158895238Y-117166666D01*
X158971428Y-117204761D01*
X159009523Y-117242857D01*
X159047619Y-117319047D01*
X159047619Y-117509523D01*
X159009523Y-117585714D01*
X158971428Y-117623809D01*
X158895238Y-117661904D01*
X158666666Y-117661904D01*
X158590476Y-117623809D01*
X158552380Y-117585714D01*
X159771428Y-116861904D02*
X159390476Y-116861904D01*
X159352380Y-117242857D01*
X159390476Y-117204761D01*
X159466666Y-117166666D01*
X159657142Y-117166666D01*
X159733333Y-117204761D01*
X159771428Y-117242857D01*
X159809523Y-117319047D01*
X159809523Y-117509523D01*
X159771428Y-117585714D01*
X159733333Y-117623809D01*
X159657142Y-117661904D01*
X159466666Y-117661904D01*
X159390476Y-117623809D01*
X159352380Y-117585714D01*
%TO.C,C31*%
X134485714Y-117614285D02*
X134523809Y-117652380D01*
X134561904Y-117766666D01*
X134561904Y-117842857D01*
X134523809Y-117957142D01*
X134447619Y-118033333D01*
X134371428Y-118071428D01*
X134219047Y-118109523D01*
X134104761Y-118109523D01*
X133952380Y-118071428D01*
X133876190Y-118033333D01*
X133800000Y-117957142D01*
X133761904Y-117842857D01*
X133761904Y-117766666D01*
X133800000Y-117652380D01*
X133838095Y-117614285D01*
X133761904Y-117347619D02*
X133761904Y-116852380D01*
X134066666Y-117119047D01*
X134066666Y-117004761D01*
X134104761Y-116928571D01*
X134142857Y-116890476D01*
X134219047Y-116852380D01*
X134409523Y-116852380D01*
X134485714Y-116890476D01*
X134523809Y-116928571D01*
X134561904Y-117004761D01*
X134561904Y-117233333D01*
X134523809Y-117309523D01*
X134485714Y-117347619D01*
X134561904Y-116090476D02*
X134561904Y-116547619D01*
X134561904Y-116319047D02*
X133761904Y-116319047D01*
X133876190Y-116395238D01*
X133952380Y-116471428D01*
X133990476Y-116547619D01*
%TO.C,C12*%
X120635714Y-109964285D02*
X120673809Y-110002380D01*
X120711904Y-110116666D01*
X120711904Y-110192857D01*
X120673809Y-110307142D01*
X120597619Y-110383333D01*
X120521428Y-110421428D01*
X120369047Y-110459523D01*
X120254761Y-110459523D01*
X120102380Y-110421428D01*
X120026190Y-110383333D01*
X119950000Y-110307142D01*
X119911904Y-110192857D01*
X119911904Y-110116666D01*
X119950000Y-110002380D01*
X119988095Y-109964285D01*
X120711904Y-109202380D02*
X120711904Y-109659523D01*
X120711904Y-109430952D02*
X119911904Y-109430952D01*
X120026190Y-109507142D01*
X120102380Y-109583333D01*
X120140476Y-109659523D01*
X119988095Y-108897619D02*
X119950000Y-108859523D01*
X119911904Y-108783333D01*
X119911904Y-108592857D01*
X119950000Y-108516666D01*
X119988095Y-108478571D01*
X120064285Y-108440476D01*
X120140476Y-108440476D01*
X120254761Y-108478571D01*
X120711904Y-108935714D01*
X120711904Y-108440476D01*
%TO.C,Q1*%
X138323809Y-122738095D02*
X138247619Y-122700000D01*
X138171428Y-122623809D01*
X138057142Y-122509523D01*
X137980952Y-122471428D01*
X137904761Y-122471428D01*
X137942857Y-122661904D02*
X137866666Y-122623809D01*
X137790476Y-122547619D01*
X137752380Y-122395238D01*
X137752380Y-122128571D01*
X137790476Y-121976190D01*
X137866666Y-121900000D01*
X137942857Y-121861904D01*
X138095238Y-121861904D01*
X138171428Y-121900000D01*
X138247619Y-121976190D01*
X138285714Y-122128571D01*
X138285714Y-122395238D01*
X138247619Y-122547619D01*
X138171428Y-122623809D01*
X138095238Y-122661904D01*
X137942857Y-122661904D01*
X139047619Y-122661904D02*
X138590476Y-122661904D01*
X138819047Y-122661904D02*
X138819047Y-121861904D01*
X138742857Y-121976190D01*
X138666666Y-122052380D01*
X138590476Y-122090476D01*
%TO.C,R3*%
X141866666Y-87861904D02*
X141600000Y-87480952D01*
X141409523Y-87861904D02*
X141409523Y-87061904D01*
X141714285Y-87061904D01*
X141790476Y-87100000D01*
X141828571Y-87138095D01*
X141866666Y-87214285D01*
X141866666Y-87328571D01*
X141828571Y-87404761D01*
X141790476Y-87442857D01*
X141714285Y-87480952D01*
X141409523Y-87480952D01*
X142133333Y-87061904D02*
X142628571Y-87061904D01*
X142361904Y-87366666D01*
X142476190Y-87366666D01*
X142552380Y-87404761D01*
X142590476Y-87442857D01*
X142628571Y-87519047D01*
X142628571Y-87709523D01*
X142590476Y-87785714D01*
X142552380Y-87823809D01*
X142476190Y-87861904D01*
X142247619Y-87861904D01*
X142171428Y-87823809D01*
X142133333Y-87785714D01*
%TO.C,C13*%
X130885714Y-97714285D02*
X130923809Y-97752380D01*
X130961904Y-97866666D01*
X130961904Y-97942857D01*
X130923809Y-98057142D01*
X130847619Y-98133333D01*
X130771428Y-98171428D01*
X130619047Y-98209523D01*
X130504761Y-98209523D01*
X130352380Y-98171428D01*
X130276190Y-98133333D01*
X130200000Y-98057142D01*
X130161904Y-97942857D01*
X130161904Y-97866666D01*
X130200000Y-97752380D01*
X130238095Y-97714285D01*
X130961904Y-96952380D02*
X130961904Y-97409523D01*
X130961904Y-97180952D02*
X130161904Y-97180952D01*
X130276190Y-97257142D01*
X130352380Y-97333333D01*
X130390476Y-97409523D01*
X130161904Y-96685714D02*
X130161904Y-96190476D01*
X130466666Y-96457142D01*
X130466666Y-96342857D01*
X130504761Y-96266666D01*
X130542857Y-96228571D01*
X130619047Y-96190476D01*
X130809523Y-96190476D01*
X130885714Y-96228571D01*
X130923809Y-96266666D01*
X130961904Y-96342857D01*
X130961904Y-96571428D01*
X130923809Y-96647619D01*
X130885714Y-96685714D01*
%TO.C,C20*%
X138885714Y-90510714D02*
X138847619Y-90548809D01*
X138733333Y-90586904D01*
X138657142Y-90586904D01*
X138542857Y-90548809D01*
X138466666Y-90472619D01*
X138428571Y-90396428D01*
X138390476Y-90244047D01*
X138390476Y-90129761D01*
X138428571Y-89977380D01*
X138466666Y-89901190D01*
X138542857Y-89825000D01*
X138657142Y-89786904D01*
X138733333Y-89786904D01*
X138847619Y-89825000D01*
X138885714Y-89863095D01*
X139190476Y-89863095D02*
X139228571Y-89825000D01*
X139304761Y-89786904D01*
X139495238Y-89786904D01*
X139571428Y-89825000D01*
X139609523Y-89863095D01*
X139647619Y-89939285D01*
X139647619Y-90015476D01*
X139609523Y-90129761D01*
X139152380Y-90586904D01*
X139647619Y-90586904D01*
X140142857Y-89786904D02*
X140219047Y-89786904D01*
X140295238Y-89825000D01*
X140333333Y-89863095D01*
X140371428Y-89939285D01*
X140409523Y-90091666D01*
X140409523Y-90282142D01*
X140371428Y-90434523D01*
X140333333Y-90510714D01*
X140295238Y-90548809D01*
X140219047Y-90586904D01*
X140142857Y-90586904D01*
X140066666Y-90548809D01*
X140028571Y-90510714D01*
X139990476Y-90434523D01*
X139952380Y-90282142D01*
X139952380Y-90091666D01*
X139990476Y-89939285D01*
X140028571Y-89863095D01*
X140066666Y-89825000D01*
X140142857Y-89786904D01*
%TO.C,R36*%
X123461904Y-114914285D02*
X123080952Y-115180952D01*
X123461904Y-115371428D02*
X122661904Y-115371428D01*
X122661904Y-115066666D01*
X122700000Y-114990476D01*
X122738095Y-114952380D01*
X122814285Y-114914285D01*
X122928571Y-114914285D01*
X123004761Y-114952380D01*
X123042857Y-114990476D01*
X123080952Y-115066666D01*
X123080952Y-115371428D01*
X122661904Y-114647619D02*
X122661904Y-114152380D01*
X122966666Y-114419047D01*
X122966666Y-114304761D01*
X123004761Y-114228571D01*
X123042857Y-114190476D01*
X123119047Y-114152380D01*
X123309523Y-114152380D01*
X123385714Y-114190476D01*
X123423809Y-114228571D01*
X123461904Y-114304761D01*
X123461904Y-114533333D01*
X123423809Y-114609523D01*
X123385714Y-114647619D01*
X122661904Y-113466666D02*
X122661904Y-113619047D01*
X122700000Y-113695238D01*
X122738095Y-113733333D01*
X122852380Y-113809523D01*
X123004761Y-113847619D01*
X123309523Y-113847619D01*
X123385714Y-113809523D01*
X123423809Y-113771428D01*
X123461904Y-113695238D01*
X123461904Y-113542857D01*
X123423809Y-113466666D01*
X123385714Y-113428571D01*
X123309523Y-113390476D01*
X123119047Y-113390476D01*
X123042857Y-113428571D01*
X123004761Y-113466666D01*
X122966666Y-113542857D01*
X122966666Y-113695238D01*
X123004761Y-113771428D01*
X123042857Y-113809523D01*
X123119047Y-113847619D01*
%TO.C,R15*%
X133385714Y-92961904D02*
X133119047Y-92580952D01*
X132928571Y-92961904D02*
X132928571Y-92161904D01*
X133233333Y-92161904D01*
X133309523Y-92200000D01*
X133347619Y-92238095D01*
X133385714Y-92314285D01*
X133385714Y-92428571D01*
X133347619Y-92504761D01*
X133309523Y-92542857D01*
X133233333Y-92580952D01*
X132928571Y-92580952D01*
X134147619Y-92961904D02*
X133690476Y-92961904D01*
X133919047Y-92961904D02*
X133919047Y-92161904D01*
X133842857Y-92276190D01*
X133766666Y-92352380D01*
X133690476Y-92390476D01*
X134871428Y-92161904D02*
X134490476Y-92161904D01*
X134452380Y-92542857D01*
X134490476Y-92504761D01*
X134566666Y-92466666D01*
X134757142Y-92466666D01*
X134833333Y-92504761D01*
X134871428Y-92542857D01*
X134909523Y-92619047D01*
X134909523Y-92809523D01*
X134871428Y-92885714D01*
X134833333Y-92923809D01*
X134757142Y-92961904D01*
X134566666Y-92961904D01*
X134490476Y-92923809D01*
X134452380Y-92885714D01*
%TO.C,R22*%
X141161904Y-92614285D02*
X140780952Y-92880952D01*
X141161904Y-93071428D02*
X140361904Y-93071428D01*
X140361904Y-92766666D01*
X140400000Y-92690476D01*
X140438095Y-92652380D01*
X140514285Y-92614285D01*
X140628571Y-92614285D01*
X140704761Y-92652380D01*
X140742857Y-92690476D01*
X140780952Y-92766666D01*
X140780952Y-93071428D01*
X140438095Y-92309523D02*
X140400000Y-92271428D01*
X140361904Y-92195238D01*
X140361904Y-92004761D01*
X140400000Y-91928571D01*
X140438095Y-91890476D01*
X140514285Y-91852380D01*
X140590476Y-91852380D01*
X140704761Y-91890476D01*
X141161904Y-92347619D01*
X141161904Y-91852380D01*
X140438095Y-91547619D02*
X140400000Y-91509523D01*
X140361904Y-91433333D01*
X140361904Y-91242857D01*
X140400000Y-91166666D01*
X140438095Y-91128571D01*
X140514285Y-91090476D01*
X140590476Y-91090476D01*
X140704761Y-91128571D01*
X141161904Y-91585714D01*
X141161904Y-91090476D01*
%TO.C,L2*%
X141866666Y-116761904D02*
X141485714Y-116761904D01*
X141485714Y-115961904D01*
X142095238Y-116038095D02*
X142133333Y-116000000D01*
X142209523Y-115961904D01*
X142400000Y-115961904D01*
X142476190Y-116000000D01*
X142514285Y-116038095D01*
X142552380Y-116114285D01*
X142552380Y-116190476D01*
X142514285Y-116304761D01*
X142057142Y-116761904D01*
X142552380Y-116761904D01*
%TO.C,R6*%
X116266666Y-112161904D02*
X116000000Y-111780952D01*
X115809523Y-112161904D02*
X115809523Y-111361904D01*
X116114285Y-111361904D01*
X116190476Y-111400000D01*
X116228571Y-111438095D01*
X116266666Y-111514285D01*
X116266666Y-111628571D01*
X116228571Y-111704761D01*
X116190476Y-111742857D01*
X116114285Y-111780952D01*
X115809523Y-111780952D01*
X116952380Y-111361904D02*
X116800000Y-111361904D01*
X116723809Y-111400000D01*
X116685714Y-111438095D01*
X116609523Y-111552380D01*
X116571428Y-111704761D01*
X116571428Y-112009523D01*
X116609523Y-112085714D01*
X116647619Y-112123809D01*
X116723809Y-112161904D01*
X116876190Y-112161904D01*
X116952380Y-112123809D01*
X116990476Y-112085714D01*
X117028571Y-112009523D01*
X117028571Y-111819047D01*
X116990476Y-111742857D01*
X116952380Y-111704761D01*
X116876190Y-111666666D01*
X116723809Y-111666666D01*
X116647619Y-111704761D01*
X116609523Y-111742857D01*
X116571428Y-111819047D01*
%TO.C,C2*%
X126566666Y-85285714D02*
X126528571Y-85323809D01*
X126414285Y-85361904D01*
X126338095Y-85361904D01*
X126223809Y-85323809D01*
X126147619Y-85247619D01*
X126109523Y-85171428D01*
X126071428Y-85019047D01*
X126071428Y-84904761D01*
X126109523Y-84752380D01*
X126147619Y-84676190D01*
X126223809Y-84600000D01*
X126338095Y-84561904D01*
X126414285Y-84561904D01*
X126528571Y-84600000D01*
X126566666Y-84638095D01*
X126871428Y-84638095D02*
X126909523Y-84600000D01*
X126985714Y-84561904D01*
X127176190Y-84561904D01*
X127252380Y-84600000D01*
X127290476Y-84638095D01*
X127328571Y-84714285D01*
X127328571Y-84790476D01*
X127290476Y-84904761D01*
X126833333Y-85361904D01*
X127328571Y-85361904D01*
%TO.C,C15*%
X127285714Y-102914285D02*
X127323809Y-102952380D01*
X127361904Y-103066666D01*
X127361904Y-103142857D01*
X127323809Y-103257142D01*
X127247619Y-103333333D01*
X127171428Y-103371428D01*
X127019047Y-103409523D01*
X126904761Y-103409523D01*
X126752380Y-103371428D01*
X126676190Y-103333333D01*
X126600000Y-103257142D01*
X126561904Y-103142857D01*
X126561904Y-103066666D01*
X126600000Y-102952380D01*
X126638095Y-102914285D01*
X127361904Y-102152380D02*
X127361904Y-102609523D01*
X127361904Y-102380952D02*
X126561904Y-102380952D01*
X126676190Y-102457142D01*
X126752380Y-102533333D01*
X126790476Y-102609523D01*
X126561904Y-101428571D02*
X126561904Y-101809523D01*
X126942857Y-101847619D01*
X126904761Y-101809523D01*
X126866666Y-101733333D01*
X126866666Y-101542857D01*
X126904761Y-101466666D01*
X126942857Y-101428571D01*
X127019047Y-101390476D01*
X127209523Y-101390476D01*
X127285714Y-101428571D01*
X127323809Y-101466666D01*
X127361904Y-101542857D01*
X127361904Y-101733333D01*
X127323809Y-101809523D01*
X127285714Y-101847619D01*
%TO.C,R23*%
X158485714Y-95161904D02*
X158219047Y-94780952D01*
X158028571Y-95161904D02*
X158028571Y-94361904D01*
X158333333Y-94361904D01*
X158409523Y-94400000D01*
X158447619Y-94438095D01*
X158485714Y-94514285D01*
X158485714Y-94628571D01*
X158447619Y-94704761D01*
X158409523Y-94742857D01*
X158333333Y-94780952D01*
X158028571Y-94780952D01*
X158790476Y-94438095D02*
X158828571Y-94400000D01*
X158904761Y-94361904D01*
X159095238Y-94361904D01*
X159171428Y-94400000D01*
X159209523Y-94438095D01*
X159247619Y-94514285D01*
X159247619Y-94590476D01*
X159209523Y-94704761D01*
X158752380Y-95161904D01*
X159247619Y-95161904D01*
X159514285Y-94361904D02*
X160009523Y-94361904D01*
X159742857Y-94666666D01*
X159857142Y-94666666D01*
X159933333Y-94704761D01*
X159971428Y-94742857D01*
X160009523Y-94819047D01*
X160009523Y-95009523D01*
X159971428Y-95085714D01*
X159933333Y-95123809D01*
X159857142Y-95161904D01*
X159628571Y-95161904D01*
X159552380Y-95123809D01*
X159514285Y-95085714D01*
%TO.C,U1*%
X143661904Y-89209523D02*
X144309523Y-89209523D01*
X144385714Y-89171428D01*
X144423809Y-89133333D01*
X144461904Y-89057142D01*
X144461904Y-88904761D01*
X144423809Y-88828571D01*
X144385714Y-88790476D01*
X144309523Y-88752380D01*
X143661904Y-88752380D01*
X144461904Y-87952380D02*
X144461904Y-88409523D01*
X144461904Y-88180952D02*
X143661904Y-88180952D01*
X143776190Y-88257142D01*
X143852380Y-88333333D01*
X143890476Y-88409523D01*
%TO.C,R24*%
X146861904Y-97314285D02*
X146480952Y-97580952D01*
X146861904Y-97771428D02*
X146061904Y-97771428D01*
X146061904Y-97466666D01*
X146100000Y-97390476D01*
X146138095Y-97352380D01*
X146214285Y-97314285D01*
X146328571Y-97314285D01*
X146404761Y-97352380D01*
X146442857Y-97390476D01*
X146480952Y-97466666D01*
X146480952Y-97771428D01*
X146138095Y-97009523D02*
X146100000Y-96971428D01*
X146061904Y-96895238D01*
X146061904Y-96704761D01*
X146100000Y-96628571D01*
X146138095Y-96590476D01*
X146214285Y-96552380D01*
X146290476Y-96552380D01*
X146404761Y-96590476D01*
X146861904Y-97047619D01*
X146861904Y-96552380D01*
X146328571Y-95866666D02*
X146861904Y-95866666D01*
X146023809Y-96057142D02*
X146595238Y-96247619D01*
X146595238Y-95752380D01*
%TO.C,R11*%
X130485714Y-93061904D02*
X130219047Y-92680952D01*
X130028571Y-93061904D02*
X130028571Y-92261904D01*
X130333333Y-92261904D01*
X130409523Y-92300000D01*
X130447619Y-92338095D01*
X130485714Y-92414285D01*
X130485714Y-92528571D01*
X130447619Y-92604761D01*
X130409523Y-92642857D01*
X130333333Y-92680952D01*
X130028571Y-92680952D01*
X131247619Y-93061904D02*
X130790476Y-93061904D01*
X131019047Y-93061904D02*
X131019047Y-92261904D01*
X130942857Y-92376190D01*
X130866666Y-92452380D01*
X130790476Y-92490476D01*
X132009523Y-93061904D02*
X131552380Y-93061904D01*
X131780952Y-93061904D02*
X131780952Y-92261904D01*
X131704761Y-92376190D01*
X131628571Y-92452380D01*
X131552380Y-92490476D01*
%TO.C,C24*%
X110685714Y-116914285D02*
X110723809Y-116952380D01*
X110761904Y-117066666D01*
X110761904Y-117142857D01*
X110723809Y-117257142D01*
X110647619Y-117333333D01*
X110571428Y-117371428D01*
X110419047Y-117409523D01*
X110304761Y-117409523D01*
X110152380Y-117371428D01*
X110076190Y-117333333D01*
X110000000Y-117257142D01*
X109961904Y-117142857D01*
X109961904Y-117066666D01*
X110000000Y-116952380D01*
X110038095Y-116914285D01*
X110038095Y-116609523D02*
X110000000Y-116571428D01*
X109961904Y-116495238D01*
X109961904Y-116304761D01*
X110000000Y-116228571D01*
X110038095Y-116190476D01*
X110114285Y-116152380D01*
X110190476Y-116152380D01*
X110304761Y-116190476D01*
X110761904Y-116647619D01*
X110761904Y-116152380D01*
X110228571Y-115466666D02*
X110761904Y-115466666D01*
X109923809Y-115657142D02*
X110495238Y-115847619D01*
X110495238Y-115352380D01*
%TO.C,R25*%
X158285714Y-101161904D02*
X158019047Y-100780952D01*
X157828571Y-101161904D02*
X157828571Y-100361904D01*
X158133333Y-100361904D01*
X158209523Y-100400000D01*
X158247619Y-100438095D01*
X158285714Y-100514285D01*
X158285714Y-100628571D01*
X158247619Y-100704761D01*
X158209523Y-100742857D01*
X158133333Y-100780952D01*
X157828571Y-100780952D01*
X158590476Y-100438095D02*
X158628571Y-100400000D01*
X158704761Y-100361904D01*
X158895238Y-100361904D01*
X158971428Y-100400000D01*
X159009523Y-100438095D01*
X159047619Y-100514285D01*
X159047619Y-100590476D01*
X159009523Y-100704761D01*
X158552380Y-101161904D01*
X159047619Y-101161904D01*
X159771428Y-100361904D02*
X159390476Y-100361904D01*
X159352380Y-100742857D01*
X159390476Y-100704761D01*
X159466666Y-100666666D01*
X159657142Y-100666666D01*
X159733333Y-100704761D01*
X159771428Y-100742857D01*
X159809523Y-100819047D01*
X159809523Y-101009523D01*
X159771428Y-101085714D01*
X159733333Y-101123809D01*
X159657142Y-101161904D01*
X159466666Y-101161904D01*
X159390476Y-101123809D01*
X159352380Y-101085714D01*
%TO.C,R34*%
X130661904Y-112514285D02*
X130280952Y-112780952D01*
X130661904Y-112971428D02*
X129861904Y-112971428D01*
X129861904Y-112666666D01*
X129900000Y-112590476D01*
X129938095Y-112552380D01*
X130014285Y-112514285D01*
X130128571Y-112514285D01*
X130204761Y-112552380D01*
X130242857Y-112590476D01*
X130280952Y-112666666D01*
X130280952Y-112971428D01*
X129861904Y-112247619D02*
X129861904Y-111752380D01*
X130166666Y-112019047D01*
X130166666Y-111904761D01*
X130204761Y-111828571D01*
X130242857Y-111790476D01*
X130319047Y-111752380D01*
X130509523Y-111752380D01*
X130585714Y-111790476D01*
X130623809Y-111828571D01*
X130661904Y-111904761D01*
X130661904Y-112133333D01*
X130623809Y-112209523D01*
X130585714Y-112247619D01*
X130128571Y-111066666D02*
X130661904Y-111066666D01*
X129823809Y-111257142D02*
X130395238Y-111447619D01*
X130395238Y-110952380D01*
%TO.C,C40*%
X151885714Y-123710714D02*
X151847619Y-123748809D01*
X151733333Y-123786904D01*
X151657142Y-123786904D01*
X151542857Y-123748809D01*
X151466666Y-123672619D01*
X151428571Y-123596428D01*
X151390476Y-123444047D01*
X151390476Y-123329761D01*
X151428571Y-123177380D01*
X151466666Y-123101190D01*
X151542857Y-123025000D01*
X151657142Y-122986904D01*
X151733333Y-122986904D01*
X151847619Y-123025000D01*
X151885714Y-123063095D01*
X152571428Y-123253571D02*
X152571428Y-123786904D01*
X152380952Y-122948809D02*
X152190476Y-123520238D01*
X152685714Y-123520238D01*
X153142857Y-122986904D02*
X153219047Y-122986904D01*
X153295238Y-123025000D01*
X153333333Y-123063095D01*
X153371428Y-123139285D01*
X153409523Y-123291666D01*
X153409523Y-123482142D01*
X153371428Y-123634523D01*
X153333333Y-123710714D01*
X153295238Y-123748809D01*
X153219047Y-123786904D01*
X153142857Y-123786904D01*
X153066666Y-123748809D01*
X153028571Y-123710714D01*
X152990476Y-123634523D01*
X152952380Y-123482142D01*
X152952380Y-123291666D01*
X152990476Y-123139285D01*
X153028571Y-123063095D01*
X153066666Y-123025000D01*
X153142857Y-122986904D01*
%TO.C,U4*%
X128490476Y-100761904D02*
X128490476Y-101409523D01*
X128528571Y-101485714D01*
X128566666Y-101523809D01*
X128642857Y-101561904D01*
X128795238Y-101561904D01*
X128871428Y-101523809D01*
X128909523Y-101485714D01*
X128947619Y-101409523D01*
X128947619Y-100761904D01*
X129671428Y-101028571D02*
X129671428Y-101561904D01*
X129480952Y-100723809D02*
X129290476Y-101295238D01*
X129785714Y-101295238D01*
%TO.C,R35*%
X124661904Y-114914285D02*
X124280952Y-115180952D01*
X124661904Y-115371428D02*
X123861904Y-115371428D01*
X123861904Y-115066666D01*
X123900000Y-114990476D01*
X123938095Y-114952380D01*
X124014285Y-114914285D01*
X124128571Y-114914285D01*
X124204761Y-114952380D01*
X124242857Y-114990476D01*
X124280952Y-115066666D01*
X124280952Y-115371428D01*
X123861904Y-114647619D02*
X123861904Y-114152380D01*
X124166666Y-114419047D01*
X124166666Y-114304761D01*
X124204761Y-114228571D01*
X124242857Y-114190476D01*
X124319047Y-114152380D01*
X124509523Y-114152380D01*
X124585714Y-114190476D01*
X124623809Y-114228571D01*
X124661904Y-114304761D01*
X124661904Y-114533333D01*
X124623809Y-114609523D01*
X124585714Y-114647619D01*
X123861904Y-113428571D02*
X123861904Y-113809523D01*
X124242857Y-113847619D01*
X124204761Y-113809523D01*
X124166666Y-113733333D01*
X124166666Y-113542857D01*
X124204761Y-113466666D01*
X124242857Y-113428571D01*
X124319047Y-113390476D01*
X124509523Y-113390476D01*
X124585714Y-113428571D01*
X124623809Y-113466666D01*
X124661904Y-113542857D01*
X124661904Y-113733333D01*
X124623809Y-113809523D01*
X124585714Y-113847619D01*
%TO.C,C25*%
X125885714Y-115585714D02*
X125847619Y-115623809D01*
X125733333Y-115661904D01*
X125657142Y-115661904D01*
X125542857Y-115623809D01*
X125466666Y-115547619D01*
X125428571Y-115471428D01*
X125390476Y-115319047D01*
X125390476Y-115204761D01*
X125428571Y-115052380D01*
X125466666Y-114976190D01*
X125542857Y-114900000D01*
X125657142Y-114861904D01*
X125733333Y-114861904D01*
X125847619Y-114900000D01*
X125885714Y-114938095D01*
X126190476Y-114938095D02*
X126228571Y-114900000D01*
X126304761Y-114861904D01*
X126495238Y-114861904D01*
X126571428Y-114900000D01*
X126609523Y-114938095D01*
X126647619Y-115014285D01*
X126647619Y-115090476D01*
X126609523Y-115204761D01*
X126152380Y-115661904D01*
X126647619Y-115661904D01*
X127371428Y-114861904D02*
X126990476Y-114861904D01*
X126952380Y-115242857D01*
X126990476Y-115204761D01*
X127066666Y-115166666D01*
X127257142Y-115166666D01*
X127333333Y-115204761D01*
X127371428Y-115242857D01*
X127409523Y-115319047D01*
X127409523Y-115509523D01*
X127371428Y-115585714D01*
X127333333Y-115623809D01*
X127257142Y-115661904D01*
X127066666Y-115661904D01*
X126990476Y-115623809D01*
X126952380Y-115585714D01*
%TO.C,D6*%
X123061904Y-122190476D02*
X122261904Y-122190476D01*
X122261904Y-122000000D01*
X122300000Y-121885714D01*
X122376190Y-121809523D01*
X122452380Y-121771428D01*
X122604761Y-121733333D01*
X122719047Y-121733333D01*
X122871428Y-121771428D01*
X122947619Y-121809523D01*
X123023809Y-121885714D01*
X123061904Y-122000000D01*
X123061904Y-122190476D01*
X122261904Y-121047619D02*
X122261904Y-121200000D01*
X122300000Y-121276190D01*
X122338095Y-121314285D01*
X122452380Y-121390476D01*
X122604761Y-121428571D01*
X122909523Y-121428571D01*
X122985714Y-121390476D01*
X123023809Y-121352380D01*
X123061904Y-121276190D01*
X123061904Y-121123809D01*
X123023809Y-121047619D01*
X122985714Y-121009523D01*
X122909523Y-120971428D01*
X122719047Y-120971428D01*
X122642857Y-121009523D01*
X122604761Y-121047619D01*
X122566666Y-121123809D01*
X122566666Y-121276190D01*
X122604761Y-121352380D01*
X122642857Y-121390476D01*
X122719047Y-121428571D01*
%TO.C,R1*%
X139866666Y-86186904D02*
X139600000Y-85805952D01*
X139409523Y-86186904D02*
X139409523Y-85386904D01*
X139714285Y-85386904D01*
X139790476Y-85425000D01*
X139828571Y-85463095D01*
X139866666Y-85539285D01*
X139866666Y-85653571D01*
X139828571Y-85729761D01*
X139790476Y-85767857D01*
X139714285Y-85805952D01*
X139409523Y-85805952D01*
X140628571Y-86186904D02*
X140171428Y-86186904D01*
X140400000Y-86186904D02*
X140400000Y-85386904D01*
X140323809Y-85501190D01*
X140247619Y-85577380D01*
X140171428Y-85615476D01*
%TO.C,C8*%
X132885714Y-100233333D02*
X132923809Y-100271428D01*
X132961904Y-100385714D01*
X132961904Y-100461904D01*
X132923809Y-100576190D01*
X132847619Y-100652380D01*
X132771428Y-100690476D01*
X132619047Y-100728571D01*
X132504761Y-100728571D01*
X132352380Y-100690476D01*
X132276190Y-100652380D01*
X132200000Y-100576190D01*
X132161904Y-100461904D01*
X132161904Y-100385714D01*
X132200000Y-100271428D01*
X132238095Y-100233333D01*
X132504761Y-99776190D02*
X132466666Y-99852380D01*
X132428571Y-99890476D01*
X132352380Y-99928571D01*
X132314285Y-99928571D01*
X132238095Y-99890476D01*
X132200000Y-99852380D01*
X132161904Y-99776190D01*
X132161904Y-99623809D01*
X132200000Y-99547619D01*
X132238095Y-99509523D01*
X132314285Y-99471428D01*
X132352380Y-99471428D01*
X132428571Y-99509523D01*
X132466666Y-99547619D01*
X132504761Y-99623809D01*
X132504761Y-99776190D01*
X132542857Y-99852380D01*
X132580952Y-99890476D01*
X132657142Y-99928571D01*
X132809523Y-99928571D01*
X132885714Y-99890476D01*
X132923809Y-99852380D01*
X132961904Y-99776190D01*
X132961904Y-99623809D01*
X132923809Y-99547619D01*
X132885714Y-99509523D01*
X132809523Y-99471428D01*
X132657142Y-99471428D01*
X132580952Y-99509523D01*
X132542857Y-99547619D01*
X132504761Y-99623809D01*
%TO.C,J3*%
X163733333Y-107436904D02*
X163733333Y-108008333D01*
X163695238Y-108122619D01*
X163619047Y-108198809D01*
X163504761Y-108236904D01*
X163428571Y-108236904D01*
X164038095Y-107436904D02*
X164533333Y-107436904D01*
X164266666Y-107741666D01*
X164380952Y-107741666D01*
X164457142Y-107779761D01*
X164495238Y-107817857D01*
X164533333Y-107894047D01*
X164533333Y-108084523D01*
X164495238Y-108160714D01*
X164457142Y-108198809D01*
X164380952Y-108236904D01*
X164152380Y-108236904D01*
X164076190Y-108198809D01*
X164038095Y-108160714D01*
%TO.C,U6*%
X126761904Y-107309523D02*
X127409523Y-107309523D01*
X127485714Y-107271428D01*
X127523809Y-107233333D01*
X127561904Y-107157142D01*
X127561904Y-107004761D01*
X127523809Y-106928571D01*
X127485714Y-106890476D01*
X127409523Y-106852380D01*
X126761904Y-106852380D01*
X126761904Y-106128571D02*
X126761904Y-106280952D01*
X126800000Y-106357142D01*
X126838095Y-106395238D01*
X126952380Y-106471428D01*
X127104761Y-106509523D01*
X127409523Y-106509523D01*
X127485714Y-106471428D01*
X127523809Y-106433333D01*
X127561904Y-106357142D01*
X127561904Y-106204761D01*
X127523809Y-106128571D01*
X127485714Y-106090476D01*
X127409523Y-106052380D01*
X127219047Y-106052380D01*
X127142857Y-106090476D01*
X127104761Y-106128571D01*
X127066666Y-106204761D01*
X127066666Y-106357142D01*
X127104761Y-106433333D01*
X127142857Y-106471428D01*
X127219047Y-106509523D01*
%TO.C,U12*%
X133561904Y-121390476D02*
X134209523Y-121390476D01*
X134285714Y-121352380D01*
X134323809Y-121314285D01*
X134361904Y-121238095D01*
X134361904Y-121085714D01*
X134323809Y-121009523D01*
X134285714Y-120971428D01*
X134209523Y-120933333D01*
X133561904Y-120933333D01*
X134361904Y-120133333D02*
X134361904Y-120590476D01*
X134361904Y-120361904D02*
X133561904Y-120361904D01*
X133676190Y-120438095D01*
X133752380Y-120514285D01*
X133790476Y-120590476D01*
X133638095Y-119828571D02*
X133600000Y-119790476D01*
X133561904Y-119714285D01*
X133561904Y-119523809D01*
X133600000Y-119447619D01*
X133638095Y-119409523D01*
X133714285Y-119371428D01*
X133790476Y-119371428D01*
X133904761Y-119409523D01*
X134361904Y-119866666D01*
X134361904Y-119371428D01*
%TO.C,J1*%
X134161904Y-88666666D02*
X134733333Y-88666666D01*
X134847619Y-88704761D01*
X134923809Y-88780952D01*
X134961904Y-88895238D01*
X134961904Y-88971428D01*
X134961904Y-87866666D02*
X134961904Y-88323809D01*
X134961904Y-88095238D02*
X134161904Y-88095238D01*
X134276190Y-88171428D01*
X134352380Y-88247619D01*
X134390476Y-88323809D01*
%TO.C,C34*%
X122185714Y-115014285D02*
X122223809Y-115052380D01*
X122261904Y-115166666D01*
X122261904Y-115242857D01*
X122223809Y-115357142D01*
X122147619Y-115433333D01*
X122071428Y-115471428D01*
X121919047Y-115509523D01*
X121804761Y-115509523D01*
X121652380Y-115471428D01*
X121576190Y-115433333D01*
X121500000Y-115357142D01*
X121461904Y-115242857D01*
X121461904Y-115166666D01*
X121500000Y-115052380D01*
X121538095Y-115014285D01*
X121461904Y-114747619D02*
X121461904Y-114252380D01*
X121766666Y-114519047D01*
X121766666Y-114404761D01*
X121804761Y-114328571D01*
X121842857Y-114290476D01*
X121919047Y-114252380D01*
X122109523Y-114252380D01*
X122185714Y-114290476D01*
X122223809Y-114328571D01*
X122261904Y-114404761D01*
X122261904Y-114633333D01*
X122223809Y-114709523D01*
X122185714Y-114747619D01*
X121728571Y-113566666D02*
X122261904Y-113566666D01*
X121423809Y-113757142D02*
X121995238Y-113947619D01*
X121995238Y-113452380D01*
%TO.C,C17*%
X138185714Y-102310714D02*
X138147619Y-102348809D01*
X138033333Y-102386904D01*
X137957142Y-102386904D01*
X137842857Y-102348809D01*
X137766666Y-102272619D01*
X137728571Y-102196428D01*
X137690476Y-102044047D01*
X137690476Y-101929761D01*
X137728571Y-101777380D01*
X137766666Y-101701190D01*
X137842857Y-101625000D01*
X137957142Y-101586904D01*
X138033333Y-101586904D01*
X138147619Y-101625000D01*
X138185714Y-101663095D01*
X138947619Y-102386904D02*
X138490476Y-102386904D01*
X138719047Y-102386904D02*
X138719047Y-101586904D01*
X138642857Y-101701190D01*
X138566666Y-101777380D01*
X138490476Y-101815476D01*
X139214285Y-101586904D02*
X139747619Y-101586904D01*
X139404761Y-102386904D01*
%TO.C,C43*%
X173285714Y-118110714D02*
X173247619Y-118148809D01*
X173133333Y-118186904D01*
X173057142Y-118186904D01*
X172942857Y-118148809D01*
X172866666Y-118072619D01*
X172828571Y-117996428D01*
X172790476Y-117844047D01*
X172790476Y-117729761D01*
X172828571Y-117577380D01*
X172866666Y-117501190D01*
X172942857Y-117425000D01*
X173057142Y-117386904D01*
X173133333Y-117386904D01*
X173247619Y-117425000D01*
X173285714Y-117463095D01*
X173971428Y-117653571D02*
X173971428Y-118186904D01*
X173780952Y-117348809D02*
X173590476Y-117920238D01*
X174085714Y-117920238D01*
X174314285Y-117386904D02*
X174809523Y-117386904D01*
X174542857Y-117691666D01*
X174657142Y-117691666D01*
X174733333Y-117729761D01*
X174771428Y-117767857D01*
X174809523Y-117844047D01*
X174809523Y-118034523D01*
X174771428Y-118110714D01*
X174733333Y-118148809D01*
X174657142Y-118186904D01*
X174428571Y-118186904D01*
X174352380Y-118148809D01*
X174314285Y-118110714D01*
%TO.C,C39*%
X157885714Y-125685714D02*
X157847619Y-125723809D01*
X157733333Y-125761904D01*
X157657142Y-125761904D01*
X157542857Y-125723809D01*
X157466666Y-125647619D01*
X157428571Y-125571428D01*
X157390476Y-125419047D01*
X157390476Y-125304761D01*
X157428571Y-125152380D01*
X157466666Y-125076190D01*
X157542857Y-125000000D01*
X157657142Y-124961904D01*
X157733333Y-124961904D01*
X157847619Y-125000000D01*
X157885714Y-125038095D01*
X158152380Y-124961904D02*
X158647619Y-124961904D01*
X158380952Y-125266666D01*
X158495238Y-125266666D01*
X158571428Y-125304761D01*
X158609523Y-125342857D01*
X158647619Y-125419047D01*
X158647619Y-125609523D01*
X158609523Y-125685714D01*
X158571428Y-125723809D01*
X158495238Y-125761904D01*
X158266666Y-125761904D01*
X158190476Y-125723809D01*
X158152380Y-125685714D01*
X159028571Y-125761904D02*
X159180952Y-125761904D01*
X159257142Y-125723809D01*
X159295238Y-125685714D01*
X159371428Y-125571428D01*
X159409523Y-125419047D01*
X159409523Y-125114285D01*
X159371428Y-125038095D01*
X159333333Y-125000000D01*
X159257142Y-124961904D01*
X159104761Y-124961904D01*
X159028571Y-125000000D01*
X158990476Y-125038095D01*
X158952380Y-125114285D01*
X158952380Y-125304761D01*
X158990476Y-125380952D01*
X159028571Y-125419047D01*
X159104761Y-125457142D01*
X159257142Y-125457142D01*
X159333333Y-125419047D01*
X159371428Y-125380952D01*
X159409523Y-125304761D01*
%TO.C,C5*%
X149266666Y-84985714D02*
X149228571Y-85023809D01*
X149114285Y-85061904D01*
X149038095Y-85061904D01*
X148923809Y-85023809D01*
X148847619Y-84947619D01*
X148809523Y-84871428D01*
X148771428Y-84719047D01*
X148771428Y-84604761D01*
X148809523Y-84452380D01*
X148847619Y-84376190D01*
X148923809Y-84300000D01*
X149038095Y-84261904D01*
X149114285Y-84261904D01*
X149228571Y-84300000D01*
X149266666Y-84338095D01*
X149990476Y-84261904D02*
X149609523Y-84261904D01*
X149571428Y-84642857D01*
X149609523Y-84604761D01*
X149685714Y-84566666D01*
X149876190Y-84566666D01*
X149952380Y-84604761D01*
X149990476Y-84642857D01*
X150028571Y-84719047D01*
X150028571Y-84909523D01*
X149990476Y-84985714D01*
X149952380Y-85023809D01*
X149876190Y-85061904D01*
X149685714Y-85061904D01*
X149609523Y-85023809D01*
X149571428Y-84985714D01*
%TO.C,R33*%
X131761904Y-112514285D02*
X131380952Y-112780952D01*
X131761904Y-112971428D02*
X130961904Y-112971428D01*
X130961904Y-112666666D01*
X131000000Y-112590476D01*
X131038095Y-112552380D01*
X131114285Y-112514285D01*
X131228571Y-112514285D01*
X131304761Y-112552380D01*
X131342857Y-112590476D01*
X131380952Y-112666666D01*
X131380952Y-112971428D01*
X130961904Y-112247619D02*
X130961904Y-111752380D01*
X131266666Y-112019047D01*
X131266666Y-111904761D01*
X131304761Y-111828571D01*
X131342857Y-111790476D01*
X131419047Y-111752380D01*
X131609523Y-111752380D01*
X131685714Y-111790476D01*
X131723809Y-111828571D01*
X131761904Y-111904761D01*
X131761904Y-112133333D01*
X131723809Y-112209523D01*
X131685714Y-112247619D01*
X130961904Y-111485714D02*
X130961904Y-110990476D01*
X131266666Y-111257142D01*
X131266666Y-111142857D01*
X131304761Y-111066666D01*
X131342857Y-111028571D01*
X131419047Y-110990476D01*
X131609523Y-110990476D01*
X131685714Y-111028571D01*
X131723809Y-111066666D01*
X131761904Y-111142857D01*
X131761904Y-111371428D01*
X131723809Y-111447619D01*
X131685714Y-111485714D01*
%TO.C,C29*%
X129485714Y-112514285D02*
X129523809Y-112552380D01*
X129561904Y-112666666D01*
X129561904Y-112742857D01*
X129523809Y-112857142D01*
X129447619Y-112933333D01*
X129371428Y-112971428D01*
X129219047Y-113009523D01*
X129104761Y-113009523D01*
X128952380Y-112971428D01*
X128876190Y-112933333D01*
X128800000Y-112857142D01*
X128761904Y-112742857D01*
X128761904Y-112666666D01*
X128800000Y-112552380D01*
X128838095Y-112514285D01*
X128838095Y-112209523D02*
X128800000Y-112171428D01*
X128761904Y-112095238D01*
X128761904Y-111904761D01*
X128800000Y-111828571D01*
X128838095Y-111790476D01*
X128914285Y-111752380D01*
X128990476Y-111752380D01*
X129104761Y-111790476D01*
X129561904Y-112247619D01*
X129561904Y-111752380D01*
X129561904Y-111371428D02*
X129561904Y-111219047D01*
X129523809Y-111142857D01*
X129485714Y-111104761D01*
X129371428Y-111028571D01*
X129219047Y-110990476D01*
X128914285Y-110990476D01*
X128838095Y-111028571D01*
X128800000Y-111066666D01*
X128761904Y-111142857D01*
X128761904Y-111295238D01*
X128800000Y-111371428D01*
X128838095Y-111409523D01*
X128914285Y-111447619D01*
X129104761Y-111447619D01*
X129180952Y-111409523D01*
X129219047Y-111371428D01*
X129257142Y-111295238D01*
X129257142Y-111142857D01*
X129219047Y-111066666D01*
X129180952Y-111028571D01*
X129104761Y-110990476D01*
%TO.C,C30*%
X132985714Y-126285714D02*
X132947619Y-126323809D01*
X132833333Y-126361904D01*
X132757142Y-126361904D01*
X132642857Y-126323809D01*
X132566666Y-126247619D01*
X132528571Y-126171428D01*
X132490476Y-126019047D01*
X132490476Y-125904761D01*
X132528571Y-125752380D01*
X132566666Y-125676190D01*
X132642857Y-125600000D01*
X132757142Y-125561904D01*
X132833333Y-125561904D01*
X132947619Y-125600000D01*
X132985714Y-125638095D01*
X133252380Y-125561904D02*
X133747619Y-125561904D01*
X133480952Y-125866666D01*
X133595238Y-125866666D01*
X133671428Y-125904761D01*
X133709523Y-125942857D01*
X133747619Y-126019047D01*
X133747619Y-126209523D01*
X133709523Y-126285714D01*
X133671428Y-126323809D01*
X133595238Y-126361904D01*
X133366666Y-126361904D01*
X133290476Y-126323809D01*
X133252380Y-126285714D01*
X134242857Y-125561904D02*
X134319047Y-125561904D01*
X134395238Y-125600000D01*
X134433333Y-125638095D01*
X134471428Y-125714285D01*
X134509523Y-125866666D01*
X134509523Y-126057142D01*
X134471428Y-126209523D01*
X134433333Y-126285714D01*
X134395238Y-126323809D01*
X134319047Y-126361904D01*
X134242857Y-126361904D01*
X134166666Y-126323809D01*
X134128571Y-126285714D01*
X134090476Y-126209523D01*
X134052380Y-126057142D01*
X134052380Y-125866666D01*
X134090476Y-125714285D01*
X134128571Y-125638095D01*
X134166666Y-125600000D01*
X134242857Y-125561904D01*
%TO.C,R26*%
X163885714Y-98161904D02*
X163619047Y-97780952D01*
X163428571Y-98161904D02*
X163428571Y-97361904D01*
X163733333Y-97361904D01*
X163809523Y-97400000D01*
X163847619Y-97438095D01*
X163885714Y-97514285D01*
X163885714Y-97628571D01*
X163847619Y-97704761D01*
X163809523Y-97742857D01*
X163733333Y-97780952D01*
X163428571Y-97780952D01*
X164190476Y-97438095D02*
X164228571Y-97400000D01*
X164304761Y-97361904D01*
X164495238Y-97361904D01*
X164571428Y-97400000D01*
X164609523Y-97438095D01*
X164647619Y-97514285D01*
X164647619Y-97590476D01*
X164609523Y-97704761D01*
X164152380Y-98161904D01*
X164647619Y-98161904D01*
X165333333Y-97361904D02*
X165180952Y-97361904D01*
X165104761Y-97400000D01*
X165066666Y-97438095D01*
X164990476Y-97552380D01*
X164952380Y-97704761D01*
X164952380Y-98009523D01*
X164990476Y-98085714D01*
X165028571Y-98123809D01*
X165104761Y-98161904D01*
X165257142Y-98161904D01*
X165333333Y-98123809D01*
X165371428Y-98085714D01*
X165409523Y-98009523D01*
X165409523Y-97819047D01*
X165371428Y-97742857D01*
X165333333Y-97704761D01*
X165257142Y-97666666D01*
X165104761Y-97666666D01*
X165028571Y-97704761D01*
X164990476Y-97742857D01*
X164952380Y-97819047D01*
%TO.C,R13*%
X139061904Y-92514285D02*
X138680952Y-92780952D01*
X139061904Y-92971428D02*
X138261904Y-92971428D01*
X138261904Y-92666666D01*
X138300000Y-92590476D01*
X138338095Y-92552380D01*
X138414285Y-92514285D01*
X138528571Y-92514285D01*
X138604761Y-92552380D01*
X138642857Y-92590476D01*
X138680952Y-92666666D01*
X138680952Y-92971428D01*
X139061904Y-91752380D02*
X139061904Y-92209523D01*
X139061904Y-91980952D02*
X138261904Y-91980952D01*
X138376190Y-92057142D01*
X138452380Y-92133333D01*
X138490476Y-92209523D01*
X138261904Y-91485714D02*
X138261904Y-90990476D01*
X138566666Y-91257142D01*
X138566666Y-91142857D01*
X138604761Y-91066666D01*
X138642857Y-91028571D01*
X138719047Y-90990476D01*
X138909523Y-90990476D01*
X138985714Y-91028571D01*
X139023809Y-91066666D01*
X139061904Y-91142857D01*
X139061904Y-91371428D01*
X139023809Y-91447619D01*
X138985714Y-91485714D01*
%TO.C,U11*%
X152561904Y-111590476D02*
X153209523Y-111590476D01*
X153285714Y-111552380D01*
X153323809Y-111514285D01*
X153361904Y-111438095D01*
X153361904Y-111285714D01*
X153323809Y-111209523D01*
X153285714Y-111171428D01*
X153209523Y-111133333D01*
X152561904Y-111133333D01*
X153361904Y-110333333D02*
X153361904Y-110790476D01*
X153361904Y-110561904D02*
X152561904Y-110561904D01*
X152676190Y-110638095D01*
X152752380Y-110714285D01*
X152790476Y-110790476D01*
X153361904Y-109571428D02*
X153361904Y-110028571D01*
X153361904Y-109800000D02*
X152561904Y-109800000D01*
X152676190Y-109876190D01*
X152752380Y-109952380D01*
X152790476Y-110028571D01*
%TO.C,R38*%
X151885714Y-125361904D02*
X151619047Y-124980952D01*
X151428571Y-125361904D02*
X151428571Y-124561904D01*
X151733333Y-124561904D01*
X151809523Y-124600000D01*
X151847619Y-124638095D01*
X151885714Y-124714285D01*
X151885714Y-124828571D01*
X151847619Y-124904761D01*
X151809523Y-124942857D01*
X151733333Y-124980952D01*
X151428571Y-124980952D01*
X152152380Y-124561904D02*
X152647619Y-124561904D01*
X152380952Y-124866666D01*
X152495238Y-124866666D01*
X152571428Y-124904761D01*
X152609523Y-124942857D01*
X152647619Y-125019047D01*
X152647619Y-125209523D01*
X152609523Y-125285714D01*
X152571428Y-125323809D01*
X152495238Y-125361904D01*
X152266666Y-125361904D01*
X152190476Y-125323809D01*
X152152380Y-125285714D01*
X153104761Y-124904761D02*
X153028571Y-124866666D01*
X152990476Y-124828571D01*
X152952380Y-124752380D01*
X152952380Y-124714285D01*
X152990476Y-124638095D01*
X153028571Y-124600000D01*
X153104761Y-124561904D01*
X153257142Y-124561904D01*
X153333333Y-124600000D01*
X153371428Y-124638095D01*
X153409523Y-124714285D01*
X153409523Y-124752380D01*
X153371428Y-124828571D01*
X153333333Y-124866666D01*
X153257142Y-124904761D01*
X153104761Y-124904761D01*
X153028571Y-124942857D01*
X152990476Y-124980952D01*
X152952380Y-125057142D01*
X152952380Y-125209523D01*
X152990476Y-125285714D01*
X153028571Y-125323809D01*
X153104761Y-125361904D01*
X153257142Y-125361904D01*
X153333333Y-125323809D01*
X153371428Y-125285714D01*
X153409523Y-125209523D01*
X153409523Y-125057142D01*
X153371428Y-124980952D01*
X153333333Y-124942857D01*
X153257142Y-124904761D01*
%TO.C,R27*%
X143161904Y-113314285D02*
X142780952Y-113580952D01*
X143161904Y-113771428D02*
X142361904Y-113771428D01*
X142361904Y-113466666D01*
X142400000Y-113390476D01*
X142438095Y-113352380D01*
X142514285Y-113314285D01*
X142628571Y-113314285D01*
X142704761Y-113352380D01*
X142742857Y-113390476D01*
X142780952Y-113466666D01*
X142780952Y-113771428D01*
X142438095Y-113009523D02*
X142400000Y-112971428D01*
X142361904Y-112895238D01*
X142361904Y-112704761D01*
X142400000Y-112628571D01*
X142438095Y-112590476D01*
X142514285Y-112552380D01*
X142590476Y-112552380D01*
X142704761Y-112590476D01*
X143161904Y-113047619D01*
X143161904Y-112552380D01*
X142361904Y-112285714D02*
X142361904Y-111752380D01*
X143161904Y-112095238D01*
%TO.C,R44*%
X169161904Y-115964285D02*
X168780952Y-116230952D01*
X169161904Y-116421428D02*
X168361904Y-116421428D01*
X168361904Y-116116666D01*
X168400000Y-116040476D01*
X168438095Y-116002380D01*
X168514285Y-115964285D01*
X168628571Y-115964285D01*
X168704761Y-116002380D01*
X168742857Y-116040476D01*
X168780952Y-116116666D01*
X168780952Y-116421428D01*
X168628571Y-115278571D02*
X169161904Y-115278571D01*
X168323809Y-115469047D02*
X168895238Y-115659523D01*
X168895238Y-115164285D01*
X168628571Y-114516666D02*
X169161904Y-114516666D01*
X168323809Y-114707142D02*
X168895238Y-114897619D01*
X168895238Y-114402380D01*
%TO.C,R39*%
X155285714Y-115161904D02*
X155019047Y-114780952D01*
X154828571Y-115161904D02*
X154828571Y-114361904D01*
X155133333Y-114361904D01*
X155209523Y-114400000D01*
X155247619Y-114438095D01*
X155285714Y-114514285D01*
X155285714Y-114628571D01*
X155247619Y-114704761D01*
X155209523Y-114742857D01*
X155133333Y-114780952D01*
X154828571Y-114780952D01*
X155552380Y-114361904D02*
X156047619Y-114361904D01*
X155780952Y-114666666D01*
X155895238Y-114666666D01*
X155971428Y-114704761D01*
X156009523Y-114742857D01*
X156047619Y-114819047D01*
X156047619Y-115009523D01*
X156009523Y-115085714D01*
X155971428Y-115123809D01*
X155895238Y-115161904D01*
X155666666Y-115161904D01*
X155590476Y-115123809D01*
X155552380Y-115085714D01*
X156428571Y-115161904D02*
X156580952Y-115161904D01*
X156657142Y-115123809D01*
X156695238Y-115085714D01*
X156771428Y-114971428D01*
X156809523Y-114819047D01*
X156809523Y-114514285D01*
X156771428Y-114438095D01*
X156733333Y-114400000D01*
X156657142Y-114361904D01*
X156504761Y-114361904D01*
X156428571Y-114400000D01*
X156390476Y-114438095D01*
X156352380Y-114514285D01*
X156352380Y-114704761D01*
X156390476Y-114780952D01*
X156428571Y-114819047D01*
X156504761Y-114857142D01*
X156657142Y-114857142D01*
X156733333Y-114819047D01*
X156771428Y-114780952D01*
X156809523Y-114704761D01*
%TO.C,U14*%
X160909523Y-125361904D02*
X160909523Y-126009523D01*
X160947619Y-126085714D01*
X160985714Y-126123809D01*
X161061904Y-126161904D01*
X161214285Y-126161904D01*
X161290476Y-126123809D01*
X161328571Y-126085714D01*
X161366666Y-126009523D01*
X161366666Y-125361904D01*
X162166666Y-126161904D02*
X161709523Y-126161904D01*
X161938095Y-126161904D02*
X161938095Y-125361904D01*
X161861904Y-125476190D01*
X161785714Y-125552380D01*
X161709523Y-125590476D01*
X162852380Y-125628571D02*
X162852380Y-126161904D01*
X162661904Y-125323809D02*
X162471428Y-125895238D01*
X162966666Y-125895238D01*
%TO.C,C21*%
X139685714Y-112685714D02*
X139647619Y-112723809D01*
X139533333Y-112761904D01*
X139457142Y-112761904D01*
X139342857Y-112723809D01*
X139266666Y-112647619D01*
X139228571Y-112571428D01*
X139190476Y-112419047D01*
X139190476Y-112304761D01*
X139228571Y-112152380D01*
X139266666Y-112076190D01*
X139342857Y-112000000D01*
X139457142Y-111961904D01*
X139533333Y-111961904D01*
X139647619Y-112000000D01*
X139685714Y-112038095D01*
X139990476Y-112038095D02*
X140028571Y-112000000D01*
X140104761Y-111961904D01*
X140295238Y-111961904D01*
X140371428Y-112000000D01*
X140409523Y-112038095D01*
X140447619Y-112114285D01*
X140447619Y-112190476D01*
X140409523Y-112304761D01*
X139952380Y-112761904D01*
X140447619Y-112761904D01*
X141209523Y-112761904D02*
X140752380Y-112761904D01*
X140980952Y-112761904D02*
X140980952Y-111961904D01*
X140904761Y-112076190D01*
X140828571Y-112152380D01*
X140752380Y-112190476D01*
%TO.C,C22*%
X149685714Y-110914285D02*
X149723809Y-110952380D01*
X149761904Y-111066666D01*
X149761904Y-111142857D01*
X149723809Y-111257142D01*
X149647619Y-111333333D01*
X149571428Y-111371428D01*
X149419047Y-111409523D01*
X149304761Y-111409523D01*
X149152380Y-111371428D01*
X149076190Y-111333333D01*
X149000000Y-111257142D01*
X148961904Y-111142857D01*
X148961904Y-111066666D01*
X149000000Y-110952380D01*
X149038095Y-110914285D01*
X149038095Y-110609523D02*
X149000000Y-110571428D01*
X148961904Y-110495238D01*
X148961904Y-110304761D01*
X149000000Y-110228571D01*
X149038095Y-110190476D01*
X149114285Y-110152380D01*
X149190476Y-110152380D01*
X149304761Y-110190476D01*
X149761904Y-110647619D01*
X149761904Y-110152380D01*
X149038095Y-109847619D02*
X149000000Y-109809523D01*
X148961904Y-109733333D01*
X148961904Y-109542857D01*
X149000000Y-109466666D01*
X149038095Y-109428571D01*
X149114285Y-109390476D01*
X149190476Y-109390476D01*
X149304761Y-109428571D01*
X149761904Y-109885714D01*
X149761904Y-109390476D01*
%TO.C,R14*%
X132885714Y-111361904D02*
X132619047Y-110980952D01*
X132428571Y-111361904D02*
X132428571Y-110561904D01*
X132733333Y-110561904D01*
X132809523Y-110600000D01*
X132847619Y-110638095D01*
X132885714Y-110714285D01*
X132885714Y-110828571D01*
X132847619Y-110904761D01*
X132809523Y-110942857D01*
X132733333Y-110980952D01*
X132428571Y-110980952D01*
X133647619Y-111361904D02*
X133190476Y-111361904D01*
X133419047Y-111361904D02*
X133419047Y-110561904D01*
X133342857Y-110676190D01*
X133266666Y-110752380D01*
X133190476Y-110790476D01*
X134333333Y-110828571D02*
X134333333Y-111361904D01*
X134142857Y-110523809D02*
X133952380Y-111095238D01*
X134447619Y-111095238D01*
%TO.C,C28*%
X131285714Y-126314285D02*
X131323809Y-126352380D01*
X131361904Y-126466666D01*
X131361904Y-126542857D01*
X131323809Y-126657142D01*
X131247619Y-126733333D01*
X131171428Y-126771428D01*
X131019047Y-126809523D01*
X130904761Y-126809523D01*
X130752380Y-126771428D01*
X130676190Y-126733333D01*
X130600000Y-126657142D01*
X130561904Y-126542857D01*
X130561904Y-126466666D01*
X130600000Y-126352380D01*
X130638095Y-126314285D01*
X130638095Y-126009523D02*
X130600000Y-125971428D01*
X130561904Y-125895238D01*
X130561904Y-125704761D01*
X130600000Y-125628571D01*
X130638095Y-125590476D01*
X130714285Y-125552380D01*
X130790476Y-125552380D01*
X130904761Y-125590476D01*
X131361904Y-126047619D01*
X131361904Y-125552380D01*
X130904761Y-125095238D02*
X130866666Y-125171428D01*
X130828571Y-125209523D01*
X130752380Y-125247619D01*
X130714285Y-125247619D01*
X130638095Y-125209523D01*
X130600000Y-125171428D01*
X130561904Y-125095238D01*
X130561904Y-124942857D01*
X130600000Y-124866666D01*
X130638095Y-124828571D01*
X130714285Y-124790476D01*
X130752380Y-124790476D01*
X130828571Y-124828571D01*
X130866666Y-124866666D01*
X130904761Y-124942857D01*
X130904761Y-125095238D01*
X130942857Y-125171428D01*
X130980952Y-125209523D01*
X131057142Y-125247619D01*
X131209523Y-125247619D01*
X131285714Y-125209523D01*
X131323809Y-125171428D01*
X131361904Y-125095238D01*
X131361904Y-124942857D01*
X131323809Y-124866666D01*
X131285714Y-124828571D01*
X131209523Y-124790476D01*
X131057142Y-124790476D01*
X130980952Y-124828571D01*
X130942857Y-124866666D01*
X130904761Y-124942857D01*
%TO.C,R41*%
X158285714Y-116461904D02*
X158019047Y-116080952D01*
X157828571Y-116461904D02*
X157828571Y-115661904D01*
X158133333Y-115661904D01*
X158209523Y-115700000D01*
X158247619Y-115738095D01*
X158285714Y-115814285D01*
X158285714Y-115928571D01*
X158247619Y-116004761D01*
X158209523Y-116042857D01*
X158133333Y-116080952D01*
X157828571Y-116080952D01*
X158971428Y-115928571D02*
X158971428Y-116461904D01*
X158780952Y-115623809D02*
X158590476Y-116195238D01*
X159085714Y-116195238D01*
X159809523Y-116461904D02*
X159352380Y-116461904D01*
X159580952Y-116461904D02*
X159580952Y-115661904D01*
X159504761Y-115776190D01*
X159428571Y-115852380D01*
X159352380Y-115890476D01*
%TO.C,C16*%
X119185714Y-100139285D02*
X119223809Y-100177380D01*
X119261904Y-100291666D01*
X119261904Y-100367857D01*
X119223809Y-100482142D01*
X119147619Y-100558333D01*
X119071428Y-100596428D01*
X118919047Y-100634523D01*
X118804761Y-100634523D01*
X118652380Y-100596428D01*
X118576190Y-100558333D01*
X118500000Y-100482142D01*
X118461904Y-100367857D01*
X118461904Y-100291666D01*
X118500000Y-100177380D01*
X118538095Y-100139285D01*
X119261904Y-99377380D02*
X119261904Y-99834523D01*
X119261904Y-99605952D02*
X118461904Y-99605952D01*
X118576190Y-99682142D01*
X118652380Y-99758333D01*
X118690476Y-99834523D01*
X118461904Y-98691666D02*
X118461904Y-98844047D01*
X118500000Y-98920238D01*
X118538095Y-98958333D01*
X118652380Y-99034523D01*
X118804761Y-99072619D01*
X119109523Y-99072619D01*
X119185714Y-99034523D01*
X119223809Y-98996428D01*
X119261904Y-98920238D01*
X119261904Y-98767857D01*
X119223809Y-98691666D01*
X119185714Y-98653571D01*
X119109523Y-98615476D01*
X118919047Y-98615476D01*
X118842857Y-98653571D01*
X118804761Y-98691666D01*
X118766666Y-98767857D01*
X118766666Y-98920238D01*
X118804761Y-98996428D01*
X118842857Y-99034523D01*
X118919047Y-99072619D01*
%TO.C,L1*%
X124161904Y-125933333D02*
X124161904Y-126314285D01*
X123361904Y-126314285D01*
X124161904Y-125247619D02*
X124161904Y-125704761D01*
X124161904Y-125476190D02*
X123361904Y-125476190D01*
X123476190Y-125552380D01*
X123552380Y-125628571D01*
X123590476Y-125704761D01*
%TO.C,R16*%
X120785714Y-102861904D02*
X120519047Y-102480952D01*
X120328571Y-102861904D02*
X120328571Y-102061904D01*
X120633333Y-102061904D01*
X120709523Y-102100000D01*
X120747619Y-102138095D01*
X120785714Y-102214285D01*
X120785714Y-102328571D01*
X120747619Y-102404761D01*
X120709523Y-102442857D01*
X120633333Y-102480952D01*
X120328571Y-102480952D01*
X121547619Y-102861904D02*
X121090476Y-102861904D01*
X121319047Y-102861904D02*
X121319047Y-102061904D01*
X121242857Y-102176190D01*
X121166666Y-102252380D01*
X121090476Y-102290476D01*
X122233333Y-102061904D02*
X122080952Y-102061904D01*
X122004761Y-102100000D01*
X121966666Y-102138095D01*
X121890476Y-102252380D01*
X121852380Y-102404761D01*
X121852380Y-102709523D01*
X121890476Y-102785714D01*
X121928571Y-102823809D01*
X122004761Y-102861904D01*
X122157142Y-102861904D01*
X122233333Y-102823809D01*
X122271428Y-102785714D01*
X122309523Y-102709523D01*
X122309523Y-102519047D01*
X122271428Y-102442857D01*
X122233333Y-102404761D01*
X122157142Y-102366666D01*
X122004761Y-102366666D01*
X121928571Y-102404761D01*
X121890476Y-102442857D01*
X121852380Y-102519047D01*
%TO.C,C26*%
X139485714Y-120085714D02*
X139447619Y-120123809D01*
X139333333Y-120161904D01*
X139257142Y-120161904D01*
X139142857Y-120123809D01*
X139066666Y-120047619D01*
X139028571Y-119971428D01*
X138990476Y-119819047D01*
X138990476Y-119704761D01*
X139028571Y-119552380D01*
X139066666Y-119476190D01*
X139142857Y-119400000D01*
X139257142Y-119361904D01*
X139333333Y-119361904D01*
X139447619Y-119400000D01*
X139485714Y-119438095D01*
X139790476Y-119438095D02*
X139828571Y-119400000D01*
X139904761Y-119361904D01*
X140095238Y-119361904D01*
X140171428Y-119400000D01*
X140209523Y-119438095D01*
X140247619Y-119514285D01*
X140247619Y-119590476D01*
X140209523Y-119704761D01*
X139752380Y-120161904D01*
X140247619Y-120161904D01*
X140933333Y-119361904D02*
X140780952Y-119361904D01*
X140704761Y-119400000D01*
X140666666Y-119438095D01*
X140590476Y-119552380D01*
X140552380Y-119704761D01*
X140552380Y-120009523D01*
X140590476Y-120085714D01*
X140628571Y-120123809D01*
X140704761Y-120161904D01*
X140857142Y-120161904D01*
X140933333Y-120123809D01*
X140971428Y-120085714D01*
X141009523Y-120009523D01*
X141009523Y-119819047D01*
X140971428Y-119742857D01*
X140933333Y-119704761D01*
X140857142Y-119666666D01*
X140704761Y-119666666D01*
X140628571Y-119704761D01*
X140590476Y-119742857D01*
X140552380Y-119819047D01*
%TO.C,C1*%
X121266666Y-85085714D02*
X121228571Y-85123809D01*
X121114285Y-85161904D01*
X121038095Y-85161904D01*
X120923809Y-85123809D01*
X120847619Y-85047619D01*
X120809523Y-84971428D01*
X120771428Y-84819047D01*
X120771428Y-84704761D01*
X120809523Y-84552380D01*
X120847619Y-84476190D01*
X120923809Y-84400000D01*
X121038095Y-84361904D01*
X121114285Y-84361904D01*
X121228571Y-84400000D01*
X121266666Y-84438095D01*
X122028571Y-85161904D02*
X121571428Y-85161904D01*
X121800000Y-85161904D02*
X121800000Y-84361904D01*
X121723809Y-84476190D01*
X121647619Y-84552380D01*
X121571428Y-84590476D01*
%TO.C,R32*%
X167685714Y-98161904D02*
X167419047Y-97780952D01*
X167228571Y-98161904D02*
X167228571Y-97361904D01*
X167533333Y-97361904D01*
X167609523Y-97400000D01*
X167647619Y-97438095D01*
X167685714Y-97514285D01*
X167685714Y-97628571D01*
X167647619Y-97704761D01*
X167609523Y-97742857D01*
X167533333Y-97780952D01*
X167228571Y-97780952D01*
X167952380Y-97361904D02*
X168447619Y-97361904D01*
X168180952Y-97666666D01*
X168295238Y-97666666D01*
X168371428Y-97704761D01*
X168409523Y-97742857D01*
X168447619Y-97819047D01*
X168447619Y-98009523D01*
X168409523Y-98085714D01*
X168371428Y-98123809D01*
X168295238Y-98161904D01*
X168066666Y-98161904D01*
X167990476Y-98123809D01*
X167952380Y-98085714D01*
X168752380Y-97438095D02*
X168790476Y-97400000D01*
X168866666Y-97361904D01*
X169057142Y-97361904D01*
X169133333Y-97400000D01*
X169171428Y-97438095D01*
X169209523Y-97514285D01*
X169209523Y-97590476D01*
X169171428Y-97704761D01*
X168714285Y-98161904D01*
X169209523Y-98161904D01*
%TO.C,R43*%
X167785714Y-118661904D02*
X167519047Y-118280952D01*
X167328571Y-118661904D02*
X167328571Y-117861904D01*
X167633333Y-117861904D01*
X167709523Y-117900000D01*
X167747619Y-117938095D01*
X167785714Y-118014285D01*
X167785714Y-118128571D01*
X167747619Y-118204761D01*
X167709523Y-118242857D01*
X167633333Y-118280952D01*
X167328571Y-118280952D01*
X168471428Y-118128571D02*
X168471428Y-118661904D01*
X168280952Y-117823809D02*
X168090476Y-118395238D01*
X168585714Y-118395238D01*
X168814285Y-117861904D02*
X169309523Y-117861904D01*
X169042857Y-118166666D01*
X169157142Y-118166666D01*
X169233333Y-118204761D01*
X169271428Y-118242857D01*
X169309523Y-118319047D01*
X169309523Y-118509523D01*
X169271428Y-118585714D01*
X169233333Y-118623809D01*
X169157142Y-118661904D01*
X168928571Y-118661904D01*
X168852380Y-118623809D01*
X168814285Y-118585714D01*
%TO.C,J2*%
X112943095Y-105278333D02*
X112371666Y-105278333D01*
X112257380Y-105240238D01*
X112181190Y-105164047D01*
X112143095Y-105049761D01*
X112143095Y-104973571D01*
X112866904Y-105621190D02*
X112905000Y-105659285D01*
X112943095Y-105735476D01*
X112943095Y-105925952D01*
X112905000Y-106002142D01*
X112866904Y-106040238D01*
X112790714Y-106078333D01*
X112714523Y-106078333D01*
X112600238Y-106040238D01*
X112143095Y-105583095D01*
X112143095Y-106078333D01*
%TO.C,R28*%
X158485714Y-98161904D02*
X158219047Y-97780952D01*
X158028571Y-98161904D02*
X158028571Y-97361904D01*
X158333333Y-97361904D01*
X158409523Y-97400000D01*
X158447619Y-97438095D01*
X158485714Y-97514285D01*
X158485714Y-97628571D01*
X158447619Y-97704761D01*
X158409523Y-97742857D01*
X158333333Y-97780952D01*
X158028571Y-97780952D01*
X158790476Y-97438095D02*
X158828571Y-97400000D01*
X158904761Y-97361904D01*
X159095238Y-97361904D01*
X159171428Y-97400000D01*
X159209523Y-97438095D01*
X159247619Y-97514285D01*
X159247619Y-97590476D01*
X159209523Y-97704761D01*
X158752380Y-98161904D01*
X159247619Y-98161904D01*
X159704761Y-97704761D02*
X159628571Y-97666666D01*
X159590476Y-97628571D01*
X159552380Y-97552380D01*
X159552380Y-97514285D01*
X159590476Y-97438095D01*
X159628571Y-97400000D01*
X159704761Y-97361904D01*
X159857142Y-97361904D01*
X159933333Y-97400000D01*
X159971428Y-97438095D01*
X160009523Y-97514285D01*
X160009523Y-97552380D01*
X159971428Y-97628571D01*
X159933333Y-97666666D01*
X159857142Y-97704761D01*
X159704761Y-97704761D01*
X159628571Y-97742857D01*
X159590476Y-97780952D01*
X159552380Y-97857142D01*
X159552380Y-98009523D01*
X159590476Y-98085714D01*
X159628571Y-98123809D01*
X159704761Y-98161904D01*
X159857142Y-98161904D01*
X159933333Y-98123809D01*
X159971428Y-98085714D01*
X160009523Y-98009523D01*
X160009523Y-97857142D01*
X159971428Y-97780952D01*
X159933333Y-97742857D01*
X159857142Y-97704761D01*
%TO.C,R29*%
X160261904Y-105314285D02*
X159880952Y-105580952D01*
X160261904Y-105771428D02*
X159461904Y-105771428D01*
X159461904Y-105466666D01*
X159500000Y-105390476D01*
X159538095Y-105352380D01*
X159614285Y-105314285D01*
X159728571Y-105314285D01*
X159804761Y-105352380D01*
X159842857Y-105390476D01*
X159880952Y-105466666D01*
X159880952Y-105771428D01*
X159538095Y-105009523D02*
X159500000Y-104971428D01*
X159461904Y-104895238D01*
X159461904Y-104704761D01*
X159500000Y-104628571D01*
X159538095Y-104590476D01*
X159614285Y-104552380D01*
X159690476Y-104552380D01*
X159804761Y-104590476D01*
X160261904Y-105047619D01*
X160261904Y-104552380D01*
X160261904Y-104171428D02*
X160261904Y-104019047D01*
X160223809Y-103942857D01*
X160185714Y-103904761D01*
X160071428Y-103828571D01*
X159919047Y-103790476D01*
X159614285Y-103790476D01*
X159538095Y-103828571D01*
X159500000Y-103866666D01*
X159461904Y-103942857D01*
X159461904Y-104095238D01*
X159500000Y-104171428D01*
X159538095Y-104209523D01*
X159614285Y-104247619D01*
X159804761Y-104247619D01*
X159880952Y-104209523D01*
X159919047Y-104171428D01*
X159957142Y-104095238D01*
X159957142Y-103942857D01*
X159919047Y-103866666D01*
X159880952Y-103828571D01*
X159804761Y-103790476D01*
%TO.C,C10*%
X124085714Y-109985714D02*
X124047619Y-110023809D01*
X123933333Y-110061904D01*
X123857142Y-110061904D01*
X123742857Y-110023809D01*
X123666666Y-109947619D01*
X123628571Y-109871428D01*
X123590476Y-109719047D01*
X123590476Y-109604761D01*
X123628571Y-109452380D01*
X123666666Y-109376190D01*
X123742857Y-109300000D01*
X123857142Y-109261904D01*
X123933333Y-109261904D01*
X124047619Y-109300000D01*
X124085714Y-109338095D01*
X124847619Y-110061904D02*
X124390476Y-110061904D01*
X124619047Y-110061904D02*
X124619047Y-109261904D01*
X124542857Y-109376190D01*
X124466666Y-109452380D01*
X124390476Y-109490476D01*
X125342857Y-109261904D02*
X125419047Y-109261904D01*
X125495238Y-109300000D01*
X125533333Y-109338095D01*
X125571428Y-109414285D01*
X125609523Y-109566666D01*
X125609523Y-109757142D01*
X125571428Y-109909523D01*
X125533333Y-109985714D01*
X125495238Y-110023809D01*
X125419047Y-110061904D01*
X125342857Y-110061904D01*
X125266666Y-110023809D01*
X125228571Y-109985714D01*
X125190476Y-109909523D01*
X125152380Y-109757142D01*
X125152380Y-109566666D01*
X125190476Y-109414285D01*
X125228571Y-109338095D01*
X125266666Y-109300000D01*
X125342857Y-109261904D01*
%TO.C,C3*%
X122866666Y-85085714D02*
X122828571Y-85123809D01*
X122714285Y-85161904D01*
X122638095Y-85161904D01*
X122523809Y-85123809D01*
X122447619Y-85047619D01*
X122409523Y-84971428D01*
X122371428Y-84819047D01*
X122371428Y-84704761D01*
X122409523Y-84552380D01*
X122447619Y-84476190D01*
X122523809Y-84400000D01*
X122638095Y-84361904D01*
X122714285Y-84361904D01*
X122828571Y-84400000D01*
X122866666Y-84438095D01*
X123133333Y-84361904D02*
X123628571Y-84361904D01*
X123361904Y-84666666D01*
X123476190Y-84666666D01*
X123552380Y-84704761D01*
X123590476Y-84742857D01*
X123628571Y-84819047D01*
X123628571Y-85009523D01*
X123590476Y-85085714D01*
X123552380Y-85123809D01*
X123476190Y-85161904D01*
X123247619Y-85161904D01*
X123171428Y-85123809D01*
X123133333Y-85085714D01*
%TO.C,C4*%
X124766666Y-85085714D02*
X124728571Y-85123809D01*
X124614285Y-85161904D01*
X124538095Y-85161904D01*
X124423809Y-85123809D01*
X124347619Y-85047619D01*
X124309523Y-84971428D01*
X124271428Y-84819047D01*
X124271428Y-84704761D01*
X124309523Y-84552380D01*
X124347619Y-84476190D01*
X124423809Y-84400000D01*
X124538095Y-84361904D01*
X124614285Y-84361904D01*
X124728571Y-84400000D01*
X124766666Y-84438095D01*
X125452380Y-84628571D02*
X125452380Y-85161904D01*
X125261904Y-84323809D02*
X125071428Y-84895238D01*
X125566666Y-84895238D01*
%TO.C,R12*%
X130761904Y-109514285D02*
X130380952Y-109780952D01*
X130761904Y-109971428D02*
X129961904Y-109971428D01*
X129961904Y-109666666D01*
X130000000Y-109590476D01*
X130038095Y-109552380D01*
X130114285Y-109514285D01*
X130228571Y-109514285D01*
X130304761Y-109552380D01*
X130342857Y-109590476D01*
X130380952Y-109666666D01*
X130380952Y-109971428D01*
X130761904Y-108752380D02*
X130761904Y-109209523D01*
X130761904Y-108980952D02*
X129961904Y-108980952D01*
X130076190Y-109057142D01*
X130152380Y-109133333D01*
X130190476Y-109209523D01*
X130038095Y-108447619D02*
X130000000Y-108409523D01*
X129961904Y-108333333D01*
X129961904Y-108142857D01*
X130000000Y-108066666D01*
X130038095Y-108028571D01*
X130114285Y-107990476D01*
X130190476Y-107990476D01*
X130304761Y-108028571D01*
X130761904Y-108485714D01*
X130761904Y-107990476D01*
%TO.C,D5*%
X136209523Y-114361904D02*
X136209523Y-113561904D01*
X136400000Y-113561904D01*
X136514285Y-113600000D01*
X136590476Y-113676190D01*
X136628571Y-113752380D01*
X136666666Y-113904761D01*
X136666666Y-114019047D01*
X136628571Y-114171428D01*
X136590476Y-114247619D01*
X136514285Y-114323809D01*
X136400000Y-114361904D01*
X136209523Y-114361904D01*
X137390476Y-113561904D02*
X137009523Y-113561904D01*
X136971428Y-113942857D01*
X137009523Y-113904761D01*
X137085714Y-113866666D01*
X137276190Y-113866666D01*
X137352380Y-113904761D01*
X137390476Y-113942857D01*
X137428571Y-114019047D01*
X137428571Y-114209523D01*
X137390476Y-114285714D01*
X137352380Y-114323809D01*
X137276190Y-114361904D01*
X137085714Y-114361904D01*
X137009523Y-114323809D01*
X136971428Y-114285714D01*
%TO.C,R30*%
X140861904Y-102314285D02*
X140480952Y-102580952D01*
X140861904Y-102771428D02*
X140061904Y-102771428D01*
X140061904Y-102466666D01*
X140100000Y-102390476D01*
X140138095Y-102352380D01*
X140214285Y-102314285D01*
X140328571Y-102314285D01*
X140404761Y-102352380D01*
X140442857Y-102390476D01*
X140480952Y-102466666D01*
X140480952Y-102771428D01*
X140061904Y-102047619D02*
X140061904Y-101552380D01*
X140366666Y-101819047D01*
X140366666Y-101704761D01*
X140404761Y-101628571D01*
X140442857Y-101590476D01*
X140519047Y-101552380D01*
X140709523Y-101552380D01*
X140785714Y-101590476D01*
X140823809Y-101628571D01*
X140861904Y-101704761D01*
X140861904Y-101933333D01*
X140823809Y-102009523D01*
X140785714Y-102047619D01*
X140061904Y-101057142D02*
X140061904Y-100980952D01*
X140100000Y-100904761D01*
X140138095Y-100866666D01*
X140214285Y-100828571D01*
X140366666Y-100790476D01*
X140557142Y-100790476D01*
X140709523Y-100828571D01*
X140785714Y-100866666D01*
X140823809Y-100904761D01*
X140861904Y-100980952D01*
X140861904Y-101057142D01*
X140823809Y-101133333D01*
X140785714Y-101171428D01*
X140709523Y-101209523D01*
X140557142Y-101247619D01*
X140366666Y-101247619D01*
X140214285Y-101209523D01*
X140138095Y-101171428D01*
X140100000Y-101133333D01*
X140061904Y-101057142D01*
%TO.C,C37*%
X165185714Y-115714285D02*
X165223809Y-115752380D01*
X165261904Y-115866666D01*
X165261904Y-115942857D01*
X165223809Y-116057142D01*
X165147619Y-116133333D01*
X165071428Y-116171428D01*
X164919047Y-116209523D01*
X164804761Y-116209523D01*
X164652380Y-116171428D01*
X164576190Y-116133333D01*
X164500000Y-116057142D01*
X164461904Y-115942857D01*
X164461904Y-115866666D01*
X164500000Y-115752380D01*
X164538095Y-115714285D01*
X164461904Y-115447619D02*
X164461904Y-114952380D01*
X164766666Y-115219047D01*
X164766666Y-115104761D01*
X164804761Y-115028571D01*
X164842857Y-114990476D01*
X164919047Y-114952380D01*
X165109523Y-114952380D01*
X165185714Y-114990476D01*
X165223809Y-115028571D01*
X165261904Y-115104761D01*
X165261904Y-115333333D01*
X165223809Y-115409523D01*
X165185714Y-115447619D01*
X164461904Y-114685714D02*
X164461904Y-114152380D01*
X165261904Y-114495238D01*
%TO.C,U13*%
X111661904Y-114790476D02*
X112309523Y-114790476D01*
X112385714Y-114752380D01*
X112423809Y-114714285D01*
X112461904Y-114638095D01*
X112461904Y-114485714D01*
X112423809Y-114409523D01*
X112385714Y-114371428D01*
X112309523Y-114333333D01*
X111661904Y-114333333D01*
X112461904Y-113533333D02*
X112461904Y-113990476D01*
X112461904Y-113761904D02*
X111661904Y-113761904D01*
X111776190Y-113838095D01*
X111852380Y-113914285D01*
X111890476Y-113990476D01*
X111661904Y-113266666D02*
X111661904Y-112771428D01*
X111966666Y-113038095D01*
X111966666Y-112923809D01*
X112004761Y-112847619D01*
X112042857Y-112809523D01*
X112119047Y-112771428D01*
X112309523Y-112771428D01*
X112385714Y-112809523D01*
X112423809Y-112847619D01*
X112461904Y-112923809D01*
X112461904Y-113152380D01*
X112423809Y-113228571D01*
X112385714Y-113266666D01*
%TO.C,R17*%
X129161904Y-109514285D02*
X128780952Y-109780952D01*
X129161904Y-109971428D02*
X128361904Y-109971428D01*
X128361904Y-109666666D01*
X128400000Y-109590476D01*
X128438095Y-109552380D01*
X128514285Y-109514285D01*
X128628571Y-109514285D01*
X128704761Y-109552380D01*
X128742857Y-109590476D01*
X128780952Y-109666666D01*
X128780952Y-109971428D01*
X129161904Y-108752380D02*
X129161904Y-109209523D01*
X129161904Y-108980952D02*
X128361904Y-108980952D01*
X128476190Y-109057142D01*
X128552380Y-109133333D01*
X128590476Y-109209523D01*
X128361904Y-108485714D02*
X128361904Y-107952380D01*
X129161904Y-108295238D01*
%TO.C,R10*%
X136485714Y-92961904D02*
X136219047Y-92580952D01*
X136028571Y-92961904D02*
X136028571Y-92161904D01*
X136333333Y-92161904D01*
X136409523Y-92200000D01*
X136447619Y-92238095D01*
X136485714Y-92314285D01*
X136485714Y-92428571D01*
X136447619Y-92504761D01*
X136409523Y-92542857D01*
X136333333Y-92580952D01*
X136028571Y-92580952D01*
X137247619Y-92961904D02*
X136790476Y-92961904D01*
X137019047Y-92961904D02*
X137019047Y-92161904D01*
X136942857Y-92276190D01*
X136866666Y-92352380D01*
X136790476Y-92390476D01*
X137742857Y-92161904D02*
X137819047Y-92161904D01*
X137895238Y-92200000D01*
X137933333Y-92238095D01*
X137971428Y-92314285D01*
X138009523Y-92466666D01*
X138009523Y-92657142D01*
X137971428Y-92809523D01*
X137933333Y-92885714D01*
X137895238Y-92923809D01*
X137819047Y-92961904D01*
X137742857Y-92961904D01*
X137666666Y-92923809D01*
X137628571Y-92885714D01*
X137590476Y-92809523D01*
X137552380Y-92657142D01*
X137552380Y-92466666D01*
X137590476Y-92314285D01*
X137628571Y-92238095D01*
X137666666Y-92200000D01*
X137742857Y-92161904D01*
%TO.C,C7*%
X123566666Y-99585714D02*
X123528571Y-99623809D01*
X123414285Y-99661904D01*
X123338095Y-99661904D01*
X123223809Y-99623809D01*
X123147619Y-99547619D01*
X123109523Y-99471428D01*
X123071428Y-99319047D01*
X123071428Y-99204761D01*
X123109523Y-99052380D01*
X123147619Y-98976190D01*
X123223809Y-98900000D01*
X123338095Y-98861904D01*
X123414285Y-98861904D01*
X123528571Y-98900000D01*
X123566666Y-98938095D01*
X123833333Y-98861904D02*
X124366666Y-98861904D01*
X124023809Y-99661904D01*
%TO.C,D1*%
X109661904Y-93390476D02*
X108861904Y-93390476D01*
X108861904Y-93200000D01*
X108900000Y-93085714D01*
X108976190Y-93009523D01*
X109052380Y-92971428D01*
X109204761Y-92933333D01*
X109319047Y-92933333D01*
X109471428Y-92971428D01*
X109547619Y-93009523D01*
X109623809Y-93085714D01*
X109661904Y-93200000D01*
X109661904Y-93390476D01*
X109661904Y-92171428D02*
X109661904Y-92628571D01*
X109661904Y-92400000D02*
X108861904Y-92400000D01*
X108976190Y-92476190D01*
X109052380Y-92552380D01*
X109090476Y-92628571D01*
%TO.C,R9*%
X132266666Y-110261904D02*
X132000000Y-109880952D01*
X131809523Y-110261904D02*
X131809523Y-109461904D01*
X132114285Y-109461904D01*
X132190476Y-109500000D01*
X132228571Y-109538095D01*
X132266666Y-109614285D01*
X132266666Y-109728571D01*
X132228571Y-109804761D01*
X132190476Y-109842857D01*
X132114285Y-109880952D01*
X131809523Y-109880952D01*
X132647619Y-110261904D02*
X132800000Y-110261904D01*
X132876190Y-110223809D01*
X132914285Y-110185714D01*
X132990476Y-110071428D01*
X133028571Y-109919047D01*
X133028571Y-109614285D01*
X132990476Y-109538095D01*
X132952380Y-109500000D01*
X132876190Y-109461904D01*
X132723809Y-109461904D01*
X132647619Y-109500000D01*
X132609523Y-109538095D01*
X132571428Y-109614285D01*
X132571428Y-109804761D01*
X132609523Y-109880952D01*
X132647619Y-109919047D01*
X132723809Y-109957142D01*
X132876190Y-109957142D01*
X132952380Y-109919047D01*
X132990476Y-109880952D01*
X133028571Y-109804761D01*
%TO.C,R31*%
X146361904Y-113414285D02*
X145980952Y-113680952D01*
X146361904Y-113871428D02*
X145561904Y-113871428D01*
X145561904Y-113566666D01*
X145600000Y-113490476D01*
X145638095Y-113452380D01*
X145714285Y-113414285D01*
X145828571Y-113414285D01*
X145904761Y-113452380D01*
X145942857Y-113490476D01*
X145980952Y-113566666D01*
X145980952Y-113871428D01*
X145561904Y-113147619D02*
X145561904Y-112652380D01*
X145866666Y-112919047D01*
X145866666Y-112804761D01*
X145904761Y-112728571D01*
X145942857Y-112690476D01*
X146019047Y-112652380D01*
X146209523Y-112652380D01*
X146285714Y-112690476D01*
X146323809Y-112728571D01*
X146361904Y-112804761D01*
X146361904Y-113033333D01*
X146323809Y-113109523D01*
X146285714Y-113147619D01*
X146361904Y-111890476D02*
X146361904Y-112347619D01*
X146361904Y-112119047D02*
X145561904Y-112119047D01*
X145676190Y-112195238D01*
X145752380Y-112271428D01*
X145790476Y-112347619D01*
%TO.C,C23*%
X147785714Y-91185714D02*
X147747619Y-91223809D01*
X147633333Y-91261904D01*
X147557142Y-91261904D01*
X147442857Y-91223809D01*
X147366666Y-91147619D01*
X147328571Y-91071428D01*
X147290476Y-90919047D01*
X147290476Y-90804761D01*
X147328571Y-90652380D01*
X147366666Y-90576190D01*
X147442857Y-90500000D01*
X147557142Y-90461904D01*
X147633333Y-90461904D01*
X147747619Y-90500000D01*
X147785714Y-90538095D01*
X148090476Y-90538095D02*
X148128571Y-90500000D01*
X148204761Y-90461904D01*
X148395238Y-90461904D01*
X148471428Y-90500000D01*
X148509523Y-90538095D01*
X148547619Y-90614285D01*
X148547619Y-90690476D01*
X148509523Y-90804761D01*
X148052380Y-91261904D01*
X148547619Y-91261904D01*
X148814285Y-90461904D02*
X149309523Y-90461904D01*
X149042857Y-90766666D01*
X149157142Y-90766666D01*
X149233333Y-90804761D01*
X149271428Y-90842857D01*
X149309523Y-90919047D01*
X149309523Y-91109523D01*
X149271428Y-91185714D01*
X149233333Y-91223809D01*
X149157142Y-91261904D01*
X148928571Y-91261904D01*
X148852380Y-91223809D01*
X148814285Y-91185714D01*
%TO.C,C41*%
X151885714Y-120585714D02*
X151847619Y-120623809D01*
X151733333Y-120661904D01*
X151657142Y-120661904D01*
X151542857Y-120623809D01*
X151466666Y-120547619D01*
X151428571Y-120471428D01*
X151390476Y-120319047D01*
X151390476Y-120204761D01*
X151428571Y-120052380D01*
X151466666Y-119976190D01*
X151542857Y-119900000D01*
X151657142Y-119861904D01*
X151733333Y-119861904D01*
X151847619Y-119900000D01*
X151885714Y-119938095D01*
X152571428Y-120128571D02*
X152571428Y-120661904D01*
X152380952Y-119823809D02*
X152190476Y-120395238D01*
X152685714Y-120395238D01*
X153409523Y-120661904D02*
X152952380Y-120661904D01*
X153180952Y-120661904D02*
X153180952Y-119861904D01*
X153104761Y-119976190D01*
X153028571Y-120052380D01*
X152952380Y-120090476D01*
D14*
%TO.C,C14*%
X126540580Y-114710000D02*
X126259420Y-114710000D01*
X126540580Y-113690000D02*
X126259420Y-113690000D01*
%TO.C,R2*%
X145762742Y-85277500D02*
X146237258Y-85277500D01*
X145762742Y-86322500D02*
X146237258Y-86322500D01*
%TO.C,C18*%
X142859420Y-98740000D02*
X143140580Y-98740000D01*
X142859420Y-99760000D02*
X143140580Y-99760000D01*
%TO.C,R8*%
X134877500Y-94362742D02*
X134877500Y-94837258D01*
X135922500Y-94362742D02*
X135922500Y-94837258D01*
%TO.C,C6*%
X127735000Y-99338748D02*
X127735000Y-99861252D01*
X126265000Y-99338748D02*
X126265000Y-99861252D01*
%TO.C,U2*%
X135600000Y-97440000D02*
X136400000Y-97440000D01*
X135600000Y-100560000D02*
X137400000Y-100560000D01*
X135600000Y-100560000D02*
X134800000Y-100560000D01*
X135600000Y-97440000D02*
X134800000Y-97440000D01*
%TO.C,U9*%
X145400000Y-91440000D02*
X146200000Y-91440000D01*
X145400000Y-94560000D02*
X146200000Y-94560000D01*
X145400000Y-91440000D02*
X143600000Y-91440000D01*
X145400000Y-94560000D02*
X144600000Y-94560000D01*
%TO.C,C33*%
X118290000Y-114765580D02*
X118290000Y-114484420D01*
X119310000Y-114765580D02*
X119310000Y-114484420D01*
%TO.C,R42*%
X154762742Y-118102500D02*
X155237258Y-118102500D01*
X154762742Y-119147500D02*
X155237258Y-119147500D01*
%TO.C,C32*%
X121065000Y-118861252D02*
X121065000Y-118338748D01*
X122535000Y-118861252D02*
X122535000Y-118338748D01*
%TO.C,U3*%
X125610000Y-90365000D02*
X125610000Y-89890000D01*
X125610000Y-96635000D02*
X125610000Y-97110000D01*
X125610000Y-97110000D02*
X125135000Y-97110000D01*
X118390000Y-89890000D02*
X118865000Y-89890000D01*
X118390000Y-97110000D02*
X118865000Y-97110000D01*
X118390000Y-96635000D02*
X118390000Y-97110000D01*
X118390000Y-90365000D02*
X118390000Y-89890000D01*
%TO.C,R37*%
X133637258Y-123122500D02*
X133162742Y-123122500D01*
X133637258Y-122077500D02*
X133162742Y-122077500D01*
%TO.C,R18*%
X155122500Y-105037258D02*
X155122500Y-104562742D01*
X154077500Y-105037258D02*
X154077500Y-104562742D01*
%TO.C,R40*%
X161437258Y-114077500D02*
X160962742Y-114077500D01*
X161437258Y-115122500D02*
X160962742Y-115122500D01*
%TO.C,C19*%
X157490000Y-108834420D02*
X157490000Y-109115580D01*
X158510000Y-108834420D02*
X158510000Y-109115580D01*
%TO.C,R19*%
X143877500Y-109962742D02*
X143877500Y-110437258D01*
X144922500Y-109962742D02*
X144922500Y-110437258D01*
%TO.C,R5*%
X111522500Y-96037258D02*
X111522500Y-95562742D01*
X110477500Y-96037258D02*
X110477500Y-95562742D01*
%TO.C,R7*%
X112077500Y-96037258D02*
X112077500Y-95562742D01*
X113122500Y-96037258D02*
X113122500Y-95562742D01*
%TO.C,U8*%
X136000000Y-109560000D02*
X135200000Y-109560000D01*
X136000000Y-106440000D02*
X136800000Y-106440000D01*
X136000000Y-109560000D02*
X136800000Y-109560000D01*
X136000000Y-106440000D02*
X134200000Y-106440000D01*
%TO.C,TP1*%
X139100000Y-97000000D02*
G75*
G03*
X139100000Y-97000000I-700000J0D01*
G01*
%TO.C,U7*%
X135800000Y-102640000D02*
X134000000Y-102640000D01*
X135800000Y-105760000D02*
X135000000Y-105760000D01*
X135800000Y-102640000D02*
X136600000Y-102640000D01*
X135800000Y-105760000D02*
X136600000Y-105760000D01*
%TO.C,R20*%
X157077500Y-104562742D02*
X157077500Y-105037258D01*
X158122500Y-104562742D02*
X158122500Y-105037258D01*
%TO.C,U5*%
X119000000Y-103940000D02*
X119800000Y-103940000D01*
X119000000Y-107060000D02*
X118200000Y-107060000D01*
X119000000Y-103940000D02*
X117200000Y-103940000D01*
X119000000Y-107060000D02*
X119800000Y-107060000D01*
%TO.C,U10*%
X141798891Y-100400000D02*
X141798891Y-107600000D01*
%TO.C,TP2*%
X149100000Y-113825000D02*
G75*
G03*
X149100000Y-113825000I-700000J0D01*
G01*
%TO.C,C9*%
X132910000Y-104740580D02*
X132910000Y-104459420D01*
X131890000Y-104740580D02*
X131890000Y-104459420D01*
%TO.C,C11*%
X136259420Y-110090000D02*
X136540580Y-110090000D01*
X136259420Y-111110000D02*
X136540580Y-111110000D01*
%TO.C,C38*%
X159140580Y-122610000D02*
X158859420Y-122610000D01*
X159140580Y-121590000D02*
X158859420Y-121590000D01*
%TO.C,C42*%
X171290000Y-115309420D02*
X171290000Y-115590580D01*
X172310000Y-115309420D02*
X172310000Y-115590580D01*
%TO.C,C44*%
X167890000Y-121859420D02*
X167890000Y-122140580D01*
X168910000Y-121859420D02*
X168910000Y-122140580D01*
%TO.C,R21*%
X141877500Y-94262742D02*
X141877500Y-94737258D01*
X142922500Y-94262742D02*
X142922500Y-94737258D01*
%TO.C,R4*%
X109922500Y-96037258D02*
X109922500Y-95562742D01*
X108877500Y-96037258D02*
X108877500Y-95562742D01*
%TO.C,C27*%
X129935000Y-124461252D02*
X129935000Y-123938748D01*
X128465000Y-124461252D02*
X128465000Y-123938748D01*
%TO.C,C35*%
X158940580Y-117890000D02*
X158659420Y-117890000D01*
X158940580Y-118910000D02*
X158659420Y-118910000D01*
%TO.C,C31*%
X133690000Y-114459420D02*
X133690000Y-114740580D01*
X134710000Y-114459420D02*
X134710000Y-114740580D01*
%TO.C,C12*%
X117688748Y-110185000D02*
X118211252Y-110185000D01*
X117688748Y-108715000D02*
X118211252Y-108715000D01*
%TO.C,Q1*%
X138760000Y-124600000D02*
X138760000Y-122925000D01*
X138760000Y-124600000D02*
X138760000Y-125250000D01*
X135640000Y-124600000D02*
X135640000Y-123950000D01*
X135640000Y-124600000D02*
X135640000Y-125250000D01*
%TO.C,R3*%
X141787742Y-88102500D02*
X142262258Y-88102500D01*
X141787742Y-89147500D02*
X142262258Y-89147500D01*
%TO.C,C36*%
X155140580Y-121315000D02*
X154859420Y-121315000D01*
X155140580Y-122335000D02*
X154859420Y-122335000D01*
%TO.C,C13*%
X131110000Y-100140580D02*
X131110000Y-99859420D01*
X130090000Y-100140580D02*
X130090000Y-99859420D01*
%TO.C,C20*%
X142165580Y-90735000D02*
X141884420Y-90735000D01*
X142165580Y-89715000D02*
X141884420Y-89715000D01*
%TO.C,R36*%
X124577500Y-119037258D02*
X124577500Y-118562742D01*
X125622500Y-119037258D02*
X125622500Y-118562742D01*
%TO.C,R15*%
X133377500Y-94837258D02*
X133377500Y-94362742D01*
X134422500Y-94837258D02*
X134422500Y-94362742D01*
%TO.C,R22*%
X141322500Y-94737258D02*
X141322500Y-94262742D01*
X140277500Y-94737258D02*
X140277500Y-94262742D01*
%TO.C,L2*%
X138000000Y-113700000D02*
X138000000Y-116700000D01*
X141200000Y-113700000D02*
X141200000Y-116700000D01*
%TO.C,R6*%
X113762742Y-112322500D02*
X114237258Y-112322500D01*
X113762742Y-111277500D02*
X114237258Y-111277500D01*
%TO.C,C2*%
X126190000Y-87190580D02*
X126190000Y-86909420D01*
X127210000Y-87190580D02*
X127210000Y-86909420D01*
%TO.C,C15*%
X124959420Y-101890000D02*
X125240580Y-101890000D01*
X124959420Y-102910000D02*
X125240580Y-102910000D01*
%TO.C,R23*%
X158762742Y-95477500D02*
X159237258Y-95477500D01*
X158762742Y-96522500D02*
X159237258Y-96522500D01*
D10*
%TO.C,U1*%
X145875000Y-90225000D02*
X149125000Y-90225000D01*
X149125000Y-90225000D02*
X149125000Y-89950000D01*
X149125000Y-86975000D02*
X149125000Y-87250000D01*
X145875000Y-87150000D02*
X144800000Y-87150000D01*
X145875000Y-86975000D02*
X149125000Y-86975000D01*
X145875000Y-90225000D02*
X145875000Y-89950000D01*
X145875000Y-86975000D02*
X145875000Y-87150000D01*
D14*
%TO.C,R24*%
X148322500Y-97062258D02*
X148322500Y-96587742D01*
X147277500Y-97062258D02*
X147277500Y-96587742D01*
%TO.C,D2*%
X153859026Y-102200000D02*
X153859026Y-101800000D01*
X153659026Y-101900000D02*
X153659026Y-102100000D01*
X153659026Y-102100000D02*
X153859026Y-102200000D01*
X153859026Y-101800000D02*
X153659026Y-101900000D01*
%TO.C,R11*%
X131237258Y-93477500D02*
X130762742Y-93477500D01*
X131237258Y-94522500D02*
X130762742Y-94522500D01*
%TO.C,C24*%
X112310000Y-116540580D02*
X112310000Y-116259420D01*
X111290000Y-116540580D02*
X111290000Y-116259420D01*
%TO.C,R25*%
X158562742Y-102522500D02*
X159037258Y-102522500D01*
X158562742Y-101477500D02*
X159037258Y-101477500D01*
%TO.C,R34*%
X130477500Y-114362742D02*
X130477500Y-114837258D01*
X131522500Y-114362742D02*
X131522500Y-114837258D01*
%TO.C,C40*%
X155140580Y-123935000D02*
X154859420Y-123935000D01*
X155140580Y-122915000D02*
X154859420Y-122915000D01*
%TO.C,U4*%
X129400000Y-104960000D02*
X128600000Y-104960000D01*
X129400000Y-104960000D02*
X130200000Y-104960000D01*
X129400000Y-101840000D02*
X127600000Y-101840000D01*
X129400000Y-101840000D02*
X130200000Y-101840000D01*
%TO.C,R35*%
X126077500Y-118562742D02*
X126077500Y-119037258D01*
X127122500Y-118562742D02*
X127122500Y-119037258D01*
%TO.C,C25*%
X126540580Y-115890000D02*
X126259420Y-115890000D01*
X126540580Y-116910000D02*
X126259420Y-116910000D01*
%TO.C,D6*%
X123350000Y-120600000D02*
X123350000Y-122600000D01*
X123350000Y-122600000D02*
X127250000Y-122600000D01*
X123350000Y-120600000D02*
X127250000Y-120600000D01*
%TO.C,R1*%
X142837258Y-86347500D02*
X142362742Y-86347500D01*
X142837258Y-85302500D02*
X142362742Y-85302500D01*
%TO.C,C8*%
X133110000Y-97940580D02*
X133110000Y-97659420D01*
X132090000Y-97940580D02*
X132090000Y-97659420D01*
%TO.C,J3*%
X176500000Y-105875000D02*
X175500000Y-106875000D01*
X176500000Y-105875000D02*
X175500000Y-104875000D01*
X161700000Y-98375000D02*
X176700000Y-98375000D01*
X161700000Y-113375000D02*
X161700000Y-98375000D01*
X176700000Y-98375000D02*
X176700000Y-113375000D01*
X176700000Y-113375000D02*
X161700000Y-113375000D01*
%TO.C,U6*%
X126460000Y-105400000D02*
X126460000Y-104600000D01*
X123340000Y-105400000D02*
X123340000Y-104600000D01*
X126460000Y-105400000D02*
X126460000Y-106200000D01*
X123340000Y-105400000D02*
X123340000Y-107200000D01*
%TO.C,U12*%
X128690000Y-120635000D02*
X128690000Y-121110000D01*
X132910000Y-120635000D02*
X132910000Y-121110000D01*
X132910000Y-116890000D02*
X132435000Y-116890000D01*
X132910000Y-117365000D02*
X132910000Y-116890000D01*
X128690000Y-117365000D02*
X128690000Y-116890000D01*
X128690000Y-116890000D02*
X129165000Y-116890000D01*
X132910000Y-121110000D02*
X132435000Y-121110000D01*
%TO.C,J1*%
X132835000Y-85165000D02*
X132835000Y-85230000D01*
X131510000Y-85230000D02*
X132835000Y-85230000D01*
X132835000Y-91570000D02*
X132835000Y-91635000D01*
X136365000Y-85165000D02*
X136365000Y-85230000D01*
X136365000Y-91570000D02*
X136365000Y-91635000D01*
X132835000Y-91635000D02*
X136365000Y-91635000D01*
X132835000Y-85165000D02*
X136365000Y-85165000D01*
%TO.C,C34*%
X123090000Y-118940580D02*
X123090000Y-118659420D01*
X124110000Y-118940580D02*
X124110000Y-118659420D01*
%TO.C,AmpOut1*%
X158800000Y-114700000D02*
G75*
G03*
X158800000Y-114700000I-700000J0D01*
G01*
%TO.C,C17*%
X139210000Y-103859420D02*
X139210000Y-104140580D01*
X138190000Y-103859420D02*
X138190000Y-104140580D01*
%TO.C,C43*%
X170859420Y-117315000D02*
X171140580Y-117315000D01*
X170859420Y-118335000D02*
X171140580Y-118335000D01*
%TO.C,C39*%
X159061252Y-124635000D02*
X158538748Y-124635000D01*
X159061252Y-123165000D02*
X158538748Y-123165000D01*
%TO.C,C5*%
X149540580Y-86310000D02*
X149259420Y-86310000D01*
X149540580Y-85290000D02*
X149259420Y-85290000D01*
%TO.C,R33*%
X133122500Y-114362742D02*
X133122500Y-114837258D01*
X132077500Y-114362742D02*
X132077500Y-114837258D01*
%TO.C,C29*%
X128890000Y-114740580D02*
X128890000Y-114459420D01*
X129910000Y-114740580D02*
X129910000Y-114459420D01*
%TO.C,C30*%
X133861252Y-125135000D02*
X133338748Y-125135000D01*
X133861252Y-123665000D02*
X133338748Y-123665000D01*
%TO.C,R26*%
X164637258Y-96177500D02*
X164162742Y-96177500D01*
X164637258Y-97222500D02*
X164162742Y-97222500D01*
%TO.C,R13*%
X138077500Y-94837258D02*
X138077500Y-94362742D01*
X139122500Y-94837258D02*
X139122500Y-94362742D01*
%TO.C,U11*%
X153780000Y-111625000D02*
X153780000Y-109625000D01*
X157020000Y-110625000D02*
X157020000Y-107625000D01*
%TO.C,TP3*%
X142700000Y-97200000D02*
G75*
G03*
X142700000Y-97200000I-700000J0D01*
G01*
%TO.C,R38*%
X154762742Y-124502500D02*
X155237258Y-124502500D01*
X154762742Y-125547500D02*
X155237258Y-125547500D01*
%TO.C,R27*%
X142277500Y-109962742D02*
X142277500Y-110437258D01*
X143322500Y-109962742D02*
X143322500Y-110437258D01*
%TO.C,R44*%
X170722500Y-115212742D02*
X170722500Y-115687258D01*
X169677500Y-115212742D02*
X169677500Y-115687258D01*
%TO.C,R39*%
X155562742Y-116522500D02*
X156037258Y-116522500D01*
X155562742Y-115477500D02*
X156037258Y-115477500D01*
%TO.C,U14*%
X166335000Y-121225000D02*
X166335000Y-119025000D01*
X160865000Y-121225000D02*
X160865000Y-119025000D01*
X166335000Y-121225000D02*
X166335000Y-123425000D01*
X160865000Y-121225000D02*
X160865000Y-124825000D01*
%TO.C,C21*%
X139690000Y-110259420D02*
X139690000Y-110540580D01*
X140710000Y-110259420D02*
X140710000Y-110540580D01*
%TO.C,C22*%
X148510000Y-110659420D02*
X148510000Y-110940580D01*
X147490000Y-110659420D02*
X147490000Y-110940580D01*
%TO.C,R14*%
X133637258Y-112722500D02*
X133162742Y-112722500D01*
X133637258Y-111677500D02*
X133162742Y-111677500D01*
%TO.C,C28*%
X130490000Y-123259420D02*
X130490000Y-123540580D01*
X131510000Y-123259420D02*
X131510000Y-123540580D01*
%TO.C,R41*%
X161437258Y-115677500D02*
X160962742Y-115677500D01*
X161437258Y-116722500D02*
X160962742Y-116722500D01*
%TO.C,C16*%
X117090000Y-99484420D02*
X117090000Y-99765580D01*
X118110000Y-99484420D02*
X118110000Y-99765580D01*
%TO.C,D3*%
X153659026Y-95900000D02*
X153859026Y-96000000D01*
X153859026Y-95600000D02*
X153659026Y-95700000D01*
X153859026Y-96000000D02*
X153859026Y-95600000D01*
X153659026Y-95700000D02*
X153659026Y-95900000D01*
%TO.C,L1*%
X124600000Y-126100000D02*
X124600000Y-123100000D01*
X127800000Y-126100000D02*
X127800000Y-123100000D01*
%TO.C,TP5*%
X146300000Y-124400000D02*
G75*
G03*
X146300000Y-124400000I-700000J0D01*
G01*
%TO.C,R16*%
X118262742Y-103022500D02*
X118737258Y-103022500D01*
X118262742Y-101977500D02*
X118737258Y-101977500D01*
%TO.C,D4*%
X153659026Y-99100000D02*
X153859026Y-99200000D01*
X153859026Y-99200000D02*
X153859026Y-98800000D01*
X153859026Y-98800000D02*
X153659026Y-98900000D01*
X153659026Y-98900000D02*
X153659026Y-99100000D01*
%TO.C,JP1*%
X119900000Y-112800000D02*
X118500000Y-112800000D01*
X117800000Y-112100000D02*
X117800000Y-111500000D01*
X120600000Y-111500000D02*
X120600000Y-112100000D01*
X118500000Y-110800000D02*
X119900000Y-110800000D01*
X119900000Y-112800000D02*
G75*
G03*
X120600000Y-112100000I0J700000D01*
G01*
X120600000Y-111500000D02*
G75*
G03*
X119900000Y-110800000I-700000J0D01*
G01*
X118500000Y-110800000D02*
G75*
G03*
X117800000Y-111500000I0J-700000D01*
G01*
X117800000Y-112100000D02*
G75*
G03*
X118500000Y-112800000I700000J0D01*
G01*
%TO.C,C26*%
X139138748Y-117465000D02*
X139661252Y-117465000D01*
X139138748Y-118935000D02*
X139661252Y-118935000D01*
%TO.C,C1*%
X120890000Y-86940580D02*
X120890000Y-86659420D01*
X121910000Y-86940580D02*
X121910000Y-86659420D01*
%TO.C,R32*%
X168437258Y-97222500D02*
X167962742Y-97222500D01*
X168437258Y-96177500D02*
X167962742Y-96177500D01*
%TO.C,R43*%
X168562742Y-118902500D02*
X169037258Y-118902500D01*
X168562742Y-119947500D02*
X169037258Y-119947500D01*
%TO.C,-1*%
X148900000Y-124400000D02*
G75*
G03*
X148900000Y-124400000I-700000J0D01*
G01*
%TO.C,R28*%
X158762742Y-99522500D02*
X159237258Y-99522500D01*
X158762742Y-98477500D02*
X159237258Y-98477500D01*
%TO.C,R29*%
X156622500Y-104562742D02*
X156622500Y-105037258D01*
X155577500Y-104562742D02*
X155577500Y-105037258D01*
%TO.C,C10*%
X124459420Y-108910000D02*
X124740580Y-108910000D01*
X124459420Y-107890000D02*
X124740580Y-107890000D01*
%TO.C,C3*%
X123510000Y-86940580D02*
X123510000Y-86659420D01*
X122490000Y-86940580D02*
X122490000Y-86659420D01*
%TO.C,C4*%
X125635000Y-87361252D02*
X125635000Y-86838748D01*
X124165000Y-87361252D02*
X124165000Y-86838748D01*
%TO.C,TP4*%
X146300000Y-121800000D02*
G75*
G03*
X146300000Y-121800000I-700000J0D01*
G01*
%TO.C,R12*%
X129877500Y-106362742D02*
X129877500Y-106837258D01*
X130922500Y-106362742D02*
X130922500Y-106837258D01*
%TO.C,D5*%
X135400000Y-114550000D02*
X135400000Y-118450000D01*
X137400000Y-114550000D02*
X137400000Y-118450000D01*
X137400000Y-114550000D02*
X135400000Y-114550000D01*
%TO.C,R30*%
X139977500Y-104162742D02*
X139977500Y-104637258D01*
X141022500Y-104162742D02*
X141022500Y-104637258D01*
%TO.C,C37*%
X164110000Y-115365580D02*
X164110000Y-115084420D01*
X163090000Y-115365580D02*
X163090000Y-115084420D01*
%TO.C,U13*%
X114210000Y-113380000D02*
X114210000Y-113610000D01*
X114210000Y-118100000D02*
X114210000Y-117870000D01*
X114210000Y-113380000D02*
X116930000Y-113380000D01*
X116930000Y-113380000D02*
X116930000Y-114690000D01*
X116930000Y-116790000D02*
X116930000Y-118100000D01*
X113070000Y-113610000D02*
X114210000Y-113610000D01*
X116930000Y-118100000D02*
X114210000Y-118100000D01*
%TO.C,R17*%
X128277500Y-106352742D02*
X128277500Y-106827258D01*
X129322500Y-106352742D02*
X129322500Y-106827258D01*
%TO.C,R10*%
X136477500Y-94837258D02*
X136477500Y-94362742D01*
X137522500Y-94837258D02*
X137522500Y-94362742D01*
%TO.C,C7*%
X125710000Y-99259420D02*
X125710000Y-99540580D01*
X124690000Y-99259420D02*
X124690000Y-99540580D01*
%TO.C,D1*%
X112340974Y-92700000D02*
X112140974Y-92600000D01*
X112140974Y-92600000D02*
X112140974Y-93000000D01*
X112140974Y-93000000D02*
X112340974Y-92900000D01*
X112340974Y-92900000D02*
X112340974Y-92700000D01*
%TO.C,+1*%
X148900000Y-121825000D02*
G75*
G03*
X148900000Y-121825000I-700000J0D01*
G01*
%TO.C,R9*%
X131877500Y-107562742D02*
X131877500Y-108037258D01*
X132922500Y-107562742D02*
X132922500Y-108037258D01*
%TO.C,R31*%
X145477500Y-110437258D02*
X145477500Y-109962742D01*
X146522500Y-110437258D02*
X146522500Y-109962742D01*
%TO.C,C23*%
X148810000Y-92659420D02*
X148810000Y-92940580D01*
X147790000Y-92659420D02*
X147790000Y-92940580D01*
%TO.C,C41*%
X154859420Y-120735000D02*
X155140580Y-120735000D01*
X154859420Y-119715000D02*
X155140580Y-119715000D01*
%TD*%
M02*
