M48
; DRILL file {KiCad (6.0.0)} date Mon Mar 21 15:29:56 2022
; FORMAT={-:-/ absolute / inch / decimal}
; #@! TF.CreationDate,2022-03-21T15:29:56+00:00
; #@! TF.GenerationSoftware,Kicad,Pcbnew,(6.0.0)
; #@! TF.FileFunction,Plated,1,4,PTH
FMAT,2
INCH
; #@! TA.AperFunction,Plated,PTH,ComponentDrill
T1C0.0079
; #@! TA.AperFunction,Plated,PTH,ComponentDrill
T2C0.0118
; #@! TA.AperFunction,Plated,PTH,ViaDrill
T3C0.0157
; #@! TA.AperFunction,Plated,PTH,ComponentDrill
T4C0.0197
; #@! TA.AperFunction,Plated,PTH,ComponentDrill
T5C0.0236
; #@! TA.AperFunction,Plated,PTH,ComponentDrill
T6C0.0350
; #@! TA.AperFunction,Plated,PTH,ComponentDrill
T7C0.0791
; #@! TA.AperFunction,Plated,PTH,ComponentDrill
T8C0.1260
%
G90
G05
T1
X5.1112Y-4.6467
X5.1112Y-4.685
X5.1112Y-4.7234
X5.1496Y-4.6467
X5.1496Y-4.685
X5.1496Y-4.7234
X5.188Y-4.6467
X5.188Y-4.685
X5.188Y-4.7234
T2
X5.623Y-4.0945
X5.6703Y-4.063
X5.6703Y-4.126
X5.7175Y-4.0945
X5.7648Y-4.063
X5.7648Y-4.126
X5.812Y-4.0945
T3
X4.2717Y-3.6811
X4.2815Y-4.1535
X4.3071Y-3.8425
X4.3701Y-3.8425
X4.4016Y-4.6614
X4.4331Y-3.8425
X4.4331Y-4.6142
X4.4409Y-3.6378
X4.4646Y-4.6614
X4.5354Y-4.6614
X4.5433Y-4.3071
X4.547Y-3.9104
X4.5591Y-4.0157
X4.562Y-3.8425
X4.5669Y-4.0551
X4.5748Y-3.5039
X4.5748Y-3.8819
X4.5768Y-4.2185
X4.5906Y-3.9528
X4.5954Y-4.1525
X4.622Y-3.5039
X4.622Y-3.5906
X4.622Y-3.7254
X4.622Y-4.6063
X4.6457Y-3.8425
X4.6535Y-4.6457
X4.6614Y-3.9931
X4.685Y-4.6063
X4.6969Y-4.0684
X4.7057Y-3.9931
X4.7087Y-3.4252
X4.7323Y-3.4803
X4.7402Y-3.6142
X4.7443Y-3.9856
X4.7559Y-4.378
X4.7559Y-4.4173
X4.7717Y-4.1555
X4.7835Y-3.9813
X4.7953Y-4.6063
X4.8031Y-3.7638
X4.8061Y-3.9459
X4.812Y-3.4478
X4.8346Y-3.4961
X4.8386Y-4.7087
X4.8504Y-4.7874
X4.8622Y-3.6142
X4.872Y-3.4665
X4.873Y-3.3868
X4.8799Y-4.065
X4.8819Y-3.874
X4.8819Y-3.9331
X4.885Y-4.1607
X4.8976Y-4.7087
X4.9134Y-4.7874
X4.9213Y-4.5827
X4.9449Y-4.4646
X4.9596Y-3.3868
X4.9596Y-3.4577
X4.9596Y-3.8829
X4.9606Y-4.2677
X4.9843Y-3.7953
X4.9843Y-4.7126
X4.9921Y-3.6467
X4.9925Y-3.6937
X5.0Y-3.5827
X5.0241Y-4.0708
X5.0354Y-3.3937
X5.0394Y-3.8268
X5.0709Y-3.7018
X5.0748Y-3.4213
X5.0787Y-3.4803
X5.0945Y-3.5197
X5.0945Y-3.6614
X5.0945Y-3.9213
X5.1024Y-4.3228
X5.1109Y-4.8038
X5.122Y-4.8701
X5.126Y-3.5827
X5.1378Y-3.4213
X5.1417Y-3.8819
X5.1496Y-3.7953
X5.1654Y-4.0709
X5.1811Y-4.2756
X5.189Y-4.8268
X5.189Y-4.8819
X5.2126Y-4.1811
X5.2205Y-4.061
X5.251Y-4.5443
X5.2598Y-3.9055
X5.2677Y-4.6929
X5.2913Y-3.6703
X5.2992Y-4.1654
X5.2992Y-4.8976
X5.3224Y-4.1028
X5.3465Y-4.2126
X5.3543Y-4.1654
X5.3622Y-4.8976
X5.378Y-4.7008
X5.4006Y-4.3219
X5.4173Y-4.6614
X5.4409Y-3.5669
X5.4488Y-4.7008
X5.4567Y-3.378
X5.4567Y-3.4252
X5.4606Y-4.1496
X5.4724Y-4.2992
X5.4803Y-3.6929
X5.4803Y-4.4016
X5.4882Y-4.2362
X5.4922Y-3.5789
X5.4961Y-3.4183
X5.4961Y-3.8268
X5.5197Y-3.9055
X5.5201Y-3.6066
X5.5256Y-4.6083
X5.5276Y-3.5197
X5.5512Y-3.378
X5.5669Y-4.1811
X5.5748Y-3.622
X5.5984Y-4.5433
X5.6299Y-3.8661
X5.6457Y-4.5984
X5.6467Y-3.4193
X5.6614Y-4.8976
X5.6693Y-3.5364
X5.6693Y-3.8435
X5.7165Y-3.7047
X5.7165Y-3.8278
X5.7244Y-3.5827
X5.7274Y-4.2569
X5.7323Y-3.875
X5.7323Y-4.4016
X5.7323Y-4.937
X5.7402Y-4.5354
X5.7795Y-3.5167
X5.8091Y-3.624
X5.811Y-3.4331
X5.811Y-4.3091
X5.8189Y-3.378
X5.8189Y-3.7638
X5.8189Y-3.8868
X5.8346Y-4.7559
X5.8346Y-4.8583
X5.8425Y-3.4646
X5.8465Y-3.9331
X5.8661Y-4.1575
X5.874Y-4.2205
X5.874Y-4.4409
X5.877Y-4.4016
X5.8976Y-3.5669
X5.9055Y-4.1496
X5.9213Y-4.8976
X5.9291Y-3.4016
X5.9449Y-4.1417
X5.9449Y-4.8583
X5.9528Y-3.5197
X5.9704Y-4.8231
X5.9843Y-4.126
X5.9875Y-4.7638
X6.0098Y-4.7087
X6.0315Y-4.1024
X6.0364Y-4.5039
X6.0394Y-3.8189
X6.0394Y-3.8583
X6.0394Y-3.9291
X6.0394Y-4.4409
X6.0551Y-4.5433
X6.0608Y-4.0578
X6.0728Y-4.7165
X6.0728Y-4.8573
X6.1003Y-3.8207
X6.1024Y-4.3543
X6.126Y-4.1969
X6.1348Y-4.6998
X6.1417Y-4.3858
X6.1654Y-3.7717
X6.1693Y-3.9852
X6.1811Y-4.4016
X6.189Y-4.2136
X6.1909Y-4.7293
X6.1969Y-4.5679
X6.2283Y-3.8071
X6.2283Y-3.9291
X6.2402Y-4.5906
X6.2598Y-4.4724
X6.2756Y-4.4331
X6.2835Y-4.0433
X6.2913Y-4.9419
X6.2923Y-3.8071
X6.3071Y-3.5886
X6.3071Y-4.6142
X6.3189Y-3.7333
X6.3228Y-4.6614
X6.3228Y-4.7323
X6.3307Y-4.4331
X6.3543Y-3.7726
X6.3701Y-3.5886
X6.3878Y-3.7008
X6.3976Y-4.8346
X6.3996Y-4.6073
X6.4016Y-4.7165
X6.4252Y-4.3071
X6.4272Y-4.8031
X6.4409Y-3.7726
X6.4409Y-4.4656
X6.4567Y-4.6142
X6.4567Y-4.7244
X6.4803Y-4.7953
X6.4882Y-4.252
X6.4882Y-4.8346
X6.5039Y-3.7795
X6.5039Y-4.9291
X6.5276Y-3.7008
X6.5906Y-3.7411
X6.6147Y-4.6225
X6.6299Y-4.8583
X6.6535Y-3.7795
X6.8425Y-3.7244
X6.8898Y-3.685
T4
X4.2756Y-3.4646
X4.2756Y-4.8425
X4.3033Y-3.3978
X4.3033Y-3.5314
X4.3033Y-4.7757
X4.3033Y-4.9093
X4.3701Y-3.3701
X4.3701Y-3.5591
X4.3701Y-4.748
X4.3701Y-4.937
X4.4369Y-3.3978
X4.4369Y-3.5314
X4.4369Y-4.7757
X4.4369Y-4.9093
X4.4646Y-3.4646
X4.4646Y-4.8425
X6.7165Y-3.4646
X6.7165Y-4.8425
X6.7442Y-3.3978
X6.7442Y-3.5314
X6.7442Y-4.7757
X6.7442Y-4.9093
X6.811Y-3.3701
X6.811Y-3.5591
X6.811Y-4.748
X6.811Y-4.937
X6.8778Y-3.3978
X6.8778Y-3.5314
X6.8778Y-4.7757
X6.8778Y-4.9093
X6.9055Y-3.4646
X6.9055Y-4.8425
T6
X6.4567Y-4.0683
X6.4567Y-4.1683
T7
X6.6567Y-3.9683
X6.6567Y-4.3683
T8
X4.3701Y-3.4646
X4.3701Y-4.8425
X6.811Y-3.4646
X6.811Y-4.8425
T5
G00X4.323Y-3.9844
M15
G01X4.2994Y-3.9844
M16
G05
G00X4.323Y-4.3246
M15
G01X4.2994Y-4.3246
M16
G05
G00X4.4974Y-3.9844
M15
G01X4.4541Y-3.9844
M16
G05
G00X4.4974Y-4.3246
M15
G01X4.4541Y-4.3246
M16
G05
T0
M30
