%TF.GenerationSoftware,KiCad,Pcbnew,(6.0.0)*%
%TF.CreationDate,2022-03-21T15:30:00+00:00*%
%TF.ProjectId,uSMU_v10,75534d55-5f76-4313-902e-6b696361645f,rev?*%
%TF.SameCoordinates,Original*%
%TF.FileFunction,Soldermask,Bot*%
%TF.FilePolarity,Negative*%
%FSLAX46Y46*%
G04 Gerber Fmt 4.6, Leading zero omitted, Abs format (unit mm)*
G04 Created by KiCad (PCBNEW (6.0.0)) date 2022-03-21 15:30:00*
%MOMM*%
%LPD*%
G01*
G04 APERTURE LIST*
G04 Aperture macros list*
%AMRoundRect*
0 Rectangle with rounded corners*
0 $1 Rounding radius*
0 $2 $3 $4 $5 $6 $7 $8 $9 X,Y pos of 4 corners*
0 Add a 4 corners polygon primitive as box body*
4,1,4,$2,$3,$4,$5,$6,$7,$8,$9,$2,$3,0*
0 Add four circle primitives for the rounded corners*
1,1,$1+$1,$2,$3*
1,1,$1+$1,$4,$5*
1,1,$1+$1,$6,$7*
1,1,$1+$1,$8,$9*
0 Add four rect primitives between the rounded corners*
20,1,$1+$1,$2,$3,$4,$5,0*
20,1,$1+$1,$4,$5,$6,$7,0*
20,1,$1+$1,$6,$7,$8,$9,0*
20,1,$1+$1,$8,$9,$2,$3,0*%
%AMFreePoly0*
4,1,19,0.150000,0.259808,0.229813,0.192836,0.281908,0.102606,0.300000,0.000000,0.281908,-0.102606,0.229813,-0.192836,0.150000,-0.259808,0.052094,-0.295442,-0.052094,-0.295442,-0.150000,-0.259808,-0.229813,-0.192836,-0.281908,-0.102606,-0.300000,0.000000,-0.281908,0.102606,-0.229813,0.192836,-0.150000,0.259808,-0.052094,0.295442,0.052094,0.295442,0.150000,0.259808,0.150000,0.259808,
$1*%
%AMFreePoly1*
4,1,22,0.500000,-0.750000,0.000000,-0.750000,0.000000,-0.745033,-0.079941,-0.743568,-0.215256,-0.701293,-0.333266,-0.622738,-0.424486,-0.514219,-0.481581,-0.384460,-0.499164,-0.250000,-0.500000,-0.250000,-0.500000,0.250000,-0.499164,0.250000,-0.499963,0.256109,-0.478152,0.396186,-0.417904,0.524511,-0.324060,0.630769,-0.204165,0.706417,-0.067858,0.745374,0.000000,0.744959,0.000000,0.750000,
0.500000,0.750000,0.500000,-0.750000,0.500000,-0.750000,$1*%
%AMFreePoly2*
4,1,20,0.000000,0.744959,0.073905,0.744508,0.209726,0.703889,0.328688,0.626782,0.421226,0.519385,0.479903,0.390333,0.500000,0.250000,0.500000,-0.250000,0.499851,-0.262216,0.476331,-0.402017,0.414519,-0.529596,0.319384,-0.634700,0.198574,-0.708877,0.061801,-0.746166,0.000000,-0.745033,0.000000,-0.750000,-0.500000,-0.750000,-0.500000,0.750000,0.000000,0.750000,0.000000,0.744959,
0.000000,0.744959,$1*%
G04 Aperture macros list end*
%ADD10C,0.600000*%
%ADD11O,2.500000X1.600000*%
%ADD12O,7.000000X3.500000*%
%ADD13C,0.800000*%
%ADD14C,6.400000*%
%ADD15O,1.600000X1.000000*%
%ADD16FreePoly0,270.000000*%
%ADD17O,2.100000X1.000000*%
%ADD18FreePoly1,0.000000*%
%ADD19FreePoly2,0.000000*%
%ADD20FreePoly1,90.000000*%
%ADD21FreePoly2,90.000000*%
%ADD22RoundRect,0.250000X0.475000X-0.250000X0.475000X0.250000X-0.475000X0.250000X-0.475000X-0.250000X0*%
%ADD23FreePoly1,270.000000*%
%ADD24FreePoly2,270.000000*%
G04 APERTURE END LIST*
D10*
%TO.C,U10*%
X145225000Y-104000000D03*
X144025000Y-104800000D03*
X146425000Y-104800000D03*
X147625000Y-104000000D03*
X146425000Y-103200000D03*
X144025000Y-103200000D03*
X142825000Y-104000000D03*
%TD*%
D11*
%TO.C,J3*%
X164000000Y-105875000D03*
X164000000Y-103335000D03*
D12*
X169080000Y-100795000D03*
X169080000Y-110955000D03*
%TD*%
D13*
%TO.C,H4*%
X171302944Y-121302944D03*
X173000000Y-125400000D03*
X171302944Y-124697056D03*
X170600000Y-123000000D03*
X175400000Y-123000000D03*
X174697056Y-121302944D03*
X174697056Y-124697056D03*
D14*
X173000000Y-123000000D03*
D13*
X173000000Y-120600000D03*
%TD*%
%TO.C,H1*%
X109302944Y-86302944D03*
X113400000Y-88000000D03*
X111000000Y-90400000D03*
X111000000Y-85600000D03*
X112697056Y-86302944D03*
X108600000Y-88000000D03*
D14*
X111000000Y-88000000D03*
D13*
X109302944Y-89697056D03*
X112697056Y-89697056D03*
%TD*%
D15*
%TO.C,J2*%
X109505000Y-109845000D03*
D16*
X113155000Y-108415000D03*
X113155000Y-102635000D03*
D15*
X109505000Y-101205000D03*
D17*
X113685000Y-109845000D03*
X113685000Y-101205000D03*
%TD*%
D13*
%TO.C,H2*%
X174697056Y-86302944D03*
X173000000Y-90400000D03*
D14*
X173000000Y-88000000D03*
D13*
X174697056Y-89697056D03*
X170600000Y-88000000D03*
X171302944Y-86302944D03*
X171302944Y-89697056D03*
X175400000Y-88000000D03*
X173000000Y-85600000D03*
%TD*%
%TO.C,H3*%
X112697056Y-121302944D03*
X111000000Y-125400000D03*
X109302944Y-121302944D03*
X113400000Y-123000000D03*
X111000000Y-120600000D03*
D14*
X111000000Y-123000000D03*
D13*
X109302944Y-124697056D03*
X112697056Y-124697056D03*
X108600000Y-123000000D03*
%TD*%
D18*
%TO.C,JP4*%
X160750000Y-117000000D03*
D19*
X162050000Y-117000000D03*
%TD*%
D20*
%TO.C,JP2*%
X161600000Y-111400000D03*
D21*
X161600000Y-110100000D03*
%TD*%
D22*
%TO.C,C45*%
X166600000Y-105750000D03*
X166600000Y-103850000D03*
%TD*%
D23*
%TO.C,JP3*%
X164200000Y-110100000D03*
D24*
X164200000Y-111400000D03*
%TD*%
M02*
