%TF.GenerationSoftware,KiCad,Pcbnew,(6.0.0)*%
%TF.CreationDate,2022-03-21T15:30:00+00:00*%
%TF.ProjectId,uSMU_v10,75534d55-5f76-4313-902e-6b696361645f,rev?*%
%TF.SameCoordinates,Original*%
%TF.FileFunction,Paste,Top*%
%TF.FilePolarity,Positive*%
%FSLAX46Y46*%
G04 Gerber Fmt 4.6, Leading zero omitted, Abs format (unit mm)*
G04 Created by KiCad (PCBNEW (6.0.0)) date 2022-03-21 15:30:00*
%MOMM*%
%LPD*%
G01*
G04 APERTURE LIST*
G04 Aperture macros list*
%AMRoundRect*
0 Rectangle with rounded corners*
0 $1 Rounding radius*
0 $2 $3 $4 $5 $6 $7 $8 $9 X,Y pos of 4 corners*
0 Add a 4 corners polygon primitive as box body*
4,1,4,$2,$3,$4,$5,$6,$7,$8,$9,$2,$3,0*
0 Add four circle primitives for the rounded corners*
1,1,$1+$1,$2,$3*
1,1,$1+$1,$4,$5*
1,1,$1+$1,$6,$7*
1,1,$1+$1,$8,$9*
0 Add four rect primitives between the rounded corners*
20,1,$1+$1,$2,$3,$4,$5,0*
20,1,$1+$1,$4,$5,$6,$7,0*
20,1,$1+$1,$6,$7,$8,$9,0*
20,1,$1+$1,$8,$9,$2,$3,0*%
%AMFreePoly0*
4,1,57,0.194009,0.449029,0.214144,0.449029,0.231583,0.438961,0.251037,0.433748,0.265277,0.419508,0.282717,0.409439,0.409439,0.282717,0.419508,0.265277,0.433748,0.251037,0.438960,0.231585,0.449030,0.214144,0.449030,0.194005,0.454242,0.174554,0.454242,-0.174554,0.449030,-0.194005,0.449030,-0.214144,0.438960,-0.231585,0.433748,-0.251037,0.419508,-0.265277,0.409439,-0.282717,
0.282717,-0.409439,0.265277,-0.419508,0.251037,-0.433748,0.231583,-0.438961,0.214144,-0.449029,0.194009,-0.449029,0.174554,-0.454242,-0.174554,-0.454242,-0.194005,-0.449030,-0.214144,-0.449030,-0.231585,-0.438960,-0.251037,-0.433748,-0.265277,-0.419508,-0.282717,-0.409439,-0.409439,-0.282717,-0.419508,-0.265277,-0.433748,-0.251037,-0.438961,-0.231583,-0.449029,-0.214144,-0.449029,-0.194009,
-0.454242,-0.174554,-0.454242,0.174554,-0.449029,0.194009,-0.449029,0.214144,-0.438961,0.231583,-0.433748,0.251037,-0.419508,0.265277,-0.409439,0.282717,-0.282717,0.409439,-0.265277,0.419508,-0.251037,0.433748,-0.231585,0.438960,-0.214144,0.449030,-0.194005,0.449030,-0.174554,0.454242,0.174554,0.454242,0.194009,0.449029,0.194009,0.449029,$1*%
%AMFreePoly1*
4,1,9,3.862500,-0.866500,0.737500,-0.866500,0.737500,-0.450000,-0.737500,-0.450000,-0.737500,0.450000,0.737500,0.450000,0.737500,0.866500,3.862500,0.866500,3.862500,-0.866500,3.862500,-0.866500,$1*%
G04 Aperture macros list end*
%ADD10RoundRect,0.225000X0.225000X0.250000X-0.225000X0.250000X-0.225000X-0.250000X0.225000X-0.250000X0*%
%ADD11RoundRect,0.200000X-0.200000X-0.275000X0.200000X-0.275000X0.200000X0.275000X-0.200000X0.275000X0*%
%ADD12RoundRect,0.225000X-0.225000X-0.250000X0.225000X-0.250000X0.225000X0.250000X-0.225000X0.250000X0*%
%ADD13RoundRect,0.200000X-0.275000X0.200000X-0.275000X-0.200000X0.275000X-0.200000X0.275000X0.200000X0*%
%ADD14RoundRect,0.250000X-0.475000X0.250000X-0.475000X-0.250000X0.475000X-0.250000X0.475000X0.250000X0*%
%ADD15RoundRect,0.150000X0.512500X0.150000X-0.512500X0.150000X-0.512500X-0.150000X0.512500X-0.150000X0*%
%ADD16RoundRect,0.150000X-0.512500X-0.150000X0.512500X-0.150000X0.512500X0.150000X-0.512500X0.150000X0*%
%ADD17RoundRect,0.225000X0.250000X-0.225000X0.250000X0.225000X-0.250000X0.225000X-0.250000X-0.225000X0*%
%ADD18RoundRect,0.250000X0.475000X-0.250000X0.475000X0.250000X-0.475000X0.250000X-0.475000X-0.250000X0*%
%ADD19RoundRect,0.250000X-0.315000X0.315000X-0.315000X-0.315000X0.315000X-0.315000X0.315000X0.315000X0*%
%ADD20RoundRect,0.062500X-0.062500X0.375000X-0.062500X-0.375000X0.062500X-0.375000X0.062500X0.375000X0*%
%ADD21RoundRect,0.062500X-0.375000X0.062500X-0.375000X-0.062500X0.375000X-0.062500X0.375000X0.062500X0*%
%ADD22RoundRect,0.200000X0.200000X0.275000X-0.200000X0.275000X-0.200000X-0.275000X0.200000X-0.275000X0*%
%ADD23RoundRect,0.200000X0.275000X-0.200000X0.275000X0.200000X-0.275000X0.200000X-0.275000X-0.200000X0*%
%ADD24RoundRect,0.225000X-0.250000X0.225000X-0.250000X-0.225000X0.250000X-0.225000X0.250000X0.225000X0*%
%ADD25R,0.450000X1.050000*%
%ADD26R,6.000000X2.700000*%
%ADD27RoundRect,0.250000X-0.250000X-0.475000X0.250000X-0.475000X0.250000X0.475000X-0.250000X0.475000X0*%
%ADD28RoundRect,0.150000X-0.150000X0.587500X-0.150000X-0.587500X0.150000X-0.587500X0.150000X0.587500X0*%
%ADD29R,2.700000X0.800000*%
%ADD30R,1.100000X0.250000*%
%ADD31R,0.600000X0.700000*%
%ADD32R,0.900000X1.200000*%
%ADD33RoundRect,0.150000X0.150000X-0.512500X0.150000X0.512500X-0.150000X0.512500X-0.150000X-0.512500X0*%
%ADD34FreePoly0,90.000000*%
%ADD35RoundRect,0.062500X0.062500X-0.325000X0.062500X0.325000X-0.062500X0.325000X-0.062500X-0.325000X0*%
%ADD36RoundRect,0.062500X0.325000X-0.062500X0.325000X0.062500X-0.325000X0.062500X-0.325000X-0.062500X0*%
%ADD37R,2.400000X0.740000*%
%ADD38RoundRect,0.250000X0.250000X0.475000X-0.250000X0.475000X-0.250000X-0.475000X0.250000X-0.475000X0*%
%ADD39R,0.450000X1.450000*%
%ADD40RoundRect,0.100000X0.100000X-0.637500X0.100000X0.637500X-0.100000X0.637500X-0.100000X-0.637500X0*%
%ADD41R,1.450000X0.600000*%
%ADD42R,1.450000X0.300000*%
%ADD43R,1.200000X0.900000*%
%ADD44R,1.300000X0.900000*%
%ADD45FreePoly1,0.000000*%
G04 APERTURE END LIST*
D10*
%TO.C,C14*%
X127175000Y-114200000D03*
X125625000Y-114200000D03*
%TD*%
D11*
%TO.C,R2*%
X145175000Y-85800000D03*
X146825000Y-85800000D03*
%TD*%
D12*
%TO.C,C18*%
X142225000Y-99250000D03*
X143775000Y-99250000D03*
%TD*%
D13*
%TO.C,R8*%
X135400000Y-93775000D03*
X135400000Y-95425000D03*
%TD*%
D14*
%TO.C,C6*%
X127000000Y-98650000D03*
X127000000Y-100550000D03*
%TD*%
D15*
%TO.C,U2*%
X136737500Y-99950000D03*
X136737500Y-99000000D03*
X136737500Y-98050000D03*
X134462500Y-98050000D03*
X134462500Y-99950000D03*
%TD*%
D16*
%TO.C,U9*%
X144262500Y-92050000D03*
X144262500Y-93000000D03*
X144262500Y-93950000D03*
X146537500Y-93950000D03*
X146537500Y-92050000D03*
%TD*%
D17*
%TO.C,C33*%
X118800000Y-115400000D03*
X118800000Y-113850000D03*
%TD*%
D11*
%TO.C,R42*%
X154175000Y-118625000D03*
X155825000Y-118625000D03*
%TD*%
D18*
%TO.C,C32*%
X121800000Y-119550000D03*
X121800000Y-117650000D03*
%TD*%
D19*
%TO.C,U3*%
X121300000Y-91400000D03*
X124100000Y-94200000D03*
X124100000Y-95600000D03*
X121300000Y-92800000D03*
X119900000Y-91400000D03*
X121300000Y-95600000D03*
X122700000Y-91400000D03*
X124100000Y-92800000D03*
X122700000Y-95600000D03*
X119900000Y-92800000D03*
X121300000Y-94200000D03*
X119900000Y-94200000D03*
X124100000Y-91400000D03*
X119900000Y-95600000D03*
X122700000Y-94200000D03*
X122700000Y-92800000D03*
D20*
X124750000Y-90062500D03*
X124250000Y-90062500D03*
X123750000Y-90062500D03*
X123250000Y-90062500D03*
X122750000Y-90062500D03*
X122250000Y-90062500D03*
X121750000Y-90062500D03*
X121250000Y-90062500D03*
X120750000Y-90062500D03*
X120250000Y-90062500D03*
X119750000Y-90062500D03*
X119250000Y-90062500D03*
D21*
X118562500Y-90750000D03*
X118562500Y-91250000D03*
X118562500Y-91750000D03*
X118562500Y-92250000D03*
X118562500Y-92750000D03*
X118562500Y-93250000D03*
X118562500Y-93750000D03*
X118562500Y-94250000D03*
X118562500Y-94750000D03*
X118562500Y-95250000D03*
X118562500Y-95750000D03*
X118562500Y-96250000D03*
D20*
X119250000Y-96937500D03*
X119750000Y-96937500D03*
X120250000Y-96937500D03*
X120750000Y-96937500D03*
X121250000Y-96937500D03*
X121750000Y-96937500D03*
X122250000Y-96937500D03*
X122750000Y-96937500D03*
X123250000Y-96937500D03*
X123750000Y-96937500D03*
X124250000Y-96937500D03*
X124750000Y-96937500D03*
D21*
X125437500Y-96250000D03*
X125437500Y-95750000D03*
X125437500Y-95250000D03*
X125437500Y-94750000D03*
X125437500Y-94250000D03*
X125437500Y-93750000D03*
X125437500Y-93250000D03*
X125437500Y-92750000D03*
X125437500Y-92250000D03*
X125437500Y-91750000D03*
X125437500Y-91250000D03*
X125437500Y-90750000D03*
%TD*%
D22*
%TO.C,R37*%
X134225000Y-122600000D03*
X132575000Y-122600000D03*
%TD*%
D23*
%TO.C,R18*%
X154600000Y-105625000D03*
X154600000Y-103975000D03*
%TD*%
D22*
%TO.C,R40*%
X162025000Y-114600000D03*
X160375000Y-114600000D03*
%TD*%
D24*
%TO.C,C19*%
X158000000Y-108200000D03*
X158000000Y-109750000D03*
%TD*%
D13*
%TO.C,R19*%
X144400000Y-109375000D03*
X144400000Y-111025000D03*
%TD*%
D23*
%TO.C,R5*%
X111000000Y-96625000D03*
X111000000Y-94975000D03*
%TD*%
%TO.C,R7*%
X112600000Y-96625000D03*
X112600000Y-94975000D03*
%TD*%
D16*
%TO.C,U8*%
X134862500Y-107050000D03*
X134862500Y-108000000D03*
X134862500Y-108950000D03*
X137137500Y-108950000D03*
X137137500Y-108000000D03*
X137137500Y-107050000D03*
%TD*%
%TO.C,U7*%
X134662500Y-103250000D03*
X134662500Y-104200000D03*
X134662500Y-105150000D03*
X136937500Y-105150000D03*
X136937500Y-103250000D03*
%TD*%
D13*
%TO.C,R20*%
X157600000Y-103975000D03*
X157600000Y-105625000D03*
%TD*%
D16*
%TO.C,U5*%
X117862500Y-104550000D03*
X117862500Y-105500000D03*
X117862500Y-106450000D03*
X120137500Y-106450000D03*
X120137500Y-105500000D03*
X120137500Y-104550000D03*
%TD*%
D25*
%TO.C,U10*%
X142300000Y-106750000D03*
X142950000Y-106750000D03*
X143600000Y-106750000D03*
X144250000Y-106750000D03*
X144900000Y-106750000D03*
X145550000Y-106750000D03*
X146200000Y-106750000D03*
X146850000Y-106750000D03*
X147500000Y-106750000D03*
X148150000Y-106750000D03*
X148150000Y-101250000D03*
X147500000Y-101250000D03*
X146850000Y-101250000D03*
X146200000Y-101250000D03*
X145550000Y-101250000D03*
X144900000Y-101250000D03*
X144250000Y-101250000D03*
X143600000Y-101250000D03*
X142950000Y-101250000D03*
X142300000Y-101250000D03*
D26*
X145225000Y-104000000D03*
%TD*%
D17*
%TO.C,C9*%
X132400000Y-105375000D03*
X132400000Y-103825000D03*
%TD*%
D12*
%TO.C,C11*%
X135625000Y-110600000D03*
X137175000Y-110600000D03*
%TD*%
D10*
%TO.C,C38*%
X159775000Y-122100000D03*
X158225000Y-122100000D03*
%TD*%
D24*
%TO.C,C42*%
X171800000Y-114675000D03*
X171800000Y-116225000D03*
%TD*%
%TO.C,C44*%
X168400000Y-121225000D03*
X168400000Y-122775000D03*
%TD*%
D13*
%TO.C,R21*%
X142400000Y-93675000D03*
X142400000Y-95325000D03*
%TD*%
D23*
%TO.C,R4*%
X109400000Y-96625000D03*
X109400000Y-94975000D03*
%TD*%
D18*
%TO.C,C27*%
X129200000Y-125150000D03*
X129200000Y-123250000D03*
%TD*%
D10*
%TO.C,C35*%
X159575000Y-118400000D03*
X158025000Y-118400000D03*
%TD*%
D24*
%TO.C,C31*%
X134200000Y-113825000D03*
X134200000Y-115375000D03*
%TD*%
D27*
%TO.C,C12*%
X117000000Y-109450000D03*
X118900000Y-109450000D03*
%TD*%
D28*
%TO.C,Q1*%
X138150000Y-123662500D03*
X136250000Y-123662500D03*
X137200000Y-125537500D03*
%TD*%
D11*
%TO.C,R3*%
X141200000Y-88625000D03*
X142850000Y-88625000D03*
%TD*%
D10*
%TO.C,C36*%
X155775000Y-121825000D03*
X154225000Y-121825000D03*
%TD*%
D17*
%TO.C,C13*%
X130600000Y-100775000D03*
X130600000Y-99225000D03*
%TD*%
D10*
%TO.C,C20*%
X142800000Y-90225000D03*
X141250000Y-90225000D03*
%TD*%
D23*
%TO.C,R36*%
X125100000Y-119625000D03*
X125100000Y-117975000D03*
%TD*%
%TO.C,R15*%
X133900000Y-95425000D03*
X133900000Y-93775000D03*
%TD*%
%TO.C,R22*%
X140800000Y-95325000D03*
X140800000Y-93675000D03*
%TD*%
D29*
%TO.C,L2*%
X139600000Y-114100000D03*
X139600000Y-116300000D03*
%TD*%
D11*
%TO.C,R6*%
X113175000Y-111800000D03*
X114825000Y-111800000D03*
%TD*%
D17*
%TO.C,C2*%
X126700000Y-87825000D03*
X126700000Y-86275000D03*
%TD*%
D12*
%TO.C,C15*%
X124325000Y-102400000D03*
X125875000Y-102400000D03*
%TD*%
D11*
%TO.C,R23*%
X158175000Y-96000000D03*
X159825000Y-96000000D03*
%TD*%
D30*
%TO.C,U1*%
X145350000Y-87600000D03*
X145350000Y-88100000D03*
X145350000Y-88600000D03*
X145350000Y-89100000D03*
X145350000Y-89600000D03*
X149650000Y-89600000D03*
X149650000Y-89100000D03*
X149650000Y-88600000D03*
X149650000Y-88100000D03*
X149650000Y-87600000D03*
%TD*%
D23*
%TO.C,R24*%
X147800000Y-97650000D03*
X147800000Y-96000000D03*
%TD*%
D31*
%TO.C,D2*%
X155700000Y-102500000D03*
X154300000Y-102500000D03*
X155700000Y-101500000D03*
X154300000Y-101500000D03*
%TD*%
D22*
%TO.C,R11*%
X131825000Y-94000000D03*
X130175000Y-94000000D03*
%TD*%
D17*
%TO.C,C24*%
X111800000Y-117175000D03*
X111800000Y-115625000D03*
%TD*%
D11*
%TO.C,R25*%
X157975000Y-102000000D03*
X159625000Y-102000000D03*
%TD*%
D13*
%TO.C,R34*%
X131000000Y-113775000D03*
X131000000Y-115425000D03*
%TD*%
D10*
%TO.C,C40*%
X155775000Y-123425000D03*
X154225000Y-123425000D03*
%TD*%
D16*
%TO.C,U4*%
X128262500Y-102450000D03*
X128262500Y-103400000D03*
X128262500Y-104350000D03*
X130537500Y-104350000D03*
X130537500Y-102450000D03*
%TD*%
D13*
%TO.C,R35*%
X126600000Y-117975000D03*
X126600000Y-119625000D03*
%TD*%
D10*
%TO.C,C25*%
X127175000Y-116400000D03*
X125625000Y-116400000D03*
%TD*%
D32*
%TO.C,D6*%
X123950000Y-121600000D03*
X127250000Y-121600000D03*
%TD*%
D22*
%TO.C,R1*%
X143425000Y-85825000D03*
X141775000Y-85825000D03*
%TD*%
D17*
%TO.C,C8*%
X132600000Y-98575000D03*
X132600000Y-97025000D03*
%TD*%
D33*
%TO.C,U6*%
X123950000Y-106537500D03*
X124900000Y-106537500D03*
X125850000Y-106537500D03*
X125850000Y-104262500D03*
X123950000Y-104262500D03*
%TD*%
D34*
%TO.C,U12*%
X130312500Y-118512500D03*
X131287500Y-118512500D03*
X131287500Y-119487500D03*
X130312500Y-119487500D03*
D35*
X129550000Y-120987500D03*
X130050000Y-120987500D03*
X130550000Y-120987500D03*
X131050000Y-120987500D03*
X131550000Y-120987500D03*
X132050000Y-120987500D03*
D36*
X132787500Y-120250000D03*
X132787500Y-119750000D03*
X132787500Y-119250000D03*
X132787500Y-118750000D03*
X132787500Y-118250000D03*
X132787500Y-117750000D03*
D35*
X132050000Y-117012500D03*
X131550000Y-117012500D03*
X131050000Y-117012500D03*
X130550000Y-117012500D03*
X130050000Y-117012500D03*
X129550000Y-117012500D03*
D36*
X128812500Y-117750000D03*
X128812500Y-118250000D03*
X128812500Y-118750000D03*
X128812500Y-119250000D03*
X128812500Y-119750000D03*
X128812500Y-120250000D03*
%TD*%
D37*
%TO.C,J1*%
X132650000Y-85860000D03*
X136550000Y-85860000D03*
X132650000Y-87130000D03*
X136550000Y-87130000D03*
X132650000Y-88400000D03*
X136550000Y-88400000D03*
X132650000Y-89670000D03*
X136550000Y-89670000D03*
X132650000Y-90940000D03*
X136550000Y-90940000D03*
%TD*%
D17*
%TO.C,C34*%
X123600000Y-119575000D03*
X123600000Y-118025000D03*
%TD*%
D24*
%TO.C,C17*%
X138700000Y-103225000D03*
X138700000Y-104775000D03*
%TD*%
D12*
%TO.C,C43*%
X170225000Y-117825000D03*
X171775000Y-117825000D03*
%TD*%
D38*
%TO.C,C39*%
X159750000Y-123900000D03*
X157850000Y-123900000D03*
%TD*%
D10*
%TO.C,C5*%
X150175000Y-85800000D03*
X148625000Y-85800000D03*
%TD*%
D13*
%TO.C,R33*%
X132600000Y-113775000D03*
X132600000Y-115425000D03*
%TD*%
D17*
%TO.C,C29*%
X129400000Y-115375000D03*
X129400000Y-113825000D03*
%TD*%
D38*
%TO.C,C30*%
X134550000Y-124400000D03*
X132650000Y-124400000D03*
%TD*%
D22*
%TO.C,R26*%
X165225000Y-96700000D03*
X163575000Y-96700000D03*
%TD*%
D23*
%TO.C,R13*%
X138600000Y-95425000D03*
X138600000Y-93775000D03*
%TD*%
D39*
%TO.C,U11*%
X156375000Y-108425000D03*
X155725000Y-108425000D03*
X155075000Y-108425000D03*
X154425000Y-108425000D03*
X154425000Y-112825000D03*
X155075000Y-112825000D03*
X155725000Y-112825000D03*
X156375000Y-112825000D03*
%TD*%
D11*
%TO.C,R38*%
X154175000Y-125025000D03*
X155825000Y-125025000D03*
%TD*%
D13*
%TO.C,R27*%
X142800000Y-109375000D03*
X142800000Y-111025000D03*
%TD*%
%TO.C,R44*%
X170200000Y-114625000D03*
X170200000Y-116275000D03*
%TD*%
D11*
%TO.C,R39*%
X154975000Y-116000000D03*
X156625000Y-116000000D03*
%TD*%
D40*
%TO.C,U14*%
X161325000Y-124087500D03*
X161975000Y-124087500D03*
X162625000Y-124087500D03*
X163275000Y-124087500D03*
X163925000Y-124087500D03*
X164575000Y-124087500D03*
X165225000Y-124087500D03*
X165875000Y-124087500D03*
X165875000Y-118362500D03*
X165225000Y-118362500D03*
X164575000Y-118362500D03*
X163925000Y-118362500D03*
X163275000Y-118362500D03*
X162625000Y-118362500D03*
X161975000Y-118362500D03*
X161325000Y-118362500D03*
%TD*%
D24*
%TO.C,C21*%
X140200000Y-109625000D03*
X140200000Y-111175000D03*
%TD*%
%TO.C,C22*%
X148000000Y-110025000D03*
X148000000Y-111575000D03*
%TD*%
D22*
%TO.C,R14*%
X134225000Y-112200000D03*
X132575000Y-112200000D03*
%TD*%
D24*
%TO.C,C28*%
X131000000Y-122625000D03*
X131000000Y-124175000D03*
%TD*%
D22*
%TO.C,R41*%
X162025000Y-116200000D03*
X160375000Y-116200000D03*
%TD*%
D24*
%TO.C,C16*%
X117600000Y-98850000D03*
X117600000Y-100400000D03*
%TD*%
D31*
%TO.C,D3*%
X155700000Y-96300000D03*
X154300000Y-96300000D03*
X155700000Y-95300000D03*
X154300000Y-95300000D03*
%TD*%
D29*
%TO.C,L1*%
X126200000Y-125700000D03*
X126200000Y-123500000D03*
%TD*%
D11*
%TO.C,R16*%
X117675000Y-102500000D03*
X119325000Y-102500000D03*
%TD*%
D31*
%TO.C,D4*%
X155700000Y-99500000D03*
X154300000Y-99500000D03*
X155700000Y-98500000D03*
X154300000Y-98500000D03*
%TD*%
D27*
%TO.C,C26*%
X138450000Y-118200000D03*
X140350000Y-118200000D03*
%TD*%
D17*
%TO.C,C1*%
X121400000Y-87575000D03*
X121400000Y-86025000D03*
%TD*%
D22*
%TO.C,R32*%
X169025000Y-96700000D03*
X167375000Y-96700000D03*
%TD*%
D11*
%TO.C,R43*%
X167975000Y-119425000D03*
X169625000Y-119425000D03*
%TD*%
D41*
%TO.C,J2*%
X114600000Y-102275000D03*
X114600000Y-103075000D03*
D42*
X114600000Y-104275000D03*
X114600000Y-105275000D03*
X114600000Y-105775000D03*
X114600000Y-106775000D03*
D41*
X114600000Y-107975000D03*
X114600000Y-108775000D03*
D42*
X114600000Y-107275000D03*
X114600000Y-106275000D03*
X114600000Y-104775000D03*
X114600000Y-103775000D03*
%TD*%
D11*
%TO.C,R28*%
X158175000Y-99000000D03*
X159825000Y-99000000D03*
%TD*%
D13*
%TO.C,R29*%
X156100000Y-103975000D03*
X156100000Y-105625000D03*
%TD*%
D12*
%TO.C,C10*%
X123825000Y-108400000D03*
X125375000Y-108400000D03*
%TD*%
D17*
%TO.C,C3*%
X123000000Y-87575000D03*
X123000000Y-86025000D03*
%TD*%
D18*
%TO.C,C4*%
X124900000Y-88050000D03*
X124900000Y-86150000D03*
%TD*%
D13*
%TO.C,R12*%
X130400000Y-105775000D03*
X130400000Y-107425000D03*
%TD*%
D43*
%TO.C,D5*%
X136400000Y-115150000D03*
X136400000Y-118450000D03*
%TD*%
D13*
%TO.C,R30*%
X140500000Y-103575000D03*
X140500000Y-105225000D03*
%TD*%
D17*
%TO.C,C37*%
X163600000Y-116000000D03*
X163600000Y-114450000D03*
%TD*%
D44*
%TO.C,U13*%
X113620000Y-114240000D03*
D45*
X113707500Y-115740000D03*
D44*
X113620000Y-117240000D03*
%TD*%
D13*
%TO.C,R17*%
X128800000Y-105765000D03*
X128800000Y-107415000D03*
%TD*%
D23*
%TO.C,R10*%
X137000000Y-95425000D03*
X137000000Y-93775000D03*
%TD*%
D24*
%TO.C,C7*%
X125200000Y-98625000D03*
X125200000Y-100175000D03*
%TD*%
D31*
%TO.C,D1*%
X110300000Y-92300000D03*
X111700000Y-92300000D03*
X110300000Y-93300000D03*
X111700000Y-93300000D03*
%TD*%
D13*
%TO.C,R9*%
X132400000Y-106975000D03*
X132400000Y-108625000D03*
%TD*%
D23*
%TO.C,R31*%
X146000000Y-111025000D03*
X146000000Y-109375000D03*
%TD*%
D24*
%TO.C,C23*%
X148300000Y-92025000D03*
X148300000Y-93575000D03*
%TD*%
D12*
%TO.C,C41*%
X154225000Y-120225000D03*
X155775000Y-120225000D03*
%TD*%
M02*
